<svg xmlns="http://www.w3.org/2000/svg" viewBox="0 0 76.53 76.53"><g id="Layer_2" data-name="Layer 2"><path d="M65.51,30.26H41.26V15.86a2.61,2.61,0,0,0-2.6-2.6h-2.8a2.61,2.61,0,0,0-2.6,2.6v14.4H9A2.75,2.75,0,0,0,6.26,33v3.5A2.75,2.75,0,0,0,9,39.26h.57L16.74,62a6.41,6.41,0,0,0,6,4.26h29a6.41,6.41,0,0,0,6-4.26l7.16-22.74h.57a2.75,2.75,0,0,0,2.75-2.75V33A2.75,2.75,0,0,0,65.51,30.26ZM26.81,58a2.28,2.28,0,0,1-4.55,0V44.53a2.27,2.27,0,0,1,3.88-1.6,2.21,2.21,0,0,1,.67,1.6Zm8.81,0a2.27,2.27,0,1,1-4.54,0V44.53a2.28,2.28,0,0,1,2.18-2.27h.09a2.28,2.28,0,0,1,1.61.67,2.24,2.24,0,0,1,.66,1.6Zm8.82,0a2.27,2.27,0,1,1-4.54,0V44.53a2.27,2.27,0,0,1,1.36-2.08,2.32,2.32,0,0,1,.91-.19,2.29,2.29,0,0,1,2.27,2.27Zm8.82,0a2.28,2.28,0,0,1-4.55,0V44.53A2.28,2.28,0,0,1,51,42.26a2.29,2.29,0,0,1,2.27,2.27Z"/></g></svg>