<svg xmlns="http://www.w3.org/2000/svg" width="60" height="60" viewBox="0 0 60 60">
  <path id="Path_3" data-name="Path 3" d="M30,5.333c8,0,9,0,12,.333a15.461,15.461,0,0,1,5.667,1,11.707,11.707,0,0,1,5.667,5.667,15.46,15.46,0,0,1,1,5.667c0,3,.333,4,.333,12s0,9-.333,12a15.461,15.461,0,0,1-1,5.667,11.707,11.707,0,0,1-5.667,5.667,15.46,15.46,0,0,1-5.667,1c-3,0-4,.333-12,.333s-9,0-12-.333a15.461,15.461,0,0,1-5.667-1,11.707,11.707,0,0,1-5.667-5.667,15.461,15.461,0,0,1-1-5.667c0-3-.333-4-.333-12s0-9,.333-12a15.461,15.461,0,0,1,1-5.667A11.972,11.972,0,0,1,9,9a5.636,5.636,0,0,1,3.333-2.333,15.461,15.461,0,0,1,5.667-1c3-.333,4-.333,12-.333M30,0c-8,0-9.333,0-12.333.333a20.579,20.579,0,0,0-7.333,1.333A13.049,13.049,0,0,0,5,5a13.049,13.049,0,0,0-3.333,5.333c-1,2-1.333,4-1.333,7.333C0,20.667,0,22,0,30s0,9.333.333,12.333a20.579,20.579,0,0,0,1.333,7.333A13.049,13.049,0,0,0,5,55a13.049,13.049,0,0,0,5.333,3.333,20.579,20.579,0,0,0,7.333,1.333C20.667,60,22,60,30,60s9.333,0,12.333-.333a20.579,20.579,0,0,0,7.333-1.333,13.985,13.985,0,0,0,8.667-8.667,20.579,20.579,0,0,0,1.333-7.333C59.667,39,60,38,60,30s0-9.333-.333-12.333a20.579,20.579,0,0,0-1.333-7.333A13.049,13.049,0,0,0,55,5a13.049,13.049,0,0,0-5.333-3.333A20.579,20.579,0,0,0,42.333.333C39.333,0,38,0,30,0m0,14.667A15.086,15.086,0,0,0,14.667,30,15.333,15.333,0,1,0,30,14.667M30,40A9.822,9.822,0,0,1,20,30,9.822,9.822,0,0,1,30,20,9.822,9.822,0,0,1,40,30,9.822,9.822,0,0,1,30,40M46,10.333A3.667,3.667,0,1,0,49.667,14,3.7,3.7,0,0,0,46,10.333" fill="#fff" fill-rule="evenodd"/>
</svg>
