<?xml version="1.0" encoding="utf-8"?>
<!-- Generator: Adobe Illustrator 25.0.1, SVG Export Plug-In . SVG Version: 6.00 Build 0)  -->
<svg version="1.1" id="Layer_1" xmlns="http://www.w3.org/2000/svg" xmlns:xlink="http://www.w3.org/1999/xlink" x="0px" y="0px"
	 viewBox="0 0 175.95 35.78" style="enable-background:new 0 0 175.95 35.78;" xml:space="preserve">
<style type="text/css">
	.st0{fill:#2C9458;}
	.st1{fill:#2D9458;}
</style>
<g>
	<path class="st0" d="M20.43,29.31c-3.32,2.39-6.62,2.71-10,2.65C4.46,31.86-0.64,26.13,0.07,20.22c0.28-2.34,0.79-4.66,1.38-6.94
		C3.5,5.24,14.52-0.69,22.45,1.89c0.35,0.12,0.74,0.17,1.07,0.33c1.6,0.78,2.74,1.96,2.14,3.82c-0.57,1.74-2.24,1.49-3.5,1.1
		c-3.99-1.26-7.6-0.29-11.13,1.52c-4.36,2.23-7.34,10.54-5.37,15.02c1.37,3.12,5.95,4.36,9.76,2.62c0.67-0.31,1.38-0.68,1.87-1.21
		c0.94-1.02,3.27-1.32,2.59-3.14c-0.56-1.51-2.55-1.19-4.01-1.33c-0.74-0.07-1.5-0.04-2.23-0.16c-1.5-0.25-2.05-1.33-1.99-2.7
		c0.06-1.5,0.95-2.24,2.45-2.15c1.6,0.1,3.22,0.16,4.81,0.4c5.77,0.86,6.59,1.92,6.44,7.71c-0.07,2.86,0.01,5.72,0.03,8.58
		c0.01,1.61,0.37,3.4-2.14,3.49c-2.65,0.1-2.54-1.75-2.59-3.54C20.62,31.5,20.53,30.75,20.43,29.31z"/>
	<path class="st1" d="M138.84,19.36c0.52-5.08-0.6-9.56-0.66-14.09c-0.03-1.97-0.71-4.4,2.16-4.67c2.64-0.25,2.61,2.13,2.81,3.96
		c0.77,7.05,1.41,14.12,0.79,21.21c-0.15,1.65,0.03,3.79-2.06,4.41c-2.17,0.65-2.89-1.29-3.88-2.72
		c-3.66-5.3-7.38-10.55-11.31-16.15c-0.96,2.75-1.13,5.26-1.14,7.77c-0.01,2.65-0.68,5.16-1.41,7.67c-0.44,1.5-1.32,2.45-2.94,2.23
		c-1.84-0.25-1.94-1.67-1.78-3.12c0.78-6.91,1.61-13.82,2.38-20.74c0.16-1.44,0.99-2.15,2.26-2.63c1.57-0.59,2.33,0.45,3.08,1.43
		C130.95,8.92,134.73,13.93,138.84,19.36z"/>
	<path class="st0" d="M57.1,28.34c-1.54-2.4-2.95-4.9-4.56-7.26c-1.07-1.56-1.21-2.51,0.51-3.9c4.61-3.73,4.25-9.13-0.36-12.97
		c-3.13-2.6-6.76-1.88-10.29-2.36c-3.51-0.48-4.91,0.74-4.89,4.05c0.03,5.86-1.38,11.64-1.28,17.52c0,2.61-0.01,5.23,0,7.85
		c0.01,1.7,0.58,2.93,2.55,2.95c1.89,0.02,2.18-1.24,2.25-2.75c0.14-2.73,0.33-5.47,0.52-8.2c0.09-1.33-0.06-2.64,1.96-2.95
		c1.72-0.26,2.7-0.02,3.66,1.53c1.89,3.07,4,6.01,6.1,8.94c0.75,1.06,1.48,2.56,3.24,1.38C58.08,31.12,58.07,29.84,57.1,28.34z
		 M48.91,13.86c-0.85,0.46-1.83,0.69-2.75,1.03c-2.72,1.03-4.77,1.16-3.44-3.69c0.44-0.89-1.36-3.61,1.47-4.57
		c2.05-0.69,3.9,0.31,5.43,1.62C51.85,10.16,51.54,12.46,48.91,13.86z"/>
	<path class="st1" d="M65.8,18.01c-0.09-3.1,0.03-7.7,0.64-12.28c0.32-2.37,1.34-3.91,3.84-4.26c3.08-0.44,6.14-0.93,9.21-1.41
		c1.98-0.31,3.11,0.53,3.38,2.51c0.29,2.13-1.1,2.43-2.75,2.57c-2.11,0.19-4.2,0.48-6.3,0.79c-1.31,0.2-2.09,0.78-2.38,2.34
		c-0.91,4.86-0.76,5,4.22,4.97c2.24-0.01,5.9-1.39,6.06,2.27c0.18,4-3.75,2.36-6.01,2.9c-1.53,0.36-4.05-0.81-4.46,0.71
		c-0.69,2.55-0.38,5.42-0.21,8.13c0.07,1.07,1.38,0.83,2.2,0.84c3.11,0.04,6.23,0.05,9.34-0.02c1.88-0.04,3.24,0.5,3.32,2.59
		c0.08,2.03-1.53,2.55-3.02,2.57c-4.73,0.05-9.45-0.07-14.18-0.19c-1.92-0.05-2.93-1.07-2.91-3.07
		C65.82,26.49,65.8,23.01,65.8,18.01z"/>
	<path class="st1" d="M93.47,19.83c-0.01-4.61,0.01-9.21,0.6-13.8c0.35-2.72,1.53-4.31,4.31-4.68c2.96-0.38,5.9-0.87,8.85-1.31
		c2-0.29,3.09,0.61,3.32,2.58c0.26,2.17-1.21,2.37-2.82,2.51c-1.98,0.18-3.96,0.45-5.93,0.74c-1.42,0.21-2.39,0.67-2.7,2.45
		c-0.85,4.87-0.78,4.94,4.3,4.91c2.24-0.01,5.84-1.37,6.02,2.34c0.18,3.77-3.54,2.33-5.72,2.84c-1.64,0.39-4.24-0.91-4.8,0.78
		c-0.78,2.37-0.41,5.17-0.3,7.77c0.06,1.4,1.44,1.12,2.36,1.14c2.99,0.05,5.98,0.06,8.96-0.01c1.76-0.04,3.34,0.14,3.61,2.27
		c0.29,2.25-1.4,2.87-3.06,2.89c-4.72,0.06-9.45-0.09-14.18-0.21c-1.97-0.05-2.87-1.16-2.86-3.12C93.5,26.56,93.47,23.2,93.47,19.83
		z"/>
	<path class="st1" d="M159.94,23.95c0.71-3.68-0.62-7.08-3.88-10.01c-1.81-1.63-3.05-3.9-4.54-5.89c-0.96-1.28-0.49-2.36,0.59-3.24
		c1.16-0.96,2.32-0.8,3.26,0.34c1.67,2.01,3.37,3.99,4.9,6.09c1.42,1.94,2.55,1.61,4.17,0.14c2.52-2.3,3.97-5.42,6.38-7.75
		c1.04-1.01,1.83-3.01,3.84-1.21c1.62,1.45,1.69,3.04,0.35,4.57c-2.29,2.62-4.49,5.39-7.14,7.59c-3,2.49-3.53,5.41-3.1,8.94
		c0.29,2.34,0.27,4.71,0.44,7.06c0.1,1.42-0.28,2.49-1.81,2.76c-1.68,0.3-2.5-0.66-2.99-2.13
		C159.69,29.02,160.11,26.77,159.94,23.95z"/>
</g>
</svg>
