<svg xmlns="http://www.w3.org/2000/svg" width="274.154" height="217.479" viewBox="0 0 274.154 217.479">
  <g id="Group_31" data-name="Group 31" transform="translate(-9.998 399.715)">
    <path id="Path_74" data-name="Path 74" d="M254.837-394.018c-11.03,3.1-32.915,9.134-48.539,13.5-15.624,4.308-43.828,12.121-62.613,17.347C58.445-339.563,26.45-330.717,20.246-329.053c-3.735,1.035-5.343,1.782-7.008,3.388a9.292,9.292,0,0,0-2.873,9.651c1.32,5,1.55,5.17,36.532,19.932,27.113,11.489,32.4,13.5,33.606,13.1.8-.288,12.063-6.434,24.987-13.671,170.6-94.951,159.631-88.861,158.252-87.426-.459.459-6.549,5.514-13.5,11.145s-28.892,23.552-48.827,39.808c-19.876,16.256-46.586,38.026-59.337,48.421s-23.093,18.956-22.976,19.07c.747.632,107.531,45.378,109.255,45.78,4.423.976,10.4-2.011,12.695-6.375.4-.8,7.237-26.71,15.221-57.5,7.928-30.789,17.576-68.012,21.37-82.659,4.538-17.576,6.72-27.113,6.49-28.089a9.285,9.285,0,0,0-2.3-3.391c-1.609-1.609-2.3-1.9-4.367-1.838C276.09-399.705,265.924-397.12,254.837-394.018Z" transform="translate(0 0)" fill="#2c9558"/>
    <path id="Path_75" data-name="Path 75" d="M188.514,29.163c.115.288,9.363,21.252,20.564,46.586,15.568,35.212,20.852,46.527,22.229,47.962a9.59,9.59,0,0,0,13.5.288c3.158-2.988,42.393-53.132,41.934-53.594-.688-.632-40.381-17.232-40.669-17-.115.173-2.241,12.465-4.652,27.342-2.47,14.936-4.6,27.113-4.767,27.113s-7.122-15.968-15.45-35.5c-8.272-19.473-15.394-35.729-15.738-36.132C204.54,35.309,188.281,28.531,188.514,29.163Z" transform="translate(-128.575 -308.871)" fill="#2c9558"/>
  </g>
</svg>
