<?xml version="1.0" encoding="utf-8"?>
<!-- Generator: Adobe Illustrator 25.0.0, SVG Export Plug-In . SVG Version: 6.00 Build 0)  -->
<svg version="1.1" id="Layer_1" xmlns="http://www.w3.org/2000/svg" xmlns:xlink="http://www.w3.org/1999/xlink" x="0px" y="0px"
	 viewBox="0 0 63.16 68.39" style="enable-background:new 0 0 63.16 68.39;" xml:space="preserve">
<style type="text/css">
	.st0{fill:#DA1D4A;}
	.st1{fill:#FFFFFF;}
	.st2{fill:#FCBD19;}
	.st3{fill:none;}
	.st4{fill:#2A9558;}
</style>
<g id="Layer_1_1_">
	<g>
		<g id="XMLID_3_">
			<g>
				<path d="M27.51,13.18h-1.69c-0.01,0.14-0.02,0.29-0.02,0.44v1.14c0,0.01,0,0.01,0,0.02v0.05h1.7v-0.05c0-0.01,0-0.01,0-0.02
					v-1.12c0-0.16,0.01-0.31,0.03-0.46C27.52,13.18,27.52,13.18,27.51,13.18z M19.25,13.18v1.65h1.7v-1.65H19.25z M44.63,47.68
					v-0.52h-1.69v1.68h1.73v-1.16H44.63z M44.63,54.19v-1.66c0-0.01,0-0.02,0-0.02h-1.69v4.97H8.68v-0.57
					c0-11.71,0-23.42-0.01-35.13c0-0.42,0.13-0.63,0.49-0.84c1.3-0.8,1.49-2.6,0.52-3.66c-0.06-0.08-0.14-0.15-0.22-0.21
					C9.38,17,9.29,16.94,9.2,16.88c-0.09-0.06-0.17-0.12-0.24-0.18c-0.08-0.06-0.13-0.13-0.17-0.19c-0.04-0.07-0.08-0.15-0.1-0.23
					c-0.03-0.11-0.04-0.24-0.02-0.39c0.04-0.34,0.01-0.68,0.01-1.06h7.19c0.21-0.52,0.23-1.11,0.05-1.65h-2.99
					c-1.6,0-3.2,0.03-4.79-0.01c-0.56-0.01-0.94,0.17-1.18,0.67v3.59c0.21,0.41,0.49,0.65,0.99,0.69c0.42,0.03,0.67,0.34,0.67,0.78
					s-0.25,0.74-0.67,0.78c-0.48,0.04-0.78,0.27-0.99,0.68v38.79h37.16c0.42-0.31,0.52-0.72,0.52-1.23
					C44.63,56.68,44.63,55.44,44.63,54.19z M44.23,40.67c-0.13,0-0.26-0.01-0.39-0.01c-0.15,0-0.3,0.01-0.45,0.01
					c-0.15,0-0.3-0.01-0.45-0.01v1.65h1.69c0,0,0,0,0-0.01v-1.63c0,0,0,0,0-0.01C44.5,40.66,44.36,40.67,44.23,40.67z"/>
				<path class="st0" d="M25.8,14.83v4.88h1.68c0.01,0,0.01,0,0.02,0v-4.88H25.8z M20.95,15.56c0.01-0.24,0-0.48,0-0.73h-1.7v4.88
					h1.7c0.01-1.37,0.01-2.74,0-4.12c0.01-0.01,0.01-0.01,0.01-0.01C20.96,15.57,20.96,15.56,20.95,15.56z M38.07,47.16v1.25
					c0,0.14-0.01,0.29-0.02,0.43h4.89v-1.68H38.07z M34.82,52.51c0.09-0.02,0.18-0.04,0.27-0.07c-0.11,0.02-0.21,0.05-0.32,0.07
					c-0.03,0.01-0.07,0.02-0.11,0.02c-0.29,0.05-0.59,0.08-0.9,0.08c-5.32,0.01-10.63,0.01-15.95,0c-0.31,0-0.61-0.03-0.89-0.08
					c-0.03,0-0.06-0.01-0.09-0.02c-0.13-0.02-0.25-0.05-0.37-0.08c0.11,0.04,0.22,0.06,0.33,0.08h-2.36V51.1
					c-0.2-0.24-0.36-0.51-0.49-0.79c-0.02-0.06-0.05-0.12-0.07-0.17c-0.05-0.13-0.1-0.25-0.13-0.38c-0.09-0.27-0.15-0.55-0.17-0.84
					c-0.02-0.15-0.03-0.31-0.03-0.47c-0.04-3.5-0.02-6.98-0.01-10.46c0-0.62,0.37-1.03,0.82-1.03l0.02-1.6v-0.02
					c-0.14,0-0.26-0.02-0.36-0.07c-0.05-0.02-0.09-0.04-0.13-0.08c-0.05-0.03-0.09-0.08-0.12-0.13c-0.04-0.04-0.07-0.1-0.09-0.15
					c-0.01-0.01-0.01-0.02-0.02-0.03c-0.05-0.11-0.09-0.25-0.1-0.41c-0.01-0.09-0.02-0.19-0.02-0.29c-0.01-3.41-0.01-6.82,0-10.24
					c0-1.05,0.32-1.97,0.89-2.69v-4.41c0-0.16,0.02-0.29,0.06-0.4c0.01-0.04,0.03-0.07,0.05-0.11c0,0,0,0,0-0.01
					c0.08-0.13,0.21-0.23,0.38-0.33c0.18-0.11,0.33-0.24,0.46-0.38c0.14-0.13,0.25-0.28,0.34-0.44c0.06-0.11,0.11-0.23,0.16-0.34
					H13.3c-0.25,0.1-0.44,0.3-0.58,0.58v38.78h30.22v-1.68H34.82z M42.55,40.67c-0.13,0-0.25-0.01-0.38-0.01h-4.09v0.02
					c0.01,0.1,0.01,0.2,0,0.29c0.01,0.41,0.01,0.82,0,1.22c0.01,0.04,0.01,0.08,0,0.11c0,0.01,0,0.01,0,0.01h4.08c0,0,0,0,0.01,0
					h0.77v-1.65C42.81,40.66,42.68,40.67,42.55,40.67z"/>
				<path d="M15.08,34.88c-0.03,0.06-0.05,0.14-0.08,0.18c-0.04,0.05-0.08,0.1-0.12,0.13c-0.12,0.11-0.26,0.16-0.45,0.17h-0.06
					c-0.14,0-0.26-0.03-0.36-0.09c-0.05-0.02-0.09-0.04-0.13-0.08c-0.05-0.04-0.09-0.08-0.12-0.13c-0.04-0.04-0.07-0.1-0.09-0.15
					c-0.01-0.01-0.01-0.02-0.02-0.03c-0.04-0.12-0.08-0.26-0.1-0.41c-0.01-0.09-0.01-0.18-0.01-0.27c-0.01-3.41-0.01-6.82,0-10.24
					c0-1.04,0.32-1.96,0.88-2.67c0.01,4.68,0.01,9.36,0.01,14.05c0.17-0.01,0.31-0.06,0.44-0.17c0.04-0.04,0.09-0.08,0.12-0.13
					C15.02,34.99,15.05,34.94,15.08,34.88z"/>
				<path d="M15.2,34.47c-0.01,0.08-0.02,0.16-0.04,0.23c-0.02,0.07-0.05,0.11-0.08,0.17c0.03-0.06,0.05-0.12,0.07-0.19
					C15.17,34.62,15.18,34.55,15.2,34.47z"/>
				<path d="M20.98,19.73v1.61c0,0.01,0,0.01,0,0.02c0,0,0,0-0.01,0c0,0,0,0-0.01,0h-1.71v-1.63h1.7c0.01,0,0.01,0,0.02,0H20.98z"/>
				<path d="M27.5,19.73v1.61c0,0.01,0,0.01,0,0.02c0,0-0.01,0-0.02,0h-1.67c0,0,0,0-0.01,0c0,0,0-0.01,0-0.02v-1.61h1.68
					C27.49,19.73,27.49,19.73,27.5,19.73z"/>
				<path d="M14.43,36.98V51.1c-0.2-0.24-0.36-0.51-0.49-0.79c-0.02-0.06-0.05-0.12-0.07-0.17c-0.05-0.13-0.1-0.25-0.13-0.38
					c-0.08-0.26-0.14-0.55-0.17-0.84c-0.01-0.15-0.02-0.3-0.02-0.46c-0.04-3.49-0.02-6.97-0.01-10.46c0-0.62,0.36-1.03,0.82-1.03
					C14.38,36.97,14.41,36.97,14.43,36.98z"/>
				<path d="M35.09,52.44c-0.09,0.03-0.18,0.05-0.27,0.07c-0.03,0.01-0.06,0.01-0.09,0.02c-0.31,0.06-0.63,0.09-0.96,0.09
					c-5.32,0.01-10.63,0.01-15.95,0c-0.33,0-0.64-0.03-0.94-0.09c-0.03,0-0.06-0.01-0.09-0.02c-0.11-0.02-0.22-0.04-0.33-0.08
					c0.12,0.03,0.24,0.06,0.37,0.08h17.94C34.88,52.49,34.98,52.46,35.09,52.44z"/>
				<path d="M38.07,47.16v1.25c0,0.14-0.01,0.29-0.02,0.43h-1.67c0.02-0.14,0.03-0.3,0.03-0.46v-1.22H38.07z"/>
				<path d="M38.08,40.66v0.02c0.01,0.1,0.01,0.2,0,0.29c0.01,0.41,0.01,0.82,0,1.22c0.01,0.04,0.01,0.08,0,0.11
					c0,0.01,0,0.01,0,0.01h-1.67v-1.65H38.08z"/>
				<path class="st1" d="M36.4,40.66v1.65h-6.3c-0.23,0-0.46-0.01-0.68-0.05c-0.22-0.03-0.43-0.08-0.63-0.13
					c-0.14-0.04-0.27-0.08-0.4-0.13c-0.19-0.08-0.37-0.16-0.55-0.26c-0.18-0.1-0.34-0.22-0.5-0.34c-0.1-0.08-0.2-0.17-0.3-0.26
					c-0.1-0.09-0.19-0.19-0.27-0.29c-0.15-0.17-0.28-0.36-0.39-0.57c-0.05-0.06-0.08-0.13-0.12-0.21c-0.1-0.2-0.18-0.41-0.25-0.63
					c-0.04-0.16-0.08-0.32-0.11-0.49c-0.05-0.25-0.07-0.52-0.08-0.79v-0.03c-0.04-3.48-0.01-6.96-0.01-10.46
					c0-0.3,0.09-0.55,0.24-0.73c0.04-0.05,0.08-0.09,0.12-0.12c0.13-0.12,0.28-0.18,0.45-0.18l0.03-1.6c-0.26,0-0.47-0.09-0.6-0.27
					c-0.04-0.05-0.09-0.12-0.12-0.19c-0.05-0.12-0.09-0.27-0.11-0.43c-0.01-0.09-0.02-0.19-0.02-0.29v-2.5c0,0,0-0.01,0-0.02
					c0.01,0,0.01,0,0.01,0h1.67c0.01,0,0.02,0,0.02,0c0,0.01,0,0.01,0,0.02v2.52c0,0.75-0.3,1.16-0.84,1.16l-0.03,1.6
					c0.06,0,0.13,0.01,0.19,0.04c0.06,0.02,0.13,0.04,0.19,0.07c0.22,0.11,0.34,0.26,0.4,0.44c0.02,0.05,0.03,0.09,0.04,0.14
					c0.04,0.15,0.05,0.32,0.05,0.49v7.08c0,1.09-0.01,2.19,0.01,3.27c0,0.28,0.04,0.54,0.11,0.79c0.03,0.08,0.05,0.16,0.08,0.23
					c0.06,0.15,0.14,0.29,0.22,0.42c0.09,0.13,0.19,0.25,0.3,0.36c0.02,0.02,0.05,0.05,0.08,0.08c0.03,0.02,0.07,0.05,0.1,0.08
					l0.01,0.01c0.06,0.04,0.11,0.08,0.17,0.12v0.01h0.01c0.03,0.02,0.06,0.04,0.1,0.05c0.03,0.02,0.07,0.04,0.11,0.06v0.01h0.01
					c0.1,0.05,0.2,0.1,0.32,0.13c0.08,0.03,0.16,0.05,0.24,0.06c0.04,0.01,0.08,0.02,0.12,0.03c0.07,0.02,0.13,0.03,0.2,0.03
					c0.04,0.01,0.09,0.01,0.13,0.01c0.08,0,0.16,0.01,0.24,0.01H36.4z"/>
				<path class="st1" d="M15.08,34.88c-0.03,0.06-0.05,0.14-0.08,0.18c-0.04,0.05-0.08,0.1-0.12,0.13
					c-0.12,0.11-0.26,0.16-0.45,0.17v1.61c-0.03-0.01-0.06-0.01-0.08-0.01l0.02-1.6v-0.02h0.06c0.17-0.01,0.31-0.06,0.44-0.17
					c0.04-0.04,0.09-0.08,0.12-0.13C15.02,34.99,15.05,34.94,15.08,34.88z"/>
				<path class="st1" d="M15.2,34.47c-0.01,0.08-0.02,0.16-0.04,0.23c-0.02,0.07-0.05,0.11-0.08,0.17c0.03-0.06,0.05-0.12,0.07-0.19
					C15.17,34.62,15.18,34.55,15.2,34.47z"/>
				<path class="st1" d="M36.4,47.16v1.21c0,0.16-0.01,0.32-0.04,0.47H19.25v-27.5h1.71c0.01,0,0.01,0,0.01,0c0.01,0,0.01,0,0.01,0
					c0,0.01,0,0.01,0,0.02c-0.01,2.52,0,5.04,0,7.56v0.33c0,0.08-0.01,0.16-0.02,0.23v3.36c0.01,0.05,0.01,0.11,0.01,0.17
					c0.01,0.05,0.01,0.11,0.01,0.17c-0.01,2.36,0,4.73,0,7.08c0,1.09-0.02,2.18,0,3.27c0,0.08,0,0.16,0.01,0.24
					c-0.01-0.09-0.02-0.17-0.02-0.26c-0.01-0.36-0.01-0.73-0.01-1.09v4.45L21.13,47c-0.06-0.04-0.11-0.08-0.17-0.12v0.28H36.4z"/>
			</g>
		</g>
	</g>
	<g>
		<g id="XMLID_2_">
			<g>
				<path d="M47.78,9.71c-0.53-0.21-1.12-0.31-1.76-0.32c-5.33,0-10.67-0.01-16,0c-0.75,0-1.45,0.17-2.04,0.48h20.18
					C48.03,9.81,47.91,9.76,47.78,9.71z M50.36,15.49c0-0.01,0-0.01,0-0.02c-0.09-0.4-0.31-0.68-0.8-0.72
					c-0.47-0.05-0.79-0.28-0.8-0.8c-0.01-0.52,0.3-0.74,0.76-0.83c0.41-0.08,0.64-0.2,0.75-0.44c-0.22-1.05-0.77-1.9-1.57-2.47
					c0.01,0.42,0.01,0.82-0.02,1.21c0,0.06-0.04,0.13-0.1,0.19c-0.05,0.06-0.12,0.11-0.18,0.15c-0.09,0.05-0.17,0.11-0.25,0.18
					c0.18,0.23,0.31,0.49,0.39,0.78c0.04,0.14,0.08,0.3,0.1,0.46c0.02,0.17,0.03,0.34,0.03,0.52v2.85c0,0.01,0.01,0.01,0.01,0.02
					v0.01c0,0.01,0.01,0.01,0.01,0.02c0.04,0.1,0.01,0.21,0.01,0.32v24.57c0.16-0.11,0.3-0.23,0.44-0.36
					c0.76-0.73,1.22-1.79,1.22-3.03C50.38,30.56,50.39,23.03,50.36,15.49z M50.38,48.84v-1.67c0,0,0,0,0-0.01H48.7v5.35H14.43V36.98
					c0-0.01,0-0.01,0-0.01v-1.61c0-0.01,0-0.02,0-0.02c0-4.69,0-9.37-0.01-14.05v-4.45c0-0.16,0.02-0.29,0.06-0.4
					c0.01-0.04,0.02-0.08,0.05-0.11c0,0,0,0,0-0.01c0.08-0.14,0.2-0.24,0.38-0.35c0.17-0.11,0.32-0.23,0.46-0.36
					s0.25-0.28,0.34-0.44c0.06-0.11,0.11-0.23,0.16-0.34c0.21-0.52,0.23-1.11,0.05-1.65c-0.01-0.04-0.02-0.07-0.03-0.11
					c-0.07-0.18-0.16-0.35-0.27-0.51c-0.06-0.08-0.12-0.15-0.19-0.23c-0.13-0.15-0.29-0.29-0.48-0.41
					c-0.28-0.17-0.44-0.35-0.51-0.59c-0.03-0.11-0.04-0.24-0.02-0.38c0.04-0.33,0.01-0.68,0.01-1.06c0-0.01,0-0.01,0-0.02h7.77
					c0.04-0.05,0.07-0.1,0.09-0.15c0.25-0.46,0.34-0.99,0.26-1.5h-1.58V8.21h-1.68v0.02h-0.6c-1.6,0-3.2,0.02-4.79-0.02
					c-0.56-0.01-0.94,0.17-1.18,0.67v3.6c0.21,0.4,0.49,0.64,0.99,0.68c0.05,0,0.1,0.01,0.15,0.02c0.33,0.09,0.51,0.38,0.52,0.76
					c0,0.45-0.25,0.74-0.67,0.78c-0.16,0.01-0.29,0.05-0.41,0.11c-0.25,0.1-0.44,0.3-0.58,0.58v38.78h37.15
					c0.42-0.31,0.52-0.72,0.52-1.23C50.38,51.59,50.38,50.22,50.38,48.84z"/>
				<path class="st2" d="M48.69,16.6c0-0.01-0.01-0.01-0.01-0.02v-0.01c0-0.01-0.01-0.01-0.01-0.02c0.01,3.1,0.01,6.2,0.01,9.3
					c0,4.06,0,8.13-0.01,12.2v0.17c0.01,0.06,0,0.11-0.01,0.16c-0.01,0-0.01,0,0,0.01c-0.02,0.21-0.06,0.41-0.12,0.59
					c-0.03,0.09-0.06,0.18-0.1,0.27c0,0,0,0,0,0.01c-0.04,0.08-0.08,0.17-0.13,0.25c-0.04,0.07-0.09,0.15-0.15,0.22
					c0,0.01,0,0.01,0,0.01c-0.06,0.07-0.12,0.14-0.18,0.2s-0.13,0.12-0.2,0.17c-0.22,0.17-0.48,0.31-0.76,0.41
					c-0.29,0.09-0.61,0.14-0.96,0.14h-1.43c-0.13,0-0.27,0.01-0.4,0.01s-0.26-0.01-0.39-0.01v0.01c0,0.54-0.01,1.09-0.01,1.63v0.01
					h2.22c0.19,0,0.39-0.01,0.57-0.04c0.56-0.06,1.08-0.21,1.54-0.44c0.19-0.09,0.37-0.2,0.54-0.33V16.92
					C48.7,16.81,48.73,16.7,48.69,16.6z M14.43,36.97c0,0,0,0,0,0.01c0.04,0,0.07,0,0.11,0.01C14.5,36.98,14.46,36.97,14.43,36.97z
					 M14.99,35.04c-0.03,0.05-0.08,0.09-0.12,0.13c-0.13,0.11-0.27,0.16-0.44,0.17c0,0,0,0.01,0,0.02c0.19-0.01,0.33-0.06,0.45-0.17
					c0.04-0.03,0.08-0.08,0.12-0.13c0.03-0.04,0.05-0.12,0.08-0.18C15.05,34.94,15.02,34.99,14.99,35.04z M15.15,34.68
					c-0.02,0.07-0.04,0.13-0.07,0.19c0.03-0.06,0.06-0.1,0.08-0.17c0.02-0.07,0.03-0.15,0.04-0.23
					C15.18,34.55,15.17,34.62,15.15,34.68z M14.95,11.92c-0.28-0.17-0.44-0.35-0.51-0.59c0.05,0.25,0.22,0.43,0.51,0.61
					c0.18,0.11,0.34,0.24,0.48,0.39C15.3,12.18,15.14,12.04,14.95,11.92z M41.7,47.16c0,0-0.01,0-0.02,0.01
					c-0.62,0.32-1.35,0.5-2.15,0.5H23.58c-0.78,0-1.49-0.17-2.09-0.47c-0.02-0.01-0.03-0.02-0.04-0.03h-0.01
					c-0.01,0-0.01-0.01-0.01-0.01h-0.47v-0.29c-0.16-0.11-0.31-0.23-0.44-0.36c-0.19-0.18-0.36-0.38-0.51-0.6
					c-0.15-0.22-0.27-0.46-0.38-0.71c-0.21-0.51-0.33-1.08-0.33-1.7c-0.04-3.49-0.02-6.98-0.01-10.46c0-0.16,0.02-0.3,0.07-0.42
					c0.04-0.12,0.1-0.23,0.18-0.32c0.03-0.06,0.07-0.1,0.12-0.12c0.12-0.11,0.27-0.17,0.44-0.17v-0.02l0.03-1.58v-0.02
					c-0.2,0-0.36-0.05-0.49-0.15c-0.05-0.04-0.09-0.08-0.12-0.13c-0.04-0.05-0.07-0.1-0.09-0.16c-0.01-0.01-0.01-0.02-0.02-0.03
					c-0.08-0.18-0.12-0.42-0.12-0.7c-0.01-2.62-0.01-5.24,0-7.86c0,0-0.01-0.01,0-0.02c-0.01-0.53-0.01-1.07,0-1.61
					c0,0,0-0.01,0-0.02v-0.72c0-1.46,0.63-2.69,1.66-3.43c0.01-0.24,0-0.48,0-0.73v-3.35c0-0.32,0.07-0.51,0.26-0.68
					c0.03-0.03,0.07-0.06,0.1-0.09c0.04-0.03,0.09-0.05,0.13-0.08c0.19-0.12,0.36-0.26,0.49-0.41c0.11-0.1,0.19-0.21,0.26-0.33
					h-2.84c-0.04,0.05-0.07,0.1-0.1,0.16v38.79H48.7v-1.68H41.7z M34.82,52.51c0.09-0.02,0.18-0.04,0.27-0.07
					c-0.11,0.02-0.21,0.05-0.32,0.07H16.83c-0.13-0.02-0.25-0.05-0.37-0.08c0.11,0.04,0.22,0.06,0.33,0.08h-2.36v0.02H48.7v-0.02
					H34.82z M27.94,9.89c-1.19,0.63-1.99,1.82-2.12,3.29c-0.01,0.14-0.02,0.29-0.02,0.44v1.14c0.01,0,0.01,0,0.01,0h1.67
					c0.01,0,0.02,0,0.02,0v-1.12c0-0.16,0.01-0.31,0.03-0.46c0.19-1.32,1.15-2.14,2.6-2.14h5.24c3.57,0,7.14,0,10.71,0.01
					c0.2,0,0.4,0,0.59,0.04c0.25,0.05,0.47,0.12,0.67,0.21c0.2,0.09,0.38,0.2,0.53,0.34c0.1,0.1,0.2,0.2,0.28,0.3
					c0.08-0.06,0.16-0.12,0.25-0.17c0.06-0.03,0.13-0.09,0.18-0.16c0.06-0.06,0.1-0.13,0.1-0.19c0.03-0.39,0.03-0.79,0.02-1.21V9.89
					H27.94z"/>
				<path d="M20.98,19.71c0,0.01,0,0.01,0,0.02v1.61c0,0.01,0,0.01,0,0.02c-0.01,2.52,0,5.04,0,7.56v0.33
					c0,0.08-0.01,0.16-0.02,0.23v0.04c-0.07,0.58-0.36,0.89-0.82,0.89h-0.01c-0.2,0-0.36-0.06-0.49-0.17
					c-0.05-0.04-0.09-0.08-0.12-0.13c-0.04-0.05-0.07-0.1-0.09-0.16c-0.01-0.01-0.01-0.02-0.02-0.03c-0.07-0.18-0.11-0.41-0.11-0.68
					c-0.01-2.63-0.01-5.25,0-7.88c0,0,0-0.01,0-0.02v-1.61c0,0,0-0.01,0-0.02v-0.7c0-1.46,0.63-2.68,1.65-3.42
					c0.01,1.38,0.01,2.75,0,4.12c0.01,0,0.01,0,0.02,0H20.98z"/>
				<path d="M27.5,14.78v1.63c0,0-0.01,0-0.02,0H25.8v-1.63h1.68C27.49,14.78,27.49,14.78,27.5,14.78z"/>
				<path d="M20.99,43.77c-0.01-0.09-0.02-0.17-0.02-0.26c-0.01-0.36-0.01-0.73-0.01-1.09v4.45c-0.16-0.11-0.31-0.23-0.44-0.36
					c-0.19-0.18-0.36-0.38-0.51-0.6c-0.15-0.22-0.27-0.46-0.38-0.71c-0.2-0.51-0.31-1.08-0.32-1.7c-0.04-3.48-0.02-6.97-0.01-10.46
					c0-0.15,0.02-0.29,0.06-0.42c0.04-0.12,0.1-0.23,0.18-0.32c0.03-0.05,0.07-0.09,0.12-0.12c0.12-0.11,0.27-0.17,0.44-0.17h0.01
					c0.12,0,0.25,0.04,0.38,0.1c0.05,0.03,0.1,0.06,0.15,0.09c0.05,0.03,0.1,0.08,0.13,0.13c0.08,0.1,0.13,0.22,0.16,0.36
					c0.02,0.04,0.03,0.08,0.03,0.12v0.03c0.01,0.05,0.01,0.11,0.01,0.17c0.01,0.05,0.01,0.11,0.01,0.17c-0.01,2.36,0,4.73,0,7.08
					c0,1.09-0.02,2.18,0,3.27C20.98,43.61,20.98,43.69,20.99,43.77z"/>
				<path d="M41.7,47.16c0,0-0.01,0-0.02,0.01c-0.62,0.32-1.35,0.5-2.15,0.5H23.58c-0.78,0-1.49-0.17-2.09-0.47
					c-0.02-0.01-0.03-0.02-0.04-0.03h-0.01c-0.01,0-0.01-0.01-0.01-0.01H41.7z"/>
				<path d="M43.84,40.66v0.01c0,0.54-0.01,1.09-0.01,1.63v0.01h-1.66v-1.65c0.13,0,0.25,0.01,0.38,0.01s0.26-0.01,0.39-0.01
					c0.15,0,0.3,0.01,0.45,0.01C43.54,40.67,43.69,40.66,43.84,40.66z"/>
				<path class="st1" d="M20.96,29.48v3.36c-0.01-0.05-0.02-0.1-0.03-0.15c-0.03-0.14-0.08-0.26-0.16-0.36
					c-0.03-0.05-0.08-0.1-0.13-0.13c-0.05-0.05-0.1-0.08-0.16-0.11c-0.13-0.06-0.26-0.1-0.38-0.1l0.03-1.58v-0.03
					C20.59,30.38,20.89,30.06,20.96,29.48z"/>
				<path class="st1" d="M20.99,43.77c-0.01-0.09-0.02-0.17-0.02-0.26c-0.01-0.36-0.01-0.73-0.01-1.09c0-0.73,0.01-1.45,0.01-2.18
					c0-2.35-0.01-4.72,0-7.08v-0.15c0.01,0.05,0.01,0.11,0.01,0.17c-0.01,2.36,0,4.73,0,7.08c0,1.09-0.02,2.18,0,3.27
					C20.98,43.61,20.98,43.69,20.99,43.77z"/>
				<path class="st1" d="M20.98,19.71c0,0.01,0,0.01,0,0.02v1.61c0,0.01,0,0.01,0,0.02c-0.01,2.52,0,5.04,0,7.56v0.33
					c0,0.08-0.01,0.16-0.02,0.23c0.01-0.08,0.01-0.17,0.01-0.26v-0.33c0-2.51-0.01-5.02,0-7.53c0-0.01,0-0.01,0-0.02v-1.61
					c0-0.01,0-0.01,0-0.02H20.98z"/>
				<path class="st1" d="M42.16,40.66v1.65h-5.75c-0.01,0-0.01,0-0.01,0h-6.3c-0.23,0-0.46-0.01-0.68-0.05
					c-0.22-0.03-0.43-0.08-0.63-0.13c-0.14-0.04-0.27-0.08-0.4-0.13c-0.19-0.08-0.37-0.16-0.55-0.26c-0.18-0.1-0.34-0.22-0.5-0.34
					c-0.1-0.08-0.2-0.17-0.3-0.26c-0.1-0.09-0.19-0.19-0.27-0.29c-0.15-0.17-0.28-0.36-0.39-0.57c-0.05-0.06-0.08-0.13-0.12-0.21
					c-0.1-0.2-0.18-0.41-0.25-0.63c-0.04-0.16-0.08-0.32-0.11-0.49c-0.05-0.25-0.07-0.52-0.08-0.79v-0.03
					c-0.04-3.48-0.01-6.96-0.01-10.46c0-0.3,0.09-0.55,0.24-0.73c0.04-0.05,0.08-0.09,0.12-0.12c0.13-0.12,0.28-0.18,0.45-0.18
					l0.03-1.6c-0.26,0-0.47-0.09-0.6-0.27c-0.04-0.05-0.09-0.12-0.12-0.19c-0.05-0.12-0.09-0.27-0.11-0.43
					c-0.01-0.09-0.02-0.19-0.02-0.29v-2.5c0,0,0-0.01,0-0.02v-1.61c0,0,0-0.01,0-0.02v-3.33h1.68c0.01,0,0.02,0,0.02,0v3.33
					c0,0.01,0,0.01,0,0.02v1.61c0,0.01,0,0.01,0,0.02v2.52c0,0.75-0.3,1.16-0.84,1.16l-0.03,1.6c0.06,0,0.13,0.01,0.19,0.04
					c0.06,0.02,0.13,0.04,0.19,0.07c0.22,0.11,0.34,0.26,0.4,0.44c0.02,0.05,0.03,0.09,0.04,0.14c0.04,0.15,0.05,0.32,0.05,0.49
					v7.08c0,1.09-0.01,2.19,0.01,3.27c0,0.28,0.04,0.54,0.11,0.79c0.03,0.08,0.05,0.16,0.08,0.23c0.06,0.15,0.14,0.29,0.22,0.42
					c0.09,0.13,0.19,0.25,0.3,0.36c0.02,0.02,0.05,0.05,0.08,0.08c0.03,0.02,0.07,0.05,0.1,0.08l0.01,0.01
					c0.06,0.04,0.11,0.08,0.17,0.12v0.01h0.01c0.03,0.02,0.06,0.04,0.1,0.05c0.03,0.02,0.07,0.04,0.11,0.06v0.01h0.01
					c0.1,0.05,0.2,0.1,0.32,0.13c0.08,0.03,0.16,0.05,0.24,0.06c0.04,0.01,0.08,0.02,0.12,0.03c0.07,0.02,0.13,0.03,0.2,0.03
					c0.04,0.01,0.09,0.01,0.13,0.01c0.08,0,0.16,0.01,0.24,0.01h6.34c0.01,0,0.01,0,0.01,0H42.16z"/>
			</g>
		</g>
	</g>
	<g>
		<g id="XMLID_1_">
			<g>
				<path d="M20.96,47.16v-25.8c0,0,0-0.01,0-0.02c0-0.53,0-1.07-0.01-1.61c0,0,0.01-0.01,0-0.02c0.01-1.37,0.01-2.74,0-4.12
					c0.01-0.01,0.01-0.01,0.01-0.01c0-0.01,0-0.02-0.01-0.02c0.01-0.24,0-0.48,0-0.73v-3.35c0-0.32,0.07-0.51,0.26-0.68
					c0.03-0.03,0.07-0.06,0.1-0.09c0.04-0.03,0.08-0.06,0.13-0.09c0.19-0.12,0.35-0.25,0.49-0.4c0.11-0.1,0.19-0.21,0.26-0.33
					c0.01-0.01,0.01-0.01,0.01-0.02h-2.84c-0.01,0.01-0.02,0.01-0.01,0.02c-0.04,0.05-0.07,0.1-0.1,0.16v38.79h17.13
					c0.02-0.14,0.03-0.3,0.03-0.46v-0.71h3.12c0.8,0,1.53-0.18,2.15-0.5h1.26v-0.01H20.96z M20.96,47.16v-25.8c0,0,0-0.01,0-0.02
					c0-0.53,0-1.07-0.01-1.61c0,0,0.01-0.01,0-0.02c0.01-1.37,0.01-2.74,0-4.12c0.01-0.01,0.01-0.01,0.01-0.01
					c0-0.01,0-0.02-0.01-0.02c0.01-0.24,0-0.48,0-0.73v-3.35c0-0.32,0.07-0.51,0.26-0.68c0.03-0.03,0.07-0.06,0.1-0.09
					c0.04-0.03,0.08-0.06,0.13-0.09c0.19-0.12,0.35-0.25,0.49-0.4c0.11-0.1,0.19-0.21,0.26-0.33c0.01-0.01,0.01-0.01,0.01-0.02
					h-2.84c-0.01,0.01-0.02,0.01-0.01,0.02c-0.04,0.05-0.07,0.1-0.1,0.16v38.79h17.13c0.02-0.14,0.03-0.3,0.03-0.46v-0.71h3.12
					c0.8,0,1.53-0.18,2.15-0.5h1.26v-0.01H20.96z M20.96,47.16v-25.8c0,0,0-0.01,0-0.02c0-0.53,0-1.07-0.01-1.61
					c0,0,0.01-0.01,0-0.02c0.01-1.37,0.01-2.74,0-4.12c0.01-0.01,0.01-0.01,0.01-0.01c0-0.01,0-0.02-0.01-0.02
					c0.01-0.24,0-0.48,0-0.73v-3.35c0-0.32,0.07-0.51,0.26-0.68c0.03-0.03,0.07-0.06,0.1-0.09c0.04-0.03,0.08-0.06,0.13-0.09
					c0.19-0.12,0.35-0.25,0.49-0.4c0.11-0.1,0.19-0.21,0.26-0.33c0.01-0.01,0.01-0.01,0.01-0.02h-2.84
					c-0.01,0.01-0.02,0.01-0.01,0.02c-0.04,0.05-0.07,0.1-0.1,0.16v38.79h17.13c0.02-0.14,0.03-0.3,0.03-0.46v-0.71h3.12
					c0.8,0,1.53-0.18,2.15-0.5h1.26v-0.01H20.96z M20.96,47.16v0.01h0.49c0.01,0.01,0.02,0.02,0.04,0.03
					c0.6,0.3,1.31,0.47,2.09,0.47h15.95c0.8,0,1.53-0.18,2.15-0.5h1.26v-0.01H20.96z M19.36,9.87c-0.01,0.01-0.02,0.01-0.01,0.02
					c-0.04,0.05-0.07,0.1-0.1,0.16v9.66h0.04c0,0.01,0,0.02,0,0.02c-0.01,0.54-0.01,1.08,0,1.61c-0.01,0.01,0,0.02,0,0.02h0.01
					c-0.01,2.63-0.01,5.25,0,7.88c0,0.27,0.04,0.5,0.11,0.68c0.01,0.01,0.01,0.02,0.02,0.03c0.02,0.06,0.05,0.11,0.09,0.16
					c0.03,0.05,0.07,0.09,0.12,0.13c0.13,0.1,0.29,0.15,0.49,0.15v0.02l-0.03,1.58v0.02c-0.17,0-0.32,0.06-0.44,0.17
					c-0.05,0.03-0.09,0.07-0.12,0.12c-0.08,0.09-0.14,0.2-0.18,0.32c-0.05,0.12-0.07,0.26-0.07,0.42
					c-0.01,3.48-0.03,6.97,0.01,10.46c0,0.62,0.12,1.19,0.33,1.7c0.11,0.25,0.23,0.49,0.38,0.71c0.15,0.22,0.32,0.42,0.51,0.6
					c0.13,0.13,0.28,0.25,0.44,0.36V21.36c0,0,0-0.01,0-0.02c0-0.53,0-1.07-0.01-1.61c0,0,0.01-0.01,0-0.02
					c0.01-1.37,0.01-2.74,0-4.12c0.01-0.01,0.01-0.01,0.01-0.01c0-0.01,0-0.02-0.01-0.02c0.01-0.24,0-0.48,0-0.73v-3.35
					c0-0.32,0.07-0.51,0.26-0.68c0.03-0.03,0.07-0.06,0.1-0.09c0.04-0.03,0.08-0.06,0.13-0.09c0.19-0.12,0.35-0.25,0.49-0.4
					c0.11-0.1,0.19-0.21,0.26-0.33c0.01-0.01,0.01-0.01,0.01-0.02H19.36z M20.96,47.16v0.01h0.49c0.01,0.01,0.02,0.02,0.04,0.03
					c0.6,0.3,1.31,0.47,2.09,0.47h15.95c0.8,0,1.53-0.18,2.15-0.5h1.26v-0.01H20.96z M19.36,9.87c-0.01,0.01-0.02,0.01-0.01,0.02
					c-0.04,0.05-0.07,0.1-0.1,0.16v9.66h0.04c0,0.01,0,0.02,0,0.02c-0.01,0.54-0.01,1.08,0,1.61c-0.01,0.01,0,0.02,0,0.02h0.01
					c-0.01,2.63-0.01,5.25,0,7.88c0,0.27,0.04,0.5,0.11,0.68c0.01,0.01,0.01,0.02,0.02,0.03c0.02,0.06,0.05,0.11,0.09,0.16
					c0.03,0.05,0.07,0.09,0.12,0.13c0.13,0.1,0.29,0.15,0.49,0.15v0.02l-0.03,1.58v0.02c-0.17,0-0.32,0.06-0.44,0.17
					c-0.05,0.03-0.09,0.07-0.12,0.12c-0.08,0.09-0.14,0.2-0.18,0.32c-0.05,0.12-0.07,0.26-0.07,0.42
					c-0.01,3.48-0.03,6.97,0.01,10.46c0,0.62,0.12,1.19,0.33,1.7c0.11,0.25,0.23,0.49,0.38,0.71c0.15,0.22,0.32,0.42,0.51,0.6
					c0.13,0.13,0.28,0.25,0.44,0.36V21.36c0,0,0-0.01,0-0.02c0-0.53,0-1.07-0.01-1.61c0,0,0.01-0.01,0-0.02
					c0.01-1.37,0.01-2.74,0-4.12c0.01-0.01,0.01-0.01,0.01-0.01c0-0.01,0-0.02-0.01-0.02c0.01-0.24,0-0.48,0-0.73v-3.35
					c0-0.32,0.07-0.51,0.26-0.68c0.03-0.03,0.07-0.06,0.1-0.09c0.04-0.03,0.08-0.06,0.13-0.09c0.19-0.12,0.35-0.25,0.49-0.4
					c0.11-0.1,0.19-0.21,0.26-0.33c0.01-0.01,0.01-0.01,0.01-0.02H19.36z M20.96,47.16v0.01h0.49c0.01,0.01,0.02,0.02,0.04,0.03
					c0.6,0.3,1.31,0.47,2.09,0.47h15.95c0.8,0,1.53-0.18,2.15-0.5h1.26v-0.01H20.96z M19.36,9.87c-0.01,0.01-0.02,0.01-0.01,0.02
					c-0.04,0.05-0.07,0.1-0.1,0.16v9.66h0.04c0,0.01,0,0.02,0,0.02c-0.01,0.54-0.01,1.08,0,1.61c-0.01,0.01,0,0.02,0,0.02h0.01
					c-0.01,2.63-0.01,5.25,0,7.88c0,0.27,0.04,0.5,0.11,0.68c0.01,0.01,0.01,0.02,0.02,0.03c0.02,0.06,0.05,0.11,0.09,0.16
					c0.03,0.05,0.07,0.09,0.12,0.13c0.13,0.1,0.29,0.15,0.49,0.15v0.02l-0.03,1.58v0.02c-0.17,0-0.32,0.06-0.44,0.17
					c-0.05,0.03-0.09,0.07-0.12,0.12c-0.08,0.09-0.14,0.2-0.18,0.32c-0.05,0.12-0.07,0.26-0.07,0.42
					c-0.01,3.48-0.03,6.97,0.01,10.46c0,0.62,0.12,1.19,0.33,1.7c0.11,0.25,0.23,0.49,0.38,0.71c0.15,0.22,0.32,0.42,0.51,0.6
					c0.13,0.13,0.28,0.25,0.44,0.36V21.36c0,0,0-0.01,0-0.02c0-0.53,0-1.07-0.01-1.61c0,0,0.01-0.01,0-0.02
					c0.01-1.37,0.01-2.74,0-4.12c0.01-0.01,0.01-0.01,0.01-0.01c0-0.01,0-0.02-0.01-0.02c0.01-0.24,0-0.48,0-0.73v-3.35
					c0-0.32,0.07-0.51,0.26-0.68c0.03-0.03,0.07-0.06,0.1-0.09c0.04-0.03,0.08-0.06,0.13-0.09c0.19-0.12,0.35-0.25,0.49-0.4
					c0.11-0.1,0.19-0.21,0.26-0.33c0.01-0.01,0.01-0.01,0.01-0.02H19.36z M20.96,47.16v0.01h0.49c0.01,0.01,0.02,0.02,0.04,0.03
					c0.6,0.3,1.31,0.47,2.09,0.47h15.95c0.8,0,1.53-0.18,2.15-0.5h1.26v-0.01H20.96z M19.36,9.87c-0.01,0.01-0.02,0.01-0.01,0.02
					c-0.04,0.05-0.07,0.1-0.1,0.16v9.66h0.04c0,0.01,0,0.02,0,0.02c-0.01,0.54-0.01,1.08,0,1.61c-0.01,0.01,0,0.02,0,0.02h0.01
					c-0.01,2.63-0.01,5.25,0,7.88c0,0.27,0.04,0.5,0.11,0.68c0.01,0.01,0.01,0.02,0.02,0.03c0.02,0.06,0.05,0.11,0.09,0.16
					c0.03,0.05,0.07,0.09,0.12,0.13c0.13,0.1,0.29,0.15,0.49,0.15v0.02l-0.03,1.58v0.02c-0.17,0-0.32,0.06-0.44,0.17
					c-0.05,0.03-0.09,0.07-0.12,0.12c-0.08,0.09-0.14,0.2-0.18,0.32c-0.05,0.12-0.07,0.26-0.07,0.42
					c-0.01,3.48-0.03,6.97,0.01,10.46c0,0.62,0.12,1.19,0.33,1.7c0.11,0.25,0.23,0.49,0.38,0.71c0.15,0.22,0.32,0.42,0.51,0.6
					c0.13,0.13,0.28,0.25,0.44,0.36V21.36c0,0,0-0.01,0-0.02c0-0.53,0-1.07-0.01-1.61c0,0,0.01-0.01,0-0.02
					c0.01-1.37,0.01-2.74,0-4.12c0.01-0.01,0.01-0.01,0.01-0.01c0-0.01,0-0.02-0.01-0.02c0.01-0.24,0-0.48,0-0.73v-3.35
					c0-0.32,0.07-0.51,0.26-0.68c0.03-0.03,0.07-0.06,0.1-0.09c0.04-0.03,0.08-0.06,0.13-0.09c0.19-0.12,0.35-0.25,0.49-0.4
					c0.11-0.1,0.19-0.21,0.26-0.33c0.01-0.01,0.01-0.01,0.01-0.02H19.36z M20.96,47.16v0.01h0.49c0.01,0.01,0.02,0.02,0.04,0.03
					c0.6,0.3,1.31,0.47,2.09,0.47h15.95c0.8,0,1.53-0.18,2.15-0.5h1.26v-0.01H20.96z M19.36,9.87c-0.01,0.01-0.02,0.01-0.01,0.02
					c-0.04,0.05-0.07,0.1-0.1,0.16v9.66h0.04c0,0.01,0,0.02,0,0.02c-0.01,0.54-0.01,1.08,0,1.61c-0.01,0.01,0,0.02,0,0.02h0.01
					c-0.01,2.63-0.01,5.25,0,7.88c0,0.27,0.04,0.5,0.11,0.68c0.01,0.01,0.01,0.02,0.02,0.03c0.02,0.06,0.05,0.11,0.09,0.16
					c0.03,0.05,0.07,0.09,0.12,0.13c0.13,0.1,0.29,0.15,0.49,0.15v0.02l-0.03,1.58v0.02c-0.17,0-0.32,0.06-0.44,0.17
					c-0.05,0.03-0.09,0.07-0.12,0.12c-0.08,0.09-0.14,0.2-0.18,0.32c-0.05,0.12-0.07,0.26-0.07,0.42
					c-0.01,3.48-0.03,6.97,0.01,10.46c0,0.62,0.12,1.19,0.33,1.7c0.11,0.25,0.23,0.49,0.38,0.71c0.15,0.22,0.32,0.42,0.51,0.6
					c0.13,0.13,0.28,0.25,0.44,0.36V21.36c0,0,0-0.01,0-0.02c0-0.53,0-1.07-0.01-1.61c0,0,0.01-0.01,0-0.02
					c0.01-1.37,0.01-2.74,0-4.12c0.01-0.01,0.01-0.01,0.01-0.01c0-0.01,0-0.02-0.01-0.02c0.01-0.24,0-0.48,0-0.73v-3.35
					c0-0.32,0.07-0.51,0.26-0.68c0.03-0.03,0.07-0.06,0.1-0.09c0.04-0.03,0.08-0.06,0.13-0.09c0.19-0.12,0.35-0.25,0.49-0.4
					c0.11-0.1,0.19-0.21,0.26-0.33c0.01-0.01,0.01-0.01,0.01-0.02H19.36z M20.96,47.16v0.01h0.49c0.01,0.01,0.02,0.02,0.04,0.03
					c0.6,0.3,1.31,0.47,2.09,0.47h15.95c0.8,0,1.53-0.18,2.15-0.5h1.26v-0.01H20.96z M19.36,9.87c-0.01,0.01-0.02,0.01-0.01,0.02
					c-0.04,0.05-0.07,0.1-0.1,0.16v9.66h0.04c0,0.01,0,0.02,0,0.02c-0.01,0.54-0.01,1.08,0,1.61c-0.01,0.01,0,0.02,0,0.02h0.01
					c-0.01,2.63-0.01,5.25,0,7.88c0,0.27,0.04,0.5,0.11,0.68c0.01,0.01,0.01,0.02,0.02,0.03c0.02,0.06,0.05,0.11,0.09,0.16
					c0.03,0.05,0.07,0.09,0.12,0.13c0.13,0.1,0.29,0.15,0.49,0.15v0.02l-0.03,1.58v0.02c-0.17,0-0.32,0.06-0.44,0.17
					c-0.05,0.03-0.09,0.07-0.12,0.12c-0.08,0.09-0.14,0.2-0.18,0.32c-0.05,0.12-0.07,0.26-0.07,0.42
					c-0.01,3.48-0.03,6.97,0.01,10.46c0,0.62,0.12,1.19,0.33,1.7c0.11,0.25,0.23,0.49,0.38,0.71c0.15,0.22,0.32,0.42,0.51,0.6
					c0.13,0.13,0.28,0.25,0.44,0.36V21.36c0,0,0-0.01,0-0.02c0-0.53,0-1.07-0.01-1.61c0,0,0.01-0.01,0-0.02
					c0.01-1.37,0.01-2.74,0-4.12c0.01-0.01,0.01-0.01,0.01-0.01c0-0.01,0-0.02-0.01-0.02c0.01-0.24,0-0.48,0-0.73v-3.35
					c0-0.32,0.07-0.51,0.26-0.68c0.03-0.03,0.07-0.06,0.1-0.09c0.04-0.03,0.08-0.06,0.13-0.09c0.19-0.12,0.35-0.25,0.49-0.4
					c0.11-0.1,0.19-0.21,0.26-0.33c0.01-0.01,0.01-0.01,0.01-0.02H19.36z M20.96,47.16v0.01h0.49c0.01,0.01,0.02,0.02,0.04,0.03
					c0.6,0.3,1.31,0.47,2.09,0.47h15.95c0.8,0,1.53-0.18,2.15-0.5h1.26v-0.01H20.96z M19.36,9.87c-0.01,0.01-0.02,0.01-0.01,0.02
					c-0.04,0.05-0.07,0.1-0.1,0.16v9.66h0.04c0,0.01,0,0.02,0,0.02c-0.01,0.54-0.01,1.08,0,1.61c-0.01,0.01,0,0.02,0,0.02h0.01
					c-0.01,2.63-0.01,5.25,0,7.88c0,0.27,0.04,0.5,0.11,0.68c0.01,0.01,0.01,0.02,0.02,0.03c0.02,0.06,0.05,0.11,0.09,0.16
					c0.03,0.05,0.07,0.09,0.12,0.13c0.13,0.1,0.29,0.15,0.49,0.15v0.02l-0.03,1.58v0.02c-0.17,0-0.32,0.06-0.44,0.17
					c-0.05,0.03-0.09,0.07-0.12,0.12c-0.08,0.09-0.14,0.2-0.18,0.32c-0.05,0.12-0.07,0.26-0.07,0.42
					c-0.01,3.48-0.03,6.97,0.01,10.46c0,0.62,0.12,1.19,0.33,1.7c0.11,0.25,0.23,0.49,0.38,0.71c0.15,0.22,0.32,0.42,0.51,0.6
					c0.13,0.13,0.28,0.25,0.44,0.36V21.36c0,0,0-0.01,0-0.02c0-0.53,0-1.07-0.01-1.61c0,0,0.01-0.01,0-0.02
					c0.01-1.37,0.01-2.74,0-4.12c0.01-0.01,0.01-0.01,0.01-0.01c0-0.01,0-0.02-0.01-0.02c0.01-0.24,0-0.48,0-0.73v-3.35
					c0-0.32,0.07-0.51,0.26-0.68c0.03-0.03,0.07-0.06,0.1-0.09c0.04-0.03,0.08-0.06,0.13-0.09c0.19-0.12,0.35-0.25,0.49-0.4
					c0.11-0.1,0.19-0.21,0.26-0.33c0.01-0.01,0.01-0.01,0.01-0.02H19.36z M20.96,47.16v0.01h0.49c0.01,0.01,0.02,0.02,0.04,0.03
					c0.6,0.3,1.31,0.47,2.09,0.47h15.95c0.8,0,1.53-0.18,2.15-0.5h1.26v-0.01H20.96z M20.96,21.36c0,0,0-0.01,0-0.02
					c0-0.53,0-1.07-0.01-1.61c0,0,0.01-0.01,0-0.02c0.01-1.37,0.01-2.74,0-4.12c0.01-0.01,0.01-0.01,0.01-0.01
					c0-0.01,0-0.02-0.01-0.02c0.01-0.24,0-0.48,0-0.73v-3.35c0-0.32,0.07-0.51,0.26-0.68c0.03-0.03,0.07-0.06,0.1-0.09
					c0.04-0.03,0.08-0.06,0.13-0.09c0.19-0.12,0.35-0.25,0.49-0.4c0.11-0.1,0.19-0.21,0.26-0.33c0.01-0.01,0.01-0.01,0.01-0.02
					h-2.84c-0.01,0.01-0.02,0.01-0.01,0.02c-0.04,0.05-0.07,0.1-0.1,0.16v9.66h0.04c0,0.01,0,0.02,0,0.02
					c-0.01,0.54-0.01,1.08,0,1.61c-0.01,0.01,0,0.02,0,0.02h0.01c-0.01,2.63-0.01,5.25,0,7.88c0,0.27,0.04,0.5,0.11,0.68
					c0.01,0.01,0.01,0.02,0.02,0.03c0.02,0.06,0.05,0.11,0.09,0.16c0.03,0.05,0.07,0.09,0.12,0.13c0.13,0.1,0.29,0.15,0.49,0.15
					v0.02l-0.03,1.58v0.02c-0.17,0-0.32,0.06-0.44,0.17c-0.05,0.03-0.09,0.07-0.12,0.12c-0.08,0.09-0.14,0.2-0.18,0.32
					c-0.05,0.12-0.07,0.26-0.07,0.42c-0.01,3.48-0.03,6.97,0.01,10.46c0,0.62,0.12,1.19,0.33,1.7c0.11,0.25,0.23,0.49,0.38,0.71
					c0.15,0.22,0.32,0.42,0.51,0.6c0.13,0.13,0.28,0.25,0.44,0.36V21.36z M56.91,37.37v-0.7c0-8.61,0-17.21-0.01-25.82
					c0-0.18,0.02-0.36,0-0.54c-0.05-0.51-0.27-0.86-0.83-0.91c-0.46-0.04-0.78-0.28-0.8-0.8c-0.01-0.52,0.3-0.74,0.76-0.83
					c0.65-0.12,0.85-0.36,0.86-1.03c0.01-0.92,0.01-1.85,0-2.78c0-0.82-0.28-1.09-1.12-1.09H27.49V2.86H25.8v0.01h-0.6
					c-1.59,0-3.19,0.02-4.79-0.01c-0.56-0.02-0.93,0.16-1.17,0.66v3.6c0.21,0.4,0.5,0.65,0.99,0.69c0.29,0.02,0.49,0.17,0.59,0.4
					c0.05,0.1,0.08,0.23,0.08,0.37c0.01,0.45-0.25,0.74-0.66,0.78c-0.4,0.04-0.69,0.21-0.88,0.51c-0.01,0.01-0.02,0.01-0.01,0.02
					c-0.04,0.05-0.07,0.1-0.1,0.16v38.79h37.13c0.42-0.3,0.53-0.72,0.52-1.23c-0.01-2.62,0-5.23,0-7.84v-0.74h0.04v-1.66H56.91z
					 M55.22,11.57v35.59H20.96v-25.8c0,0,0-0.01,0-0.02c0-0.53,0-1.07-0.01-1.61c0,0,0.01-0.01,0-0.02c0.01-1.37,0.01-2.74,0-4.12
					c0.01-0.01,0.01-0.01,0.01-0.01c0-0.01,0-0.02-0.01-0.02c0.01-0.24,0-0.48,0-0.73v-3.35c0-0.32,0.07-0.51,0.26-0.68
					c0.03-0.03,0.07-0.06,0.1-0.09c0.04-0.03,0.08-0.06,0.13-0.09c0.19-0.12,0.35-0.25,0.49-0.4c0.11-0.1,0.19-0.21,0.26-0.33
					c0.01-0.01,0.01-0.01,0.01-0.02c0.04-0.05,0.07-0.1,0.09-0.15c0.24-0.46,0.33-0.99,0.25-1.5c-0.02-0.13-0.04-0.26-0.08-0.39
					c-0.04-0.13-0.09-0.25-0.15-0.37c-0.1-0.18-0.21-0.34-0.35-0.49c-0.11-0.13-0.25-0.24-0.41-0.34c-0.02-0.02-0.04-0.04-0.07-0.06
					c-0.27-0.17-0.43-0.35-0.5-0.59c-0.04-0.11-0.04-0.24-0.02-0.39c0.04-0.34,0-0.68,0-1.06V4.52h34.26v0.01
					c0,0.52,0.02,1.03-0.02,1.54c0,0.03-0.01,0.06-0.03,0.09c-0.03,0.05-0.07,0.1-0.11,0.14c-0.02,0.03-0.05,0.05-0.07,0.06
					c-0.01,0.02-0.03,0.02-0.04,0.03c-0.01,0-0.02,0.01-0.03,0.01c-0.23,0.14-0.42,0.3-0.58,0.47c-0.34,0.32-0.56,0.7-0.67,1.1
					c-0.11,0.39-0.11,0.81,0,1.21c0,0,0,0,0,0.01c0.12,0.4,0.34,0.78,0.68,1.12c0.08,0.09,0.18,0.17,0.28,0.25
					c0.09,0.08,0.2,0.15,0.31,0.22v0.01c0.01,0.01,0.02,0.01,0.03,0.02c0.03,0.01,0.05,0.03,0.06,0.06c0.08,0.1,0.13,0.25,0.18,0.37
					c0.01,0.02,0.01,0.04,0.01,0.06c0.02,0.05,0.02,0.1,0.01,0.16C55.22,11.5,55.22,11.53,55.22,11.57z M19.36,9.87
					c-0.01,0.01-0.02,0.01-0.01,0.02c-0.04,0.05-0.07,0.1-0.1,0.16v9.66h0.04c0,0.01,0,0.02,0,0.02c-0.01,0.54-0.01,1.08,0,1.61
					c-0.01,0.01,0,0.02,0,0.02h0.01c-0.01,2.63-0.01,5.25,0,7.88c0,0.27,0.04,0.5,0.11,0.68c0.01,0.01,0.01,0.02,0.02,0.03
					c0.02,0.06,0.05,0.11,0.09,0.16c0.03,0.05,0.07,0.09,0.12,0.13c0.13,0.1,0.29,0.15,0.49,0.15v0.02l-0.03,1.58v0.02
					c-0.17,0-0.32,0.06-0.44,0.17c-0.05,0.03-0.09,0.07-0.12,0.12c-0.08,0.09-0.14,0.2-0.18,0.32c-0.05,0.12-0.07,0.26-0.07,0.42
					c-0.01,3.48-0.03,6.97,0.01,10.46c0,0.62,0.12,1.19,0.33,1.7c0.11,0.25,0.23,0.49,0.38,0.71c0.15,0.22,0.32,0.42,0.51,0.6
					c0.13,0.13,0.28,0.25,0.44,0.36V21.36c0,0,0-0.01,0-0.02c0-0.53,0-1.07-0.01-1.61c0,0,0.01-0.01,0-0.02
					c0.01-1.37,0.01-2.74,0-4.12c0.01-0.01,0.01-0.01,0.01-0.01c0-0.01,0-0.02-0.01-0.02c0.01-0.24,0-0.48,0-0.73v-3.35
					c0-0.32,0.07-0.51,0.26-0.68c0.03-0.03,0.07-0.06,0.1-0.09c0.04-0.03,0.08-0.06,0.13-0.09c0.19-0.12,0.35-0.25,0.49-0.4
					c0.11-0.1,0.19-0.21,0.26-0.33c0.01-0.01,0.01-0.01,0.01-0.02H19.36z M20.96,47.16v0.01h0.49c0.01,0.01,0.02,0.02,0.04,0.03
					c0.6,0.3,1.31,0.47,2.09,0.47h15.95c0.8,0,1.53-0.18,2.15-0.5h1.26v-0.01H20.96z M19.36,9.87c-0.01,0.01-0.02,0.01-0.01,0.02
					c-0.04,0.05-0.07,0.1-0.1,0.16v9.66h0.04c0,0.01,0,0.02,0,0.02c-0.01,0.54-0.01,1.08,0,1.61c-0.01,0.01,0,0.02,0,0.02h0.01
					c-0.01,2.63-0.01,5.25,0,7.88c0,0.27,0.04,0.5,0.11,0.68c0.01,0.01,0.01,0.02,0.02,0.03c0.02,0.06,0.05,0.11,0.09,0.16
					c0.03,0.05,0.07,0.09,0.12,0.13c0.13,0.1,0.29,0.15,0.49,0.15v0.02l-0.03,1.58v0.02c-0.17,0-0.32,0.06-0.44,0.17
					c-0.05,0.03-0.09,0.07-0.12,0.12c-0.08,0.09-0.14,0.2-0.18,0.32c-0.05,0.12-0.07,0.26-0.07,0.42
					c-0.01,3.48-0.03,6.97,0.01,10.46c0,0.62,0.12,1.19,0.33,1.7c0.11,0.25,0.23,0.49,0.38,0.71c0.15,0.22,0.32,0.42,0.51,0.6
					c0.13,0.13,0.28,0.25,0.44,0.36V21.36c0,0,0-0.01,0-0.02c0-0.53,0-1.07-0.01-1.61c0,0,0.01-0.01,0-0.02
					c0.01-1.37,0.01-2.74,0-4.12c0.01-0.01,0.01-0.01,0.01-0.01c0-0.01,0-0.02-0.01-0.02c0.01-0.24,0-0.48,0-0.73v-3.35
					c0-0.32,0.07-0.51,0.26-0.68c0.03-0.03,0.07-0.06,0.1-0.09c0.04-0.03,0.08-0.06,0.13-0.09c0.19-0.12,0.35-0.25,0.49-0.4
					c0.11-0.1,0.19-0.21,0.26-0.33c0.01-0.01,0.01-0.01,0.01-0.02H19.36z M20.96,47.16v0.01h0.49c0.01,0.01,0.02,0.02,0.04,0.03
					c0.6,0.3,1.31,0.47,2.09,0.47h15.95c0.8,0,1.53-0.18,2.15-0.5h1.26v-0.01H20.96z M19.36,9.87c-0.01,0.01-0.02,0.01-0.01,0.02
					c-0.04,0.05-0.07,0.1-0.1,0.16v9.66h0.04c0,0.01,0,0.02,0,0.02c-0.01,0.54-0.01,1.08,0,1.61c-0.01,0.01,0,0.02,0,0.02h0.01
					c-0.01,2.63-0.01,5.25,0,7.88c0,0.27,0.04,0.5,0.11,0.68c0.01,0.01,0.01,0.02,0.02,0.03c0.02,0.06,0.05,0.11,0.09,0.16
					c0.03,0.05,0.07,0.09,0.12,0.13c0.13,0.1,0.29,0.15,0.49,0.15v0.02l-0.03,1.58v0.02c-0.17,0-0.32,0.06-0.44,0.17
					c-0.05,0.03-0.09,0.07-0.12,0.12c-0.08,0.09-0.14,0.2-0.18,0.32c-0.05,0.12-0.07,0.26-0.07,0.42
					c-0.01,3.48-0.03,6.97,0.01,10.46c0,0.62,0.12,1.19,0.33,1.7c0.11,0.25,0.23,0.49,0.38,0.71c0.15,0.22,0.32,0.42,0.51,0.6
					c0.13,0.13,0.28,0.25,0.44,0.36V21.36c0,0,0-0.01,0-0.02c0-0.53,0-1.07-0.01-1.61c0,0,0.01-0.01,0-0.02
					c0.01-1.37,0.01-2.74,0-4.12c0.01-0.01,0.01-0.01,0.01-0.01c0-0.01,0-0.02-0.01-0.02c0.01-0.24,0-0.48,0-0.73v-3.35
					c0-0.32,0.07-0.51,0.26-0.68c0.03-0.03,0.07-0.06,0.1-0.09c0.04-0.03,0.08-0.06,0.13-0.09c0.19-0.12,0.35-0.25,0.49-0.4
					c0.11-0.1,0.19-0.21,0.26-0.33c0.01-0.01,0.01-0.01,0.01-0.02H19.36z M20.96,47.16v0.01h0.49c0.01,0.01,0.02,0.02,0.04,0.03
					c0.6,0.3,1.31,0.47,2.09,0.47h15.95c0.8,0,1.53-0.18,2.15-0.5h1.26v-0.01H20.96z M19.36,9.87c-0.01,0.01-0.02,0.01-0.01,0.02
					c-0.04,0.05-0.07,0.1-0.1,0.16v9.66h0.04c0,0.01,0,0.02,0,0.02c-0.01,0.54-0.01,1.08,0,1.61c-0.01,0.01,0,0.02,0,0.02h0.01
					c-0.01,2.63-0.01,5.25,0,7.88c0,0.27,0.04,0.5,0.11,0.68c0.01,0.01,0.01,0.02,0.02,0.03c0.02,0.06,0.05,0.11,0.09,0.16
					c0.03,0.05,0.07,0.09,0.12,0.13c0.13,0.1,0.29,0.15,0.49,0.15v0.02l-0.03,1.58v0.02c-0.17,0-0.32,0.06-0.44,0.17
					c-0.05,0.03-0.09,0.07-0.12,0.12c-0.08,0.09-0.14,0.2-0.18,0.32c-0.05,0.12-0.07,0.26-0.07,0.42
					c-0.01,3.48-0.03,6.97,0.01,10.46c0,0.62,0.12,1.19,0.33,1.7c0.11,0.25,0.23,0.49,0.38,0.71c0.15,0.22,0.32,0.42,0.51,0.6
					c0.13,0.13,0.28,0.25,0.44,0.36V21.36c0,0,0-0.01,0-0.02c0-0.53,0-1.07-0.01-1.61c0,0,0.01-0.01,0-0.02
					c0.01-1.37,0.01-2.74,0-4.12c0.01-0.01,0.01-0.01,0.01-0.01c0-0.01,0-0.02-0.01-0.02c0.01-0.24,0-0.48,0-0.73v-3.35
					c0-0.32,0.07-0.51,0.26-0.68c0.03-0.03,0.07-0.06,0.1-0.09c0.04-0.03,0.08-0.06,0.13-0.09c0.19-0.12,0.35-0.25,0.49-0.4
					c0.11-0.1,0.19-0.21,0.26-0.33c0.01-0.01,0.01-0.01,0.01-0.02H19.36z M20.96,47.16v0.01h0.49c0.01,0.01,0.02,0.02,0.04,0.03
					c0.6,0.3,1.31,0.47,2.09,0.47h15.95c0.8,0,1.53-0.18,2.15-0.5h1.26v-0.01H20.96z M19.36,9.87c-0.01,0.01-0.02,0.01-0.01,0.02
					c-0.04,0.05-0.07,0.1-0.1,0.16v9.66h0.04c0,0.01,0,0.02,0,0.02c-0.01,0.54-0.01,1.08,0,1.61c-0.01,0.01,0,0.02,0,0.02h0.01
					c-0.01,2.63-0.01,5.25,0,7.88c0,0.27,0.04,0.5,0.11,0.68c0.01,0.01,0.01,0.02,0.02,0.03c0.02,0.06,0.05,0.11,0.09,0.16
					c0.03,0.05,0.07,0.09,0.12,0.13c0.13,0.1,0.29,0.15,0.49,0.15v0.02l-0.03,1.58v0.02c-0.17,0-0.32,0.06-0.44,0.17
					c-0.05,0.03-0.09,0.07-0.12,0.12c-0.08,0.09-0.14,0.2-0.18,0.32c-0.05,0.12-0.07,0.26-0.07,0.42
					c-0.01,3.48-0.03,6.97,0.01,10.46c0,0.62,0.12,1.19,0.33,1.7c0.11,0.25,0.23,0.49,0.38,0.71c0.15,0.22,0.32,0.42,0.51,0.6
					c0.13,0.13,0.28,0.25,0.44,0.36V21.36c0,0,0-0.01,0-0.02c0-0.53,0-1.07-0.01-1.61c0,0,0.01-0.01,0-0.02
					c0.01-1.37,0.01-2.74,0-4.12c0.01-0.01,0.01-0.01,0.01-0.01c0-0.01,0-0.02-0.01-0.02c0.01-0.24,0-0.48,0-0.73v-3.35
					c0-0.32,0.07-0.51,0.26-0.68c0.03-0.03,0.07-0.06,0.1-0.09c0.04-0.03,0.08-0.06,0.13-0.09c0.19-0.12,0.35-0.25,0.49-0.4
					c0.11-0.1,0.19-0.21,0.26-0.33c0.01-0.01,0.01-0.01,0.01-0.02H19.36z M20.96,47.16v0.01h0.49c0.01,0.01,0.02,0.02,0.04,0.03
					c0.6,0.3,1.31,0.47,2.09,0.47h15.95c0.8,0,1.53-0.18,2.15-0.5h1.26v-0.01H20.96z M19.36,9.87c-0.01,0.01-0.02,0.01-0.01,0.02
					c-0.04,0.05-0.07,0.1-0.1,0.16v9.66h0.04c0,0.01,0,0.02,0,0.02c-0.01,0.54-0.01,1.08,0,1.61c-0.01,0.01,0,0.02,0,0.02h0.01
					c-0.01,2.63-0.01,5.25,0,7.88c0,0.27,0.04,0.5,0.11,0.68c0.01,0.01,0.01,0.02,0.02,0.03c0.02,0.06,0.05,0.11,0.09,0.16
					c0.03,0.05,0.07,0.09,0.12,0.13c0.13,0.1,0.29,0.15,0.49,0.15v0.02l-0.03,1.58v0.02c-0.17,0-0.32,0.06-0.44,0.17
					c-0.05,0.03-0.09,0.07-0.12,0.12c-0.08,0.09-0.14,0.2-0.18,0.32c-0.05,0.12-0.07,0.26-0.07,0.42
					c-0.01,3.48-0.03,6.97,0.01,10.46c0,0.62,0.12,1.19,0.33,1.7c0.11,0.25,0.23,0.49,0.38,0.71c0.15,0.22,0.32,0.42,0.51,0.6
					c0.13,0.13,0.28,0.25,0.44,0.36V21.36c0,0,0-0.01,0-0.02c0-0.53,0-1.07-0.01-1.61c0,0,0.01-0.01,0-0.02
					c0.01-1.37,0.01-2.74,0-4.12c0.01-0.01,0.01-0.01,0.01-0.01c0-0.01,0-0.02-0.01-0.02c0.01-0.24,0-0.48,0-0.73v-3.35
					c0-0.32,0.07-0.51,0.26-0.68c0.03-0.03,0.07-0.06,0.1-0.09c0.04-0.03,0.08-0.06,0.13-0.09c0.19-0.12,0.35-0.25,0.49-0.4
					c0.11-0.1,0.19-0.21,0.26-0.33c0.01-0.01,0.01-0.01,0.01-0.02H19.36z M20.96,47.16v0.01h0.49c0.01,0.01,0.02,0.02,0.04,0.03
					c0.6,0.3,1.31,0.47,2.09,0.47h15.95c0.8,0,1.53-0.18,2.15-0.5h1.26v-0.01H20.96z M19.36,9.87c-0.01,0.01-0.02,0.01-0.01,0.02
					c-0.04,0.05-0.07,0.1-0.1,0.16v9.66h0.04c0,0.01,0,0.02,0,0.02c-0.01,0.54-0.01,1.08,0,1.61c-0.01,0.01,0,0.02,0,0.02h0.01
					c-0.01,2.63-0.01,5.25,0,7.88c0,0.27,0.04,0.5,0.11,0.68c0.01,0.01,0.01,0.02,0.02,0.03c0.02,0.06,0.05,0.11,0.09,0.16
					c0.03,0.05,0.07,0.09,0.12,0.13c0.13,0.1,0.29,0.15,0.49,0.15v0.02l-0.03,1.58v0.02c-0.17,0-0.32,0.06-0.44,0.17
					c-0.05,0.03-0.09,0.07-0.12,0.12c-0.08,0.09-0.14,0.2-0.18,0.32c-0.05,0.12-0.07,0.26-0.07,0.42
					c-0.01,3.48-0.03,6.97,0.01,10.46c0,0.62,0.12,1.19,0.33,1.7c0.11,0.25,0.23,0.49,0.38,0.71c0.15,0.22,0.32,0.42,0.51,0.6
					c0.13,0.13,0.28,0.25,0.44,0.36V21.36c0,0,0-0.01,0-0.02c0-0.53,0-1.07-0.01-1.61c0,0,0.01-0.01,0-0.02
					c0.01-1.37,0.01-2.74,0-4.12c0.01-0.01,0.01-0.01,0.01-0.01c0-0.01,0-0.02-0.01-0.02c0.01-0.24,0-0.48,0-0.73v-3.35
					c0-0.32,0.07-0.51,0.26-0.68c0.03-0.03,0.07-0.06,0.1-0.09c0.04-0.03,0.08-0.06,0.13-0.09c0.19-0.12,0.35-0.25,0.49-0.4
					c0.11-0.1,0.19-0.21,0.26-0.33c0.01-0.01,0.01-0.01,0.01-0.02H19.36z M20.96,47.16v0.01h0.49c0.01,0.01,0.02,0.02,0.04,0.03
					c0.6,0.3,1.31,0.47,2.09,0.47h15.95c0.8,0,1.53-0.18,2.15-0.5h1.26v-0.01H20.96z M20.96,47.16v-25.8c0,0,0-0.01,0-0.02
					c0-0.53,0-1.07-0.01-1.61c0,0,0.01-0.01,0-0.02c0.01-1.37,0.01-2.74,0-4.12c0.01-0.01,0.01-0.01,0.01-0.01
					c0-0.01,0-0.02-0.01-0.02c0.01-0.24,0-0.48,0-0.73v-3.35c0-0.32,0.07-0.51,0.26-0.68c0.03-0.03,0.07-0.06,0.1-0.09
					c0.04-0.03,0.08-0.06,0.13-0.09c0.19-0.12,0.35-0.25,0.49-0.4c0.11-0.1,0.19-0.21,0.26-0.33c0.01-0.01,0.01-0.01,0.01-0.02
					h-2.84c-0.01,0.01-0.02,0.01-0.01,0.02c-0.04,0.05-0.07,0.1-0.1,0.16v38.79h17.13c0.02-0.14,0.03-0.3,0.03-0.46v-0.71h3.12
					c0.8,0,1.53-0.18,2.15-0.5h1.26v-0.01H20.96z M20.96,47.16v-25.8c0,0,0-0.01,0-0.02c0-0.53,0-1.07-0.01-1.61
					c0,0,0.01-0.01,0-0.02c0.01-1.37,0.01-2.74,0-4.12c0.01-0.01,0.01-0.01,0.01-0.01c0-0.01,0-0.02-0.01-0.02
					c0.01-0.24,0-0.48,0-0.73v-3.35c0-0.32,0.07-0.51,0.26-0.68c0.03-0.03,0.07-0.06,0.1-0.09c0.04-0.03,0.08-0.06,0.13-0.09
					c0.19-0.12,0.35-0.25,0.49-0.4c0.11-0.1,0.19-0.21,0.26-0.33c0.01-0.01,0.01-0.01,0.01-0.02h-2.84
					c-0.01,0.01-0.02,0.01-0.01,0.02c-0.04,0.05-0.07,0.1-0.1,0.16v38.79h17.13c0.02-0.14,0.03-0.3,0.03-0.46v-0.71h3.12
					c0.8,0,1.53-0.18,2.15-0.5h1.26v-0.01H20.96z M20.96,47.16v-25.8c0,0,0-0.01,0-0.02c0-0.53,0-1.07-0.01-1.61
					c0,0,0.01-0.01,0-0.02c0.01-1.37,0.01-2.74,0-4.12c0.01-0.01,0.01-0.01,0.01-0.01c0-0.01,0-0.02-0.01-0.02
					c0.01-0.24,0-0.48,0-0.73v-3.35c0-0.32,0.07-0.51,0.26-0.68c0.03-0.03,0.07-0.06,0.1-0.09c0.04-0.03,0.08-0.06,0.13-0.09
					c0.19-0.12,0.35-0.25,0.49-0.4c0.11-0.1,0.19-0.21,0.26-0.33c0.01-0.01,0.01-0.01,0.01-0.02h-2.84
					c-0.01,0.01-0.02,0.01-0.01,0.02c-0.04,0.05-0.07,0.1-0.1,0.16v38.79h17.13c0.02-0.14,0.03-0.3,0.03-0.46v-0.71h3.12
					c0.8,0,1.53-0.18,2.15-0.5h1.26v-0.01H20.96z M20.96,47.16v-25.8c0,0,0-0.01,0-0.02c0-0.53,0-1.07-0.01-1.61
					c0,0,0.01-0.01,0-0.02H19.3c0,0.01,0,0.02,0,0.02h-0.05v29.11h17.13c0.02-0.14,0.03-0.3,0.03-0.46v-0.71h3.12
					c0.8,0,1.53-0.18,2.15-0.5h1.26v-0.01H20.96z"/>
				<path class="st3" d="M26.17,26.82c0.13-0.11,0.29-0.17,0.45-0.17v-0.01C26.45,26.64,26.3,26.7,26.17,26.82z M20.98,43.53
					c-0.02-1.09,0-2.18,0-3.27c0-2.35-0.01-4.72,0-7.08c0-0.06,0-0.12-0.01-0.17v0.15c-0.01,2.36,0,4.73,0,7.08
					c0,0.73-0.01,1.45-0.01,2.18c0,0.36,0,0.73,0.01,1.09c0,0.09,0.01,0.17,0.02,0.26C20.98,43.69,20.98,43.61,20.98,43.53z
					 M20.97,21.34c0,0.01,0,0.01,0,0.02c-0.01,2.51,0,5.02,0,7.53v0.33c0,0.09,0,0.18-0.01,0.26c0.01-0.07,0.02-0.15,0.02-0.23
					v-0.33c0-2.52-0.01-5.04,0-7.56c0-0.01,0-0.01,0-0.02C20.98,21.34,20.98,21.34,20.97,21.34z M25.81,23.88v-2.52
					c0,0,0-0.01,0-0.02v-1.61c0,0,0-0.01,0-0.02v-3.3H25.8v3.3c0,0.01,0,0.02,0,0.02v1.61c0,0.01,0,0.02,0,0.02v2.5
					c0,0.1,0.01,0.2,0.02,0.29C25.81,24.06,25.81,23.98,25.81,23.88z M36.4,46.02c0,0.01,0,0.01,0,0.02c0.01,0,0.01,0,0.01,0
					C36.41,46.03,36.41,46.03,36.4,46.02C36.41,46.02,36.41,46.02,36.4,46.02z M20.98,43.53c-0.02-1.09,0-2.18,0-3.27
					c0-2.35-0.01-4.72,0-7.08c0-0.06,0-0.12-0.01-0.17c0-0.06,0-0.12-0.01-0.17v9.58c0,0.36,0,0.73,0.01,1.09
					c0,0.09,0.01,0.17,0.02,0.26C20.98,43.69,20.98,43.61,20.98,43.53z M54.92,6.4c-0.23,0.14-0.42,0.3-0.58,0.47
					c0.16-0.17,0.36-0.32,0.58-0.46c0.01-0.01,0.02-0.01,0.03-0.02C54.94,6.39,54.93,6.4,54.92,6.4z M26.17,26.82
					c0.13-0.11,0.29-0.17,0.45-0.17v-0.01C26.45,26.64,26.3,26.7,26.17,26.82z M21.48,6.57c-0.27-0.17-0.43-0.35-0.5-0.59
					c0.05,0.25,0.22,0.43,0.5,0.6c0.03,0.02,0.05,0.03,0.07,0.05C21.53,6.61,21.51,6.59,21.48,6.57z M20.97,19.71
					c-0.01,0-0.01,0-0.02,0c0.01,0.01,0,0.02,0,0.02c0.01,0.54,0.01,1.08,0.01,1.61c0,0.01,0,0.02,0,0.02v8.12
					c0.01-0.07,0.02-0.15,0.02-0.23v-0.33c0-2.52-0.01-5.04,0-7.56c0-0.01,0-0.01,0-0.02v-1.61c0-0.01,0-0.01,0-0.02H20.97z
					 M46.02,9.39c-5.33,0-10.67-0.01-16,0c-0.75,0-1.45,0.17-2.04,0.48c-0.01,0.01-0.03,0.01-0.04,0.02
					c-1.19,0.63-1.99,1.82-2.12,3.29c-0.01,0.14-0.02,0.29-0.02,0.44v1.14c0,0.01,0,0.01,0,0.02v4.93c0,0.01,0,0.02,0,0.02v1.61
					c0,0.01,0,0.02,0,0.02v2.5c0,0.1,0.01,0.2,0.02,0.29c-0.01-0.09-0.01-0.17-0.01-0.27v-2.52c0,0,0-0.01,0-0.02v-1.61
					c0,0,0-0.01,0-0.02v-4.93c0-0.01,0-0.01,0-0.02v-1.12c0-0.16,0.01-0.31,0.02-0.46c0.14-1.48,0.95-2.67,2.16-3.29
					c0.02-0.01,0.03-0.02,0.05-0.02c0.58-0.3,1.26-0.46,1.99-0.46c5.33-0.01,10.67,0,16,0c0.63,0,1.22,0.11,1.75,0.3
					C47.25,9.5,46.66,9.4,46.02,9.39z M48.16,9.87c-0.13-0.06-0.25-0.11-0.38-0.16c0.12,0.05,0.24,0.1,0.36,0.16
					c0.01,0,0.02,0.01,0.04,0.02c0.04,0.02,0.08,0.04,0.12,0.06c0.05,0.03,0.1,0.06,0.15,0.09c0.09,0.05,0.17,0.11,0.25,0.17V9.87
					H48.16z M26.17,26.82c0.13-0.11,0.29-0.17,0.45-0.17v-0.01C26.45,26.64,26.3,26.7,26.17,26.82z M20.98,43.53
					c-0.02-1.09,0-2.18,0-3.27c0-2.35-0.01-4.72,0-7.08c0-0.06,0-0.12-0.01-0.17v0.15c-0.01,2.36,0,4.73,0,7.08
					c0,0.73-0.01,1.45-0.01,2.18c0,0.36,0,0.73,0.01,1.09c0,0.09,0.01,0.17,0.02,0.26C20.98,43.69,20.98,43.61,20.98,43.53z
					 M20.97,21.34c0,0.01,0,0.01,0,0.02c-0.01,2.51,0,5.02,0,7.53v0.33c0,0.09,0,0.18-0.01,0.26c0.01-0.07,0.02-0.15,0.02-0.23
					v-0.33c0-2.52-0.01-5.04,0-7.56c0-0.01,0-0.01,0-0.02C20.98,21.34,20.98,21.34,20.97,21.34z M25.81,23.88v-2.52
					c0,0,0-0.01,0-0.02v-1.61c0,0,0-0.01,0-0.02v-3.3H25.8v3.3c0,0.01,0,0.02,0,0.02v1.61c0,0.01,0,0.02,0,0.02v2.5
					c0,0.1,0.01,0.2,0.02,0.29C25.81,24.06,25.81,23.98,25.81,23.88z M21.13,47c0.09,0.05,0.19,0.11,0.29,0.16h0.01H36.4h0.01h1.66
					h3.63h1.24h1.69h4.07h1.68h4.84v0.01h-4.84H48.7h-4.07h-1.69h-1.26h-3.61h-1.66H36.4H21.45h-0.01h-0.48v-0.01v-0.28v-0.01"/>
				<path d="M50.36,38.1c0,1.24-0.46,2.3-1.22,3.03c-0.14,0.13-0.28,0.25-0.44,0.36c-0.17,0.13-0.35,0.24-0.54,0.34
					c-0.46,0.23-0.98,0.38-1.54,0.44c-0.18,0.02-0.38,0.03-0.57,0.03h-3.88c0,0,0,0-0.01,0h-5.75c0,0,0,0-0.01,0h-6.3
					c-0.23,0-0.46-0.02-0.68-0.04c-0.22-0.03-0.43-0.08-0.63-0.13c-0.14-0.04-0.27-0.08-0.4-0.13c-0.19-0.08-0.37-0.16-0.55-0.26
					c-0.18-0.1-0.34-0.22-0.5-0.34c-0.1-0.08-0.2-0.17-0.3-0.26c-0.1-0.09-0.19-0.19-0.27-0.29c-0.15-0.17-0.28-0.36-0.39-0.57
					c-0.05-0.06-0.08-0.13-0.12-0.21c-0.1-0.2-0.18-0.41-0.25-0.63c-0.04-0.16-0.08-0.32-0.11-0.49c-0.05-0.25-0.07-0.52-0.08-0.79
					v-0.03c-0.04-3.48-0.01-6.96-0.01-10.46c0-0.3,0.09-0.55,0.24-0.73c0.04-0.05,0.08-0.09,0.12-0.12
					c0.13-0.12,0.28-0.18,0.45-0.18h0.01c0.06,0,0.13,0.01,0.19,0.04c0.06,0.02,0.13,0.04,0.19,0.07c0.22,0.11,0.34,0.26,0.4,0.44
					c0.02,0.05,0.03,0.09,0.04,0.14c0.03,0.15,0.04,0.31,0.04,0.48v7.08c0,1.09-0.01,2.19,0.01,3.27c0,0.29,0.04,0.56,0.12,0.8
					c0.03,0.08,0.05,0.16,0.08,0.23c0.06,0.15,0.14,0.29,0.22,0.42c0.09,0.13,0.19,0.25,0.3,0.36c0.02,0.02,0.05,0.05,0.08,0.08
					c0.03,0.02,0.07,0.05,0.1,0.08l0.01,0.01c0.06,0.04,0.11,0.08,0.17,0.12v0.01h0.01c0.03,0.02,0.06,0.04,0.1,0.05
					c0.03,0.02,0.07,0.04,0.11,0.06v0.01h0.01c0.1,0.05,0.2,0.1,0.32,0.13c0.08,0.03,0.16,0.05,0.24,0.06
					c0.04,0.01,0.08,0.02,0.12,0.03c0.07,0.02,0.13,0.03,0.2,0.03c0.04,0.01,0.09,0.01,0.13,0.01c0.08,0,0.16,0.01,0.24,0.01h6.34
					c0.01,0,0.01,0,0.01,0h5.76c0.13,0,0.25,0.01,0.38,0.01s0.26-0.01,0.39-0.01c0.15,0,0.3,0.01,0.45,0.01
					c0.15,0,0.3-0.01,0.45-0.01c0.13,0,0.26,0.01,0.39,0.01s0.27-0.01,0.4-0.01h1.43c0.35,0,0.67-0.05,0.96-0.14
					c0.28-0.1,0.54-0.24,0.76-0.41c0.07-0.05,0.14-0.11,0.2-0.17s0.12-0.13,0.18-0.2c0,0,0,0,0-0.01c0.06-0.07,0.11-0.15,0.15-0.22
					c0.05-0.08,0.09-0.17,0.13-0.25c0-0.01,0-0.01,0-0.01c0.04-0.09,0.07-0.18,0.1-0.27c0.06-0.18,0.1-0.38,0.12-0.59
					c-0.01-0.01-0.01-0.01,0-0.01c0.01-0.05,0.02-0.1,0.01-0.16v-0.17c0.01-4.07,0.01-8.14,0.01-12.2c0-3.1,0-6.2-0.01-9.3V13.7
					c0-0.18-0.01-0.35-0.03-0.52c-0.02-0.16-0.06-0.32-0.1-0.46c-0.08-0.29-0.21-0.55-0.39-0.78c-0.08-0.1-0.18-0.2-0.28-0.3
					c-0.15-0.14-0.33-0.25-0.53-0.34c-0.2-0.1-0.42-0.17-0.67-0.22c-0.01-0.01-0.01-0.01-0.02-0.01c-0.19-0.04-0.39-0.05-0.59-0.05
					H30.11c-1.46,0-2.42,0.83-2.6,2.16c-0.02,0.14-0.03,0.29-0.03,0.44v1.14c0,0.01,0,0.01,0,0.02v4.93c0,0.01,0,0.01,0,0.02v1.61
					c0,0.01,0,0.01,0,0.02v2.5c-0.01,0.76-0.3,1.16-0.84,1.16c-0.25,0-0.44-0.08-0.59-0.25c-0.04-0.05-0.09-0.12-0.12-0.19
					c-0.05-0.12-0.09-0.27-0.11-0.43c-0.01-0.09-0.02-0.19-0.02-0.29v-2.5c0,0,0-0.01,0-0.02v-1.61c0,0,0-0.01,0-0.02v-4.93
					c0-0.01,0-0.01,0-0.02v-1.14c0-0.15,0.01-0.3,0.02-0.44c0.13-1.47,0.93-2.66,2.12-3.29c0.01-0.01,0.03-0.01,0.04-0.02
					c0.59-0.31,1.29-0.48,2.04-0.48c5.33-0.01,10.67,0,16,0c0.64,0.01,1.23,0.11,1.76,0.32c0.13,0.05,0.25,0.1,0.38,0.16
					c0.01,0.01,0.02,0.02,0.04,0.02c0.04,0.02,0.07,0.04,0.1,0.06c0.05,0.03,0.1,0.06,0.15,0.09c0.09,0.05,0.17,0.11,0.25,0.17
					c0.8,0.57,1.35,1.42,1.57,2.47c0.06,0.3,0.09,0.62,0.09,0.96v1.83c0,0.01,0,0.01,0,0.02C50.39,23.03,50.38,30.56,50.36,38.1z"/>
				<path class="st4" d="M26.82,26.68c-0.06-0.02-0.13-0.03-0.19-0.03v-0.01C26.69,26.64,26.76,26.65,26.82,26.68z"/>
				<path class="st4" d="M28.8,40.38c-0.04-0.02-0.08-0.04-0.11-0.05v-0.01C28.72,40.34,28.76,40.36,28.8,40.38z"/>
				<path class="st4" d="M29.69,40.64c-0.06,0-0.12-0.01-0.19-0.02c-0.05-0.01-0.09-0.02-0.13-0.04c0.04,0.01,0.08,0.02,0.12,0.03
					C29.56,40.63,29.62,40.64,29.69,40.64z"/>
				<path class="st4" d="M29.82,40.65h-0.09c-0.01,0-0.03,0-0.04-0.01C29.73,40.65,29.78,40.65,29.82,40.65z"/>
				<path class="st4" d="M42.16,40.66c-1.36,0.01-2.72,0.01-4.08,0.01c-0.01,0-0.01,0-0.02,0h-1.65c-0.01,0-0.01,0-0.01,0
					c-2.12,0-4.23,0-6.34-0.01h6.34c0.01,0,0.01,0,0.01,0H42.16z"/>
				<path class="st4" d="M47.98,39.94c-0.06,0.07-0.12,0.13-0.19,0.18c-0.23,0.18-0.48,0.31-0.77,0.4c0.28-0.1,0.54-0.24,0.76-0.41
					C47.85,40.06,47.92,40,47.98,39.94z"/>
				<path class="st4" d="M48.69,25.86c0,4.06,0,8.13-0.01,12.2c0,0.06,0,0.11-0.01,0.16v-0.17c0.01-4.07,0.01-8.14,0.01-12.2
					c0-3.1,0-6.2-0.01-9.3V13.7c0-0.18-0.01-0.35-0.03-0.52c0.03,0.17,0.04,0.34,0.04,0.53v2.87
					C48.69,19.67,48.69,22.77,48.69,25.86z"/>
				<path d="M46.08,11.03c0.2,0,0.4,0.01,0.59,0.05C46.48,11.04,46.27,11.04,46.08,11.03c-3.57,0-7.14,0-10.71,0
					C38.94,11.03,42.51,11.03,46.08,11.03z"/>
				<path d="M46.06,40.67c0.7,0,1.28-0.2,1.73-0.54C47.34,40.48,46.76,40.68,46.06,40.67c-2.67,0.01-5.34,0.01-8,0.01
					C40.72,40.68,43.39,40.68,46.06,40.67z"/>
				<path d="M38.06,40.68c-2.67,0-5.34,0-8,0c-0.2,0-0.38-0.02-0.56-0.05c0.18,0.03,0.36,0.04,0.56,0.04
					C32.72,40.68,35.39,40.68,38.06,40.68z"/>
				<path d="M28.58,40.27c0.07,0.04,0.14,0.08,0.22,0.12C28.72,40.36,28.65,40.31,28.58,40.27z"/>
				<path d="M28.4,40.13c-0.07-0.05-0.13-0.11-0.18-0.16C28.28,40.03,28.34,40.08,28.4,40.13z"/>
			</g>
		</g>
	</g>
</g>
</svg>
