<svg id="Layer_1" data-name="Layer 1" xmlns="http://www.w3.org/2000/svg" viewBox="0 0 63.16 68.39"><defs><style>.cls-1{font-size:21.87px;font-family:AlojaExtended, Aloja Extended;}.cls-1,.cls-2{fill:#fdc83e;}</style></defs><text class="cls-1" transform="translate(7.78 40.35)">Yum!</text><path class="cls-2" d="M45.93,14.88a20.37,20.37,0,0,1,3.76-5.16c1.76-1.56,4-2,4.68-.85,1.56,2.43-2.58,1.91-4.79,3.08A13.24,13.24,0,0,0,45.93,14.88Z"/><path class="cls-2" d="M15.11,47a18.15,18.15,0,0,1-3.32,5.54c-1.71,1.73-4.15,2.34-5.15,1.3-2.2-2.28,2.57-2.16,4.87-3.55A13.09,13.09,0,0,0,15.11,47Z"/><path class="cls-2" d="M45,13.59s0-2.82.73-4,2.62-1,1,.84A5.74,5.74,0,0,0,45,13.59Z"/></svg>