<svg id="Layer_1" data-name="Layer 1" xmlns="http://www.w3.org/2000/svg" viewBox="0 0 120 121"><defs><style>.cls-1,.cls-4{fill:#008567;}.cls-2{fill:none;stroke:#008567;stroke-miterlimit:10;}.cls-3{fill:#fff;}.cls-4{font-size:12px;font-family:CaveatBrush-Regular, Caveat Brush;}</style></defs><path class="cls-1" d="M110.17,59.5a51.5,51.5,0,1,1-103,0c0-.16,0-.32,0-.48a51.49,51.49,0,0,1,103,0C110.17,59.18,110.17,59.34,110.17,59.5Z"/><circle class="cls-2" cx="58.67" cy="59.5" r="56"/><path class="cls-3" d="M110.17,59.5A51.32,51.32,0,0,1,96.92,94H20.43A51.33,51.33,0,0,1,7.17,59.5c0-.16,0-.32,0-.48h103C110.17,59.18,110.17,59.34,110.17,59.5Z"/><text class="cls-4" transform="translate(27.66 73.34)">100% Natural <tspan x="14.66" y="14.4">&amp; vegan</tspan></text><path class="cls-3" d="M53.4,47S47.61,30.46,63.47,27s24.65,2.79,24.65,2.79-3.21-1.07-10.07,4.07S73.55,47,67.33,50.18A11.63,11.63,0,0,1,56,50S57,40.91,60.9,37.75s11.57-6,11.57-6-9.64,1.93-13.72,5.14S53.4,47,53.4,47Z"/><path class="cls-3" d="M49,40s2.62-7.35-6.06-9.39-13.5,1.65-13.5,1.65,1.76-.63,5.51,2.42,2.47,7.75,5.87,9.66S48,42,48,42a18.93,18.93,0,0,0-3.65-5A27.05,27.05,0,0,0,38,33.41s5.28,1.14,7.51,3.05A26.37,26.37,0,0,1,49,40Z"/></svg>