<svg id="Layer_1" data-name="Layer 1" xmlns="http://www.w3.org/2000/svg" viewBox="0 0 120 121"><defs><style>.cls-1,.cls-4{fill:#f3b600;}.cls-2{fill:none;stroke:#f3b600;stroke-miterlimit:10;}.cls-3{fill:#fff;}.cls-4{font-size:12px;font-family:CaveatBrush-Regular, Caveat Brush;}</style></defs><path class="cls-1" d="M110.5,59.29v.21a51.5,51.5,0,1,1-103,0v-.21a51.5,51.5,0,0,1,103,0Z"/><circle class="cls-2" cx="59" cy="59.5" r="56"/><path class="cls-3" d="M46.41,104.16c-.13-9.74,1.26-15.12,2.66-19.63-1,12-.82,19.63-.27,18.8Z"/><path class="cls-3" d="M46.52,83.75c-4.56.78-6.71-2.66-7.3-6.13a31.81,31.81,0,0,0-2.88-7.76s7.85.23,9.88,3,1.69,9.91,1.69,9.91Z"/><path class="cls-3" d="M49,80.2c-.51-3,1.75-8.11,4.78-8.63s5.57.62,8.23.16l1.14-.19s-3.26,8.36-7.82,9.14S49,80.2,49,80.2Z"/><path class="cls-3" d="M47.48,71.09a11.51,11.51,0,0,1-5.33-3.78c-2-2.78-.51-7.05-2.8-9.34,0,0,4.14-1.13,8,3.33a11.83,11.83,0,0,1,3,9.3Z"/><path class="cls-3" d="M50.4,58.18c-3.79-.39-4.74-3.6-4.44-6.48a26.41,26.41,0,0,0-.58-6.81s6.19,1.91,7.2,4.57-.86,8.26-.86,8.26Z"/><path class="cls-3" d="M54.66,46.73a8.9,8.9,0,0,1-3.19-3.92c-.94-2.49,1.09-5.36-.15-7.54,0,0,3.32,0,5.29,4.14A9.16,9.16,0,0,1,56.9,47Z"/><path class="cls-3" d="M51.26,65.76s-.74,4.81,5.33,3.78,6.56-7.37,9.33-9.4c-4.81-.75-9.62-1.49-12.4.55A5.46,5.46,0,0,0,51.26,65.76Z"/><path class="cls-3" d="M54,55.58c.09-2.54,2.77-6.26,5.31-6.17s4.39,1.44,6.62,1.52l1,0S62.8,57.17,59,57,54,55.58,54,55.58Z"/><path class="cls-3" d="M58.51,43.1S57.19,46.63,62,46.8s6.13-4.54,8.55-5.64c-3.53-1.32-7-2.64-9.48-1.54A4.23,4.23,0,0,0,58.51,43.1Z"/><path class="cls-3" d="M59.66,37.8c-2.76-.9-2.94-3.44-2.25-5.54a20,20,0,0,0,.68-5.16s4.29,2.43,4.6,4.57-2,6-2,6Z"/><path class="cls-3" d="M63.9,29.08A6,6,0,0,1,62.36,26c-.27-1.79,1.49-3.39,1-5,0,0,2.2.49,2.9,3.51a6.19,6.19,0,0,1-.9,5Z"/><path class="cls-3" d="M63.58,36.15c.49-1.87,3.08-4.2,5-3.72s3,1.78,4.68,2.2l.7.18s-4,4-6.82,3.24S63.58,36.15,63.58,36.15Z"/><path class="cls-3" d="M67.72,26.81s-1.39,2.15,1.74,3,4.72-2.13,6.48-2.51c-2.14-1.38-4.29-2.77-6.06-2.39A2.87,2.87,0,0,0,67.72,26.81Z"/><path class="cls-3" d="M67.54,22.91s1.07,2.32,3.42.1.73-5.12,1.36-6.81C70,17.27,67.68,18.34,67.05,20A2.89,2.89,0,0,0,67.54,22.91Z"/><path class="cls-3" d="M110.5,59.29v.21A51.25,51.25,0,0,1,105.34,82H12.66A51.25,51.25,0,0,1,7.5,59.5v-.21Z"/><text class="cls-4" transform="translate(34.74 73.34)">Gluten free</text></svg>