<svg id="Layer_1" data-name="Layer 1" xmlns="http://www.w3.org/2000/svg" viewBox="0 0 63.16 68.39"><defs><style>.cls-1{fill:#fdc83e;}</style></defs><path id="path2613" class="cls-1" d="M22.43,36l.08,0C22.39,35.78,22.36,35.79,22.43,36Zm0,0,.08,0C22.39,35.78,22.36,35.79,22.43,36ZM52.11,17.08A26.79,26.79,0,0,0,18.41,11a27.43,27.43,0,0,0-13,17.23,31.68,31.68,0,0,0-.76,6.41c0,.61,0,1.22.07,1.82,0,.2,0,.39,0,.58h0c0,.2,0,.4.07.6a4.89,4.89,0,0,1,1-.73A9.18,9.18,0,0,1,10,35.69a4.53,4.53,0,0,1,2.18.52c3,1.59,3.47,6.34,3.47,6.38l.18,1.75.77-1.58a19.37,19.37,0,0,1,4.91-6.13c-.05-.17-.1-.34-.14-.51s-.08-.37-.11-.54a6.7,6.7,0,0,1-.11-.7c-.14-1.28-.32-1.67-.84-1.83s-.57-.59-.55-2.63c0-1.79,0-2.05.36-2.69a6.57,6.57,0,0,1,.76-1.19,1.67,1.67,0,0,0,.45-1.33,3.2,3.2,0,0,0-.42-1.83c-.25-.53-.55-1.12-.67-1.3s-.23-.31-.47-.1-.25.21-.34-.12a3.55,3.55,0,0,0-.56-1,1.43,1.43,0,0,1-.4-1.44c.06-.58,0-.77-.08-.7a2.65,2.65,0,0,1-1.11-.48c-1-.61-1.58-.68-1.71-.21-.06.24-.19.28-.78.28-.38,0-1,.06-1.44.12s-.72.06-.66,0a.65.65,0,0,1,.47-.15,2.94,2.94,0,0,0,1-.27,1.76,1.76,0,0,1,.88-.19c.48.13.32-.22-.21-.44s-.61-.5-.25-1.22c.13-.26.28-.56.33-.68s.34-.21,1.06-.21,1,0,1-.22-.11-.3-.31-.41c-.43-.23-.44-.28-.06-.68.19-.21.37-.29.52-.22a1.12,1.12,0,0,0,1.3-.09,1.52,1.52,0,0,1,2.23.5,1.38,1.38,0,0,0,.88.62,1.54,1.54,0,0,0,.75.11c.14-.14-.23-.51-.82-.81-1.12-.58-.44-.73,1.1-.25a2.76,2.76,0,0,1,1.46.84,1.71,1.71,0,0,0,.76.54,4.78,4.78,0,0,1,1.14.44,3.16,3.16,0,0,0,1,.37,2.73,2.73,0,0,0,.14-.68c.12-.94.13-1,1.15-1.42,1.26-.59.8-.66-.61-.11-1,.39-1.11.42-1.26.22s-.87-.29-1.63-.07c-.6.16-1.05,0-1.7-.66a1.25,1.25,0,0,0-.91-.42,14.18,14.18,0,0,1-1.56-.22l-1-.21.63-.17c1.78-.47,2-.6,2.94-1.49s1.41-1.18,2.23-1.18a1,1,0,0,0,.86-.37,2.43,2.43,0,0,1,2.16-.78,26.86,26.86,0,0,0,3-.25l2-.26.85.41a4.5,4.5,0,0,0,1.16.41,5.61,5.61,0,0,1,2,.75c.32.23.3.24-.68.15s-1-.07-1,.12a.4.4,0,0,0,.15.31.93.93,0,0,1,.27.43.73.73,0,0,0,.52.41,10.59,10.59,0,0,1,3.54,1.19,10.45,10.45,0,0,0,1.6.78c.73.25,1,.61.77,1.15a2.21,2.21,0,0,0,0,.91c.08.48.27.77,1.06,1.57l1,1-.95,0a5.72,5.72,0,0,1-1.27,0,12.23,12.23,0,0,1-2-1.66c-1.77-1.68-1.83-1.72-4.54-2.61-.93-.31-1-.31-1.15-.06a1.35,1.35,0,0,0-.19.71c0,.41.07.5.53.69a5.05,5.05,0,0,0,1.19.3c.54.07.71,0,.85-.17s.29-.23.6-.15A2.32,2.32,0,0,1,39,15.71a2,2,0,0,1,.44,1.49c0,1.32-.41,1.48-2.29.95-.74-.21-.92-.31-1-.57s-.1-.31-.48-.23a1.59,1.59,0,0,0-.64.28c-.16.17-.13.23.21.41l.4.21-.7.09a2.41,2.41,0,0,0-1.95,1c-.76.94-.8,1.09-.56,1.82.16.45.3.65.48.65A4,4,0,0,1,34,22.2a3.1,3.1,0,0,0,1.41.42c.53,0,.64.05.81.38a4.93,4.93,0,0,1,.28.75c.1.43.61,1.11.82,1.11s.12-.38.06-1.2c-.07-1,0-1.2.12-1.27a.38.38,0,0,0,.21-.34c0-.32-.28-1-.42-1s-.18-.19-.28-.42-.14-.47,0-.65.13-.27-.23-.56c-.54-.43-.27-.54.92-.35a2.15,2.15,0,0,1,1.38.62c.71.68,1.06.84,1.27.59a.65.65,0,0,0,.08-.52c-.06-.23.16-.06.74.55a5.18,5.18,0,0,0,1.75,1.28c1.56.7,1.72,1.44.56,2.61-.4.41-.6.72-.55.86a1.08,1.08,0,0,1,.09.34.14.14,0,0,0,.15.13c.35,0,1-.64,1.55-1.49a5.41,5.41,0,0,1,.63-.89,6.84,6.84,0,0,1,.84.55l.78.56-.4.08c-1.35.31-1.59.55-1.4,1.46.07.37,0,.42-.46.62s-.55.29-.62.77-.28.74-1,.64c-.41-.07-.5,0-.8.43s-.32.51-.1.75.18.28-.57.8a2.28,2.28,0,0,0-1,1,1.72,1.72,0,0,1-.42.67c-.25.18-.25.21,0,.45a1.42,1.42,0,0,1,.23.91A1.25,1.25,0,0,1,40.05,34a6.54,6.54,0,0,0-1.51,2,5.56,5.56,0,0,0,.35,1.1c.41,1,.45,1.6.13,2.05l-.23.32-.4-.46a2.51,2.51,0,0,1-.49-1,4,4,0,0,0-.3-.89c-.16-.32-.26-.38-.5-.3s-.83.18-1.46.28c-1.33.22-1.44.27-1.44.64s0,.33-.59,0-.53-.26-1.26-.09l-.5.16a3.82,3.82,0,0,0-.46.21,4.09,4.09,0,0,0-.43.25,4.19,4.19,0,0,1,.45,2A7.88,7.88,0,0,1,31,42.66a3.42,3.42,0,0,0,.4.36,4.35,4.35,0,0,0,.43.32,2.57,2.57,0,0,0,.91.39A1.14,1.14,0,0,0,34,42.67c.11-.62.24-.71,1-.72s1.06.26,1,1.34c-.15,1.35,0,1.56,1.3,1.82.58.11.76.45.81,1.56a3,3,0,0,0,.18,1.07,2.86,2.86,0,0,0,.86.43c.57.21.75.22.92.09s.26.09-.08.42-1.17.34-2.38-.3S36,47.41,36,46.92s-.37-.62-1.15-.62a3.61,3.61,0,0,1-2.3-.79l-.65-.5-.54.24a1.62,1.62,0,0,1-.47.16.89.89,0,0,1-.52-.1l-.45-.19C27.5,49.76,22.52,55,18.77,58.56l.46.26.49.25A27.11,27.11,0,0,0,28.5,61.7c.55.06,1.87.12,2.93.13A26.93,26.93,0,0,0,57.54,42,27.43,27.43,0,0,0,52.11,17.08ZM11.9,18.2c.25-.07.32-.05.27.09s-.24.21-.47.24C11.23,18.58,11.37,18.37,11.9,18.2Zm2.79,1s0,.17-.1.29-.57.29-.57.08S14.58,19.06,14.69,19.17ZM43.6,11.54c-.93-.78-1.24-1-1.47-.9a5,5,0,0,1-.8.17c-.45.06-.55,0-.86-.41A4.28,4.28,0,0,1,39.69,9a14.13,14.13,0,0,1,1.8.68A26.71,26.71,0,0,1,50,15.25a23.58,23.58,0,0,1,3.82,4.68c.71,1.06.84,1.34.7,1.5a.56.56,0,0,1-.26.2,4.94,4.94,0,0,1-2-2,2.56,2.56,0,0,1-.15-.76,1.17,1.17,0,0,0-1-1.25c-.56-.16-.71-.28-.88-.67-.22-.54-.79-1-1.1-.86a1.4,1.4,0,0,1-1.29-.58c-.55-.76-.55-.77.06-.71s.56,0,.42-.23a1.81,1.81,0,0,0-1.14-1A10.13,10.13,0,0,1,43.6,11.54Zm2.74,29.64c.3,0,.67-.12.82-.16s.18,0-.18.36c-.53.51-.61.52-.93.16S45.82,41.27,46.34,41.18Zm-1.3.3c.58-.07.67-.06.59.13a1.59,1.59,0,0,0-.08.34,2.26,2.26,0,0,1-.82.4c-1,.38-1.14.38-1.14,0S44.07,41.61,45,41.48Zm-5.55.38c-1,.11-1.78-.16-1.79-.65a3.57,3.57,0,0,1,1.23-.09h1.43a10.33,10.33,0,0,1,2.42.4c.06.06,0,.21-.14.33a2,2,0,0,1-1.86.16A2.41,2.41,0,0,0,39.49,41.86Zm2.14,1c0,.14-.14.21-.4.21-.43,0-.62-.11-.5-.3S41.63,42.63,41.63,42.86ZM55,47.5a27.89,27.89,0,0,1-5.69,7.16,28.47,28.47,0,0,1-8.28,5l-1.58.58c-.15,0,.5-.69,1.44-1.65,2-2.08,2.18-2.5.82-2.5-.82,0-1.3-.27-2.21-1.3-.5-.55-1-1.09-1-1.18s.21-.52.71-1.07a22.62,22.62,0,0,0,2.48-3.08l.52-.82-.3-.22c-.32-.22-.32-.5,0-1.36.08-.23.2-.61.26-.84s.2-.43.75-.5a7.16,7.16,0,0,0,1.62-.58l1-.49.23.4c.27.47.46.49,1.27.1l.61-.3.54.37c.68.46.81.46,1.67,0,1.06-.63,1.88-.53,2.34.28.13.23.32.42.42.41a11.1,11.1,0,0,0,2.17-1.06c.45-.26.46-.26.84,0C56.16,45.28,56.08,45.65,55,47.5Zm1.15-20.12c-.3-.58-.71-1.37-.92-1.75a3.23,3.23,0,0,1-.35-1.93A4,4,0,0,1,55,22.33c.3-.3,1.66,3.15,2.42,6.15a5.68,5.68,0,0,1,.24,1.24A8.44,8.44,0,0,1,56.15,27.38ZM22.43,36l.08,0C22.39,35.78,22.36,35.79,22.43,36Zm0,0,.08,0C22.39,35.78,22.36,35.79,22.43,36Z"/><path class="cls-1" d="M31.39,38a4.47,4.47,0,0,0-1.1-1.39c-3.42-2.94-6.51-2.26-8.92-.53a19.37,19.37,0,0,0-5.22,6.42s-1.1-11-10.54-6.08a6.19,6.19,0,0,0-.87.56h0c-7.36,5.83,9.55,26.23,9.55,26.23s2.15-1.77,4.94-4.44C23,55.23,28,50,30.39,45.31a15.94,15.94,0,0,0,1-2.29A6.26,6.26,0,0,0,31.39,38ZM31,42.66a15.78,15.78,0,0,1-1,2.46C27.5,49.76,22.52,55,18.77,58.56c-2,1.93-3.69,3.37-4.41,4C12.4,60.11,2.14,46.87,3.51,40a4.26,4.26,0,0,1,1.3-2.39,4.89,4.89,0,0,1,1-.73A9.18,9.18,0,0,1,10,35.69a4.53,4.53,0,0,1,2.18.52c3,1.59,3.47,6.34,3.47,6.38l.18,1.75.77-1.58a19.37,19.37,0,0,1,4.91-6.13,9.16,9.16,0,0,1,.92-.61l.08,0a6.64,6.64,0,0,1,1.91-.74A6.4,6.4,0,0,1,30,37a4,4,0,0,1,1,1.26,4.19,4.19,0,0,1,.45,2A7.88,7.88,0,0,1,31,42.66Z"/><path class="cls-1" d="M31.85,37.83a5.05,5.05,0,0,0-1.23-1.56,7.36,7.36,0,0,0-6.4-2,8.31,8.31,0,0,0-3,1.32,18.08,18.08,0,0,0-4.87,5.49c-.4-1.7-1.4-4.48-3.74-5.74-2-1-4.39-.82-7.27.69a4.19,4.19,0,0,0-.67.42,5.16,5.16,0,0,0-2.18,3.38c-1.6,8,10.85,23.12,11.38,23.76l.32.39.38-.32c.25-.2,2.39-2,5.11-4.58,3.8-3.64,8.74-8.89,11.19-13.66a17.44,17.44,0,0,0,.91-2.07,9.54,9.54,0,0,0,.59-3A5.26,5.26,0,0,0,31.85,37.83ZM14.36,62.55C12.4,60.11,2.14,46.87,3.51,40a4.26,4.26,0,0,1,1.3-2.39,4.89,4.89,0,0,1,1-.73A9.18,9.18,0,0,1,10,35.69a4.53,4.53,0,0,1,2.18.52c3,1.59,3.47,6.34,3.47,6.38l.18,1.75.77-1.58a19.37,19.37,0,0,1,4.91-6.13,9.16,9.16,0,0,1,.92-.61l.08,0a6.64,6.64,0,0,1,1.91-.74A6.4,6.4,0,0,1,30,37a4,4,0,0,1,1,1.26,4.19,4.19,0,0,1,.45,2A7.88,7.88,0,0,1,31,42.66a15.78,15.78,0,0,1-1,2.46C27.5,49.76,22.52,55,18.77,58.56,16.75,60.49,15.08,61.93,14.36,62.55ZM22.43,36l.08,0C22.39,35.78,22.36,35.79,22.43,36Z"/></svg>