<svg id="Layer_1" data-name="Layer 1" xmlns="http://www.w3.org/2000/svg" viewBox="0 0 120 121"><defs><style>.cls-1,.cls-6{fill:#0071bc;}.cls-2{fill:none;stroke:#0071bc;stroke-miterlimit:10;}.cls-3{fill:#dde9f2;}.cls-4{fill:#fff;}.cls-5{fill:#e3f7ff;}.cls-6{font-size:12px;font-family:CaveatBrush-Regular, Caveat Brush;}</style></defs><path class="cls-1" d="M110.05,59.48a51.5,51.5,0,1,1-103,0c0-.16,0-.32,0-.48a51.49,51.49,0,0,1,103,0C110.05,59.16,110.05,59.32,110.05,59.48Z"/><circle class="cls-2" cx="58.55" cy="59.48" r="56"/><polygon class="cls-3" points="42.66 76.65 15.43 68.31 15.43 38.84 42.66 47.2 42.66 76.65"/><polygon class="cls-4" points="63.78 64.98 42.66 76.65 42.66 47.2 63.78 35.5 63.78 64.98"/><polygon class="cls-5" points="63.78 35.5 42.66 47.5 15.43 38.84 36.4 27.05 63.78 35.5"/><polygon class="cls-3" points="80.89 93.51 53.66 85.17 53.66 55.7 80.89 64.06 80.89 93.51"/><polygon class="cls-4" points="102 81.84 80.89 93.51 80.89 64.06 102 52.37 102 81.84"/><polygon class="cls-5" points="102 52.37 80.89 64.36 53.66 55.7 74.63 43.91 102 52.37"/><path class="cls-4" d="M110.05,59.48a51.38,51.38,0,0,1-5,22.23H12.08a51.38,51.38,0,0,1-5-22.23c0-.16,0-.32,0-.48H110C110.05,59.16,110.05,59.32,110.05,59.48Z"/><text class="cls-6" transform="translate(38 73.34)">Sugarfree</text></svg>