<svg id="Layer_1" data-name="Layer 1" xmlns="http://www.w3.org/2000/svg" viewBox="0 0 63.16 68.39"><defs><style>.cls-1{fill:#da1d4a;}.cls-2{fill:#fff;}.cls-3{fill:#fcbd19;}.cls-4{fill:none;}.cls-5{fill:#2a9558;}</style></defs><g id="Layer_1-2" data-name="Layer 1"><path d="M27.51,13.18H25.82c0,.14,0,.29,0,.44v1.21h1.7V13.64a3.44,3.44,0,0,1,0-.46Zm-8.26,0v1.65H21V13.18Zm25.38,34.5v-.52H42.94v1.68h1.73V47.68Zm0,6.51V52.51H42.94v5H8.68v-.57q0-17.56,0-35.13a.83.83,0,0,1,.49-.84,2.42,2.42,0,0,0,.52-3.66,1.1,1.1,0,0,0-.22-.21,2.48,2.48,0,0,0-.26-.19L9,16.7a.73.73,0,0,1-.17-.19.94.94,0,0,1-.1-.23,1,1,0,0,1,0-.39,9.28,9.28,0,0,0,0-1.06h7.19a2.4,2.4,0,0,0,.05-1.65h-3c-1.6,0-3.2,0-4.79,0A1.13,1.13,0,0,0,7,13.84v3.59a1.12,1.12,0,0,0,1,.69.79.79,0,0,1,0,1.56,1.14,1.14,0,0,0-1,.68V59.15H44.12a1.37,1.37,0,0,0,.52-1.23C44.63,56.68,44.63,55.44,44.63,54.19Zm-.4-13.52H42.94v1.65h1.69V40.67h-.4Z"/><path class="cls-1" d="M25.8,14.83v4.88h1.7V14.83ZM21,15.56c0-.24,0-.48,0-.73h-1.7v4.88H21c0-1.37,0-2.74,0-4.12h0S21,15.56,21,15.56Zm17.12,31.6v1.25c0,.14,0,.29,0,.43h4.89V47.16Zm-3.25,5.35.27-.07-.32.07-.11,0a5.29,5.29,0,0,1-.9.08H17.81a5.08,5.08,0,0,1-.89-.08l-.09,0-.37-.08a2,2,0,0,0,.33.08H14.43V51.1a3.59,3.59,0,0,1-.49-.79c0-.06,0-.12-.07-.17a2.84,2.84,0,0,1-.13-.38,3.39,3.39,0,0,1-.17-.84,3.59,3.59,0,0,1,0-.47c0-3.5,0-7,0-10.46,0-.62.37-1,.82-1l0-1.6v0a.8.8,0,0,1-.36-.07.35.35,0,0,1-.13-.08.37.37,0,0,1-.12-.13.46.46,0,0,1-.09-.15l0,0a1.17,1.17,0,0,1-.1-.41,2.64,2.64,0,0,1,0-.29q0-5.12,0-10.24a4.27,4.27,0,0,1,.89-2.69V16.84a1.16,1.16,0,0,1,.06-.4.54.54,0,0,1,0-.11h0a1,1,0,0,1,.38-.33,2.17,2.17,0,0,0,.46-.38,1.79,1.79,0,0,0,.34-.44c.06-.11.11-.23.16-.34H13.3a1.13,1.13,0,0,0-.58.58V54.19H42.94V52.51Zm7.73-11.84H38.08v0a1.4,1.4,0,0,1,0,.29c0,.41,0,.82,0,1.22a.2.2,0,0,1,0,.11h4.86V40.66Z"/><path d="M15.08,34.88a1.59,1.59,0,0,1-.08.18.77.77,0,0,1-.12.13.67.67,0,0,1-.45.17h-.06a.69.69,0,0,1-.36-.09.35.35,0,0,1-.13-.08.49.49,0,0,1-.12-.13.46.46,0,0,1-.09-.15l0,0a2.24,2.24,0,0,1-.1-.41,2.44,2.44,0,0,1,0-.27q0-5.12,0-10.24a4.26,4.26,0,0,1,.88-2.67q0,7,0,14.05a.71.71,0,0,0,.44-.17A.74.74,0,0,0,15,35Z"/><path d="M15.2,34.47a1.57,1.57,0,0,1,0,.23.89.89,0,0,1-.08.17,1.07,1.07,0,0,0,.07-.19C15.17,34.62,15.18,34.55,15.2,34.47Z"/><path d="M21,19.73v1.63H19.25V19.73H21Z"/><path d="M27.5,19.73v1.63H25.8V19.73h1.7Z"/><path d="M14.43,37V51.1a3.59,3.59,0,0,1-.49-.79c0-.06,0-.12-.07-.17a2.84,2.84,0,0,1-.13-.38,4.46,4.46,0,0,1-.17-.84c0-.15,0-.3,0-.46,0-3.49,0-7,0-10.46,0-.62.36-1,.82-1Z"/><path d="M35.09,52.44l-.27.07-.09,0a5,5,0,0,1-1,.09q-8,0-16,0a4.76,4.76,0,0,1-.94-.09l-.09,0a2,2,0,0,1-.33-.08l.37.08H34.77Z"/><path d="M38.07,47.16v1.25c0,.14,0,.29,0,.43H36.38a3.33,3.33,0,0,0,0-.46V47.16Z"/><path d="M38.08,40.66v0a1.4,1.4,0,0,1,0,.29c0,.41,0,.82,0,1.22a.2.2,0,0,1,0,.11H36.41V40.66Z"/><path class="cls-2" d="M36.4,40.66v1.65H30.1a3.82,3.82,0,0,1-.68-.05,5.84,5.84,0,0,1-.63-.13l-.4-.13a5.52,5.52,0,0,1-.55-.26,4.39,4.39,0,0,1-.5-.34l-.3-.26a2.44,2.44,0,0,1-.27-.29,2.87,2.87,0,0,1-.39-.57,1.05,1.05,0,0,1-.12-.21,4.35,4.35,0,0,1-.25-.63c0-.16-.08-.32-.11-.49a5,5,0,0,1-.08-.79v0c0-3.48,0-7,0-10.46a1.12,1.12,0,0,1,.24-.73.68.68,0,0,1,.12-.12.64.64,0,0,1,.45-.18l0-1.6a.7.7,0,0,1-.6-.27.88.88,0,0,1-.12-.19,1.69,1.69,0,0,1-.11-.43,2.64,2.64,0,0,1,0-.29V21.34h1.7v2.54c0,.75-.3,1.16-.84,1.16l0,1.6a.43.43,0,0,1,.19,0l.19.07a.82.82,0,0,1,.44.58,1.94,1.94,0,0,1,.05.49V34.9c0,1.09,0,2.19,0,3.27a2.9,2.9,0,0,0,.11.79c0,.08.05.16.08.23a2.78,2.78,0,0,0,.22.42,2.6,2.6,0,0,0,.3.36l.08.08.1.08h0l.17.12h0a.31.31,0,0,0,.1,0l.11.06h0a1.53,1.53,0,0,0,.32.13l.24.06.12,0a.69.69,0,0,0,.2,0H36.4Z"/><path class="cls-2" d="M15.08,34.88a1.59,1.59,0,0,1-.08.18.77.77,0,0,1-.12.13.67.67,0,0,1-.45.17V37h-.08l0-1.6v0h.06a.71.71,0,0,0,.44-.17A.74.74,0,0,0,15,35Z"/><path class="cls-2" d="M15.2,34.47a1.57,1.57,0,0,1,0,.23.89.89,0,0,1-.08.17,1.07,1.07,0,0,0,.07-.19C15.17,34.62,15.18,34.55,15.2,34.47Z"/><path class="cls-2" d="M36.4,47.16v1.21a2.42,2.42,0,0,1,0,.47H19.25V21.34H21v0c0,2.52,0,5,0,7.56v.33a1.64,1.64,0,0,1,0,.23v3.36a8016553505858.15,8016553505858.15,0,0,0,0,.34c0,2.36,0,4.73,0,7.08,0,1.09,0,2.18,0,3.27a1.93,1.93,0,0,0,0,.24,2.28,2.28,0,0,1,0-.26c0-.36,0-.73,0-1.09v4.45l.17.13L21,46.88v.28Z"/><path d="M47.78,9.71A5,5,0,0,0,46,9.39H30a4.39,4.39,0,0,0-2,.48H48.16Zm2.58,5.78v0a.82.82,0,0,0-.8-.72.77.77,0,0,1-.8-.8c0-.52.3-.74.76-.83s.64-.2.75-.44a4,4,0,0,0-1.57-2.47,12.06,12.06,0,0,1,0,1.21.3.3,0,0,1-.1.19.84.84,0,0,1-.18.15,1.44,1.44,0,0,0-.25.18,2.2,2.2,0,0,1,.39.78,3.11,3.11,0,0,1,.1.46,4.41,4.41,0,0,1,0,.52v2.85s0,0,0,0h0s0,0,0,0a.86.86,0,0,1,0,.32V41.49a3.83,3.83,0,0,0,.44-.36,4.13,4.13,0,0,0,1.22-3Q50.39,26.79,50.36,15.49Zm0,33.35V47.17H48.7v5.35H14.43V37h0V35.34q0-7,0-14.05V16.84a1.16,1.16,0,0,1,.06-.4.22.22,0,0,1,0-.11h0a1,1,0,0,1,.38-.35,3.33,3.33,0,0,0,.46-.36,1.79,1.79,0,0,0,.34-.44c.06-.11.11-.23.16-.34a2.4,2.4,0,0,0,.05-1.65l0-.11a2.49,2.49,0,0,0-.27-.51l-.19-.23a2.16,2.16,0,0,0-.48-.41,1,1,0,0,1-.51-.59.94.94,0,0,1,0-.38,9.25,9.25,0,0,0,0-1.06v0H22.2a.6.6,0,0,0,.09-.15,2.38,2.38,0,0,0,.26-1.5H19.29v0h-.6c-1.6,0-3.2,0-4.79,0a1.13,1.13,0,0,0-1.18.67v3.6a1.13,1.13,0,0,0,1,.68l.15,0a.74.74,0,0,1,.52.76.71.71,0,0,1-.67.78,1,1,0,0,0-.41.11,1.13,1.13,0,0,0-.58.58V54.19H49.87A1.37,1.37,0,0,0,50.39,53C50.38,51.59,50.38,50.22,50.38,48.84Z"/><path class="cls-3" d="M48.69,16.6s0,0,0,0h0s0,0,0,0q0,4.65,0,9.3,0,6.09,0,12.2v.17a.42.42,0,0,1,0,.16s0,0,0,0a2.68,2.68,0,0,1-.12.59c0,.09-.06.18-.1.27h0c0,.08-.08.17-.13.25a1.43,1.43,0,0,1-.15.22h0l-.18.2-.2.17a2.78,2.78,0,0,1-.76.41,3.22,3.22,0,0,1-1,.14H43.84c0,.54,0,1.09,0,1.63h2.22a3.56,3.56,0,0,0,.57,0,4.51,4.51,0,0,0,1.54-.44,3,3,0,0,0,.54-.33V16.92A.86.86,0,0,0,48.69,16.6ZM14.43,37h.11ZM15,35a.74.74,0,0,1-.12.13.71.71,0,0,1-.44.17v0a.67.67,0,0,0,.45-.17.77.77,0,0,0,.12-.13,1.59,1.59,0,0,0,.08-.18Zm.16-.36a1.07,1.07,0,0,1-.07.19.89.89,0,0,0,.08-.17,1.57,1.57,0,0,0,0-.23C15.18,34.55,15.17,34.62,15.15,34.68ZM15,11.92a1,1,0,0,1-.51-.59,1,1,0,0,0,.51.61,2.28,2.28,0,0,1,.48.39A2.16,2.16,0,0,0,15,11.92ZM41.7,47.16h0a4.67,4.67,0,0,1-2.15.5h-16a4.66,4.66,0,0,1-2.09-.47l0,0h0a0,0,0,0,1,0,0H21v-.29a3.13,3.13,0,0,1-.44-.36,3.68,3.68,0,0,1-.51-.6,4.38,4.38,0,0,1-.38-.71,4.44,4.44,0,0,1-.33-1.7c0-3.49,0-7,0-10.46a1.09,1.09,0,0,1,.07-.42.92.92,0,0,1,.18-.32.23.23,0,0,1,.12-.12A.64.64,0,0,1,20.1,32v0l0-1.58v0a.77.77,0,0,1-.49-.15.49.49,0,0,1-.12-.13.51.51,0,0,1-.09-.16l0,0a1.76,1.76,0,0,1-.12-.7q0-3.93,0-7.86a0,0,0,0,1,0,0c0-.53,0-1.07,0-1.61V19A4.13,4.13,0,0,1,21,15.56c0-.24,0-.48,0-.73V11.48a.8.8,0,0,1,.26-.68l.1-.09.13-.08a2.22,2.22,0,0,0,.49-.41,1.35,1.35,0,0,0,.26-.33H19.35a.86.86,0,0,0-.1.16V48.84H48.7V47.16Zm-6.88,5.35.27-.07-.32.07H16.83l-.37-.08a2,2,0,0,0,.33.08H14.43v0H48.7v0ZM27.94,9.89a4,4,0,0,0-2.12,3.29c0,.14,0,.29,0,.44v1.14h1.7V13.64a3.44,3.44,0,0,1,0-.46A2.42,2.42,0,0,1,30.13,11h16a2.88,2.88,0,0,1,.59,0,3.1,3.1,0,0,1,.67.21,1.93,1.93,0,0,1,.53.34,3.84,3.84,0,0,1,.28.3,2.2,2.2,0,0,1,.25-.17.53.53,0,0,0,.18-.16.3.3,0,0,0,.1-.19,12.06,12.06,0,0,0,0-1.21V9.89Z"/><path d="M21,19.71v1.65c0,2.52,0,5,0,7.56v.33a1.64,1.64,0,0,1,0,.23v0c-.07.58-.36.89-.82.89h0a.73.73,0,0,1-.49-.17.49.49,0,0,1-.12-.13.51.51,0,0,1-.09-.16l0,0a1.9,1.9,0,0,1-.11-.68c0-2.63,0-5.25,0-7.88V19A4.13,4.13,0,0,1,21,15.59c0,1.38,0,2.75,0,4.12h0Z"/><path d="M27.5,14.78v1.63H25.8V14.78h1.7Z"/><path d="M21,43.77a2.28,2.28,0,0,1,0-.26c0-.36,0-.73,0-1.09v4.45a3.13,3.13,0,0,1-.44-.36,3.68,3.68,0,0,1-.51-.6,4.38,4.38,0,0,1-.38-.71,4.85,4.85,0,0,1-.32-1.7c0-3.48,0-7,0-10.46a1.42,1.42,0,0,1,.06-.42.92.92,0,0,1,.18-.32.34.34,0,0,1,.12-.12A.64.64,0,0,1,20.1,32h0a.94.94,0,0,1,.38.1l.15.09a.4.4,0,0,1,.13.13.85.85,0,0,1,.16.36.27.27,0,0,1,0,.12v0a8016553505858.15,8016553505858.15,0,0,0,0,.34c0,2.36,0,4.73,0,7.08,0,1.09,0,2.18,0,3.27A1.93,1.93,0,0,0,21,43.77Z"/><path d="M41.7,47.16h0a4.67,4.67,0,0,1-2.15.5h-16a4.66,4.66,0,0,1-2.09-.47l0,0h0a0,0,0,0,1,0,0Z"/><path d="M43.84,40.66h0c0,.54,0,1.09,0,1.63H42.17V40.66h1.67Z"/><path class="cls-2" d="M21,29.48v3.36l0-.15a.85.85,0,0,0-.16-.36.4.4,0,0,0-.13-.13.57.57,0,0,0-.16-.11.94.94,0,0,0-.38-.1l0-1.58v0C20.59,30.38,20.89,30.06,21,29.48Z"/><path class="cls-2" d="M21,43.77a2.28,2.28,0,0,1,0-.26c0-.36,0-.73,0-1.09,0-.73,0-1.45,0-2.18,0-2.35,0-4.72,0-7.08V33a.91.91,0,0,1,0,.17c0,2.36,0,4.73,0,7.08,0,1.09,0,2.18,0,3.27A1.93,1.93,0,0,0,21,43.77Z"/><path class="cls-2" d="M21,19.71v1.65c0,2.52,0,5,0,7.56v.33a1.64,1.64,0,0,1,0,.23,2.17,2.17,0,0,0,0-.26v-.33c0-2.51,0-5,0-7.53V19.71Z"/><path class="cls-2" d="M42.16,40.66v1.65H30.1a3.82,3.82,0,0,1-.68-.05,5.84,5.84,0,0,1-.63-.13l-.4-.13a5.52,5.52,0,0,1-.55-.26,4.39,4.39,0,0,1-.5-.34l-.3-.26a2.44,2.44,0,0,1-.27-.29,2.87,2.87,0,0,1-.39-.57,1.05,1.05,0,0,1-.12-.21,4.35,4.35,0,0,1-.25-.63c0-.16-.08-.32-.11-.49a5,5,0,0,1-.08-.79v0c0-3.48,0-7,0-10.46a1.12,1.12,0,0,1,.24-.73.68.68,0,0,1,.12-.12.64.64,0,0,1,.45-.18l0-1.6a.7.7,0,0,1-.6-.27.88.88,0,0,1-.12-.19,1.69,1.69,0,0,1-.11-.43,2.64,2.64,0,0,1,0-.29V16.38h1.7v7.5c0,.75-.3,1.16-.84,1.16l0,1.6a.43.43,0,0,1,.19,0l.19.07a.82.82,0,0,1,.44.58,1.94,1.94,0,0,1,.05.49V34.9c0,1.09,0,2.19,0,3.27a2.9,2.9,0,0,0,.11.79c0,.08.05.16.08.23a2.78,2.78,0,0,0,.22.42,2.6,2.6,0,0,0,.3.36l.08.08.1.08h0l.17.12h0a.31.31,0,0,0,.1,0l.11.06h0a1.53,1.53,0,0,0,.32.13l.24.06.12,0a.69.69,0,0,0,.2,0H42.16Z"/><path d="M21,47.16V21.34c0-.53,0-1.07,0-1.61a0,0,0,0,0,0,0c0-1.37,0-2.74,0-4.12h0s0,0,0,0c0-.24,0-.48,0-.73V11.48a.8.8,0,0,1,.26-.68l.1-.09.13-.09a2.44,2.44,0,0,0,.49-.4,1.35,1.35,0,0,0,.26-.33s0,0,0,0H19.36s0,0,0,0a.86.86,0,0,0-.1.16V48.84H36.38a3.33,3.33,0,0,0,0-.46v-.71h3.12a4.67,4.67,0,0,0,2.15-.5H21Zm0,0V21.34c0-.53,0-1.07,0-1.61a0,0,0,0,0,0,0c0-1.37,0-2.74,0-4.12h0s0,0,0,0c0-.24,0-.48,0-.73V11.48a.8.8,0,0,1,.26-.68l.1-.09.13-.09a2.44,2.44,0,0,0,.49-.4,1.35,1.35,0,0,0,.26-.33s0,0,0,0H19.36s0,0,0,0a.86.86,0,0,0-.1.16V48.84H36.38a3.33,3.33,0,0,0,0-.46v-.71h3.12a4.67,4.67,0,0,0,2.15-.5H21Zm0,0V21.34c0-.53,0-1.07,0-1.61a0,0,0,0,0,0,0c0-1.37,0-2.74,0-4.12h0s0,0,0,0c0-.24,0-.48,0-.73V11.48a.8.8,0,0,1,.26-.68l.1-.09.13-.09a2.44,2.44,0,0,0,.49-.4,1.35,1.35,0,0,0,.26-.33s0,0,0,0H19.36s0,0,0,0a.86.86,0,0,0-.1.16V48.84H36.38a3.33,3.33,0,0,0,0-.46v-.71h3.12a4.67,4.67,0,0,0,2.15-.5H21Zm0,0h.49l0,0a4.66,4.66,0,0,0,2.09.47h16a4.67,4.67,0,0,0,2.15-.5H21ZM19.36,9.87s0,0,0,0a.86.86,0,0,0-.1.16v9.66h0v0c0,.54,0,1.08,0,1.61a0,0,0,0,0,0,0h0c0,2.63,0,5.25,0,7.88a1.9,1.9,0,0,0,.11.68l0,0a.51.51,0,0,0,.09.16.49.49,0,0,0,.12.13.77.77,0,0,0,.49.15v0l0,1.58v0a.64.64,0,0,0-.44.17.34.34,0,0,0-.12.12.92.92,0,0,0-.18.32,1.09,1.09,0,0,0-.07.42c0,3.48,0,7,0,10.46a4.44,4.44,0,0,0,.33,1.7,4.38,4.38,0,0,0,.38.71,3.68,3.68,0,0,0,.51.6,3.13,3.13,0,0,0,.44.36V21.34c0-.53,0-1.07,0-1.61a0,0,0,0,0,0,0c0-1.37,0-2.74,0-4.12h0s0,0,0,0c0-.24,0-.48,0-.73V11.48a.8.8,0,0,1,.26-.68l.1-.09.13-.09a2.44,2.44,0,0,0,.49-.4,1.35,1.35,0,0,0,.26-.33s0,0,0,0ZM21,47.16h.49l0,0a4.66,4.66,0,0,0,2.09.47h16a4.67,4.67,0,0,0,2.15-.5H21ZM19.36,9.87s0,0,0,0a.86.86,0,0,0-.1.16v9.66h0v0c0,.54,0,1.08,0,1.61a0,0,0,0,0,0,0h0c0,2.63,0,5.25,0,7.88a1.9,1.9,0,0,0,.11.68l0,0a.51.51,0,0,0,.09.16.49.49,0,0,0,.12.13.77.77,0,0,0,.49.15v0l0,1.58v0a.64.64,0,0,0-.44.17.34.34,0,0,0-.12.12.92.92,0,0,0-.18.32,1.09,1.09,0,0,0-.07.42c0,3.48,0,7,0,10.46a4.44,4.44,0,0,0,.33,1.7,4.38,4.38,0,0,0,.38.71,3.68,3.68,0,0,0,.51.6,3.13,3.13,0,0,0,.44.36V21.34c0-.53,0-1.07,0-1.61a0,0,0,0,0,0,0c0-1.37,0-2.74,0-4.12h0s0,0,0,0c0-.24,0-.48,0-.73V11.48a.8.8,0,0,1,.26-.68l.1-.09.13-.09a2.44,2.44,0,0,0,.49-.4,1.35,1.35,0,0,0,.26-.33s0,0,0,0ZM21,47.16h.49l0,0a4.66,4.66,0,0,0,2.09.47h16a4.67,4.67,0,0,0,2.15-.5H21ZM19.36,9.87s0,0,0,0a.86.86,0,0,0-.1.16v9.66h0v0c0,.54,0,1.08,0,1.61a0,0,0,0,0,0,0h0c0,2.63,0,5.25,0,7.88a1.9,1.9,0,0,0,.11.68l0,0a.51.51,0,0,0,.09.16.49.49,0,0,0,.12.13.77.77,0,0,0,.49.15v0l0,1.58v0a.64.64,0,0,0-.44.17.34.34,0,0,0-.12.12.92.92,0,0,0-.18.32,1.09,1.09,0,0,0-.07.42c0,3.48,0,7,0,10.46a4.44,4.44,0,0,0,.33,1.7,4.38,4.38,0,0,0,.38.71,3.68,3.68,0,0,0,.51.6,3.13,3.13,0,0,0,.44.36V21.34c0-.53,0-1.07,0-1.61a0,0,0,0,0,0,0c0-1.37,0-2.74,0-4.12h0s0,0,0,0c0-.24,0-.48,0-.73V11.48a.8.8,0,0,1,.26-.68l.1-.09.13-.09a2.44,2.44,0,0,0,.49-.4,1.35,1.35,0,0,0,.26-.33s0,0,0,0ZM21,47.16h.49l0,0a4.66,4.66,0,0,0,2.09.47h16a4.67,4.67,0,0,0,2.15-.5H21ZM19.36,9.87s0,0,0,0a.86.86,0,0,0-.1.16v9.66h0v0c0,.54,0,1.08,0,1.61a0,0,0,0,0,0,0h0c0,2.63,0,5.25,0,7.88a1.9,1.9,0,0,0,.11.68l0,0a.51.51,0,0,0,.09.16.49.49,0,0,0,.12.13.77.77,0,0,0,.49.15v0l0,1.58v0a.64.64,0,0,0-.44.17.34.34,0,0,0-.12.12.92.92,0,0,0-.18.32,1.09,1.09,0,0,0-.07.42c0,3.48,0,7,0,10.46a4.44,4.44,0,0,0,.33,1.7,4.38,4.38,0,0,0,.38.71,3.68,3.68,0,0,0,.51.6,3.13,3.13,0,0,0,.44.36V21.34c0-.53,0-1.07,0-1.61a0,0,0,0,0,0,0c0-1.37,0-2.74,0-4.12h0s0,0,0,0c0-.24,0-.48,0-.73V11.48a.8.8,0,0,1,.26-.68l.1-.09.13-.09a2.44,2.44,0,0,0,.49-.4,1.35,1.35,0,0,0,.26-.33s0,0,0,0ZM21,47.16h.49l0,0a4.66,4.66,0,0,0,2.09.47h16a4.67,4.67,0,0,0,2.15-.5H21ZM19.36,9.87s0,0,0,0a.86.86,0,0,0-.1.16v9.66h0v0c0,.54,0,1.08,0,1.61a0,0,0,0,0,0,0h0c0,2.63,0,5.25,0,7.88a1.9,1.9,0,0,0,.11.68l0,0a.51.51,0,0,0,.09.16.49.49,0,0,0,.12.13.77.77,0,0,0,.49.15v0l0,1.58v0a.64.64,0,0,0-.44.17.34.34,0,0,0-.12.12.92.92,0,0,0-.18.32,1.09,1.09,0,0,0-.07.42c0,3.48,0,7,0,10.46a4.44,4.44,0,0,0,.33,1.7,4.38,4.38,0,0,0,.38.71,3.68,3.68,0,0,0,.51.6,3.13,3.13,0,0,0,.44.36V21.34c0-.53,0-1.07,0-1.61a0,0,0,0,0,0,0c0-1.37,0-2.74,0-4.12h0s0,0,0,0c0-.24,0-.48,0-.73V11.48a.8.8,0,0,1,.26-.68l.1-.09.13-.09a2.44,2.44,0,0,0,.49-.4,1.35,1.35,0,0,0,.26-.33s0,0,0,0ZM21,47.16h.49l0,0a4.66,4.66,0,0,0,2.09.47h16a4.67,4.67,0,0,0,2.15-.5H21ZM19.36,9.87s0,0,0,0a.86.86,0,0,0-.1.16v9.66h0v0c0,.54,0,1.08,0,1.61a0,0,0,0,0,0,0h0c0,2.63,0,5.25,0,7.88a1.9,1.9,0,0,0,.11.68l0,0a.51.51,0,0,0,.09.16.49.49,0,0,0,.12.13.77.77,0,0,0,.49.15v0l0,1.58v0a.64.64,0,0,0-.44.17.34.34,0,0,0-.12.12.92.92,0,0,0-.18.32,1.09,1.09,0,0,0-.07.42c0,3.48,0,7,0,10.46a4.44,4.44,0,0,0,.33,1.7,4.38,4.38,0,0,0,.38.71,3.68,3.68,0,0,0,.51.6,3.13,3.13,0,0,0,.44.36V21.34c0-.53,0-1.07,0-1.61a0,0,0,0,0,0,0c0-1.37,0-2.74,0-4.12h0s0,0,0,0c0-.24,0-.48,0-.73V11.48a.8.8,0,0,1,.26-.68l.1-.09.13-.09a2.44,2.44,0,0,0,.49-.4,1.35,1.35,0,0,0,.26-.33s0,0,0,0ZM21,47.16h.49l0,0a4.66,4.66,0,0,0,2.09.47h16a4.67,4.67,0,0,0,2.15-.5H21ZM19.36,9.87s0,0,0,0a.86.86,0,0,0-.1.16v9.66h0v0c0,.54,0,1.08,0,1.61a0,0,0,0,0,0,0h0c0,2.63,0,5.25,0,7.88a1.9,1.9,0,0,0,.11.68l0,0a.51.51,0,0,0,.09.16.49.49,0,0,0,.12.13.77.77,0,0,0,.49.15v0l0,1.58v0a.64.64,0,0,0-.44.17.34.34,0,0,0-.12.12.92.92,0,0,0-.18.32,1.09,1.09,0,0,0-.07.42c0,3.48,0,7,0,10.46a4.44,4.44,0,0,0,.33,1.7,4.38,4.38,0,0,0,.38.71,3.68,3.68,0,0,0,.51.6,3.13,3.13,0,0,0,.44.36V21.34c0-.53,0-1.07,0-1.61a0,0,0,0,0,0,0c0-1.37,0-2.74,0-4.12h0s0,0,0,0c0-.24,0-.48,0-.73V11.48a.8.8,0,0,1,.26-.68l.1-.09.13-.09a2.44,2.44,0,0,0,.49-.4,1.35,1.35,0,0,0,.26-.33s0,0,0,0ZM21,47.16h.49l0,0a4.66,4.66,0,0,0,2.09.47h16a4.67,4.67,0,0,0,2.15-.5H21Zm0-25.8v0c0-.53,0-1.07,0-1.61a0,0,0,0,0,0,0c0-1.37,0-2.74,0-4.12h0s0,0,0,0c0-.24,0-.48,0-.73V11.48a.8.8,0,0,1,.26-.68l.1-.09.13-.09a2.44,2.44,0,0,0,.49-.4,1.35,1.35,0,0,0,.26-.33s0,0,0,0H19.36s0,0,0,0a.86.86,0,0,0-.1.16v9.66h0v0c0,.54,0,1.08,0,1.61a0,0,0,0,0,0,0h0c0,2.63,0,5.25,0,7.88a1.9,1.9,0,0,0,.11.68l0,0a.51.51,0,0,0,.09.16.49.49,0,0,0,.12.13.77.77,0,0,0,.49.15v0l0,1.58v0a.64.64,0,0,0-.44.17.34.34,0,0,0-.12.12.92.92,0,0,0-.18.32,1.09,1.09,0,0,0-.07.42c0,3.48,0,7,0,10.46a4.44,4.44,0,0,0,.33,1.7,4.38,4.38,0,0,0,.38.71,3.68,3.68,0,0,0,.51.6,3.13,3.13,0,0,0,.44.36Zm35.95,16v-.7q0-12.92,0-25.82a4.86,4.86,0,0,0,0-.54c0-.51-.27-.86-.83-.91a.78.78,0,0,1-.8-.8c0-.52.3-.74.76-.83.65-.12.85-.36.86-1,0-.92,0-1.85,0-2.78s-.28-1.09-1.12-1.09H25.2c-1.59,0-3.19,0-4.79,0a1.1,1.1,0,0,0-1.17.66v3.6a1.15,1.15,0,0,0,1,.69.66.66,0,0,1,.59.4.84.84,0,0,1,.08.37.7.7,0,0,1-.66.78,1.1,1.1,0,0,0-.88.51s0,0,0,0a.86.86,0,0,0-.1.16V48.84H56.38a1.33,1.33,0,0,0,.52-1.23c0-2.62,0-5.23,0-7.84V39h0V37.37Zm-1.69-25.8V47.16H21V21.34c0-.53,0-1.07,0-1.61a0,0,0,0,0,0,0c0-1.37,0-2.74,0-4.12h0s0,0,0,0c0-.24,0-.48,0-.73V11.48a.8.8,0,0,1,.26-.68l.1-.09.13-.09a2.44,2.44,0,0,0,.49-.4,1.35,1.35,0,0,0,.26-.33s0,0,0,0a.6.6,0,0,0,.09-.15,2.44,2.44,0,0,0,.25-1.5,2.7,2.7,0,0,0-.08-.39,2.39,2.39,0,0,0-.15-.37A2.43,2.43,0,0,0,22,7a1.73,1.73,0,0,0-.41-.34l-.07-.06A1,1,0,0,1,21,6a.83.83,0,0,1,0-.39,9.36,9.36,0,0,0,0-1.06H55.22c0,.52,0,1,0,1.54a.16.16,0,0,1,0,.09.76.76,0,0,1-.11.14.19.19,0,0,1-.07.06s0,0,0,0h0a2.77,2.77,0,0,0-.58.47A2.37,2.37,0,0,0,53.67,8a2.26,2.26,0,0,0,0,1.21h0a2.65,2.65,0,0,0,.68,1.12,2.26,2.26,0,0,0,.28.25,2.44,2.44,0,0,0,.31.22h0l0,0a.09.09,0,0,1,.06.06,1.59,1.59,0,0,1,.18.37.13.13,0,0,1,0,.06.29.29,0,0,1,0,.16A.41.41,0,0,0,55.22,11.57ZM19.36,9.87s0,0,0,0a.86.86,0,0,0-.1.16v9.66h0v0c0,.54,0,1.08,0,1.61a0,0,0,0,0,0,0h0c0,2.63,0,5.25,0,7.88a1.9,1.9,0,0,0,.11.68l0,0a.51.51,0,0,0,.09.16.49.49,0,0,0,.12.13.77.77,0,0,0,.49.15v0l0,1.58v0a.64.64,0,0,0-.44.17.34.34,0,0,0-.12.12.92.92,0,0,0-.18.32,1.09,1.09,0,0,0-.07.42c0,3.48,0,7,0,10.46a4.44,4.44,0,0,0,.33,1.7,4.38,4.38,0,0,0,.38.71,3.68,3.68,0,0,0,.51.6,3.13,3.13,0,0,0,.44.36V21.34c0-.53,0-1.07,0-1.61a0,0,0,0,0,0,0c0-1.37,0-2.74,0-4.12h0s0,0,0,0c0-.24,0-.48,0-.73V11.48a.8.8,0,0,1,.26-.68l.1-.09.13-.09a2.44,2.44,0,0,0,.49-.4,1.35,1.35,0,0,0,.26-.33s0,0,0,0ZM21,47.16h.49l0,0a4.66,4.66,0,0,0,2.09.47h16a4.67,4.67,0,0,0,2.15-.5H21ZM19.36,9.87s0,0,0,0a.86.86,0,0,0-.1.16v9.66h0v0c0,.54,0,1.08,0,1.61a0,0,0,0,0,0,0h0c0,2.63,0,5.25,0,7.88a1.9,1.9,0,0,0,.11.68l0,0a.51.51,0,0,0,.09.16.49.49,0,0,0,.12.13.77.77,0,0,0,.49.15v0l0,1.58v0a.64.64,0,0,0-.44.17.34.34,0,0,0-.12.12.92.92,0,0,0-.18.32,1.09,1.09,0,0,0-.07.42c0,3.48,0,7,0,10.46a4.44,4.44,0,0,0,.33,1.7,4.38,4.38,0,0,0,.38.71,3.68,3.68,0,0,0,.51.6,3.13,3.13,0,0,0,.44.36V21.34c0-.53,0-1.07,0-1.61a0,0,0,0,0,0,0c0-1.37,0-2.74,0-4.12h0s0,0,0,0c0-.24,0-.48,0-.73V11.48a.8.8,0,0,1,.26-.68l.1-.09.13-.09a2.44,2.44,0,0,0,.49-.4,1.35,1.35,0,0,0,.26-.33s0,0,0,0ZM21,47.16h.49l0,0a4.66,4.66,0,0,0,2.09.47h16a4.67,4.67,0,0,0,2.15-.5H21ZM19.36,9.87s0,0,0,0a.86.86,0,0,0-.1.16v9.66h0v0c0,.54,0,1.08,0,1.61a0,0,0,0,0,0,0h0c0,2.63,0,5.25,0,7.88a1.9,1.9,0,0,0,.11.68l0,0a.51.51,0,0,0,.09.16.49.49,0,0,0,.12.13.77.77,0,0,0,.49.15v0l0,1.58v0a.64.64,0,0,0-.44.17.34.34,0,0,0-.12.12.92.92,0,0,0-.18.32,1.09,1.09,0,0,0-.07.42c0,3.48,0,7,0,10.46a4.44,4.44,0,0,0,.33,1.7,4.38,4.38,0,0,0,.38.71,3.68,3.68,0,0,0,.51.6,3.13,3.13,0,0,0,.44.36V21.34c0-.53,0-1.07,0-1.61a0,0,0,0,0,0,0c0-1.37,0-2.74,0-4.12h0s0,0,0,0c0-.24,0-.48,0-.73V11.48a.8.8,0,0,1,.26-.68l.1-.09.13-.09a2.44,2.44,0,0,0,.49-.4,1.35,1.35,0,0,0,.26-.33s0,0,0,0ZM21,47.16h.49l0,0a4.66,4.66,0,0,0,2.09.47h16a4.67,4.67,0,0,0,2.15-.5H21ZM19.36,9.87s0,0,0,0a.86.86,0,0,0-.1.16v9.66h0v0c0,.54,0,1.08,0,1.61a0,0,0,0,0,0,0h0c0,2.63,0,5.25,0,7.88a1.9,1.9,0,0,0,.11.68l0,0a.51.51,0,0,0,.09.16.49.49,0,0,0,.12.13.77.77,0,0,0,.49.15v0l0,1.58v0a.64.64,0,0,0-.44.17.34.34,0,0,0-.12.12.92.92,0,0,0-.18.32,1.09,1.09,0,0,0-.07.42c0,3.48,0,7,0,10.46a4.44,4.44,0,0,0,.33,1.7,4.38,4.38,0,0,0,.38.71,3.68,3.68,0,0,0,.51.6,3.13,3.13,0,0,0,.44.36V21.34c0-.53,0-1.07,0-1.61a0,0,0,0,0,0,0c0-1.37,0-2.74,0-4.12h0s0,0,0,0c0-.24,0-.48,0-.73V11.48a.8.8,0,0,1,.26-.68l.1-.09.13-.09a2.44,2.44,0,0,0,.49-.4,1.35,1.35,0,0,0,.26-.33s0,0,0,0ZM21,47.16h.49l0,0a4.66,4.66,0,0,0,2.09.47h16a4.67,4.67,0,0,0,2.15-.5H21ZM19.36,9.87s0,0,0,0a.86.86,0,0,0-.1.16v9.66h0v0c0,.54,0,1.08,0,1.61a0,0,0,0,0,0,0h0c0,2.63,0,5.25,0,7.88a1.9,1.9,0,0,0,.11.68l0,0a.51.51,0,0,0,.09.16.49.49,0,0,0,.12.13.77.77,0,0,0,.49.15v0l0,1.58v0a.64.64,0,0,0-.44.17.34.34,0,0,0-.12.12.92.92,0,0,0-.18.32,1.09,1.09,0,0,0-.07.42c0,3.48,0,7,0,10.46a4.44,4.44,0,0,0,.33,1.7,4.38,4.38,0,0,0,.38.71,3.68,3.68,0,0,0,.51.6,3.13,3.13,0,0,0,.44.36V21.34c0-.53,0-1.07,0-1.61a0,0,0,0,0,0,0c0-1.37,0-2.74,0-4.12h0s0,0,0,0c0-.24,0-.48,0-.73V11.48a.8.8,0,0,1,.26-.68l.1-.09.13-.09a2.44,2.44,0,0,0,.49-.4,1.35,1.35,0,0,0,.26-.33s0,0,0,0ZM21,47.16h.49l0,0a4.66,4.66,0,0,0,2.09.47h16a4.67,4.67,0,0,0,2.15-.5H21ZM19.36,9.87s0,0,0,0a.86.86,0,0,0-.1.16v9.66h0v0c0,.54,0,1.08,0,1.61a0,0,0,0,0,0,0h0c0,2.63,0,5.25,0,7.88a1.9,1.9,0,0,0,.11.68l0,0a.51.51,0,0,0,.09.16.49.49,0,0,0,.12.13.77.77,0,0,0,.49.15v0l0,1.58v0a.64.64,0,0,0-.44.17.34.34,0,0,0-.12.12.92.92,0,0,0-.18.32,1.09,1.09,0,0,0-.07.42c0,3.48,0,7,0,10.46a4.44,4.44,0,0,0,.33,1.7,4.38,4.38,0,0,0,.38.71,3.68,3.68,0,0,0,.51.6,3.13,3.13,0,0,0,.44.36V21.34c0-.53,0-1.07,0-1.61a0,0,0,0,0,0,0c0-1.37,0-2.74,0-4.12h0s0,0,0,0c0-.24,0-.48,0-.73V11.48a.8.8,0,0,1,.26-.68l.1-.09.13-.09a2.44,2.44,0,0,0,.49-.4,1.35,1.35,0,0,0,.26-.33s0,0,0,0ZM21,47.16h.49l0,0a4.66,4.66,0,0,0,2.09.47h16a4.67,4.67,0,0,0,2.15-.5H21ZM19.36,9.87s0,0,0,0a.86.86,0,0,0-.1.16v9.66h0v0c0,.54,0,1.08,0,1.61a0,0,0,0,0,0,0h0c0,2.63,0,5.25,0,7.88a1.9,1.9,0,0,0,.11.68l0,0a.51.51,0,0,0,.09.16.49.49,0,0,0,.12.13.77.77,0,0,0,.49.15v0l0,1.58v0a.64.64,0,0,0-.44.17.34.34,0,0,0-.12.12.92.92,0,0,0-.18.32,1.09,1.09,0,0,0-.07.42c0,3.48,0,7,0,10.46a4.44,4.44,0,0,0,.33,1.7,4.38,4.38,0,0,0,.38.71,3.68,3.68,0,0,0,.51.6,3.13,3.13,0,0,0,.44.36V21.34c0-.53,0-1.07,0-1.61a0,0,0,0,0,0,0c0-1.37,0-2.74,0-4.12h0s0,0,0,0c0-.24,0-.48,0-.73V11.48a.8.8,0,0,1,.26-.68l.1-.09.13-.09a2.44,2.44,0,0,0,.49-.4,1.35,1.35,0,0,0,.26-.33s0,0,0,0ZM21,47.16h.49l0,0a4.66,4.66,0,0,0,2.09.47h16a4.67,4.67,0,0,0,2.15-.5H21Zm0,0V21.34c0-.53,0-1.07,0-1.61a0,0,0,0,0,0,0c0-1.37,0-2.74,0-4.12h0s0,0,0,0c0-.24,0-.48,0-.73V11.48a.8.8,0,0,1,.26-.68l.1-.09.13-.09a2.44,2.44,0,0,0,.49-.4,1.35,1.35,0,0,0,.26-.33s0,0,0,0H19.36s0,0,0,0a.86.86,0,0,0-.1.16V48.84H36.38a3.33,3.33,0,0,0,0-.46v-.71h3.12a4.67,4.67,0,0,0,2.15-.5H21Zm0,0V21.34c0-.53,0-1.07,0-1.61a0,0,0,0,0,0,0c0-1.37,0-2.74,0-4.12h0s0,0,0,0c0-.24,0-.48,0-.73V11.48a.8.8,0,0,1,.26-.68l.1-.09.13-.09a2.44,2.44,0,0,0,.49-.4,1.35,1.35,0,0,0,.26-.33s0,0,0,0H19.36s0,0,0,0a.86.86,0,0,0-.1.16V48.84H36.38a3.33,3.33,0,0,0,0-.46v-.71h3.12a4.67,4.67,0,0,0,2.15-.5H21Zm0,0V21.34c0-.53,0-1.07,0-1.61a0,0,0,0,0,0,0c0-1.37,0-2.74,0-4.12h0s0,0,0,0c0-.24,0-.48,0-.73V11.48a.8.8,0,0,1,.26-.68l.1-.09.13-.09a2.44,2.44,0,0,0,.49-.4,1.35,1.35,0,0,0,.26-.33s0,0,0,0H19.36s0,0,0,0a.86.86,0,0,0-.1.16V48.84H36.38a3.33,3.33,0,0,0,0-.46v-.71h3.12a4.67,4.67,0,0,0,2.15-.5H21Zm0,0V21.34c0-.53,0-1.07,0-1.61a0,0,0,0,0,0,0H19.3v0h-.05V48.84H36.38a3.33,3.33,0,0,0,0-.46v-.71h3.12a4.67,4.67,0,0,0,2.15-.5H21Z"/><path class="cls-4" d="M26.17,26.82a.7.7,0,0,1,.45-.17h0A.64.64,0,0,0,26.17,26.82ZM21,43.53c0-1.09,0-2.18,0-3.27,0-2.35,0-4.72,0-7.08A.91.91,0,0,0,21,33v.15c0,2.36,0,4.73,0,7.08,0,.73,0,1.45,0,2.18,0,.36,0,.73,0,1.09a2.28,2.28,0,0,0,0,.26A1.93,1.93,0,0,1,21,43.53Zm0-22.19v0c0,2.51,0,5,0,7.53v.33a2.17,2.17,0,0,1,0,.26,1.64,1.64,0,0,0,0-.23v-.33c0-2.52,0-5,0-7.56v0Zm4.84,2.54V16.41h0v7.45a2.64,2.64,0,0,0,0,.29A2.35,2.35,0,0,1,25.81,23.88ZM36.4,46v0h0v0ZM21,43.53c0-1.09,0-2.18,0-3.27,0-2.35,0-4.72,0-7.08a8016553505858.15,8016553505858.15,0,0,1,0-.34v9.58c0,.36,0,.73,0,1.09a2.28,2.28,0,0,0,0,.26A1.93,1.93,0,0,1,21,43.53ZM54.92,6.4a2.77,2.77,0,0,0-.58.47,3,3,0,0,1,.58-.46l0,0ZM26.17,26.82a.7.7,0,0,1,.45-.17h0A.64.64,0,0,0,26.17,26.82ZM21.48,6.57A1,1,0,0,1,21,6a.93.93,0,0,0,.5.6l.07,0ZM21,19.71h0a0,0,0,0,1,0,0c0,.54,0,1.08,0,1.61v8.14a1.64,1.64,0,0,0,0-.23v-.33c0-2.52,0-5,0-7.56V19.71ZM46,9.39H30a4.39,4.39,0,0,0-2,.48l0,0a4,4,0,0,0-2.12,3.29c0,.14,0,.29,0,.44V23.86a2.64,2.64,0,0,0,0,.29,2.35,2.35,0,0,1,0-.27V13.64c0-.16,0-.31,0-.46A4,4,0,0,1,28,9.89l.05,0a4.32,4.32,0,0,1,2-.46H46a5.18,5.18,0,0,1,1.75.3A5,5,0,0,0,46,9.39Zm2.14.48-.38-.16.36.16,0,0,.12.06.15.09a2.2,2.2,0,0,1,.25.17V9.87Zm-22,17a.7.7,0,0,1,.45-.17h0A.64.64,0,0,0,26.17,26.82ZM21,43.53c0-1.09,0-2.18,0-3.27,0-2.35,0-4.72,0-7.08A.91.91,0,0,0,21,33v.15c0,2.36,0,4.73,0,7.08,0,.73,0,1.45,0,2.18,0,.36,0,.73,0,1.09a2.28,2.28,0,0,0,0,.26A1.93,1.93,0,0,1,21,43.53Zm0-22.19v0c0,2.51,0,5,0,7.53v.33a2.17,2.17,0,0,1,0,.26,1.64,1.64,0,0,0,0-.23v-.33c0-2.52,0-5,0-7.56v0Zm4.84,2.54V16.41h0v7.45a2.64,2.64,0,0,0,0,.29A2.35,2.35,0,0,1,25.81,23.88ZM21.13,47l.29.16H21v-.28h0"/><path d="M50.36,38.1a4.13,4.13,0,0,1-1.22,3,3.83,3.83,0,0,1-.44.36,3.77,3.77,0,0,1-.54.34,4.51,4.51,0,0,1-1.54.44,5.3,5.3,0,0,1-.57,0H30.1c-.23,0-.46,0-.68,0a5.84,5.84,0,0,1-.63-.13l-.4-.13a5.52,5.52,0,0,1-.55-.26,4.39,4.39,0,0,1-.5-.34l-.3-.26a2.44,2.44,0,0,1-.27-.29,2.87,2.87,0,0,1-.39-.57,1.05,1.05,0,0,1-.12-.21,4.35,4.35,0,0,1-.25-.63c0-.16-.08-.32-.11-.49a5,5,0,0,1-.08-.79v0c0-3.48,0-7,0-10.46a1.12,1.12,0,0,1,.24-.73.68.68,0,0,1,.12-.12.64.64,0,0,1,.45-.18h0a.43.43,0,0,1,.19,0l.19.07a.82.82,0,0,1,.44.58,2.45,2.45,0,0,1,0,.48v7.08c0,1.09,0,2.19,0,3.27a2.53,2.53,0,0,0,.12.8c0,.08.05.16.08.23a2.78,2.78,0,0,0,.22.42,2.6,2.6,0,0,0,.3.36l.08.08.1.08h0l.17.12h0a.31.31,0,0,0,.1,0l.11.06h0a1.53,1.53,0,0,0,.32.13l.24.06.12,0a.69.69,0,0,0,.2,0H46.06a3.22,3.22,0,0,0,1-.14,2.78,2.78,0,0,0,.76-.41l.2-.17.18-.2h0a1.43,1.43,0,0,0,.15-.22c0-.08.09-.17.13-.25h0c0-.09.07-.18.1-.27a2.68,2.68,0,0,0,.12-.59s0,0,0,0a.42.42,0,0,0,0-.16v-.17q0-6.1,0-12.2,0-4.65,0-9.3V13.7a4.41,4.41,0,0,0,0-.52,3.11,3.11,0,0,0-.1-.46,2.2,2.2,0,0,0-.39-.78,3.84,3.84,0,0,0-.28-.3,1.93,1.93,0,0,0-.53-.34,2.64,2.64,0,0,0-.67-.22h0a2.88,2.88,0,0,0-.59-.05h-16a2.41,2.41,0,0,0-2.6,2.16,3.15,3.15,0,0,0,0,.44V23.86c0,.76-.3,1.16-.84,1.16a.74.74,0,0,1-.59-.25.88.88,0,0,1-.12-.19,1.69,1.69,0,0,1-.11-.43,2.64,2.64,0,0,1,0-.29V13.62c0-.15,0-.3,0-.44a4,4,0,0,1,2.12-3.29l0,0a4.39,4.39,0,0,1,2-.48H46a5,5,0,0,1,1.76.32l.38.16a.05.05,0,0,0,0,0l.1.06.15.09a2.2,2.2,0,0,1,.25.17,4,4,0,0,1,1.57,2.47,4.89,4.89,0,0,1,.09,1v1.85Q50.41,26.8,50.36,38.1Z"/><path class="cls-5" d="M26.82,26.68a.63.63,0,0,0-.19,0h0A.43.43,0,0,1,26.82,26.68Z"/><path class="cls-5" d="M28.8,40.38l-.11-.05h0Z"/><path class="cls-5" d="M29.69,40.64l-.19,0-.13,0,.12,0A.69.69,0,0,0,29.69,40.64Z"/><path class="cls-5" d="M29.82,40.65h0Z"/><path class="cls-5" d="M42.16,40.66h0Z"/><path class="cls-5" d="M48,39.94a1.07,1.07,0,0,1-.19.18,2.35,2.35,0,0,1-.77.4,2.78,2.78,0,0,0,.76-.41Z"/><path class="cls-5" d="M48.69,25.86q0,6.09,0,12.2a.81.81,0,0,1,0,.16v-.17q0-6.1,0-12.2,0-4.65,0-9.3V13.7a4.41,4.41,0,0,0,0-.52,3,3,0,0,1,0,.53v2.87C48.69,19.67,48.69,22.77,48.69,25.86Z"/><path d="M46.08,11a2.88,2.88,0,0,1,.59.05,3.92,3.92,0,0,0-.59-.05h0Z"/><path d="M46.06,40.67a2.81,2.81,0,0,0,1.73-.54,2.69,2.69,0,0,1-1.73.54h0Z"/><path d="M38.06,40.68h-8a3.33,3.33,0,0,1-.56,0,3.36,3.36,0,0,0,.56,0Z"/><path d="M28.58,40.27l.22.12A1.55,1.55,0,0,1,28.58,40.27Z"/><path d="M28.4,40.13a1.45,1.45,0,0,1-.18-.16Z"/></g></svg>