<svg id="Layer_1" data-name="Layer 1" xmlns="http://www.w3.org/2000/svg" viewBox="0 0 63.16 68.39"><defs><style>.cls-1{fill:#fff;}</style></defs><path class="cls-1" d="M43,39l9,.25c-1,8.26-14.07,19.88-16.89,20.07S32.14,58,30.31,58s-1.69,1.38-4.81,1.38S9,47,8.56,38.75,12.45,25,18,23.53,27.79,25.16,30.31,25c2.52.21,6.88-2.92,12.37-1.42,4.92,1.34,9,5.9,9.36,12.81-2.74.2-8.74.53-8.82.53l-.19,0Z"/><path class="cls-1" d="M52.06,38.75a.22.22,0,0,1,0,.11l-8.61-.24V37.27c1.08-.06,6.14-.35,8.63-.53A16.85,16.85,0,0,1,52.06,38.75Z"/><path class="cls-1" d="M29.42,23.85a71.27,71.27,0,0,1,1.92-9,29.93,29.93,0,0,1,2.54-5.41,1.1,1.1,0,0,1,1-.54l1.88.85a56.34,56.34,0,0,0-3.89,5.63C31.91,17.2,29.42,23.85,29.42,23.85Z"/><path class="cls-1" d="M31.53,21.36s4.15-9.41,11.29-6.6c-4.49,9-11,7.09-11,7.09l5.09-3.29Z"/><path class="cls-1" d="M61.49,35.46a5.27,5.27,0,0,0-3.86-.78,6.57,6.57,0,0,0-2.25,1,6,6,0,0,1-2.07.95l-1.25.09c-2.49.18-7.55.47-8.63.53v1.35l8.61.24,1.16,0a21,21,0,0,0,5.61,1c2-.14,2.94-1,3.15-3.12A1.55,1.55,0,0,0,61.49,35.46Zm-3.38,3.27h-.24a3.08,3.08,0,0,1-2-.75,1.08,1.08,0,0,1-.41-.72c0-.68,1.18-1.25,2.8-1.37a2.59,2.59,0,0,1,2,.44,1.21,1.21,0,0,1,.36.93C60.67,38,59.71,38.61,58.11,38.73Z"/><path class="cls-1" d="M57.1,52l-.17-.18s2.57-2.46,1.89-4.72c-1-3.21-2.09-7.63-.83-8.86A.66.66,0,0,1,58.7,38c.79.31,1,2.75,1.12,4.84a5.42,5.42,0,0,0,1.53,2.91l-.17.18a5.56,5.56,0,0,1-1.61-3.08c-.15-2.87-.47-4.43-1-4.62-.13,0-.27,0-.44.18-.87.84-.57,3.74.89,8.61C59.79,49.43,57.21,51.89,57.1,52Z"/><polygon class="cls-1" points="39.38 36.74 4.28 38.09 37.17 39.91 39.38 36.74"/></svg>