<svg xmlns="http://www.w3.org/2000/svg" width="73.973" height="60.265" viewBox="0 0 73.973 60.265">
  <g id="Group_3" data-name="Group 3" transform="translate(29 44)">
    <rect id="Rectangle_393" data-name="Rectangle 393" width="16" height="16" transform="translate(-0.228 0.266)" fill="none"/>
    <path id="Path_2" data-name="Path 2" d="M61.425,62c27.945,0,43.151-23.014,43.151-43.151V16.795a33.405,33.405,0,0,0,7.4-7.808,34.115,34.115,0,0,1-8.63,2.466,15.989,15.989,0,0,0,6.575-8.219,37.694,37.694,0,0,1-9.452,3.7A14.677,14.677,0,0,0,89.37,2,15.44,15.44,0,0,0,74.164,17.205a8.012,8.012,0,0,0,.411,3.288c-12.74-.822-23.836-6.575-31.233-16.027a15.738,15.738,0,0,0-2.055,7.808,16.328,16.328,0,0,0,6.575,12.74,13.854,13.854,0,0,1-6.986-2.055h0A15.019,15.019,0,0,0,53.205,37.753a12.669,12.669,0,0,1-4.11.411,6.994,6.994,0,0,1-2.877-.411c2.055,6.164,7.4,10.274,14.384,10.685a31.028,31.028,0,0,1-18.9,6.575A11.378,11.378,0,0,1,38,54.6,38.79,38.79,0,0,0,61.425,62" transform="translate(-67 -46)" fill="#fff" fill-rule="evenodd"/>
  </g>
</svg>
