<svg id="Layer_1" data-name="Layer 1" xmlns="http://www.w3.org/2000/svg" viewBox="0 0 568.04 568.04"><defs><style>.cls-1{fill:#fff;}</style></defs><path class="cls-1" d="M283.92,192.13c-1.48-13.55-2.82-13.79-14.1-16.24-17.41-3.78-35.42-7.08-47.71-22.17-2.06-2.53-4.42-5-5.67-8-4.89-11.55-10.95-22.79-11.9-35.63-.36-4.91.16-9.84,3.77-14.51,7.53.42,14,4.18,19.69,8.35,8.62,6.3,17.19,12.53,27.33,16,10.81,3.71,18.73,10.95,25.93,20.8,1.57-2.55,2.78-4.28,3.75-6.14,6.52-12.52,16.57-21.56,28.69-28.3,9.07-5,17.28-3.22,24.1,4.69,1.49,1.73,2.66,3.74,4.74,6.7-3.08,1.66-5.79,3.25-8.61,4.61-10.28,5-19.62,11.18-27.34,19.73-11.14,12.35-13.86,26.79-11,42.7.35,1.93.73,3.85,1.31,6.86,8.47-.78,16.56-1.24,24.21-4.5,8.24-3.52,16.3-7.49,24.64-10.75,12.74-5,26.46-5,39-1.76,10.39,2.66,20.52,8.68,24.64,20.79,2.72,8,6.83,15.57,10.13,23.41a21.65,21.65,0,0,1,1.12,6.15c.13,1.28-.76,3.31-.18,3.8,6.29,5.29,2.45,11.84,2.15,17.74-.42,8.27-1,16.65-2.85,24.7-3.12,13.83-7.11,27.46-11,41.1-1.05,3.69-3.36,7-4.48,10.7-.91,3-2,2.55-3.74,1.05-.83,1.26-2.61,3.32-2.33,3.65,2.76,3.29-.2,5.44-1.27,7.94-7.58,17.69-20.67,31.3-33.51,45.08-4.76,5.11-9.69,10.09-14.74,14.92-2.36,2.27-4.89,4.79-7.84,5.94-14.54,5.64-29.29,11-45.19,10.67-8.1-.16-16.72-2.16-21.9-8.2-8.07-9.41-16.8-7.88-25.94-4.13-11,4.5-21.91,4.69-33.2,1.9-15.91-3.94-28-13.59-37.9-26A136.47,136.47,0,0,1,164,355.72c-2.82-5.17-4.7-10.87-6.83-16.4-3.47-9-7.31-17.83-10-27a61,61,0,0,1-2.79-19.56c.7-15.89,1.63-31.85,4-47.55a84.34,84.34,0,0,1,22.05-46c13.72-14.52,30.92-24.52,50.49-28.27,8.23-1.58,17.91.9,26.13,3.79,10.59,3.71,20.37,9.69,30.51,14.66C279.25,190.24,281.09,190.92,283.92,192.13Zm-111.71,19.2c-12,14.32-17.39,31.13-18.48,49.09-1.42,23.28,0,46.17,8.17,68.66,8.31,22.81,19.41,42.56,40.25,56.4,14.69,9.74,29.27,13,46,6.51a81.91,81.91,0,0,1,17.38-4.18c7-1.09,13,1,17.49,7,4.27,5.72,10.38,8.22,17.51,7.5a113.28,113.28,0,0,0,12.68-2.11C342,394,361.82,376,374.23,350.46c7.25-14.95,15.84-29.08,23.17-43.89,5.83-11.81,11.4-24.3,13.88-37.11,3.89-20.07,1.71-40.39-4.9-60-3.6-10.66-9.35-20.67-19.22-25.84-12.16-6.35-25.53-9-39.31-3.07-15.91,6.85-31.45,14.93-49.11,16.71-.66.06-1.28.45-1.93.49-10.65.74-21.22,1.59-31-4.63a85.94,85.94,0,0,0-16.06-7.93c-5.53-2-11.4-4-17.21-4.32a98.29,98.29,0,0,0-22.83,1.63,45.72,45.72,0,0,0-15.59,6.17c-5.57,3.49-10.39,8.21-15.31,12.64-1,.87-1.74,3.71-1.24,4.18,3.47,3.25.67,6.34-.07,9.25-6.93,27.53-12.67,55.19-7.66,83.76a130,130,0,0,0,18.55,48c5.36,8.36,11.88,16,17.8,24a23.91,23.91,0,0,1,2,4.1c-4.33,2.85-7,.51-9-2.15-6.79-9-14.1-17.65-19.86-27.24-9.16-15.28-14.11-32.14-16.11-49.94-2.11-18.71-1.73-37,3.57-55.32C169.54,230.73,170.48,220.91,172.21,211.33Zm105-42.63c.31-2.18.72-4.42,1-6.68,1.53-15.18-5.15-26.18-18.92-31.39-16.37-6.19-29.33-18.15-45.32-24.53C210.23,138.68,247.07,169.32,277.21,168.7Zm52.16-54.82c-6.08-4.37-11-4-16-1.33C293.59,123.24,286,141,284.6,162.28c-.18,2.88,1,5.85,1.62,8.78C292.32,145.61,306.34,127.12,329.37,113.88Z"/><path class="cls-1" d="M375.43,219.48c-7.83,11.48-7.73,15,.67,23.78-5.74-2-9.56-6.57-9.55-11.5A13.54,13.54,0,0,1,375.43,219.48Z"/><path class="cls-1" d="M237.49,126.13l35.72,26.54c-.88,2.64-1.79,5.32-3.12,9.27-5-3.3-9.95-5.9-14.13-9.37-6.6-5.49-12.68-11.6-19.05-17.37C232.74,131.42,233.71,128.52,237.49,126.13Z"/></svg>