<svg id="Layer_1" data-name="Layer 1" xmlns="http://www.w3.org/2000/svg" viewBox="0 0 568.04 568.04"><path d="M345.07,236.89c-1.89-1.29-3.81-2.53-5.66-3.88-9.29-6.8-18-14.6-28-20.15-9.1-5.07-19.55-7.71-30.22-11.73.27-1.83.63-4.28,1.1-7.4-2.86,2.35-5.05,5-7.84,6.21s-6.24,1.06-9.54,1.52c-1-5.09,2.86-7.05,5.3-10,9.49-11.66,12.89-25.37,12.83-40.14-8,10.13-9.68,22.89-14.54,35.43-2.36-2.73-4.32-4.51-5.67-6.66-5.66-9-11-18.17-16.76-27.07-2.09-3.23-5.07-5.87-7.62-8.8a12.91,12.91,0,0,1-2.29-3c-5.5-12.7-17.51-25.08-31.84-31.69,2.28,2.89,3.35,4.74,4.87,6.08,10.34,9.08,18,20.29,25.32,31.74.35.55,1.26,1.1,1.18,1.52-2,11.45,6.62,20.36,7.41,31.12-3.75-7.12-7.49-14.25-11.28-21.47a10.15,10.15,0,0,0-2.83,1c-11.72,8.65-25,11.63-39.32,11.28-15.45-.37-28.07-5.81-34.25-20.75a277.7,277.7,0,0,1-11.72-34.71c-1.75-6.59-5.23-11.3-9.95-15.59C128.85,95.25,123.7,91,119,86.3c-3.17-3.2-5.67-7.07-8.48-10.64,4.29-5.11,8.2-5.83,13.81-5.35,15.54,1.34,31.19,1.31,46.78,2,7.62.34,15.23,1.05,22.83,1.72,7.17.63,13.22,3.35,17.18,9.71-10.67-2.18-21.3-4.61-32-6.44-3.64-.62-7.54.27-13.74.6,4.78,4.71,7.44,8,10.77,10.41,2.57,1.82,6.7,4.18,8.87,3.28,5.48-2.29,9.13.31,12.48,3.13,10.12,8.51,19.86,17.48,29.8,26.21,2.59,2.26,5.38,4.29,8.55,6.8,3.08-12.8-1.23-24.74-9.9-30.84-5.54-3.91-12.36-6.49-15.15-13.52,8.11,5,16.68,9.34,24.13,15.15,4.14,3.22,5.22,8.35,5.1,14.84-.19,10.54-.48,22,5.83,31.74,5.22,8.09,10.1,16.4,15.29,24.5,1,1.55,2.72,2.61,5,4.68,2.85-7.3,5.28-13.69,7.83-20,1.6-4,3-8.08,5.14-11.74,5.49-9.33,4.69-19.86,6.27-29.94,1-6.54.55-13.54,2.75-19.62,7.8-21.51,23.58-34.66,45.58-40.38,6.06-1.58,12.27-2.62,19-4-.37,1.42-.68,2.58-1.31,5l23.56-4.64-13.34-2c21.19-4.91,39.79-.77,58.68,4-2.3.22-4.76,1.07-6.89.56C398.71,48,384.24,51,369.88,53A215.83,215.83,0,0,0,337,60.66c-9.15,2.8-19.22,5.36-26.4,11.12a53.35,53.35,0,0,0-19.75,33.73c-.89,5.8-.83,11.74-1.32,19.53,2.91-2.22,4.33-3.16,5.58-4.29,9.11-8.23,17.69-17.14,27.4-24.59,11-8.41,22.77-15.75,34.49-23.11a246.87,246.87,0,0,1,25.15-14c7.5-3.56,15.74-3.85,26.05-2.72-3.21,2.75-4.85,4.64-6.91,5.84-13.2,7.73-26.55,15.22-39.74,23-12.54,7.38-25.13,14.7-37.34,22.6-10.41,6.73-18.38,15.89-24.68,27.78,3.4.76,5.86,1.65,8.37,1.83,19.34,1.41,38.43,1.65,56.69-7,8.21-3.91,13.92-10.22,19.44-16.69,4.28-5,7.78-10.56,13.92-13.64a4.46,4.46,0,0,0,2.36-2.75c.63-5.92,5.53-8.57,9.27-11.74,6-5.08,12.65-9.35,19.66-14.41,2.24,1,5.09,5.35,8.37.91,1-1.39,1.37-3.28,2.78-6.85l9.9-2.15c2.39,5,1.61,8.31-3.82,10.3-5.59,2-11,4.52-16.49,6.92-12.2,5.37-21,14.71-29.28,24.8q-7.87,9.61-16,19c-4.19,4.82-4.29,4.73-1,10-12.23,2.68-24.63,5.53-37.09,8.07-7.39,1.5-15.39.67-21.71,6a11.94,11.94,0,0,0-1.8,2.19c-.13.18,0,.58.12,1.69,19.1-5.71,38.65-4.45,58.1-4.14A230.79,230.79,0,0,1,410,150.39c4.77.68,9.54,2,13.29,6.13,2.23,2.44,6.13,3.86,9.53,4.61,5.58,1.23,4.69,4.13,3.28,7.86-12.43-2-24.45-4.14-36.52-5.92-4.57-.68-9.37-1.39-13.88-.75-17.06,2.43-34.46,1.44-51.31,6.54-8.85,2.68-18.3,3.36-26.35,8.51-2.36,1.5-4.53,3.3-7.71,5.65,17.13,14.63,37.11,11.3,56.81,13.83-1.64,1-2.54,2.07-3.4,2-11.25-.44-22.69,0-33.69-1.94-7.19-1.28-13.76-6.1-21-9.54-5.49,3.13-5.49,3.13-7.73,12.1,1.31.69,2.68,1.55,4.16,2.16,12.58,5.22,24.94,11,35.86,19.17C336.94,225.08,344,228.53,345.07,236.89ZM121,80c3,6.63,9.37,10.42,15.3,14.33a29.47,29.47,0,0,1,12.3,16.28c3.61,11.63,7,23.36,9.93,35.17,2.43,9.63,13,21.25,21.94,21.56s18.07.32,26.56-1.79c7.18-1.79,14.05-6.09,20.65-12.29l-7.08-2.46,6.4-3.43c-2.92-14.77-13.6-23.25-23.66-31.58C189.11,104,172.87,95,155.88,87.78,144.94,83.13,135,72.9,121,80Zm196.32,83.67,1,2.35c3.82-.85,7.62-1.8,11.46-2.54,7.76-1.49,16.12-5.29,23.16-3.61s12.74.24,19.05-.6c4.55-.61,9.11-1.11,13.68-1.53,3.48-.33,7-.44,10.45-.65-1.88-2.71-3.91-4.28-5.91-4.25-17.24.26-34.52.16-51.67,1.58C330.91,155.07,323.63,159,317.32,163.69Zm1.19-18.6c-.15-.61-.3-1.22-.44-1.84-3.18-.29-6.36-.61-9.54-.88C295.08,141.23,292.47,143,289,156q-1.8,6.71-3.11,13.54c-.25,1.3.29,2.76.66,5.66,7.13-5.32,5.75-14.61,13-18.14C306.26,153.84,312.23,149.15,318.51,145.09Z"/><path d="M205.91,400.89c18.55,10.93,21.27,28.23,19.17,47.5a26.71,26.71,0,0,0,.19,3.85c8-4.48,8.25-4.81,14.24-19.27,10.48.11,18.35-6.05,26.95-11.87,9.18-6.21,20.2-9.7,30.41-14.39,11.82-5.43,24.11-9.12,37.14-10,9.79-.7,18.9-3.23,26.83-9.34,8.39-6.46,17.36-12.24,25.18-19.31,5.59-5.06,9.74-11.59,7.89-20.25-.49-2.26.93-5,1.6-7.43,3-10.87,6.52-21.74,3.73-33.16a38.23,38.23,0,0,0-5.16-11.69c-6.19-9.4-12.34-18.92-19.47-27.6s-15.4-16.41-23.19-24.54c-1.84-1.92-3.72-3.78-5.59-5.67,3.89,2.24,8.57,3.72,11.53,6.84,12.29,13,24.21,26.32,36,39.78,10.13,11.6,12.11,25.34,9.74,40.15-1.2,7.51-1.9,15.1-2.64,22.66-1.17,12-4.3,22.88-15.23,29.92a36.81,36.81,0,0,0-6.16,5.05c-13.37,13.5-30.27,18.51-48.52,20.26-8,.76-15.73,2.08-23.13,5.39-20.11,9-39.56,18.9-55.23,35a87.75,87.75,0,0,0-19.58,30.38l-5.43-1.92c-1.22,2.38-3,4.76-3.71,7.42-2.64,10.61-5,21.3-7.3,32-1.31,6-1.21,6-9.47,11.24,2.89-15.43,5.31-29.64,8.31-43.73,1.13-5.29,1-9.21-5.17-11,3.7-8.93,6.38-17.46,1.86-27-1.92-4.06-3.72-7.65-7.34-10.25-1.35-1-2.6-2.1-4-3-28.74-18.17-51.94-43.22-78.93-63.59a63.9,63.9,0,0,1-22.09-31.4c-3.79-11.66-5.75-23.73.4-35.68,7.13-13.86,13.66-28,24.37-39.7,6.45-7,11.77-15.31,19-21.42,8-6.8,17.79-11.44,26.37-17.62,11.8-8.48,25.14-9.54,38.91-9.53,7,0,14-.14,20.93-.66,7.82-.59,14.88-3.05,19-9.67-1.89-6.34-3.64-12.19-5.39-18,6.65,2.4,8.38,8.89,10.55,14.31,1,2.39-1.31,7-3.44,9.54-5.71,6.67-13.66,9-22.25,9.28-9,.33-17.93.86-26.9.93a44.46,44.46,0,0,0-26.14,8.48c-19.74,14.23-38,30.19-53.59,48.94-12,14.45-16.27,31.8-17.48,49.92-.56,8.45,3.24,16.34,7.82,23.3,7.74,11.76,17,21.86,30.12,28.3,9.93,4.86,18.11,13,28.9,16.64.54.19.61,1.8.89,2.75L160.4,388.4l-1,1.69,14.72,11.81c4.71-6.17-4.28-6.2-3.16-10.32,6.54,2.51,13.81,3.67,18.44,9.79,12.07,1.82,14.82,12.06,19.35,20.95,1.84,3.6,5.21,6.43,9,11,1.3-6.67-.36-10.26-3.11-13.95a127,127,0,0,1-8.86-14.18c-.61-1.1.16-3,.29-4.48Zm-28.07,3.18L177,406.3c3.83,1.29,8.21,1.82,11.36,4.06,3.63,2.59,6.34,6.4,11.64,6.53C194.83,407.35,186.49,402.64,177.84,404.07Z"/><path d="M480.16,176.32c7.21,3.81,13,6,11.42,15.25-20.32-7.65-41.32-8.34-62.48-8.88,6-4.71,13-4.51,19.92-3.78,7.92.84,15.78,2.24,23.7,3.08C476.24,182.36,480.4,183,480.16,176.32Z"/><path d="M371.21,196c10.42-3.58,19.92-9.7,31.21-10.23C393.26,192.89,382.64,195.8,371.21,196Z"/><path d="M424.37,50.49l9.39,1c-3,4.14-3,4.14-9.79,1Z"/><path d="M424.33,183.24,409.07,186c-.15-.8-.29-1.6-.44-2.39l15.21-3Z"/><path d="M465.75,168.81c4.32-.66,7.13,1.3,9.94,5.42C469.62,175.81,468.21,171.44,465.75,168.81Z"/><path d="M130.57,357c-3.41-1.78-5.67-2.28-6.84-3.69-4.8-5.77-7.52-12.33-7.15-20.1.26-5.55.55-11-2.22-16.5-1.18-2.33,0-6.57,1.38-9.35,13.47-27.67,31.36-52.08,54.58-72.42a11.19,11.19,0,0,1,8.14-2.65c-6.85,7-13.39,14.33-20.61,20.91-17.69,16.14-27.85,36-30.93,59.63a25.68,25.68,0,0,1-.65,4.93c-3.87,11.33-2.55,22.15,2.75,32.71C129.69,351.77,129.75,353.42,130.57,357Z"/><path d="M227.32,409.55c10.16,10.35,11.57,19.74,4.73,25.35-.25-4.77,0-9.19-.83-13.43C230.46,417.4,228.66,413.51,227.32,409.55Z"/><path d="M217,253.73H195.82C202.94,249.28,209.93,250.24,217,253.73Z"/><path d="M206.1,400.7c-8.65-.05-15.1-5.6-22.54-8.67,9-.9,15.25,5,22.31,8.9Z"/><path d="M165.55,369.12l-12.1.61c0-.52-.07-1-.1-1.57l12.07-.8C165.47,368,165.51,368.54,165.55,369.12Z"/></svg>