<svg id="Layer_1" data-name="Layer 1" xmlns="http://www.w3.org/2000/svg" viewBox="0 0 568.04 568.04"><path d="M132.08,283.2c-22.61-7.11-37.56-22.31-47.2-43.6C80,228.71,74.27,218.13,68.42,207.7c-2.72-4.86-6.73-9-10-13.54-1.78-2.49-3.09-5.16-.88-8.23,2.43-3.37,5.63-3.18,8.93-2,13.67,5,27.91,5.44,42.1,4.43,6.81-.48,13.44-3.22,20.19-4.74,5.47-1.23,10.94-2.71,16.53,0,1.23.6,3.14-.21,4.82-.38,2.81-17.65,5.12-35,8.47-52.19a82.22,82.22,0,0,0-.5-32.6c-2-9.85.9-13,10.65-12,13.17,1.4,26.57,1.85,39.43,4.68,21.49,4.72,40.12,15.18,54.48,32.37a7.52,7.52,0,0,0,1.63,1.14c.64-.06,1.49.11,1.9-.23,16.21-13.63,34.75-11.44,52.93-6.59,19.95,5.32,38.23,14.88,55.7,25.9,11.21,7.07,18.46,17,22.35,30.75,7.48-2.53,14.48-5.16,21.64-7.25,8.57-2.5,17.26-4.62,25.94-6.71,1.83-.44,4.53-.86,5.69.1,9,7.4,18.71,3.46,28.4,2.83,4.68-.3,9.6,1.34,14.23,2.7,4.48,1.32,5,4.91,3.47,8.87-1.28,3.43-2.67,6.81-4,10.21-7.4,18.43-15.08,36.75-22.07,55.34-2.54,6.76-3.44,14.13-5.11,21.22-.74,3.17-1.76,6.29-2.24,9.49a25.54,25.54,0,0,0,.24,6.58c.81,6.75,3,13.6,2.41,20.23-2.57,30.84-16,57.08-36.38,79.86a35.14,35.14,0,0,1-13.09,8.72c-15.32,6-30.14,13.12-46.44,16.77-23.75,5.33-45.11.73-65.1-12.25-6-3.91-7.84-3.57-13.31,1.71-6.93,6.71-14.35,12.71-24.11,15.28a142.5,142.5,0,0,0-22.44,7.52c-17.9,8.1-35.72,4.33-53-.7-17.13-5-32.69-14.37-45.64-26.38-19-17.64-26.89-40.45-22.87-66.38C125.32,309.36,129,296.71,132.08,283.2ZM150,368.57c-.82,6.57,3.36,10,7.48,13,6.6,4.82,14,8.61,20.3,13.76,9.62,7.87,21.47,10,32.71,11.86,22.35,3.74,43.39-2.24,62.54-14.12,5-3.08,9.14-7.52,13.36-11.66,3.33-3.26,3.05-6.64.07-10.58-8.9-11.77-11.58-25.69-13.13-40a117.29,117.29,0,0,1,4.95-48.32l-7.9-1.67c6.58-6.74,8.58-14.45,4.34-21.6-5.18-8.73-11.83-16.65-18.38-24.49a20.38,20.38,0,0,0-9.18-5.77c-6.29-2-12.79-4.62-20.31-1.63l6.28,13.21c-3.46,2.71-6.89,5.7-10.62,8.25-6.68,4.55-12.65,9.48-14.78,17.84a23,23,0,0,1-3.5,7c-5.81,8.55-11,9.59-18.56,2.9-7-6.19-14.45-7.27-23-4.66-2.18.67-4.48,1-7,1.49-2.25,5-4.65,10.07-6.85,15.25-.76,1.79-2,4.25-1.32,5.62,3,6.41.37,12.75.49,19.1.3,15.78,1.89,30.87,14.81,42.59,3.45,3.13,4.63,9.1,6,14,.54,1.93-1.05,4.2-4.41,3.76C159.32,373,153.86,373.77,150,368.57Zm295.43-81.63-2.63.06a67.65,67.65,0,0,0-2.56,7.19c-1.06,4.48-1.06,9.37-2.86,13.5-4.75,10.86-8.9,22.71-21.91,26.63-8.51,2.57-17,3.81-26.29,1.83-8.7-1.86-10.83-10.17-17-14.35-1.73-1.16-.15-7.35,0-11.22.6-12.41,4.79-24.7.45-37.26-1.68-4.85.45-8.47,5.09-10.15a21.72,21.72,0,0,1,7.8-1.48c7.61.24,12.79-4.33,19.92-8.7L394,245.44l-7.09,4c-8-3-16-5.57-23.84-5.07-8.37.55-16.73,3.5-24.76,6.36-7.09,2.52-13.83,6.12-20.49,9.7-4.56,2.45-8.45,6.2-13.09,8.44-5,2.4-8.44,5.73-11.74,10.18-8.73,11.79-9,25.39-9.47,38.93-.22,6.24-.4,13,1.59,18.73,7.65,22.17,20,40.86,42.5,50.77a16.76,16.76,0,0,1,2.73,1.21c8,5.47,17,6.15,26.45,6.65,9,.48,15.67-4.71,23.52-6.79,14.77-3.91,27.62-12.46,41.31-19,1.73-.82,3.09-2.44,4.57-3.76,6.62-5.91,9.84-13.69,12.91-21.84,6.07-16.1,9.1-32.54,7.93-49.7C446.88,291.8,446,289.38,445.43,286.94Zm-59.92-57c-.06-6.23-1.86-11.38,2.4-15.41.75-.7.65-2.56.56-3.86a84.68,84.68,0,0,0-10.15-35c-1.24,2.47-2.59,4.06-2.73,5.75s1,3.47,1.57,5.46c-5.66,3.27-10.71,6.41-16,9.12-1.92,1-4.34,1.09-6.56,1.36A99.77,99.77,0,0,1,342,198.53c-3.09,0-7.57.05-9-1.8-7.19-9.25-16-17.86-16.62-31.3-8-.12-7.08-6.73-7.08-11.64,0-5.15.56-11.1,3.2-15.21,2.34-3.65,7.86-5.26,12.83-8.29-2.57-.93-4.08-1.52-5.62-2s-3.23-.82-4.75-1.46c-16.39-6.92-30.92-2.71-44.8,7-3.83,2.67-5.63,5.27-3.77,9.83.24.59-.7,1.67-1.26,2.89L258,144.78c-1.71,2-3.08,3.43-4.31,5-13.45,17.1-19.24,36.22-14.56,57.78.78,3.6,3.49,6.79,5.31,10.16,7.43-1.92,11.88,4.5,17.89,6.58,6.33,2.18,11,6.76,14.77,12.63,6,9.25,11.09,18.65,12.56,30.34,2.93-2.73,5.38-8.48,6.94-8.25a14.38,14.38,0,0,0,11.75-3.58c10.56-8.75,23.44-12.21,36-16C357.51,235.54,371.17,233.19,385.51,230Zm-217-134.89c2.87,14.8,1,27.34-.93,40.23-2.54,16.64-2.61,33.77-2.29,50.67.16,8,2.94,16.25,5.92,23.85,3.16,8.07,8.24,10,15.67,5.57,6.38-3.8,11.87-8.11,19.68-4.61.45.2,1.33-.21,1.84-.57,5.19-3.66,11-3.19,17.84-1.38-5.07-30.57,8.06-53.62,27-75.39-6-5.74-11.51-11.47-17.56-16.48-4.25-3.52-8.95-7.07-14.06-8.87-12.72-4.48-25.74-8.16-38.76-11.73C178.85,95.26,174.47,95.55,168.46,95.06ZM483.58,172.5c-15.84,1.58-29.3,2-42.74-1-5.55-1.26-11-.29-16.38,2.56-7.81,4.15-16.12,7.39-24.73,11.23,0,7.73.3,15.32-.08,22.86s-1.42,15.24-2.18,22.86l2.45,1.73a33.36,33.36,0,0,1,2.15-4.51,51.86,51.86,0,0,1,20-17.63c7.76-4,15-8.39,20.86-15,2.67-3,6-4.25,9.86-.07-.51,1.81-1.93,4.09-1.57,6,1.17,6.12-1.32,7.67-7.09,9.09C430.75,214,419.44,221.1,411,233.32l42.88,24.52c-2.11-8.39,4.11-12.94,6.61-18.82,6-14,12.09-28,17.35-42.32C480.56,189.4,481.53,181.47,483.58,172.5ZM76.37,198.39c2.82,5.35,4.95,9.77,7.42,14,5.84,10,13.13,19.42,17.4,30A39.41,39.41,0,0,0,119,262.77c6.12,3.51,12.84,6,19.21,8.86.41-.35.83-.54.88-.79,2.71-13.79,8.14-25.42,21.26-32.92,3.53-2,8.8-7.31,5.87-13.33-4.73-9.67-8.3-20-16.84-27.62-3.5-3.13-6.69-5.33-11.15-5.05a49.75,49.75,0,0,0-11.66,1.91A113.58,113.58,0,0,1,76.37,198.39ZM424.08,311.13l2.74.5c.91-1.23,2.3-2.33,2.65-3.69,2.06-7.89,3.68-15.9,5.82-23.76,2-7.29-.53-13-6-17.33-5.1-4.07-10.74-7.47-15.36-10.64-2.59,2.82-4.59,4.57-6,6.69-1.15,1.69-2.77,4.46-2.13,5.64,1.12,2.09,3.57,4,6.55,1.44.9-.79,2.46-.83,4.27-1.38C427.42,281.09,430.43,295.07,424.08,311.13ZM169,247.49l15.56,7.92c17.53-13.93,19.66-19.45,13.91-36.6-3.91,2.69-9,4.41-10.81,7.85-2.45,4.56-7.33,9.3-2.77,16.08-3.39.46-5.95,1.59-7.73.85-2-.82-3.23-3.35-5.22-5.61a38.54,38.54,0,0,0-2.25,4.65A35.53,35.53,0,0,0,169,247.49ZM343.23,143.74c-6,7.81-8.29,13.19-8.05,18.63.43,9.71,8.57,15.33,17.21,11.35,4.05-1.87,7.47-5.13,11.68-8.12ZM414,283.08c-4.6,1.27-10.24,1.13-12.38,3.79a21.33,21.33,0,0,0-3.8,19.78c2.14,7,7.63,8.09,12.89,3.09S417.84,291.46,414,283.08Zm-216.26-9c3.87-16.86,14.1-26.42,26.1-34.85-1.87-3-3.39-5.48-5.06-8.17-7.57,6.27-7.22-2.9-12-6.69.65,5.62,1.46,9.32,1.41,13s.22,8.4-1.77,11.08c-3.19,4.29-8,7.39-12.36,10.79-2.4,1.89-5.14,3.35-9.14,5.9Zm184.87,31.7c.82,2.66,1.18,5.61,2.57,7.94a116.32,116.32,0,0,0,8.17,11.19c4.94,6.37,16.65,5.6,21.25-1.43.34-.52-.29-1.68-.48-2.55C400.25,323.87,390.9,322.48,382.6,305.79Zm6.85-28.26,9.56-6.21c-.27-.66-.53-1.33-.8-2l-13.75,1Zm-22.14-97.85c-3.85.79-6.57,1.38-6.86,5.76C364.26,185.66,366.63,184.62,367.31,179.68Z"/><path d="M318.65,363.39c-2.66,3.18-4.51,4.54-8.54,2-9.84-6.1-15.46-14.63-18.79-25.59-4.06-13.33-3.18-26.61-1.77-40,.9-8.52,3.32-11.69,10.3-13.47,3.17,4.8,1.4,10.17,1.19,15.21-.83,20.16,1.17,39.5,14.54,55.94a24.59,24.59,0,0,1,2.08,3.37A23.09,23.09,0,0,1,318.65,363.39Z"/><path d="M262,155.29c5.18,6.08,5.72,10.79,3.18,16.79-3.05,7.21-4.68,15-7,22.73-4.4.27-7.2-1.75-7.95-5.06-1.06-4.7-3.13-11-1-14.17a69,69,0,0,0,7.85-15.67C257.69,158.14,260.1,157,262,155.29Z"/><path d="M184.14,113.58c7.56,7.67,13.51,16.25,16.21,26.68,3.14,12.16,5.49,24.53,8.73,36.66,1.44,5.34,4.38,10.27,6.33,15.5.61,1.65.87,4.92.18,5.27a9.85,9.85,0,0,1-6.12.51c-5.81-1.21-7.46-6.1-8.76-11q-5.6-21.12-11-42.3c-1.64-6.46-3.63-12.51-8.51-17.58C177,123,177.78,121,184.14,113.58Z"/><path d="M424.16,183.35c3.79,6.54,2.74,10.28-1.12,14-3.29,3.17-6,7-9.64,11.43l-7.1-5.52Z"/><path d="M452.11,227.08l-9,.76c.16,1.91.28,3.46.5,6.17-3-.46-5.88-.43-8.39-1.39-4.36-1.67-4.5-2.76-3.26-11.55C444.91,219.75,446,220,452.11,227.08Z"/><path d="M143.26,242.51c-5.16,2.7-9.24,1.54-12.46-1.6-8.51-8.28-16.77-16.83-25.05-25.34-2.73-2.8-4.15-5.95-1.38-9.61C114.47,209,134.24,227.51,143.26,242.51Z"/></svg>