<svg id="Layer_1" data-name="Layer 1" xmlns="http://www.w3.org/2000/svg" viewBox="0 0 568.04 568.04"><defs><style>.cls-1{fill:#fff;}</style></defs><path class="cls-1" d="M451.91,308.87c-6.71,3.48-12.24,10.06-22.38,8.09l11-10.3c-7.3-3.74-9.55-3.14-12,2.54-3.3,7.75-6.31,9.85-14.33,7.95-6-1.43-11.39-.61-17.31.79-4.36,1-9.46-1-15.8-2,1.86-3.64,3.2-6.07,4.37-8.59,2.86-6.18,1.56-7.84-5.64-8.34-7.91,9.5-15.54,18.11-28.6,19.32-7.84.73-15.38,3.79-23.56,2.3-2.18-.4-4.91,1.52-7.21,2.71-7.36,3.81-14.56,6.46-22.36.74-2-1.47-5-2-7.55-2.27-8.85-.81-17.75-1.15-26.61-1.94-6-.54-11.19.56-15.44,6.45-2.37-4.49-9.64-1.62-11-9l13.19-.9c-3.78-4.94-12.84-7.81-19-6.43-2.24,5.53-3.88,11.15-6.78,16-1.46,2.45-5,4-8,5.1-2.38.92-5.65-.14-7.82,1-9.86,5.23-19.86,2.29-29.86,1.17a110.13,110.13,0,0,0-13.52-1.17c-2,0-4,1.59-5.93,2.69a42,42,0,0,1-8,4.22c1.44-5.92-.66-10.18-3.31-14.66-3.82-6.45-2.66-9.36,4.18-12.49,5.84-2.67,11.88-4.9,17.81-7.39,1.51-.64,3.4-1.22,4.25-2.44,1.16-1.66,2.6-4.61,1.89-5.72-.94-1.49-4.17-2.82-5.8-2.3-3.7,1.17-7.55,3.05-7.2,8.21a22.92,22.92,0,0,1-.48,3.91c-5.12-.79-7.79-2.93-4.85-7.23a23.19,23.19,0,0,1,8.73-7.64c8.22-3.91,13-11.09,18.11-17.84,3.19-4.18,5.5-9.09,7.86-13.84,3.17-6.36,8.41-9.87,14.73-12.65,7.57-3.33,15.86-6.21,21.88-11.51,6.81-6,12.56-13,21.32-16.53,1.51-.6,2.26-3.1,3.52-4.95-5.21-3.56-7.16,4.48-11.82,2.63,1.85-6.76,9.43-6.6,13.51-11.41l-4.49-6.88c8.79-2.45,14.62-11.32,25.27-9.44l15.6-22c5.16,1.16,12.27-1.07,14.44,7.85.46,1.9,3.79,3.1,5.47,4.38a100.18,100.18,0,0,1-6.71,7.74,38,38,0,0,1-6.4,4.47c-4.23,2.59-8.71,4.81-12.77,7.64-3.39,2.35-3.89,8.25-.85,10.36,3.21,2.23,6.21,2.45,9.05-1.8,3.3-4.92,4.44-4.54,9.12-.43,3.11,2.74,5.9,6.7,11.17,3.83,1.85-6.47-5-5.89-7.36-9.31,5.25-1.47,7.19-4.39,2.83-9.61l7.61-1.41c-.46-2.67-.86-5-1.48-8.65L327,183.1c.45,4.62.85,8.83,1.23,12.8a10.4,10.4,0,0,0,1.71,1.54c11.68,6.26,11.56,6.83,3.72,17.08-3.3,4.31-3.9,9.88-1.82,15.57,4.26-1.34,8-3.41,11.83-3.5,4.12-.1,8.28,1.64,12.38,2.57,2.43-8.37,2.41-8.39-9.92-14,2.53-3.41,5.69-3.93,8-.94,6.15,7.82,14.66,10.62,23.77,12.56.58.13,1,1,1.61,1.06,9.36,1.7,9.49,1.67,10.07,10,.22,3.21,1.81,5,3.83,7.44,6.88,8.25,14.72,14.61,25,18.2,5,1.77,5.28,4.75,1.32,9-.84.89-2.41,1.09-5.36,2.34,8.39,5.71,14.91,9.16,20.14,14s7,12.77,14.33,15.92c1.34.58,1.95,2.87,2.9,4.36Zm-247-47.21,4.47-8.41L208,252.13l-6.64,3.61,3.89,6.17c-9.07,0-13.48,3.75-13.61,12.11,4.62-3,9.09-5.71,13.34-8.75C205.51,264.87,205,263,204.91,261.66Zm108.35,28.86c-2.19-1.16-4.28-2.73-6.61-3.26-.75-.17-2.12,2.41-3.2,3.73,1.3.66,2.69,2,3.87,1.84,2.05-.29,4-1.52,6-2.35,10.09-2.52,19.38-1.12,27.7,5.64l-4.07,6.6a26.43,26.43,0,0,1,3.51,2.6,18.85,18.85,0,0,1,2.92,3.86c3.44,6.32,5.35,7.06,9.52,1.8,3.73-4.71,7.65-5.75,13-4.35,1.11.29,2.45-.33,3.88-.56.94-9.71-7.56-7.3-11-10.39-4.71,2-4.75,9.41-12.39,7.19L350,289.32c-5.08-4.88-10.66,2.07-15.55-3.48-2.89-3.29-11,1.53-14.15-5.14,6.4-8.45,5.62-11.54-6.9-16.68,7.89,7.17,3.09,12.51.5,16.52S312.53,287.17,313.26,290.52Zm-37.73,8.3c-2.26-5.43-3.35-6.34-7.3-3.41-3.39,2.52-6.47,3.41-10,1.51-5.32-2.88-9.41-1.23-13.37,2.67a39.49,39.49,0,0,0,1.65,3.76c5.52,9.51,8.41,9.78,16.79,2.69C266.61,303.25,270.83,301.54,275.53,298.82Zm22.09-22.54v-9.76l-10.14,2.19c-1.77,5-3.23,9.15-5,14.08,6.95-.85,13.38-1.4,19.66.65.34.12,1.18-1.26,2.26-2.49Zm59.2-40.54c-4.35-4.45-7-1.5-10-.48-3.38,1.16-7.34,1-10.39,2.67-2.45,1.32-3.93,4.46-6.18,7.22,17.16,5,18.65,4.31,20.48-8.27Zm-97.33-8.35c-2,10.18-7.59,12.55-16,9.29-1.15,4.15,1.78,7.31,3.28,6.25,4.37-3.07,8.05-.24,12-.46s8-2.15,11.67-3.93c.88-.42.6-3.23.95-5.55h-9.46C260.94,230.83,260.21,229.11,259.49,227.39Zm-19.63,62.29c-6.89,6.41-19.44,3.42-18,16.86l17.33-5.86C239.35,297.66,239.54,294.76,239.86,289.68Zm138-26,10,6.55,13.17-1.61C396.3,260,394.14,259.27,377.9,263.71Zm-114.83-35.9c9.09-2.33,9.71-10.17,14.93-13.64-6.8-1.75-13.12-2.46-20.92,4.67C266.52,217.63,264.74,222.19,263.07,227.81ZM213,267c-1.56,5.33-2.52,8.58-3.39,11.57,2,1.81,3.3,3.52,5,4.35,1.56.76,4.64,1.35,5.18.63,1.17-1.58,2.17-4.57,1.41-6C219.46,274.23,216.63,271.52,213,267Zm110.2,41.5c-7.73-2.71-7.73-2.71-14.23,7.65C319.32,316.59,319.52,316.48,323.17,308.5Zm-122.49-22c3.94-5.55,5.29-10.23,2.2-17.29L194,281C196.47,283,198.16,284.42,200.68,286.51Zm164.85-54.07c4.92,4.63,8.61,10.21,16.56,7.33C378.34,231.37,375.53,230.07,365.53,232.44Zm-97.45,31.1c-4.71,6.72-4.71,6.72-.26,14.63C275.07,271.19,275.11,269,268.08,263.54Zm-51.91-13.71c9,4,12.69,1.21,13.71-10.66ZM372,248.73c10.55,7.36,10.55,7.36,15.88,2.62C379.81,246.48,379.81,246.48,372,248.73ZM320.1,203l6.06,9.44c3.13-3.41,8.13-3.63,7.27-9.44Zm-8.4,19.7c11.38,5,11.76,4.92,11.52-3.28C316.61,218.7,316.61,218.7,311.7,222.68ZM203,301.13l1.63-1.62c-4.77-9.28-7.72-11-13.11-8.1Zm78.53-43.56c3.12,4.43,6.44,3.07,9.32,1.62,1.27-.63,1.82-2.73,3.11-4.85C288.41,252.43,284.82,253.38,281.56,257.57Zm150.65,35c-2.93-2.05-4.61-4.13-6-4s-4,2.68-3.83,3.82a6.41,6.41,0,0,0,4,4.36C427.5,297.06,429.34,294.73,432.21,292.58ZM323.53,252.05c-3.85-3.44-6.79-6.17-12.63-3.35C315.24,252.16,317.31,257.5,323.53,252.05Zm-50.11,6.57c-.26-11.13-.26-11.13-7.86-8.51Zm-17.65,27.67.81,2.61c2.94-.76,6-1.24,8.74-2.51.66-.31.1-3.24.1-6.42Zm34.62,6.85,1.8,2.39c2.24-1.16,4.81-2,6.53-3.67.56-.55-1.08-3.35-2.33-6.85ZM189.07,310l-6.25,9.18,11.61-.57Zm170.12-46.11c3.22,0,7.15.57,6.67-4.42-.1-1.08-3.72-2.95-5.23-2.57C356.6,257.92,357,260.84,359.19,263.88ZM167.29,323.8c.71,3.49,2.14,6.32,6.36,4.89,1-.34,1.47-2.36,2.18-3.6-2.47-.89-4.93-1.81-7.44-2.59C168.18,322.43,167.67,323.34,167.29,323.8Zm-5.42-7.09c-2.68,0-4.33-.5-5.08.1a18.67,18.67,0,0,0-3.73,4.74c-.14.22,1.35,2,1.69,1.88a14.74,14.74,0,0,0,4.69-2.38C160.33,320.33,160.68,318.93,161.87,316.71ZM412,304.39c2.52,7.24,2.52,7.24,8.5,3ZM307.34,237.71c-3.57-.91-6.5-3.66-9.89.86C301.05,241,303.93,242.23,307.34,237.71Zm-125.5,53c2.64-1.86,4.95-3.17,2.1-7.33C181.24,285.36,178.8,286.61,181.84,290.76Zm227,11.59,2.54-.45c-.12-1.73-.24-3.46-.37-5.18l-3.64,1ZM175.5,309c.23,1,.47,1.92.7,2.88l5.43-1.56c-.17-.7-.33-1.41-.49-2.12Zm169.37-49.3.49-1.42c-.88-.59-1.74-1.58-2.67-1.65-1.21-.1-2.48.53-3.73.85.08.57.15,1.14.23,1.7Zm-130.1-1.18.63,2.62,6-1.56c-.2-.8-.41-1.6-.61-2.41Zm174.29,28.16c3,4.13,5.69,3.39,10,0ZM240.12,247.4c-.25-.86-.49-1.72-.74-2.58a13.7,13.7,0,0,0-2.72,0c-2.64.56-3.64,3.21-1.61,3.77C236.52,249,238.42,247.86,240.12,247.4ZM393.4,295.64l0,2.47c1.68-.22,3.36-.41,5-.74a6.06,6.06,0,0,0-.06-1.65C396.73,295.63,395.07,295.64,393.4,295.64ZM317,295.42l-.24,2.37a12.39,12.39,0,0,0,2.33,1.28c2.16.67,4.23-1.48,2.79-2.75C320.86,295.38,318.71,295.68,317,295.42Zm-78.18-28.09,0,2.57c1.59-.26,3.19-.47,4.75-.86.16-.05.07-1.12.1-1.71Zm11-12.07.39,2.13,5.18-1c-.13-.7-.26-1.41-.38-2.11Z"/><path class="cls-1" d="M125.33,331.55c-.14,4.81-1,8.13-6,9.4-10.27,2.63-10.8-6.76-15.29-11.4C111.13,323.71,113.39,323.92,125.33,331.55Z"/><path class="cls-1" d="M451.77,309.08c4.85-2.81,9.58-6.51,15.66-4.23,2,.76,3.66,2.7,5.58,4.19-5.5,6.94-12.24,2.26-17.37,4.71l-3.72-4.88Z"/><path class="cls-1" d="M146.87,330.72c-2.18,1.07-3.64,2.39-4.69,2.13-1.23-.31-2.11-2-3.14-3.1,1.22-.9,2.44-2.49,3.63-2.48S144.9,329,146.87,330.72Z"/></svg>