<svg id="Layer_1" data-name="Layer 1" xmlns="http://www.w3.org/2000/svg" viewBox="0 0 568.04 568.04"><defs><style>.cls-1{fill:#2699fb;}</style></defs><path class="cls-1" d="M370.72,136.38l9.44-1.41c3.4,9.2,8.78,17.22,18.59,21.39,1.64.7,3.05,2.68,3.88,4.4,8.08,16.72,16.43,33.32,23.83,50.34,5.19,12,6.28,25,7.59,37.9,2.34,23.22-3.51,44.9-11.7,66-5.7,14.66-15.69,26.85-26.46,38.32-11.05,11.78-25.38,19.16-38,28.82-3.22,2.47-6.68,4.44-4.39,9.36-4.33,3-8.66,6-13,8.89-1.09.73-2.68,2.05-3.45,1.72-7.49-3.18-10.48,3.63-15.15,6.6-1.12.71-2,1.86-3.1,2.5-17.3,9.72-34.9,18.95-51.82,29.27-8.18,5-15.95,4-24.41,2.68-10.12-1.61-20.51-1.91-30.46-4.18-12.21-2.8-24.06-7.09-36.09-10.66-13.87-4.12-23.37-13.05-30.12-25.72-2.26-4.25-6.7-7.31-10-11-4.12-4.65-7.69-9.45-9.48-15.74-3.17-11.12-7.24-22-11-32.95-5.82-17.08-4.46-34.75-4.49-52.32,0-4,2-5.93,5.5-7.28,16.07-6.27,32.15-12.44,49.44-14.68a86.53,86.53,0,0,0,9.81-2.35c.82-1.41,1.49-2,1.43-2.52-2.1-20.46,9.91-36.59,17.09-54.05,4.87-11.86,12.06-22.77,18.2-34.11a6.51,6.51,0,0,0,1.17-2.73c-.09-10,8.13-13.68,14.82-16.37s11-7.07,15.61-11.71c11.64-11.73,24.19-21.9,41.18-24.62,8.15-1.3,16.36-2.33,24.52-3.61a34,34,0,0,0,6.52-1.81c8.28-3.11,16.44-4.71,24.22,1.3a4.74,4.74,0,0,0,1.79.87c12.33,2.69,20.89,10.83,28.86,19.86-3.8-1.77-7.77-3.27-11.37-5.39-3.42-2-6.25-5-9.68-7-9.62-5.6-19.36-10.11-30.87-4.36-3.35,1.68-7.68,1.51-11.59,2-20.23,2.26-39.16,7.35-52.92,23.93-1.68,2-5.43,2.68-4.3,7.28l9.59-4c-2.53,5.09-6.34,6.85-11.15,6.85-2.1,0-5,0-6.15,1.32-9.2,10.43-19.32,20.35-26.78,32-14.62,22.72-20.91,48.38-22.34,75L272.32,274c1-.92,2.78-2.82,4.8-4.47.51-.42,1.66-.06,3.19-.06l-4.65,7c15.79,7,30.85,13.86,46.12,20.23,2.45,1,5.83-.19,8.81-.37-1.16,5.36.78,10.08,6.42,13.42,1.87,1.11,3.23,3.21,4.6,5,4.88,6.46,9.65,13,13.55,18.27-1.67,8.45-3.09,16.12-4.7,23.76-1.66,7.85-5.52,15.29-5.11,25.07,3.86-2.26,6.91-3.57,9.4-5.58,8-6.43,15.86-13,23.53-19.75,18-15.94,33.54-27.69,41.15-64.37a17,17,0,0,1,.81-1.81c1.45-4.29,3.64-8.5,4.13-12.9,1.2-10.9,2.25-21.91,2.09-32.85-.09-6.43-2.27-12.92-4.14-19.2-1-3.26-3.56-6-4.93-9.18-3.94-9.11-7.62-18.34-11.45-27.51-.61-1.47-2.22-3-2-4.27,1.07-7.55-3.61-13.42-7.17-18.5-6.4-9.14-15-16.71-22.69-25A50.44,50.44,0,0,1,370.72,136.38Zm-45.8,253.08c8.38-2.64,12.4-7.72,13.75-15.29,1-5.57,2.48-11.05,3.78-16.69l-4.68-.54c-1.11-4.5,6.17-6.87,2.51-11.87-3.48,1.59-6.88,2.92-10.08,4.63-9.82,5.25-20.58,5.9-31.13,5-25.35-2.12-50.62-5.2-75.94-7.73a10.57,10.57,0,0,0-5.55,1.52c-3.42,1.81-6.64,4-8.7,5.25-9.26-4-17.94-2.88-26.57-4-1.27,8.27-8.7,5.27-13.95,6.87,8.29,10.26,12.71-3.58,17.61-2.12l14.61,9.1c-9.44,4.63-12.69,10.26-4.16,17.64l-7.32,3.67,3.34,8c1.66.28,3.31.42,4.89.85s3.39,1.22,5.32,1.95c-7.32,8-12.23,7.26-18.85-3.07v8c-10.13.14-4.05-7.31-5.11-11.19l-14.79,6.29c-.81-1.66-1.05-3.29-2-3.86-9.95-6.23-10.64-19.71-20.5-26.05-1.13-.72-.9-3.36-2-4.42-1.43-1.4-3.53-2.12-6.4-3.72-.28,11.48,5.25,18.68,11.27,25.73,4.25,5,8.45,10,12.43,15.21,4.82,6.29,9.19,12.83,16.92,16.25,9.07,4,17.61,9.33,26.86,12.82,10.91,4.12,22.25,7.94,34.08,2.54a4.52,4.52,0,0,1,2.85.12c12.5,3.64,24.6-.22,35.79-4.17,14.24-5,27.45-13,41.05-19.75a18.65,18.65,0,0,0,5.6-4.08c2.7-3.06,5-6.5,7.54-9.91Zm-203-93.81c-.4,5.28,4,6.63,7.22,8.47,7.08,4.07,14.48,7.57,21.69,11.41,4.38,2.33,8.47,5.31,13,7.21,21.54,9,44.41,13,67.28,16.65,15.65,2.51,31.4,4.55,47.19,5.92a257,257,0,0,0,36.7.79c9.11-.52,18.08-3.29,27.21-5.07.15-3.15,1.77-7.7.2-9.54-5.72-6.72-8.07-15.81-16.49-20.75-16.79-9.86-33.16-20-51.92-26.37-17.82-6.06-35.72-6.72-53.91-6.31-12.18.28-24.35,1.72-36.51,2.85-11.85,1.11-23.74,2.06-35.49,3.87C138.6,286.25,129.52,289.4,121.89,295.65Zm39.13,85L169.7,382c.17,2.48.31,4.42.53,7.58l9.93-6.48c-.46-4.92-.57-8-1.09-11-.3-1.73-.84-4.25-2-4.8s-3.64.34-5.15,1.25c-1,.57-1.2,2.31-1.41,2.76-6.5-1.37-11.65-5.19-16.08.88l8.88,1.09C162.43,376,161.79,378.12,161,380.6Zm-14.49-20.09c5.89-2.21,6.11-7.12,6.09-11.93,4.81,0,9.08.16,13.34,0,3.87-.19,8,2.27,12.37-.66-22.19-9.8-26.46-8.47-36.91-.45C150.42,349.2,141,356.87,146.53,360.51Zm-6.08-35.81.82-.65c-4.62-4.22-9.18-8.52-13.93-12.59-.73-.62-2.34-.21-3.83-.29v7.59Zm58.32,21.41c-5.36-5.33-11.46-7-17.89-4.56C187,344.06,191.83,348.43,198.77,346.11Zm-67.54,9.28,1.77-.52a51.93,51.93,0,0,0-1.29-5.87c-.14-.43-1.52-.44-3.68-1C129.41,351.21,130.32,353.3,131.23,355.39Z"/><path class="cls-1" d="M267.28,153.16l17.33-15.85-2.54-2.14c.35-2,5.88-3.62,8.52-2,2.31,1.42,4.15,3.59,7.18,6.31-2.84,1.7-5.39,3.51-8.17,4.83-8.4,4-9.11,5.17-8.07,16.13,3.08,0,6.29-.34,9.37.14,1.6.25,3,2,4.44,3-1.16,1.39-2,3.43-3.51,4.07C280.66,172.44,270.88,167,267.28,153.16Z"/><path class="cls-1" d="M348.19,146.37c.56,12.12-9.17,19.38-24.13,18-10.94-15.53-10.2-18.71,6.29-26.94,1.18-.59,2.4-1.1,3.89-1.78,2.18,1.36,4.46,2.68,6.62,4.17a9.57,9.57,0,0,1,1.78,2.15c-.89,4.68-4.73,3.94-7.8,4.79-6.78,1.88-7.86,3.83-6.84,11.95C337.45,159,343.76,154.29,348.19,146.37Z"/><path class="cls-1" d="M319.48,184.66c-7.77,12-22.35,17.51-29.07-.42,3.43-6.75,6.34-14.06,15.5-15.81,3-.58,5.71-1.92,7.6,1.66l-11.83,13.37,8.63,7.39Z"/><path class="cls-1" d="M268,201.28l-9,10c.82,4,1.78,9-3.28,12.44l-13.51-1c2.54-4.1,2.54-4.1,8.38-6.06.16-2.09.33-4.34.56-7.53,7.76,1.28,7.24-10.84,15.22-10.18Z"/><path class="cls-1" d="M232.89,244.18l9.35,6.28c-8.13.65-13-1.86-17.09-6.3,6.77-12.69,15.07-16.9,26.29-12.12-5.15,1.79-9.17,3.58-13.38,4.55C233.68,237.6,233.61,240.71,232.89,244.18Z"/><path class="cls-1" d="M220.83,218.83c1.66-2.86,2.84-6.25,5.18-8.34,1.06-1,4.42.67,6.74,1.12-.62,1.88-.7,4.38-2,5.49-2,1.79-4.91,2.67-7.43,3.93Z"/><path class="cls-1" d="M236.49,190.79l6,7c-7,5.63-10.34-4.27-16.3-3l0-2.13Z"/><path class="cls-1" d="M306.64,266.82c3.32.27,6.27.45,9.19.79.51.06.95.77,2.08,1.76-4.56,2.24-7.71,7.12-14.43,3.86Z"/><path class="cls-1" d="M199.75,239.36l14.41-10.85C212.3,238.59,208.44,241.81,199.75,239.36Z"/><path class="cls-1" d="M238.67,259.9,252.36,252l4.54,4.94-18,4.77C238.82,261.07,238.75,260.48,238.67,259.9Z"/><path class="cls-1" d="M291.22,248.3c.86-1,1.76-2.73,2.38-2.64,4.86.75,10.19.12,15,3.93C298.46,251.8,297.82,251.75,291.22,248.3Z"/><path class="cls-1" d="M215.76,245.34c-1.67,4.23-3,7.57-4.79,12.11-1.24-1.19-3.49-2.33-3.61-3.67C206.86,248.46,210.75,246.67,215.76,245.34Z"/><path class="cls-1" d="M284.27,212.66c5,6.43,4.09,8.52-4.94,10.3C281.09,219.28,282.64,216.06,284.27,212.66Z"/><path class="cls-1" d="M247.57,165c4.45-3.27,8.09-3.54,11.7.42C255.63,165.35,252,169.34,247.57,165Z"/><path class="cls-1" d="M231.42,182.89l8.9-.49C235.41,186.85,235.41,186.85,231.42,182.89Z"/><path class="cls-1" d="M268.83,257l5.9-4.4,1.37,1.29a13.19,13.19,0,0,1-2.43,2.88,19.74,19.74,0,0,1-4,1.61C269.38,257.91,269.11,257.45,268.83,257Z"/><path class="cls-1" d="M244.92,171.83l-6.46.89-.4-1.83,6.38-1.92Z"/><path class="cls-1" d="M215.3,256.57l6.93.43C218.72,262.2,218.72,262.2,215.3,256.57Z"/><path class="cls-1" d="M263.34,263.14c-1.63,1.42-3.27,2.83-5.33,4.63C256.37,262.46,260.37,263.08,263.34,263.14Z"/><path class="cls-1" d="M283.26,202.23c-.4,1-.58,2.19-1.26,2.89s-2.05,1.22-4.71,2.69c.91-2.46,1.07-3.55,1.65-4.3a17.68,17.68,0,0,1,2.73-2.35Z"/><path class="cls-1" d="M233.25,422.35c-7.66.48-14.39,1.25-20.32-4C221,412,226.9,413.07,233.25,422.35Z"/><path class="cls-1" d="M211.57,408.71c-1.59,2.63-2.66,4.38-4.38,7.21l-3.9-6.76c-2.6-2.22-8.5,4.53-9.95-3.61C200.65,399,205,407.35,211.57,408.71Z"/><path class="cls-1" d="M211.83,362.25c2.95-2.45,5.34-6.69,11-3.8C220.11,362.92,216.33,363.38,211.83,362.25Z"/><path class="cls-1" d="M153.69,298.61c11-5,21.67-8.93,33.57-10.44,19.5-2.48,38.45.43,57.34,3.55,11.89,2,23.32,6.69,35,10.17a8.52,8.52,0,0,0,2.82.8c10.59-.79,16.38,8.52,24.93,12.11,2.37,1,3.95,6,4.2,9.36.31,3.91-3.65,4.68-6.91,5.78-14.1,4.75-28.21,2.46-42.37.62-15.68-2-31.45-3.51-47-6.08-11-1.82-22.4-3.64-32.38-8.18-6-2.72-11.64-8.05-17-12.55C162,300.58,158.78,298.83,153.69,298.61Zm145.6,24.66c.16-1.1.33-2.21.49-3.32-2.41-1.46-4.73-3.13-7.26-4.36-27.4-13.32-56.52-18.83-86.8-18.49-12.68.14-25.35.94-38.27,1.45.38,5.47,5.26,6.46,9.5,8,8.38,3,17.25,2.95,25.93,4.22,14.08,2.07,27.92,5.73,41.87,8.71,13.62,2.91,27.21,6.25,41.29,5.6C290.47,324.87,294.87,323.9,299.29,323.27Z"/></svg>