<svg id="Layer_1" data-name="Layer 1" xmlns="http://www.w3.org/2000/svg" viewBox="0 0 568.04 568.04"><defs><style>.cls-1{fill:#2699fb;}</style></defs><path class="cls-1" d="M375.24,180.31c6.94-3.05,10.26-7,9.17-15.87-.75-6.1,3.45-12.94,5.94-19.26A49.41,49.41,0,0,1,396.88,133c4-5.17,4.89-10.75,3.84-18l7.26,2,5.72-7.25,4.11,6.94c-7.69,5.13-7.88,6.89-2.08,12.68a29.27,29.27,0,0,1,4.2,5.28,65.88,65.88,0,0,1,3.14,7l13.11-7.38-2.55,8.9c2.05,3.52,7.26,3.26,14.33-1,1.12,2,2.25,3.93,3.37,5.88l-1.59-.11c-.91,4.61-3.15,9.47-2.36,13.77.72,3.92,4.72,7.24,7.81,11.58h-6.05c-3.89,8-7.7,15.85-12.21,25.15,24.36-3.43,47-6.25,69.75,1.24l-4.33,4.59,10.09,3.62A42.19,42.19,0,0,1,497.52,226a316.13,316.13,0,0,1-33.79,21c-16.24,8.73-34,13.38-52.15,16-12.1,1.73-24.22,3.46-36.4,4.29-13.93.95-23.84,9.06-33.95,17.14-5.38,4.3-10.78,8.58-16,13-1.66,1.41-2.87,3.36-5.27,6.26,8.25,1.31,15.24,2.35,22.19,3.54,5.23.88,10.48,1.77,15.63,3,6.11,1.44,12.18,3.1,18.18,4.93,2.38.73,6.64,0,5.15,5.09-.18.61,1.37,1.93,2.33,2.64,11.73,8.65,23.59,17.14,35.21,25.94,3.07,2.32,5.42,5.58,7.89,8.18-.42.94-.48,1.42-.67,1.48-11.28,3.45-22.53,7-33.89,10.17a22.45,22.45,0,0,1-8.95.1c-24.29-3.6-48.67-6.71-72-15.21-5.65-2.06-7.61-4.53-5.29-9.22-4.73-4.48-8.92-8.46-14-13.33-11.11,13.61-22.12,28.33-29.93,45.47,1.53.59,2.27,1.16,2.68,1,12-5.25,24.78-3.84,37.27-5,11.51-1,23-2.4,34.48-3.58a43.38,43.38,0,0,1,7.95-.44c7.94.67,12.67,7.51,8.39,14-9.41,14.28-17.82,29.89-35.19,36.72a33.82,33.82,0,0,0-6.2,3.23C293.87,433.93,275,436.07,255,432.59c-4.41-.76-9.07-.11-15-.11,1.61-3.13,2.56-5,3.61-7-1-.18-2.3-.82-2.79-.43-2.24,1.78-5.23,3.46-6.2,5.87-9.6,24-19.34,48-24.32,73.51a152.26,152.26,0,0,1-4.61,17.28c-.65,2-2.62,3.62-3.75,5.55a69.13,69.13,0,0,0-4.06,7.83c-2.24,5.24-6.59,8-11.49,6.9s-9.59-7.38-8.85-12.3c1.71-11.44,3.56-22.86,5.23-34.31.38-2.59,1.17-5.7.17-7.81-2.75-5.79-1.78-11.09,1.43-15.82,4.4-6.49.25-12.21-1.07-18-.41-1.79-4.05-3-6.4-4.16a119.93,119.93,0,0,1-28.08-18.72c-7.28-6.43-10.62-14.86-14.9-22.86a107.29,107.29,0,0,1-7-17.54c-.69-2.16-.66-5.64.64-7.06s4.86-2.15,7-1.59c15.07,4,29.76,9,43.49,16.52.19.11.56-.12,1.59-.37-4.82-11.88-9.21-23.86-14.63-35.35-1.46-3.12-5.83-5.1-9.2-7.05-18.65-10.78-26.92-28.74-32.75-48-4.34-14.39-6.52-29.18-3.87-44.35.62-3.52-.53-7.33-.19-10.94.58-6.29,3.36-7.37,8.44-4.06,15.29,9.95,27.39,23.07,37.74,37.9,6.27,9,8.58,19.44,9.7,30.08.76,7.26.28,14.65.9,21.93.4,4.68,1.78,9.28,2.72,13.91l2-.07c.49-1.06,1.36-2.1,1.43-3.19.66-9.95,1.68-19.92,1.58-29.88-.08-8.41,3.85-15.42,6.57-22.79,2-5.47,8-5,11.64.36,6.09,9,7.9,19.6,10.36,29.92.22.92.46,1.84.88,3.51,3.5-3.12,2.66-6.84,2.92-10.11.66-8.59,1.67-17.2,1.58-25.79a273.89,273.89,0,0,0-2.13-34.74c-.54-3.88-4.34-8.46-7.92-10.55-9.05-5.3-18.85-9.29-28.25-14-1.45-.73-2.41-2.5-3.49-3.88-1.55-2-2.57-4.89-4.57-5.93-18.77-9.77-33.7-24.48-49.46-38.1-3.11-2.68-5.73-4.65-10.4-4.37-4,.24-8.44-1.47-12.34-3.11-8.82-3.73-17.43-8-26-11.92-5.75,3.32-1.39,8.24-1.44,12.49C59.26,177.63,56,175,56.74,167.5c1.85-18.75,1-16,8.88-16,0-3.17.86-6.68-.17-9.5-2.25-6.15,1.63-8.48,5.62-11,2.19-1.4,5.8-2.1,6.55-4,3.26-8.27,9.7-10,17.5-10.58,2.71-.2,6.3-1.81,7.68-4,4.54-7,11.18-9,18.73-9.65,2.58-.24,5.12-.87,8.14-1.4,3.26,6,3.68,11.77.88,18-2,4.55-3.42,9.38-5.41,15,7.44-.6,10.45-5.74,14.25-9.53a3.9,3.9,0,0,0,.59-3.69c-1.89-2.82-4.06-6.11-1.92-8.87,3.92-5,5.17-12.39,12.76-15.58.29,2.61.51,4.61.87,7.94,2.31-2,4-2.93,5-4.35,6.37-8.75,14.79-9,24.07-6.11,8.53,2.68,16.67,3.69,24-8.33l5.43,11.27c1.29-4.18,1.83-5.92,2.39-7.72.59.19,1.52.27,1.57.53,1.38,7,6.27,8.55,12.53,8.49,7.27-.07,14,1.59,19,7.89a9.81,9.81,0,0,0,1.9-2.29c3.87-9.45,10.4-9.44,18.11-6.46,8.69,3.36,17.45,3.53,24.57,3.49,5-4.89,9-8.48,12.61-12.5,1.32-1.49,1.67-3.94,2.17-6,.41-1.69.38-3.49.75-7.37l4.88,6.11c7.18,0,13.67.6,20-.19,5.05-.64,9.88-3,16-3.17L338,88.55c3.51,0,5.6.36,7.5-.08,3.23-.73,6.31-2.1,9.52-3,13.27-3.52,23.12,1.77,27.62,14.82.25.74-.29,1.76-.68,3.82L374,95.67c-2.55,3.34-4.63,6.06-6.75,8.81l6.41,5.84-4.08,5.2,19.59,8.4-.59,2c-8.14-1.17-16.83-7-23.88,1.49-1.8,2.14-2.16,5.49-3.17,8.28l2,1.1,4.84-4.71c5.05,6.32,5.05,6.32,11.51,2.58,4.15-2.41,4.15-2.41,9.23.6-5.27,3.88-10.05,7.8-17.32,8.81a56.62,56.62,0,0,1-16.65-.08c-9.79-1.49-19.61-2.78-29.34-4.14-13,32.91-35.93,57.22-58.09,83,7.09-2,14.49-3.35,21.22-6.24,12.76-5.49,25.17-11.79,37.65-17.91,11.9-5.83,23.7-11.88,35.6-17.71,1.07-.52,2.59-.13,3.91-.16l-.16-.19c-2.69,2.18-5.11,4.89-8.12,6.44-9.61,4.94-19.45,9.43-29.16,14.17-1,.5-1.79,1.57-3.15,2.81,12.07-.94,31.52-10.85,46.19-23.19ZM109.87,142.86c3.14,3.28,3.49-.79,4.92-2l-5.15,2.23c-.46-1.87-.92-3.74-1.8-7.34l-3.46,7.1ZM171.36,100l-6.47,8.19c8.82,3.8,12.33,1.1,13-9l-6.55.72c-3.8-.62-7.64-1.36-9.44,4Zm-9.89,301.15c-4.61-4.48-17.61-9.4-23.36-8.74,7.52,21.43,20.38,38.16,42.19,49.12.74-3.84,1.32-6.85,1.79-9.24-14.23-6.14-20.54-18.78-30.12-28.13l.81-2.36,9-.93,20.7,22.81,1.64-1.59C180.62,411.06,172.12,405,161.47,401.14ZM325.35,220.56l-.87-2.1c-7,2.57-14.11,5-21.1,7.74-8.34,3.21-16.48,7-24.94,9.85-9.25,3.11-18.77,5.44-28.19,8-6.09,1.68-8.25,5.85-8.5,11.87-.53,12.28-.79,24.62-2.29,36.8-4,32.9-8.79,65.72-13,98.61-1.41,11-2.07,22.07-3.07,33.11a15.91,15.91,0,0,0,4.34-8.36c2-10.18,5.48-19.68,11.41-28.3,3.89-5.68,8.15-11.36,10.69-17.66,7.37-18.33,19.21-33.78,30.72-50.2-5.65-7.66-3.29-16.69-3.64-25.5-.54-14.08,4.67-26.68,9.43-39.3,1.43-3.8,6.38-6.25,9.58-9.45,1.15-1.15,1.74-2.89,2.91-4,1.88-1.81,3.78-4.15,6.1-4.86C314.07,234.05,318,225.33,325.35,220.56Zm-180.47-88c-1.67,4.82-3.06,9.22-4.71,13.52a78,78,0,0,1-5.11,11.72c-6.62,11.22-6.4,13.16,3.79,21.27,1.3,1,2.73,1.88,4.1,2.82,13.17,8.94,26.24,18,39.55,26.77,7,4.6,14.46,8.55,22.75,13.41.2-3.86.68-6.14.36-8.29-1.44-9.49-3.67-18.88-4.54-28.41-.74-8.17-5.32-15.67-3.71-24.3.3-1.57-2.36-4.36-4.29-5.55-7.82-4.79-15.83-9.28-23.9-13.63-1.57-.84-3.75-.53-5.64-.82a17.15,17.15,0,0,1-2-.5l-2-8ZM330.23,274l2.93,1.59q16.2-11.21,32.36-22.46a8.9,8.9,0,0,0,1.73-2.41L380,231.9l17-25.09c-1.62-5.73-3.8-13.45-6-21.22l-50.46,28.46c0,4.63.69,9.55-.15,14.19-1.42,7.78-4,15.34-5.75,23.07C333,258.82,331.69,266.44,330.23,274Zm82.64-54.11-8.58-2c-.5,2.39-.89,4.25-1.27,6.08-8.34-.11-19.3,12.11-24.87,27.51l-5.63.53c.59,1.89,1,3.13,1.35,4.37,4.48-1.93,7.06,3.5,11.1,2.94,13.75-1.94,27.65-3.22,41.16-6.24,10.83-2.42,21.79-5,30.87-12.81,8.77-7.52,18.58-13.86,28.13-20.43,4-2.73,8.42-4.72,13.72-7.64-2.66-1.35-4.22-2.45-5.94-3-15.74-4.8-31.85-5.56-48.2-4.81C431.84,205,421,209.24,412.87,219.9ZM322.76,345.42c9.33,9.3,20.92,10,32,11,13.79,1.32,27.69,1.44,41.56,1.84,1.77,0,3.59-1.36,5.44-2.11-.95-7.78-4.95-13.18-10.75-17.49-7.7-5.73-15.31-11.6-23.17-17.12a16.83,16.83,0,0,0-7.42-2.56c-4.9-.59-9.87-.62-13.85-.83-3.11-2-5.51-4.82-8.12-5-12.38-1-24.56-.23-34.9,8.4-.65,15.77,6.43,22.28,23.19,18.05ZM126.21,255.61c-.53,3.95-.81,6.21-1.13,8.45-1.59,11.35.94,22.45,2.93,33.39A87.2,87.2,0,0,0,153.42,345c4.27,4.17,8.56,6,14.05,3.23v-26.9c-9.89-.08-6.29,8.15-8.59,12-4.9.78-5.34-2.32-6.12-5.3-1.51-5.76-2.49-11.79-4.93-17.14-4.93-10.85-10.71-21.32-16.08-32a29.49,29.49,0,0,1-2.65-6.42,3.69,3.69,0,0,1,1.7-3.08c.9-.48,2.89-.34,3.49.34a29.48,29.48,0,0,1,3.72,5.85c6.23,11.59,12.41,23.2,19,35.6,4.39-18.48,4.36-22,.08-21.82l-2.93,6.45c-5.42-3.71-6.31-8.08-5.4-13.3.36-2.07,1.16-4.78.23-6.23A57.67,57.67,0,0,0,126.21,255.61Zm103.17-61.85c9.53.56,11.86-4.52,13-10.92.35-1.92,1.7-3.67,2-5.6,1.48-8.38,7.47-15.88,4.82-25.4l-6-4c-10.68,5.28-21,10.4-31.77,15.74,4.87,18,5.1,36.79,13.19,55.5,1.47-4.44,3.36-7.26,3.05-9.82-.63-5.26.87-8.79,6.08-10.51C232.44,197.23,231.62,196.29,229.38,193.76ZM253,203l1.47,1.29,5.67-5.18c4.39-4,8.22-9,13.27-11.9,19.28-10.94,29.67-29.68,42.24-46.54.31-.41,0-1.25,0-2.34l-6.45-4.48c-8,10-19.24,13.36-30.24,17-5.34,1.76-7.87,4.81-9.17,10.36a165.29,165.29,0,0,1-7.76,23.43C259.51,190.91,256,196.86,253,203Zm47.83,91.12c-7.05.54-8.23-3.8-6.36-7.54,5.5-11,4.71-24.13,12.08-34.46,1.73-2.41,3.63-5.36.85-10.33-2.8,3.45-5.13,5.93-7,8.73-1.44,2.19-1.92,5-3.44,7.15-11,15.22-11.94,32.64-11.33,50.42a13.84,13.84,0,0,0,1.22,3.87c8-7.2,15.55-14,23.09-20.87,2.95-2.68,6-5.32,8.68-8.21,2-2.09,4.39-4.36,1.93-7.84l-7.61,1.46c10.44-13.36,10.44-13.36,9.6-20.05l-13.5,5Zm41.71,87.71c-.65-.29-1.29-.86-1.79-.76-13.08,2.89-26.26,2.76-39.55,1.9-12.48-.8-24.35,1.53-35,8.79-7.53,5.15-11.58,11.06-12.41,20.31,4.34-1.56,8.5-2.6,12.24-4.47,21.15-10.56,42.63-19.82,66.86-20.24C336.82,387.27,340.92,386.5,342.52,381.8ZM329.37,394c-10.84-.87-10.83-.85-20.82,6.94A5.68,5.68,0,0,1,305.8,402c-16.8,1.78-31.61,9.72-47.23,15.18-2.58.91-5.68,1.56-6.31,5.45,8.72,3.27,16.79,4.3,25.36.45a133.3,133.3,0,0,1,21.59-7.6C312.15,412.16,320,402.18,329.37,394Zm-98.9-146.11c6.06-7.94,11.48-15,17.49-22.93-13.22-4.06-17.24,8.46-26.85,10.68l-11.81-3.25c1.33,3,1.62,4.28,2.38,5.21a66.72,66.72,0,0,0,4.82,5c7.07,7,11.93,14.69,11.46,25.27-.26,6.05-.76,12.43,2.23,18.22,1.31-10.55,2-21,2.25-31.53C232.5,252.39,231.2,250.21,230.47,247.87Zm-34,59.21c-3.16,6.57-5.53,21.72-4.26,26.65a13,13,0,0,0,1.94,3.24c5.17,8.11,4.8,17.28,3.11,25.84-1.81,9.16-2.79,9,.31,18.08C204.94,362.92,207.82,324.07,196.44,307.08Zm-7.11,224,2.67.76c4.37-16.54,8.41-33.17,13.25-49.56,2.23-7.55-.71-12.36-5.6-17.75-5,4.44-3.09,9.76-3.14,14.24-.1,10.36-1.09,20.29-4.79,30.2C189.15,515.84,187.52,523.49,189.33,531.08Zm17-77.45c8-21.53,7.93-44.07,10.37-66.34a37.35,37.35,0,0,0-4.68,10.82c-2.14,7.63-3.21,15.7-6.36,22.87C200.78,432.21,204.3,442.78,206.38,453.63ZM289,107.29c-9.46-2.46-18.55-5.06-27.76-7.14-5-1.13-6.64,2.8-8,5.89l28,13C284.18,116.7,288.4,113.31,289,107.29Zm-180.32,58c-3.37-5.25-6.32-12-13.24-11.79-5.38.18-10.58,3.86-12.92,9.91C100.26,170.22,100.26,170.22,108.66,165.28Zm4-33.19,2.55,1c2.31-7.2,7.31-13,8.75-21.76-2.79-.81-5.36-1.94-8-2.15-1.25-.09-3.83,2.31-3.79,2.38,4.06,6.87-4.21,7.44-5.66,11.36-.51,1.37-.24,3-.32,4.64l5.24-2.71C111.89,127.76,112.26,129.93,112.63,132.09ZM331,226.82c-6.53,2.32-12.37,3.78-12,12.21.2,4.66-3,9.47-5.07,15.16,9.85-3.12,9.73-3.14,11.37-10.47.56-2.46,1.95-4.71,2.77-7.13C329.14,233.37,330,230.08,331,226.82ZM222.83,129.87c-8.56-2.8-13.88,1.11-19.15,6.17.24,3.77.48,7.54.82,13C214.81,145,216.91,136,222.83,129.87Zm36.45,22.65c-1.87,6.13-3.81,11.67-5.24,17.35s-2.4,11.66-3.57,17.5l2,.66q3.89-8.25,7.76-16.51c-4.53-5-.06-8.37,2.1-12.18C263.8,156.75,264.43,154.36,259.28,152.52Zm-39.85-44.4-7.69,4c1.5,5.92,5,5.68,8.86,3,4-2.79,7.58-6.09,11.53-9.31L217,100.4C218,103.6,218.67,105.68,219.43,108.12Zm-21.69,35.62c-.43-9.23-5.4-16.51-11.64-17.24,1.28,5.05,2.34,10.09,3.88,15C191.1,145.1,193.87,145.48,197.74,143.74Zm-40,56.8-33.39-25.71C129.23,185.27,145.63,198.32,157.7,200.54Zm23,22.58c.92,2.79,1.05,4.75,1.71,4.95,8.65,2.61,13.86,10.79,22.57,13.36C197.84,235,193.35,225.33,180.69,223.12Zm91.69-96c-.13,4.17-3,8.45,1.41,13.14,4.24-3.48,8.07-6.64,12.52-10.31Zm85.32-33c-.62,7.73-11.5,7.54-9.38,17.88l16.14-11.88C362,97.93,360.38,96.53,357.7,94.14ZM269.52,205.4c-3.73,2.84-7.18,6.19-11.27,8.36s-9.08,3.34-13.66,4.93c3.69,1.74,7.86,3,10.27,1.48C260.67,216.5,266.73,212.61,269.52,205.4Zm32.09-73.81c-10.27-2.28-13,6.18-18.25,10.54C290.26,141,296.81,139.2,301.61,131.59Zm10.64-.91c-1.72-8.4-5.36-13.65-12.81-15.93C301.6,121.16,304.6,126.91,312.25,130.68Zm-43.44,99.15c-13.59-2.11-16.77-.91-19.43,8Zm-11.55-84.58,1.05-2.69-5.82-9.19c-2.3,4.12-7.06,7.29-2.7,11C251.4,145.68,254.72,145,257.26,145.25ZM185,142.08c.4-8.42.4-8.42-7.28-9.94C176.91,140.26,177,140.42,185,142.08Zm242.37,12.56c3,3.21,1.35,8.42,7.86,8.61l3.38-12.52ZM264.57,119.48c-3.67-5.86-8.68-6.81-15-5.59C253.46,121.51,255.53,122.27,264.57,119.48ZM133.83,141.07c-8.86,2.8-10.35,5.83-7.43,16.23ZM414,202.83l3.79-1.79c-5.33-3.37,1.07-13.15-10.9-14.46C409.56,192.8,411.76,197.81,414,202.83Zm7.12-6.16c3.52-6.66.09-10.29-2.86-14.09C415.45,187.35,417.31,191.39,421.07,196.67Zm-188.68-63-6.6,12.7C237.15,141.93,237.3,141.67,232.39,133.65Zm5.33,76.81c4.32-4.37,8.14-8.9,8.13-17.16C241.49,199.54,236.58,203.49,237.72,210.46Zm169.46-4.38,2.4-1.19-5.93-15.09C402.62,196.06,403.29,201.64,407.18,206.08Zm-95.25,94.64-1.45-1.52c-5.24,3.07-9.88,6.76-11.62,13.46Zm30.59-168.06c-.12.64-.25,1.28-.37,1.92l14.6,4.26C353.31,130.18,347.29,133.3,342.52,132.66ZM97.63,127c-5.77,10.75-5.35,12.65,2.35,13.18C99.75,135.81,92.05,132.75,97.63,127Zm182.82,99.23c.31.82.62,1.64.92,2.47l8.37-4-.85-1.87Zm-52.08,81h-1.55v9.65h1.55ZM197.71,403l3.08,1.63c2.45-2.64,4.36-5.46,2.06-11.61ZM92.34,126.3l-1.71-2.78-8.52,6.29,1.42,2.11Q87.92,129.1,92.34,126.3ZM275.93,341.65c.95.17,1.62.45,1.76.29,1.92-2.31,3.76-4.68,5.63-7-.34-.27-.68-.54-1-.82Zm42.72-228c2,1.67,3,2.95,4.17,3.3.72.21,2.75-1.3,2.66-1.63-.34-1.3-1.05-3-2.09-3.45S321,112.68,318.65,113.62Zm-171.3,11.93,2.6.71c.92-2.73,2.84-5.25,2.31-8.3l-2.14-.57Q148.74,121.47,147.35,125.55Zm139.3-5.89c3.17,4.75,5.29,4.17,7.24-1Zm-76.87,1.73c-5.41-1-6,1.09-5,5.33a12.66,12.66,0,0,0,2.84-1.75A24,24,0,0,0,209.78,121.39ZM336,85.65c-6.14-.26-7.41,1.18-5,4ZM185.73,117.93l2.58-7.29C183.34,112.16,181.85,113.94,185.73,117.93Zm46.15.2c-1.31-1.37-2.58-3.15-2.92-3a8.09,8.09,0,0,0-3.28,3c-.21.36,1.56,2.65,2.13,2.54C229.11,120.42,230.24,119.24,231.88,118.13Zm195.54,26.75-1.86,1.38,2.33,3.46L430,148.2Zm-16,210.93,2-2.27-5-3.08-1.21,1.71Z"/><path class="cls-1" d="M375.24,180.31l-3.58.63-5.76-.23.16.19,14.73-9.77C378,175.69,376.63,178,375.24,180.31Z"/><path class="cls-1" d="M213.07,86l-8.32-1.9c0-.69-.33-1.63-.07-1.83C208.49,79.45,211.41,79.46,213.07,86Z"/><path class="cls-1" d="M474.84,213.12c-7.63,2.07-13.06,3.94-18.64,5-11.85,2.18-22.87,5.62-32.62,13.37-6.88,5.46-15.08,9.28-22.78,13.66-3.5,2-7,2.84-8.52-3.29,6.16-3.76,12.77-7.23,18.75-11.57,11-8,23.25-13.45,35.38-19.24,1.45-.7,3.9-1.88,4.53-1.31,6.13,5.46,12.77.6,19.07,1.31C470.83,211.12,471.6,211.69,474.84,213.12Z"/><path class="cls-1" d="M440.15,238.87c-4.25,2.38-7.68,5.15-11.58,6.25s-8.38,3-12.13-.88C422,236.64,428.41,235.17,440.15,238.87Z"/><path class="cls-1" d="M462.57,230.25c-7.54,4.42-14.91-.57-22.58.19.81-1,1.45-2.77,2.46-3C449.72,225.57,457,226.6,462.57,230.25Z"/><path class="cls-1" d="M321.87,322.08c17.92.56,34.93,5.4,51.42,11.65,5,1.9,12,2.92,14.09,11.48-7.88-3.3-14.79-6.58-22-9.09a225.43,225.43,0,0,0-21.83-6.22C336.1,328.12,328.12,327.92,321.87,322.08Z"/></svg>