<svg id="Layer_1" data-name="Layer 1" xmlns="http://www.w3.org/2000/svg" viewBox="0 0 568.04 568.04"><defs><style>.cls-1{fill:#fff;}</style></defs><path class="cls-1" d="M287,31.72c-1.3-.1-2.84.22-3.86-.36-8.26-4.7-16.65-4.11-25-.67-10.94,4.49-21.61,10-26.89,21.1-4.94,10.4-8.35,21.55-8.46,34.53,23-8.43,44.88-18.72,69.52-11.44-1.09.16-2.27.67-3.25.41-11-3-21.63-1.45-32.16,2.3-9.39,3.33-18.82,6.53-28.32,9.53-6.17,2-9.4,5.84-9.4,12.34V119.1c9.49,1.81,18.25,3.32,26.93,5.19,12,2.59,23.52,6.73,33.85,13.58,6,4,9.45,10.15,13.6,15.69l-1.6,1.62a68.41,68.41,0,0,1-5.4-5.65c-7.12-9.35-16.12-15.24-27.89-17.45-8.38-1.57-16.51-4.55-24.75-6.88a14.24,14.24,0,0,0-3.89-.86c-15,.26-28.41-4.68-41.44-11.63-4.26-2.27-9.4-3.09-14.25-4-13.61-2.58-27.49,8.15-31.56,22.35-4.57,15.92,1.51,29.29,7.87,42.85,1.39,3,3.46,5.64,5.24,8.47,6.22-8.83,11.36-18.51,18.75-25.94s12.88-17.76,24.39-21.71c1.44,3.86-1.11,5.3-3,6.72-15.12,11.28-25.22,26.1-31.83,43.66-2.63,7-2.16,13.34,0,20.3,4.82,15.83,10.51,31.49,10.9,48.36.12,5.1-.27,9.64-2.89,14.31a127,127,0,0,0-8.84,20c-2.83,8.15-5.22,16.47-2.83,25.37.81,3.07.51,6.43.76,10.31-12.45-.38-18.93-10.88-29.88-13.94-10,12.52-21.46,24.38-24.68,41.44-1,5.48-2.49,10.89-3.87,16.3-1.57,6.13.58,11,4.91,15.16,2.14,2.08,4,4.53,6.42,6.25,10.54,7.52,21.23,14.84,32.6,22.75l-7.15,3.3c1.34,5.71,2.82,11.69,4.1,17.7.4,1.85.8,4,.25,5.68-3.73,11.42,1.34,21,8.63,28,10,9.56,22,17,33.06,25.38,4.63,3.51,9.12,7.2,13.68,10.81v0a34.58,34.58,0,0,0-4.62-1.77c-18.83-4.41-33.19-15.88-46.37-29.23C140.76,464,137.7,455,138,444c.25-10.15-1.4-20.41-3.06-30.49-.45-2.75-3.54-5.54-6.09-7.39C121,400.45,112.9,395.28,105,389.87,94.41,382.7,86,373.39,77.48,364,68,353.54,61.8,341.24,55.4,329.1c-7.4-14-5.54-28.79,2.75-41.66,6.77-10.52,15.63-19.75,24-29.19,5-5.61,11-7.33,18.83-4.62,11.71,4.06,20,10.37,20.26,23.69a23.08,23.08,0,0,0,7.45,16.7c5.91,5.78,11.47,12,17.41,17.71,1.44,1.39,3.78,1.86,6.22,3,1.36-16.75,6.29-31.42,13.13-45.46,5.33-11,3.58-22.2,1-33.14A316.7,316.7,0,0,0,141.68,167c-4-7.91-6.93-16.13-5.88-25.79,1.45-13.24,7.58-23.11,17.48-31.17,5.37-4.37,11.64-7.1,18.52-5.45,8.65,2.06,17.09,5,25.55,7.78,4.68,1.54,9.21,3.56,14.86,5.77.77-4.07,1.89-7.2,1.85-10.31-.19-19.26,4.95-37.44,11.89-55,2.19-5.56,6.92-10.86,11.83-14.45,10.37-7.61,21.41-14.74,35.38-12.84,5.16.7,10.54,1.32,13.68,6.47ZM68.22,333c.63-.77,1.66-1.45,1.83-2.3,2.56-13.38,10.94-23.2,20.55-31.81,4.8-4.29,11.08-7.05,17-9.94,3-1.48,5.53.33,7.35,3.72-25,5.63-35.79,23.56-41.56,45.82-.61,2.34-.45,5.72.85,7.57,5.08,7.21,10.64,14.11,16.32,20.87,1.27,1.51,3.73,2,6.74,3.53,4.17-25.52,14-47.38,32-65.25-1.38-1.88-2.37-3.17-3.3-4.5C120.69,293.21,114.7,286.38,115,276c.12-3.78-3.55-8.5-6.76-11.37-4-3.61-9.39-5.77-13.89-8.39-16,11.34-27.62,25.14-34.82,42.42C55.37,308.66,59.63,324.89,68.22,333Z"/><path class="cls-1" d="M314.28,179.88c-3.24,3.07-6.4,6.22-9.74,9.18-6,5.35-12.14,10.79-14,18.92a35.12,35.12,0,0,0-.42,14.64c2,9.63,7.6,12.24,16.86,9a7,7,0,0,1,5.17-.19,28.79,28.79,0,0,1-2.9,2.64c-1.29.9-2.74,1.58-4.78,2.72,3.56,5.32,6.39,10.5,10.12,14.93,9.05,10.75,15.64,22.27,14.47,37-.1,1.21.63,2.49,1.12,4.25,4.23-1.24,8.13-2.53,12.12-3.51,10.59-2.58,20.27,1.36,30.15,4.19,4.72,1.35,9.74,2.52,14.57,2.32,3.15-.14,7.25-2.14,9-4.65,2.87-4,5.85-4.12,9.86-2.91-7.1,4.19-11.57,13-21.49,11.89a82.2,82.2,0,0,1-11.57-2.06c-6.7-1.75-13.25-5.05-20-5.45a36.53,36.53,0,0,0-18.2,3.93c-15.1,7.89-26.79,19.69-33.86,35.41-6.38,14.18-12,28.69-18.46,42.83-2.92,6.39-2.56,12,.66,17.57,5.3-4.28,10.17-8.63,15.47-12.41,11.12-7.93,17-20.1,25-30.47,5.91-7.6,11.52-15.44,17.1-23.29,7.07-9.94,23.66-11.8,35.2-5.27,16.78,9.5,23.07,24.54,23.27,43-1.91-5.66-4.21-11.23-5.64-17-4.34-17.59-24.79-29.62-40.73-23.95-5.77,2.05-9.24,6.35-12.5,10.95-9,12.73-17.74,25.67-26.9,38.3-2.48,3.42-6,6.12-9.23,8.94s-6.68,5.45-10.11,8.07c-5.71,4.39-7.11,9.14-4.47,16.5,3.52,9.85,5.48,20.34,7.33,30.7.94,5.3,1.7,11.18-3.3,17a59,59,0,0,1-.79-6.06,104.05,104.05,0,0,0-14.6-52.12c-3.52-6-2.88-12.83-.95-18.84,4.13-12.91,7.63-26.53,14.63-37.85,5.9-9.54,8.58-21.73,19.12-28.21,1.4-6.54,9.81-6.35,11.85-12.4.6-1.78,3.16-3.43,2.95-4.87-1.17-8.13-1.61-16.75-4.81-24.11-3.34-7.69-9.18-14.42-14.59-21-3.21-3.94-6.07-8.41-12-9.93-3.05-.78-5.13-4.93-7.93-7.21-3.73-3-1.32-6.66-1.64-10.1-1.26-13.6,6.62-23.3,14.16-32.81,3.32-4.2,9-6.56,13.55-9.75Z"/><path class="cls-1" d="M286.84,31.92c11.55,3.58,17,12.68,18.65,23.49,2,13.21,4.5,19.9,22.21,25.35,5.5,1.7,10.39,5.4,15.54,8.21,2.6,1.41,5.16,2.88,7.74,4.32a28.8,28.8,0,0,1,6.23,45.59,37.72,37.72,0,0,1-10.46,7.9c2.48-3.42,4.71-7.06,7.5-10.21,12.37-14,10.08-30.87-5.58-40.1-5.13-3-10.19-6.17-15.39-9.06-1.33-.74-3.07-.74-6.29-1.44,2.57,9.28,3.56,18.08,7.39,25.39,5.63,10.72,6.31,21.3,2.68,33-.38-2.2-1.3-4.46-1-6.58,1.22-9.69-1.3-18.32-6-26.74-2.38-4.28-3.71-9.21-5.13-14-2.51-8.4-5.36-16.31-13.66-21.1-6.1-3.52-6.74-10.59-8.34-16.47-2.77-10.24-6.76-19.38-15.46-25.93-.38-.28-.28-1.2-.4-1.83Z"/><path class="cls-1" d="M442.15,246.3c4.06-3.39,8.23-6.66,12.17-10.19,6-5.41,9.83-11.67,7.11-20.28a17.61,17.61,0,0,1-.41-6c1-22.16-16.13-40.43-38.67-42.81-7.54-.8-16.24-1.67-23.72,4-5.59,4.24-12.44,6.82-18.9,10.23-4.77-5.6.63-15.76-11.2-19.26,6.37-1.65,8.75.19,10.46,3.14,1.61,2.78,2.92,5.72,4.95,9.76,5.72-7.65,15.92-4.6,20.52-12.23,8.18.34,16.6-.45,24.5,1.23,18,3.82,29.35,15.7,34.39,33.18a92.45,92.45,0,0,1,3.42,21.17C467.36,230.73,457.39,242.15,442.15,246.3Z"/><path class="cls-1" d="M199.33,502.61c6.92.45,13.83,1,20.76,1.31a34.7,34.7,0,0,0,22.51-6.49c12.72-9.21,27.38-14.11,42.21-18.47,5.3-1.56,10.91-2,16.36-3,18.41-3.61,33.63-13.66,48.68-24.1,2.24-1.55,5-2.35,7.52-3.52,0,0-.25-.26-.25-.26-7,9.86-18.05,14.15-27.83,20.14-14.21,8.69-30.42,11.58-46.09,16.3-14,4.23-27.16,11.33-40.62,17.3-2.08.92-3.7,2.82-5.74,3.86-8.62,4.4-17.25,6.26-26.38.84-3.3-2-7.39-2.6-11.11-3.84Z"/><path class="cls-1" d="M148.11,406.59c-2.25-5.22-.21-8.18,4.09-10.43,8.62-4.51,17.48-6.11,26.82-2.42,3.08,1.22,6.23,2.32,9.21,3.75,13.88,6.65,27.9,3.12,41.88.62,10.33-1.84,20.61-4,30.92-6l.76,1.89c-1.29,1-2.45,2.5-3.88,2.83-11.57,2.65-23.1,5.62-34.81,7.42-13.57,2.08-27.2,1.75-40.15-3.8C168.14,394.06,158.92,395.54,148.11,406.59Z"/><path class="cls-1" d="M366.12,442.76c2.89-5.55.33-10.72-.76-16.15-3.23-16.05-11.32-28.72-24.79-38-6.18-4.25-12.35-8.53-18.47-12.76,1.92-4.89,4.42-4.72,7.22-2.5,6.5,5.15,12.86,10.47,19.4,15.55,3.2,2.5,4.71,6.74,10.2,7.15,2.2.16,4.35,6.14,5.82,9.76,2.83,6.94,7,13.39,6.87,21.45,0,2.55,2.3,5.14,3.7,8,.23,6-6.46,4.41-9.21,7.45Z"/><path class="cls-1" d="M171.12,285.71c16.07-10.69,33.1-12.12,50.5-7.08,16.12,4.68,31.86,10.66,47.72,16.21a12.21,12.21,0,0,1,6.13,5c-6.69-2.39-13.29-5.17-20.11-7.1-15.34-4.34-30.65-9-46.25-12.09-9.05-1.81-18.54-.66-26.84,4.81C179,287.62,175.33,290.64,171.12,285.71Z"/><path class="cls-1" d="M251.37,331.74c-8.9,2.65-17.86,4.62-27.64,3.36-8.27-1.06-16.9.5-25.36,1-8.19.51-16.39,1.77-24.55,1.54-4.57-.13-9.06-2.64-14.62-4.41,7.16-6.63,8.63,1.66,12.39,2.34,8.18-3.68,17-.24,25.68-2.79s18.41-.94,27.69-1C233.76,331.67,242.56,331.74,251.37,331.74Z"/><path class="cls-1" d="M362.65,286.45c.25-3.13.32-6.28.78-9.37,1.12-7.46,2.9-14.93-2.86-21.5a2.84,2.84,0,0,1,0-2.53c4.46-8.13,0-14.38-4.53-20.36-3.42-4.48-7.58-8.38-11.2-12.72-1.06-1.28-1.4-3.15-2.64-6.13,27.4,20.72,30.67,52,22.43,72.92Z"/><path class="cls-1" d="M138.84,399.3c-1.52-15.23,1.07-30.14,5.31-44.81,1.65-5.72,2.46-12.56,9.9-14.62.43.75,1,1.47.89,1.6-10.67,12.51-9.8,28.22-11.91,43.07-.68,4.82-.73,9.72-1.07,14.59Z"/><path class="cls-1" d="M412.48,246.34C408.6,224.9,398.66,206,389,186.6c3.38-2.09,5.31-.32,6.34,2.17,6.1,14.63,12.22,29.26,17.85,44.07,1.51,3.95,1.37,8.54,2,12.84Z"/><path class="cls-1" d="M322.67,224.08c11.08-8.81,13.32-20.78,14.12-33.69.47-7.54,2.32-15.08,11.88-21.07-7.8,11.65-7.16,23.16-9.62,34C337,212.22,331.83,220,322.67,224.08Z"/><path class="cls-1" d="M417.16,256.11c3.95-3.07,8.94-7.78,16.62-8.06-.38,1.12-.45,2.06-.76,2.14-9.29,2.59-12.07,8.38-10.68,17.89.62,4.29-2.27,9.08-5.18,13.26Z"/><path class="cls-1" d="M441.34,201.58c1.27,3,2.66,5.92,3.78,8.95,2.32,6.23,3.68,12.52-.38,18.91C443.3,220.1,440,211,441.67,201.3Z"/><path class="cls-1" d="M345.88,185.75c4.24-6.66,11.73-9.8,17.94-14.23,1.23-.87,3.85.22,5.95,2.23-4,1.48-8.4,2.36-11.89,4.63-3.71,2.4-6.55,6.13-9.78,9.28Z"/><path class="cls-1" d="M187.85,231c.4-1.44.38-3.78,1.26-4.18,7.13-3.28,14.4-6.25,21.69-9.17.72-.29,1.82.34,3.62.73-8.09,7.13-18,8.5-26.73,12.37Z"/><path class="cls-1" d="M265.68,184.77l15,1.71-.18,2C275.57,187,270.1,191.53,265.68,184.77Z"/><path class="cls-1" d="M399,405.77c.67-7.07,1.33-14.15,2.19-23.3,2.41,12.25,2,15.32-2.39,23.13Z"/><path class="cls-1" d="M398.79,405.6,396,423.69l-2.3-.51c2.56-5.6-1.23-12.79,5.29-17.41Z"/><path class="cls-1" d="M271,335.73l-14.87-2.65c8.66-2,8.76-2,14.68,2.86Z"/><path class="cls-1" d="M270.83,335.94c6.09.09,8,4.75,10.7,8.54L280,346l-9-10.31Z"/><path class="cls-1" d="M229,217.67,218.55,219C221.84,215.3,225.58,215.12,229,217.67Z"/><path class="cls-1" d="M187.69,230.76c-2.41,2-4.72,5.05-7.64.64,2.29-5.82,5-2.72,7.77-.43Z"/><path class="cls-1" d="M272.91,227.78l-4-3.25,1.13-1.39,4.1,3Z"/><path class="cls-1" d="M335.4,155.94l5.78-4.29.93,1.27-5.7,4.39C336.07,156.86,335.74,156.4,335.4,155.94Z"/><path class="cls-1" d="M176.71,199.68l5.68-1.53.54,1.81-5.32,2Z"/><path class="cls-1" d="M441.67,201.3c-4.76-.13-5-2.73-2.6-6.6.75,2.3,1.49,4.61,2.25,6.9Z"/><path class="cls-1" d="M366.1,442.76q-4.5,2.63-9,5.26s.24.26.26.27c.59-5.51,4.16-6.31,8.75-5.53Z"/><path class="cls-1" d="M286.63,304.15l5.8,2.09c-.17.52-.33,1-.5,1.57l-5.83-1.91C286.28,305.32,286.46,304.73,286.63,304.15Z"/></svg>