<svg id="Layer_1" data-name="Layer 1" xmlns="http://www.w3.org/2000/svg" viewBox="0 0 568.04 568.04"><defs><style>.cls-1{fill:#2699fb;}</style></defs><path class="cls-1" d="M320.06,286.72c-1.15,7.6-5,14-9.89,19.55-15.41,17.51-32.66,33.21-53.32,44.12-10.08,5.31-21.71,8-32.91,10.81-18.28,4.58-36.9,2.38-55.43,1.44-4.46-.23-9,.31-14.19.52,2.16,7.84,7.29,11.58,12.3,15.08,14.94,10.45,30.56,20.19,48.06,25.32,19.15,5.61,38.89,8.84,58.84,2.76,4.73-1.44,9.63-2.32,14.45-3.46l-.16-.19c-5.13,7.28-13.61,7.65-21,9.32a90,90,0,0,1-24.72,2.3c-10.76-.63-21.37-3.4-32.12-4.54-9.27-1-16.87-5-24.33-10.19-6.79-4.71-14.31-8.35-21.24-12.88-3.11-2-5.73-4.92-8.32-7.66-6.1-6.46-11.36-13.92-18.24-19.38-7.22-5.74-10-12.54-8.52-20.85,1.35-7.45,3.15-15.21,6.7-21.78,10.28-19,22-37.06,40.94-49.91-1.89-4.58-3.4-8.92-5.42-13-3.63-7.32-5.45-14.72-4.33-23.05,1.18-8.84,1.26-17.6,4.43-26.34a82.3,82.3,0,0,1,21.58-33c15.68-14.52,32.82-27.44,53.73-33.12,24.08-6.54,48.47-8.14,72.17,2.37,3.29,1.46,6.16,3.84,9.28,5.72,7.33,4.41,14.69,8.78,23.26,13.9,6.56-16.1,15.89-29.2,31.5-37.61,4,6.13,4.15,12.34,4.11,18.44-.05,11.1,1.26,21.86,6.28,31.94.59,1.18,1,2.48,1.62,3.62,6.46,11.34,9.38,11.47,17.68,1.77,2.85-3.33,6.84-5.69,10.17-8.39,7.24,5.05,5,10.57,2.23,14.8C418.3,195.7,410.9,205.94,403,215.75c-2.84,3.56-4.43,6.07-4.15,11.13.93,16.85,2.24,34-3.16,50.34-2.34,7.08-6.69,13.65-11,19.87a115.89,115.89,0,0,1-13.59,15.64,30.14,30.14,0,0,1-8.89,5.66c-5.08,2.3-9.41,4.61-9.21,11.37.06,2.14-2,4.35-4.13,6.32-1.77-12,2.69-24.1-1.24-35.69-3.79-11.2-4.31-24.11-14.76-32.15l-13.16,18.82c1.75-6,3.54-12,5.23-18,.79-2.81,2.61-6,1.87-8.46-2.47-8.05-6.85-14.88-15.93-17.06a86.34,86.34,0,0,1-9.54-2.66c-14-5.12-28.26-7.49-43-4.45-16.21,3.34-32.43,6.7-46.69,15.87-10.83,7-22.3,13.06-32.45,20.89-11.72,9.06-23.19,18.76-29.7,32.83-2.07,4.45-5.07,8.47-7.69,12.65-5,8-8.1,16.58-7,26.21.07.6,1.3,1.07,2.53,2,.52-1.71.8-2.93,1.26-4.06a31.59,31.59,0,0,1,1.57-3c.9.43,1.43.53,1.45.71a32.81,32.81,0,0,1,.51,4.62c0,6.68,1.61,9,7.87,10.79a29.43,29.43,0,0,0,6.88.9c14.23.45,28.47.49,42.68,1.3a98.24,98.24,0,0,0,40.8-6.59c26.16-9.86,47.38-26.16,64.93-47.63C310.1,298.07,315.14,292.44,320.06,286.72Zm29.6-119.55a181.47,181.47,0,0,0-37.15-24.44,31.19,31.19,0,0,0-8.62-2.31c-14.61-2.57-29.18-.06-43.75.68a30.15,30.15,0,0,0-10.53,2.83c-8.17,3.68-16.64,7-24.11,11.9-22.15,14.39-40.85,31.84-47.95,58.73-3.51,13.3-3.39,26.27,2.26,39,2.66,6,4.79,6.78,10.87,4.15a34.76,34.76,0,0,0,4.42-2.27c11.05-6.7,22.12-13.35,34.88-16.43,10.32-2.49,20.56-5.38,31-7.47,21.45-4.31,40.44,4.54,59.62,12,.83.32,1.25,1.59,2.06,2.06,6.89,4,10.73,10.58,14.25,17.24,4,7.52,8.11,15.12,10.82,23.14,3.16,9.32,4.85,19.14,7.46,29.89,3-1.65,5.89-2.55,7.8-4.47,6.05-6.13,11.93-12.46,17.5-19,13.3-15.68,14.4-34.47,13-53.73-.86-12-2.55-13-14-9.39s-13.73,2.18-14.14-9.76c-.28-8.44-.15-8.43,8.38-10.64,2.89-.75,5.56-2.37,10.05-4.34C358.19,199.52,350.64,190.85,349.66,167.17Zm50.63,26c-16.47-15.93-18.4-36.81-20.06-58.19-16.41,9.71-19.83,25.35-24.1,40.48a6.23,6.23,0,0,0,.25,2.94c3.09,13.25,9.36,18.6,23.46,20.08,2.32.24,4.63.67,6.94.72C391.58,199.27,396,198.2,400.29,193.12Zm-27.66,28.26c10.54-.57,19.29-4,25-12.94C390.25,214.72,377.91,211.41,372.63,221.38Z"/><path class="cls-1" d="M186.84,373.5l36.34,23.85c-5.61,1.6-7.26,1.36-14-2.11C199.2,390.08,189.91,381.56,186.84,373.5Z"/><path class="cls-1" d="M301.29,397.53c-.87-2.75.49-3.95,2.84-5.31,7.91-4.57,15.61-9.53,24.43-15-6.37,11.73-18.23,14.17-27.3,20.32Z"/><path class="cls-1" d="M301.26,397.57l-13.45,5.1.16.19c3.18-4.91,7.9-6,13.32-5.33Z"/><path class="cls-1" d="M195.81,219c4.08-34.58,45.68-65.38,72.11-65-2.53,5.16-7.79,5.27-11.89,6.25-16.61,4-29.54,13.63-40,26.41-5.56,6.79-9.41,15-13.65,22.84C200.57,212.82,200.1,216.91,195.81,219Z"/><path class="cls-1" d="M158.3,327.67c1.71-5.31,3.31-10.67,5.15-15.94,6.5-18.64,17.49-32.8,36.4-41,11.41-5,21.57-12.7,33.27-17.59,11.37-4.76,22.71-10.23,34.94-10.93,10-.57,21.51-3.23,29.34,7.3,1.21,1.62,4.06,2.08,6.2,2.93,6.23,2.46,7.17,4,5.45,10.4-.5,1.86-1.74,3.52-2.51,5.33-2.08,4.89-5.32,9.69-5.85,14.76-.88,8.48-6,14.35-11.28,19.35a124.84,124.84,0,0,1-27.58,20.46c-23.51,12.53-48.72,16.72-74.36,20.21-5.49.74-11.31,1.64-16.61.58C161.5,341.62,159.09,337.56,158.3,327.67Zm74.75-13.13c7.72,8.13,11.38,8.94,19.59,5.69,2.47-1,4.95-1.94,7.47-2.76,12.63-4.09,21.08-12.81,28-24.62-7.73-1.66-14.59-3.42-21.56-4.56-7.28-1.21-13.51-7.56-21.49-4.86-2.13,5.8-4.09,11.14-6.06,16.48l-1.66-.36c-.7-2.14-1.41-4.28-2.13-6.48-4.54,1.53-7.32,3.11-9,7.61-2.18,5.78-4.72,11.46-10.46,15.73-5.19,3.86-8.36,10.44-13.56,17.33,12.95-1.75,24-.92,33.63-6.43C234.91,323.18,234.23,320,233.05,314.54Zm20.12-38.89c10.72,9.46,22.51,10.27,33.69,12.69,3.24.7,5.84-.83,7.21-4,2.63-6.07,5.54-12.06,7.69-18.3.75-2.17.59-6-.82-7.34-6.41-6.13-12.77-13-22.93-12-5.92.55-11.8,1.54-17.73,2.13-3.69.37-5.92,1.91-7.29,5.58-2.19,5.84-5,11.44-8,18.17,2.1-.26,4.37.06,6-.83,10.12-5.56,20.06-11.44,30.12-17.09,1.48-.84,3.31-1.06,7.21-2.25-2.43,3.39-3.15,5.41-4.57,6.2C276,263,268,267,260.12,271.25,257.94,272.43,255.92,273.9,253.17,275.65Zm-64.12,30.89c-2.5-4.07-.43-5.53,2.44-5.37,3.15.17,5.91,2.12,9.24-.68,3.49-2.93,8-4.66,11.83-7.17,9.83-6.37,10.11-14.07.47-22.05-7.95,5.1-18.62,5.85-25.74,15.42L204.2,290c-5.1,4-9.64,2.56-14.14,2.25-2.84-.2-6.82-.65-8.42.93A58,58,0,0,0,168,314.9l2,2Zm31.6-7.08-1.77-1.91c-1.47.32-3.1.33-4.39,1-5,2.62-9.9,5.38-14.77,8.21-10.29,6-20.65,11.92-30.71,18.29-2.16,1.36-4.24,4.44-4.36,6.82-.08,1.55,3.35,4.52,5.41,4.71a145.9,145.9,0,0,0,20.7.11c1.58-.08,3.33-2,4.55-3.48,7-8.43,13.92-16.9,20.67-25.52C217.9,305.24,219.11,302.22,220.65,299.46Zm.86-33.36c3.15,3.87,5.64,7.62,8.83,10.62,2.22,2.08,5.11,1.43,6.51-1.64,2.9-6.34,5.61-12.77,9-20.63C235.82,255.85,229.46,260.94,221.51,266.1Z"/><path class="cls-1" d="M372.19,157.26c-3.74,12.43,6,18.61,12.09,26.46C370,177.76,364.73,166.55,372.19,157.26Z"/><path class="cls-1" d="M245.25,307.38c.17,2,.33,4,.5,6.07l-1.32.14q-.35-3-.7-6Z"/><path class="cls-1" d="M185.88,325.83c4.92-5.53,8.87-12.5,18.37-14.7C199.72,319.55,191.59,321.2,185.88,325.83Z"/></svg>