<svg id="Layer_1" data-name="Layer 1" xmlns="http://www.w3.org/2000/svg" viewBox="0 0 568.04 568.04"><defs><style>.cls-1{fill:#fff;fill-rule:evenodd;}</style></defs><g id="Group_35" data-name="Group 35"><g id="Group_34" data-name="Group 34"><path id="Path_98" data-name="Path 98" class="cls-1" d="M431.05,300.7c-.7-8.39-2-16.75-3.52-25a114.53,114.53,0,0,0-10.8-35.36,182.55,182.55,0,0,0-29.07-41.84c-4.4-4.45-8.73-9-13.49-13.07a89.55,89.55,0,0,0-23.36-13.62,96.39,96.39,0,0,0-36.17-8.7,58.75,58.75,0,0,1-27.43-6.17,3.76,3.76,0,0,1-2.47-3.85c.26-4.7.4-9.41.69-14.1a59,59,0,0,1,1.25-12.21,72.85,72.85,0,0,1,12-25.62,21,21,0,0,0,3.55-6.52,5.48,5.48,0,0,0-1-4.53,5.6,5.6,0,0,0-4.26-.9A19.8,19.8,0,0,0,292.15,91a10.75,10.75,0,0,1-11.11.54,3.78,3.78,0,0,0-5,1.84,3.64,3.64,0,0,0,.89,4.7,3.59,3.59,0,0,1,.86,2.74c-1.39,6-3,12-4.53,18.05-.45,1.77-1.67,2.16-3.25,2.09a75.72,75.72,0,0,0-8.78-.33c-5,.33-9.95,1-14.92,1.58a3.61,3.61,0,0,0-1.44.61,2.33,2.33,0,0,1-3.29-.13,2.42,2.42,0,0,1-.47-.77,23.81,23.81,0,0,0-1.69-2.42,31.54,31.54,0,0,0-21.16-13.06,74.31,74.31,0,0,0-32.54,3.12,151.8,151.8,0,0,0-35.29,17.61A77.74,77.74,0,0,0,132,144.56a148.07,148.07,0,0,0-16.51,28.71c-3.07,6.49-6.74,12.7-10.22,19a7.66,7.66,0,0,1-2.44,2.62A15.92,15.92,0,0,0,97,201.94c-1,2.08-2.13,4-3.14,6-3.68,7.38-7.4,14.74-11,22.22a25.21,25.21,0,0,0-1.51,5.47c-.91,4.07-1.92,8.12-2.57,12.24-1,5.91-1.74,11.92-2.43,18a3.47,3.47,0,0,0,2.83,3.88,3.59,3.59,0,0,0,4.38-1.95c.63-1.18.77-2.61,1.29-3.86a11.48,11.48,0,0,1,2.23-4.3c3.88-3.34,7.94-6.47,12.1-9.46a38,38,0,0,1,14.15-6.25,33,33,0,0,0,8.33-3.38c7.21-3.94,14.13-8.43,21.46-12.09a68.29,68.29,0,0,0,21.34-16.85,51,51,0,0,1,17.53-13.72c9.59-4.29,19.54-7.8,29.34-11.63.1,0,.26.08,1.24.43-1,.7-1.69,1.11-2.33,1.6-3.54,2.7-7.1,5.38-10.58,8.16-4.05,3.23-8.09,6.5-12,9.88a56,56,0,0,0-5.25,5.31,68.14,68.14,0,0,0-10,11.88c-5.55,10.34-10.27,21.12-15.12,31.82a64.17,64.17,0,0,0-5.93,22.58c-.24,3.86-.77,7.72-.82,11.59a190.52,190.52,0,0,0,.15,26.39A230.8,230.8,0,0,0,165,371.32a52.56,52.56,0,0,0,8.23,14.33,121.07,121.07,0,0,0,29.39,27.05c9.8,6,20,11.49,30,17.08a45.82,45.82,0,0,0,9,4.07c7.42,2.18,14.88,4.38,22.46,5.86a168.13,168.13,0,0,0,53.12,3.2A125.36,125.36,0,0,0,372,423a175.46,175.46,0,0,0,34.56-30.49,77.48,77.48,0,0,0,19.09-39.36,229.77,229.77,0,0,0,4.75-35.42c0-5.68,1.11-11.41.69-17m-144-196.47.84.4-2.9,6.25-.7-.31,2.78-6.35m-40.83,29.58a2.19,2.19,0,0,1,1-1.82A38.56,38.56,0,0,1,269,127.8c2.93.38,3.38.69,3.19,3.62q-.75,11-1.49,22a8.33,8.33,0,0,1-9.28,6.43,81.07,81.07,0,0,0-13.13,0,17.82,17.82,0,0,0-2.72.49,65.28,65.28,0,0,0,1.31-10.14,56.24,56.24,0,0,0-.65-16.48M87,246.52a56,56,0,0,1,6.4-23.65q4.22-7.78,8.71-15.43c.5-.86,1.7-1.3,2.56-1.95a8.11,8.11,0,0,0,2-1.65,277,277,0,0,0,19.11-35.56,81.83,81.83,0,0,1,37.42-40.5A170.21,170.21,0,0,1,188,116.41a64.71,64.71,0,0,1,30-2.78,24.59,24.59,0,0,1,15.47,9.83c2.3,2.89,1.86,3.84-1.2,5.76-5.24,3.27-10.25,6.94-15.53,10.12-8.84,5.33-18,10.19-26.67,15.68-16.53,10.48-33,21.13-49.23,32.08a275.18,275.18,0,0,0-24.19,18.27,71.11,71.11,0,0,0-12,13.53c-5.75,8.24-10.87,16.93-16.25,25.43-.47.73-1,1.46-1.43,2.19m103.37-60.11a70.11,70.11,0,0,0-26.78,16c-3.33,3.05-6.33,6.49-9.38,9.84a49.79,49.79,0,0,1-13.2,9.45c-7.12,3.94-14.13,8-21.28,11.94a80.15,80.15,0,0,1-8.45,3.67c-3.89,1.56-7.83,3-11.74,4.51l-1.22.48-.48-.34a23.65,23.65,0,0,1,.94-2.19,144.55,144.55,0,0,1,19.36-26.57,60.48,60.48,0,0,1,9.91-7.84c13.37-9.55,26.54-19.44,40.28-28.43,13.1-8.58,26.87-16.1,40.22-24.31,8.39-5.18,16.54-10.78,24.82-16.16a17.47,17.47,0,0,1,3.77-2,2.32,2.32,0,0,1,2,.92,5.29,5.29,0,0,1,.86,2.78,46.35,46.35,0,0,1-2.5,22.59c-1,2-1.62,4.24-2.77,6.16a6.62,6.62,0,0,1-3.05,2.46c-13.78,5.64-27,12.66-41.3,17M424.16,309.73q-.42,6.69-.94,13.4a236.49,236.49,0,0,1-6.44,37.45,61.83,61.83,0,0,1-13.44,25,156,156,0,0,1-40.6,34.72,119.38,119.38,0,0,1-52.14,16.27,185.23,185.23,0,0,1-42.82-3.22A124,124,0,0,1,225,417.8a223.77,223.77,0,0,1-26.4-16.55,93.26,93.26,0,0,1-24-26.28,82.14,82.14,0,0,1-7.64-18.71c-3.27-11.36-6.15-22.91-8.52-34.48a138.27,138.27,0,0,1-.7-36.8c.12-1.82.34-3.64.43-5.46a66.16,66.16,0,0,1,6.77-24.43c4.31-9.37,8.74-18.67,13.16-28a12.46,12.46,0,0,1,2-3,153.3,153.3,0,0,1,24.31-22.63c5.08-3.62,9.72-7.89,14.67-11.69,5.74-4.41,11.51-8.8,17.5-12.85a33.12,33.12,0,0,1,8.13-3.27,4.35,4.35,0,0,1,3,.24,4.86,4.86,0,0,0,4.91-.27c4.93-2.62,9.87-5.18,14.8-7.79,2.36-1.25,2.78-1,3,1.71a28.28,28.28,0,0,1-3.23,12.21c-.81,2.18-4.93,2.59-6.58,1a11.81,11.81,0,0,0-11.94-2.14,3.32,3.32,0,0,0-1.63,1.95,37.18,37.18,0,0,0-.3,5.17c1.94-.35,3.53-.78,5.14-.9,2.72-.22,3.13.46,3,3.2a4,4,0,0,0,1.17,3.11,3.91,3.91,0,0,0,3.48.2,49.92,49.92,0,0,1,25.15-5.85,8.33,8.33,0,0,0,3.24-.81,23.81,23.81,0,0,1,12.82-1.55,4.94,4.94,0,0,1,2.63,1.53,3.87,3.87,0,0,0,5.37,1,3.81,3.81,0,0,0,1-1,4.36,4.36,0,0,0-.4-6.14c-.11-.09-.23-.19-.35-.27a11.16,11.16,0,0,0-5.19-1.93,43.56,43.56,0,0,0-19.37,1.79,26.17,26.17,0,0,1-7.31,1c-.48,0-1-.76-1.54-1.18.6-.27,1.26-.85,1.78-.75a5.46,5.46,0,0,0,6.64-6.66,34.26,34.26,0,0,1-.57-4.95c0-1.68.86-2.35,2.51-1.69a21.82,21.82,0,0,1,2.29,1,44.63,44.63,0,0,0,21.34,4.81,100.93,100.93,0,0,1,60.13,21,146.34,146.34,0,0,1,15.16,15A177.75,177.75,0,0,1,411,244.19a91.28,91.28,0,0,1,8.83,28.14c1.89,10.06,3.2,20.24,4.59,30.4a35.9,35.9,0,0,1-.21,7"/><path id="Path_99" data-name="Path 99" class="cls-1" d="M399.26,318.64a2.88,2.88,0,0,0-5.67-.61,25,25,0,0,0-.53,5c-.11,5.84.23,11.71-.26,17.51A87.37,87.37,0,0,1,374,387.55c-1.48,1.91-1.54,3.74-.24,4.86s3.2.88,4.8-1.16a95.35,95.35,0,0,0,19.93-43.33,93.8,93.8,0,0,0,.79-25.65c0-1.22.06-2.43,0-3.64"/><path id="Path_100" data-name="Path 100" class="cls-1" d="M214.73,388.32c-1.93-3.07-3.94-6.09-5.86-9.17a133.66,133.66,0,0,1-12.73-26c-.37-1.06-1.65-1.8-3-3.22-1.19,1.48-2.56,2.42-2.57,3.36a18.3,18.3,0,0,0,1.11,6.59,151.88,151.88,0,0,0,16.09,28.62c1.05,1.57,2,3.23,3,4.78.88,1.28,2.08,2.09,3.65,1.2a3,3,0,0,0,1.39-3.91,11.32,11.32,0,0,0-1.11-2.23"/><path id="Path_101" data-name="Path 101" class="cls-1" d="M368.73,341.12a3.64,3.64,0,0,0-4.73,2c0,.06-.05.12-.07.17a30.42,30.42,0,0,0-1.92,6.05,58.23,58.23,0,0,1-8.57,22.32,16.89,16.89,0,0,0-1.12,2.54,8.66,8.66,0,0,0,1.67,2.18c1.91,1.31,3.21.13,4.29-1.43a62.66,62.66,0,0,0,9.83-23.28,36.81,36.81,0,0,1,1.75-5.61c.89-2.39.54-4.21-1.12-4.95"/><path id="Path_102" data-name="Path 102" class="cls-1" d="M187.87,273.91a3.68,3.68,0,0,0,2.62-2,39.44,39.44,0,0,0,1.52-7,3.11,3.11,0,0,0-2.94-3.28h-.45a7.31,7.31,0,0,0-4,9.56,7,7,0,0,0,.58,1.12,3.5,3.5,0,0,0,2.63,1.6"/><path id="Path_103" data-name="Path 103" class="cls-1" d="M239.5,204.31c-.08-2.82-2.78-6.14-5-6.14a3.39,3.39,0,0,0-3.27,3.5c0,.11,0,.21,0,.32a6.26,6.26,0,0,0,5.26,5.87,3.25,3.25,0,0,0,3-3.46s0-.06,0-.09"/><path id="Path_104" data-name="Path 104" class="cls-1" d="M272.77,208.14c1.09-.59,1.7-2.08,2.41-3a26.69,26.69,0,0,0-1.24-4.47,3.67,3.67,0,0,0-6.9,2.08,9.92,9.92,0,0,0,1.64,3.66c.92,1.55,2.36,2.71,4.09,1.78"/><path id="Path_105" data-name="Path 105" class="cls-1" d="M210.57,244.51a15.5,15.5,0,0,1,2.71-1.56,3.22,3.22,0,0,0,2.27-3.71c-.38-2-2-2.17-3.48-2.31a7.26,7.26,0,0,0-5.64,3.2c-1,1.28-1.33,2.61-.08,3.88a2.87,2.87,0,0,0,4,.63l.16-.13"/><path id="Path_106" data-name="Path 106" class="cls-1" d="M357.29,230.69a3,3,0,0,0,3.47-2.48,3.57,3.57,0,0,0,0-.46,5.73,5.73,0,0,0-5.83-4.86,3.81,3.81,0,0,0-3.54,3.32c-.25,1.89,1.06,2.9,2.62,3.52a15.21,15.21,0,0,0,3.23,1"/><path id="Path_107" data-name="Path 107" class="cls-1" d="M192,315.1a4.86,4.86,0,0,0-4.47-4.77,3,3,0,0,0-3.25,2.75,3.57,3.57,0,0,0,0,.46,4.45,4.45,0,0,0,4.55,4.34h.24A2.88,2.88,0,0,0,192,315.1"/><path id="Path_108" data-name="Path 108" class="cls-1" d="M301.78,241.19c-1.71-.06-3.2,2-3.24,4.48a3.81,3.81,0,0,0,3.24,3.75c1.89.09,3.6-2,3.64-4.4a3.76,3.76,0,0,0-3.64-3.83"/><path id="Path_109" data-name="Path 109" class="cls-1" d="M275.43,234.59c-2.84,0-4.87,1.56-5,3.81a2.78,2.78,0,0,0,2.61,2.94,3,3,0,0,0,.6,0c2.53-.05,5-2,4.91-4s-1.34-2.73-3.16-2.71"/><path id="Path_110" data-name="Path 110" class="cls-1" d="M337,191.89a4,4,0,0,0-3.36,4.16,3.42,3.42,0,1,0,6.82.63,3.48,3.48,0,0,0,0-.79,3.67,3.67,0,0,0-3.32-4H337"/><path id="Path_111" data-name="Path 111" class="cls-1" d="M326.43,216a3.05,3.05,0,0,0-3.08,3,4.43,4.43,0,0,0,4,4.46c2.09-.15,2.46-1.68,2.51-3.11-.05-2.7-1.44-4.35-3.4-4.32"/><path id="Path_112" data-name="Path 112" class="cls-1" d="M250.17,238.33a4.88,4.88,0,0,0-4.07,4.41,3.09,3.09,0,0,0,2.78,3,5.44,5.44,0,0,0,4.09-4.53,2.68,2.68,0,0,0-2.49-2.85h-.33"/><path id="Path_113" data-name="Path 113" class="cls-1" d="M315,306a4.23,4.23,0,0,0-3.81,3.55,3.65,3.65,0,0,0,3.33,3.16,4.1,4.1,0,0,0,4-3.59A3.36,3.36,0,0,0,315,306"/><path id="Path_114" data-name="Path 114" class="cls-1" d="M334.45,244c-2,.11-2.68,1.42-2.7,3.23a3.35,3.35,0,0,0,3.23,3.48,3.6,3.6,0,0,0,.65,0,2.78,2.78,0,0,0,2.75-2.81,2.69,2.69,0,0,0,0-.4,3.47,3.47,0,0,0-3.45-3.5,3.4,3.4,0,0,0-.45,0"/><path id="Path_115" data-name="Path 115" class="cls-1" d="M236.41,268.43a2.61,2.61,0,0,0-2.91,2.29,2,2,0,0,0,0,.43,3.68,3.68,0,0,0,3.46,3.9H237c1.94,0,3.25-1.06,3.29-2.68a4.08,4.08,0,0,0-3.91-3.95"/><path id="Path_116" data-name="Path 116" class="cls-1" d="M378.38,248.53a3.91,3.91,0,0,0,3.7-3.82,3,3,0,0,0-3-3h-.06a3.86,3.86,0,0,0-3.52,4,2.65,2.65,0,0,0,2.47,2.82h.38"/><path id="Path_117" data-name="Path 117" class="cls-1" d="M302,219.26a3.39,3.39,0,0,0,3.35-3.06,2.84,2.84,0,0,0-2.65-3h-.32a3.19,3.19,0,0,0-3.35,3,3.07,3.07,0,0,0,3,3.09"/><path id="Path_118" data-name="Path 118" class="cls-1" d="M376.32,274.13a2.61,2.61,0,0,0,2.88-2.33,2.67,2.67,0,0,0,0-.4,3.15,3.15,0,0,0-2.86-3.41h0a3.23,3.23,0,0,0-3.05,3.26,2.77,2.77,0,0,0,2.66,2.89h.39"/><path id="Path_119" data-name="Path 119" class="cls-1" d="M227.88,222.85a2.08,2.08,0,0,0-2.1,2.06,1.22,1.22,0,0,0,0,.33c0,1.68.94,2.63,3.31,2.86a7.89,7.89,0,0,0,1.69-2.5c.32-1.34-1.45-2.83-2.9-2.77"/></g></g></svg>