<svg id="Layer_1" data-name="Layer 1" xmlns="http://www.w3.org/2000/svg" viewBox="0 0 568.04 568.04"><path d="M275.51,144.12c8-6.38,8.85-8,12-22.36-6.56-6.55-14.66-8.53-23.58-7.65-11.38,1.12-23.42-.68-33.37,7.23a5.15,5.15,0,0,1-2.8.79c-15.84.84-31.23,7.07-47.31,4.47-13.11-2.13-25.88-5.66-36.4-14.35-9.93-8.2-9.94-17.07.18-24.56C151.13,82.6,158.09,77,165.93,74c10.71-4.08,22.17-6.54,33.51-8.52A112.57,112.57,0,0,1,247.18,67c5.87,1.52,11.16,5.34,16.67,8.19.85.44,1.35,1.57,2.21,2,12.1,5.85,20.89,15,27.09,28,4.09-4.72,7.65-8.79,11.16-12.91,4.7-5.55,9.36-11.14,14.05-16.7.81-1,1.57-2.58,2.53-2.73,7.64-1.17,12-7,17.5-11.44,5.72-4.64,12.33-1.5,17.65.51,7.16,2.7,13.47,7.68,19.87,11.53.94,11.68-4.36,18.76-13.93,24a201.6,201.6,0,0,0-39.84,29.27A72.43,72.43,0,0,0,309.48,143c-3.19,5.43-1.66,8.08,4.46,10.41s12.79,3.88,16.53,10.23c.42.72,1.67,1.1,2.61,1.33,12.09,3,19.42,12.73,27.65,20.57,14.2,13.54,23.68,30.13,25.27,50.39,1.17,14.85,2.78,29.67,3.82,44.54a32.55,32.55,0,0,1-1.41,11.8,445.7,445.7,0,0,1-28.13,68c-9.19,18-14,37.24-15.65,57.29a21.15,21.15,0,0,0,1.66,10.69c8.22,16.33,8.56,33.76,7.86,51.35-.68,17.12-11.73,30.76-27.71,36.54-8.64,3.14-17,5.31-26.13,3.29-1.28-.28-3.1-.83-3.89-.23-9.5,7.21-18.22.89-25.88-2.76a669.44,669.44,0,0,1-59.74-31.81c-16-9.74-27.65-24.39-38.52-39.77-9.3-13.17-14.93-28-22.17-42.11-6.07-11.78-7.19-25.45-7.88-38.81-.6-11.6-1.41-23.2-2.11-34.8-1.25-20.58-2-41.36,2.36-61.49,4-18.31,9.14-36.58,19.12-53,2.87-4.72,4.61-10.13,6.76-15.28a99.21,99.21,0,0,1,24.08-34.75c17.33-16.14,38.2-22.92,61.56-23.89C261.7,140.41,269.08,139.69,275.51,144.12Zm34.71-43.33c2.31-1,4.58-2,3.56-5.76l-3.71,5.62c-8.42,2.63-10.69,9.31-11.18,17.17C305,113.72,306.09,106.23,310.22,100.79ZM148.48,331.93c1,16.27,1.5,31.58,3.13,46.77a70.19,70.19,0,0,0,5.9,21c11.12,24.62,24.08,48.16,43.59,67.39,2.59,2.55,5.69,6.91,8.25,6.7,6.31-.52,8.9,3.82,12.93,6.64,6.51,4.55,13.11,9.28,20.32,12.43,15.48,6.74,31.25,12.89,47.18,18.51,5.79,2,12.77,3.65,18.51,2.35,11.44-2.59,21.51-8.71,28.25-18.9,2.18-3.3,3.48-7.17,5.31-10.72,5.87-11.39,6.17-22.62.59-34.42-3.16-6.67-6.34-14-6.72-21.21-1.24-23.19,2.46-45.58,13.94-66.36C357.81,347.32,366,332.5,370.29,316c2.65-10.2,6.34-20.25,7.72-30.61,2.14-16,2.77-32.31.16-48.3-2.23-13.66-4.06-27.94-15.05-38.24-7.5-7-15.1-14-23.11-20.45A217.59,217.59,0,0,0,318.11,163c-4.76-2.93-10.14-4.79-16.16-3.56-2.43.5-5.14-.05-7.67-.47-4.77-.8-9.49-1.85-14.85-2.92-6-7.93-14.25-11.21-24.83-7.58-1.74.6-3.82.37-5.73.3-3.49-.12-7.15-1.22-10.43-.5-17.4,3.79-33.87,9.42-44.18,25.6-.87,1.37-2.45,2.29-3.38,3.65-5,7.36-10.5,14.48-14.71,22.29-5,9.32-8.63,19.4-13.35,28.9C151,252.49,144.74,292,149.48,318.25c1.63-14,1.93-28.07,5.1-41.44,8.59-36.3,25.51-68.87,47.23-99.06,5.35-7.44,12.38-12.73,20.13-17.23,2.86-1.66,5.69-1.63,7.78,2.24-10.31,4.46-17.85,12.06-23.9,21.19-6.58,10-13.5,19.75-19.23,30.18-8.79,16-16.14,32.67-20.84,50.5-5.2,19.76-5.89,40-7.74,60.13C157.32,332.3,157.21,332.58,148.48,331.93ZM238.73,77.81c.11-.77.21-1.53.31-2.29-1.28-.67-2.53-1.86-3.84-1.93-5.94-.31-11.91-.13-17.85-.47-10.47-.59-19.09,1.5-21.66,13.5a4.29,4.29,0,0,1-1,1.69c-3.37,4.1-6.34,8.88-13,5.09a6.87,6.87,0,0,0-5.75,0c-4.17,2.29-8.38,2.91-13.06,3.49-3.09.38-6.83,4.94-8.1,8.42-1.67,4.61,3,5.87,6.59,6.77,8,2,15.91,4.4,24,5.68,18.31,2.88,35.07-4,52.09-9.14,3.45-1,6.93-2.62,10.43-2.71,8.86-.24,17.74.42,26.61.28,2.3,0,5.73-1.13,6.53-2.77s-.36-5.49-1.95-6.71c-7.57-5.8-15.56-11.07-23.46-16.43-.71-.48-1.84-.32-2.68-.44-1.13,2.21-2.17,4.25-3.45,6.74-8.58-3.67-16.27-.9-23.29,3.56l-3.75-4.41c-7.33-.86-7.17,9.22-14.55,7.59C212.14,75.63,226.89,79.54,238.73,77.81Zm99.79,7.68c-9.44,8.62-19.21,16.49-26,27.18-2,3.07-3.68,6.38-6.08,9.07-3.85,4.31-5.18,10.5-11.37,13.33-2.06.94-2.44,6.38-2.78,9.84-.14,1.39,1.87,3,2.9,4.49,1.47-1.05,3.68-1.77,4.3-3.19,9.08-20.75,25.47-34.81,43.21-47.64,6.71-4.86,13.53-9.56,20.49-14.46,1-7.45-5.07-10.41-10.24-12.31-6.86-2.54-12.24,2.6-17.75,6C336.45,80.71,337.49,83.11,338.52,85.49Z"/><path d="M175.75,408.28c7.53,4.74,13.5,9.73,16.45,17.36,3.65,9.44,11.22,15.59,18.53,21.6,9.87,8.11,20.67,15.11,30.9,22.47-5.56,3-7.43,2.51-15.15-1.71-19.56-10.68-35-25.56-47.24-44.11C176.23,419.32,172.79,415.42,175.75,408.28Z"/><path d="M338.42,238.38c-2.5,5.32-4.65,9.4-6.36,13.66-1.62,4-2.76,8.26-4.68,14.13C323.93,252.86,328.15,242.55,338.42,238.38Z"/></svg>