<svg id="Layer_1" data-name="Layer 1" xmlns="http://www.w3.org/2000/svg" viewBox="0 0 568.04 568.04"><path d="M204.06,401l6.25-3.46c-10.4-2.69-20-2.5-29.68-2.09-1.51.06-3.3,1.07-4.48.55C164,390.61,151.76,385.53,140,379.4s-19.42-17.07-27.86-26.86a81.09,81.09,0,0,1-16.3-29.36,100.05,100.05,0,0,1-4.3-22.38,175.67,175.67,0,0,1,2.47-44.6c1.24-6.51,2.69-13.19,2.38-19.72-.31-6.32,2.71-10.5,6.79-13.5,8.78-6.46,18.1-12.16,29.74-12.12,4.85,0,10,.46,13.46-4.6.61-.9,3-.87,4.59-.77,13.92.84,27.83,1.34,41.17,6.48,5.73,2.2,12.19,2.5,18.76,3.75,2.22-4.45,4.83-7.81,5.52-11.52,1.11-5.92,4.77-9.54,9.21-12.45,12.2-8,24.6-15.64,37-23.32a15.89,15.89,0,0,1,7.15-2.26l-12.57,9.07c18-2.42,35.32-4.7,52.66-7.11,27.09-3.78,52.74,1.41,77.71,11.79,5.72,2.38,12.49,2.57,17.78,5.55,4.95,2.79,8.27,8.33,12.88,11.94,7.8,6.13,16.06,11.67,24.09,17.52,3.23,2.34,7.84,4.19,9.23,7.38,5,11.62,15.38,10.88,25,12.34,6.54,1,13,2.35,19.53,3.53,12.51,2.25,20.62,11.41,30.19,19.24-.68,6.59-.46,13.64-7.94,19.38-5-3-10.45-5.95-15.45-9.54a91.68,91.68,0,0,0-34.15-15.56c-1.17-.26-2.53.35-3.87.56-7.3,32.64-24.2,59.58-47.49,82.6-20.2,20-44.32,33-71.7,41.14-11.75,3.48-23.09,8.6-35.39,9.69-7.79.69-15.74-.48-23.62-.55a28.74,28.74,0,0,0-9.55,1.09C254.27,394.26,231.08,400.67,204.06,401ZM151,272.77c-4.3-8.35-7.17-9.85-19.41-11.19-1.35-.15-3.68-3.62-3.48-3.87,5.48-6.77.13-10.91-3.57-15.35-5.52-6.61-5-10.46,1.88-15.46,9.1-6.57,19.4-8,30.18-7.33,8,.53,15.89,1.19,23.68-.93-24-.85-48.58-5.14-70.17,10.86l3.16,4.24-6.93,5.17c2.5,3.57,4.61,6.44,6.59,9.41,5.22,7.87,11.17,15.63,20.37,18.18,4.8,1.34,9.17,2.57,13.26,5.36,1.16.8,3.09.49,4.65.7,1.89,6.83,8.25,6.16,13,8.22C158,274.08,158,274.08,151,272.77Zm77.86-56.38,1.85,1.17c17.43-14.11,38-20.23,59.43-23.73A116.91,116.91,0,0,1,307,192.64c1.18,0,3.13,1.73,3.34,2.91s-1.33,2.64-2.39,3.7a6.5,6.5,0,0,1-2.76,1.08c-14.25,4.27-28.59,8.29-42.74,12.87-6.25,2-12.13,5.15-18.17,7.78.13.73.27,1.46.4,2.18,4.16.77,8.75.66,12.39,2.47,16.34,8.11,32.62,16.38,48.48,25.37,9.46,5.36,18.18,12,27,18.41,2.28,1.65,5.13,4.27,5.35,6.66.46,4.94,3.24,8,6.44,10.74,5.35,4.65,5.94,9.65,3.2,16-4.58,10.68-8.19,21.77-12.91,32.37-3,6.76-6.58,12.81-14.16,16.8-7.75,4.07-13.87,11.29-20.57,17.27-.78.7-.75,2.31-1.31,4.2,2.2.23,3.79.74,5.24.49,9.05-1.52,18.17-2.76,27.18-4.3,22.62-3.87,42.63-13.4,60.88-25.94,13.54-9.31,24.64-22.22,36.6-33.76,2.29-2.2,5.25-5.76,4.88-8.25-.8-5.45,2.28-8.72,4.41-12.7,3-5.55,5.9-11.12,8.62-16.8.64-1.34,1-4.2.39-4.56-4.84-3-.94-5.2.14-7.91,1.56-3.88,3.44-7.92,3.63-12,.28-5.77-5-10.44-4.49-16.59,0-.23-1.36-.53-2.05-.87-1.95-1-4.12-1.72-5.79-3.06-17.3-13.9-34.56-27.7-56.07-35-21.24-7.19-42.55-13.26-65.34-11-5.9.59-11.87.72-17.7,1.68-5.2.86-10.2,2.94-15.39,3.85-18.71,3.25-34.16,14-50.89,21.79a8.07,8.07,0,0,0-3.53,3.36C228.68,213.16,229,214.88,228.86,216.39Zm-124.34,31.2c-.79,3.64-1.37,5.74-1.68,7.87-1.1,7.54-2.12,15.08-3.14,22.62-2.52,18.75-.94,36.89,7.21,54.3,13.85,29.61,37.31,47.07,68.86,53,12.15,2.3,25,1.83,37.46,1.32a326.27,326.27,0,0,0,41.62-4.26c8.67-1.48,18-3.77,25.11-8.61,10.8-7.41,20.52-16.74,29.51-26.37,8.18-8.78,12.27-20.08,14.56-32.79-5.88,0-10.82-.41-15.67.08-17.16,1.71-34.25,3.52-51.45.05-20.78-4.19-42.17-5.14-62.49-11.74-15.74-5.11-32.35-7.73-46.92-16.28-11.76-6.9-23.34-13.86-31.15-25.67C113.35,256.6,109.17,252.85,104.52,247.59ZM301.12,258c-.68.75-1.36,1.51-2.05,2.26,1.91,1.65,4.14,3.06,5.67,5,3.4,4.34,7.33,8.58,9.43,13.54,3,7.13.73,12.12-6.47,15.43a47.41,47.41,0,0,1-15.11,4.34c-9.2.87-18.5.61-27.75,1-1.66.06-3.29.84-5.87,1.54,1.92,1.22,2.67,2,3.56,2.22,20.34,5.83,40.71,3.8,60.91-.52,3.85-.82,7.48-4.18,10.5-7.1,4.55-4.4,4.24-7.28-.55-11.69-2.4-2.21-6.19-3.47-7.58-6.1C320.25,267.39,309.49,264.39,301.12,258Zm-81.55,1.7c-3.55,5.48-5.65,10.41-3.2,16.21l17.79-2.69v8.72c-5.48,1.38-10.32,6-16,1.05-8.23,2-10-3.72-10.69-9.13-8.75-5.17-12,7.28-19.69,4.89,17.53,7.47,35.45,12,55.11,11.92,2-4.78,4-9.23,5.57-13.85,1-2.95-.36-5.14-3.65-5.83C235.05,268.94,226.29,265.07,219.57,259.68Zm29.13,28.59c14.49,1.09,27.78,2.45,41.1,2.93,5.63.2,10.83-2.47,14.77-6.89-5.39-6.14-6.44-6.8-10.61-1.7-5,6.13-11.45,5.86-17.73,5.81-4.38,0-9.82-.58-11.86-5.66s-5.82-4.17-9.84-4C252.82,281.58,251.15,284.28,248.7,288.27Zm220.84-45.66,44.67,16.6C501.26,248.25,487.09,240.58,469.54,242.61ZM186.23,263.4l.44-3.24c-4.34-1.1-8.62-2.54-13-3.22-9.77-1.53-9.8-1.38-14.52,1.51Zm88.42,1.35-10.39-8.38-1.61,1c1,3.57,2,7.15,3.16,11.39Zm-30-3.38c6.88,8,6.88,8,12.51,3.54ZM173,236.53l8.12-5.16C173,227.29,172.76,227.41,173,236.53Zm23,11.15c-4.54-6.31-4.54-6.31-9.06-1.9ZM178.18,288.3c-3.33-3-3.33-3-8.59-2.16Zm16-30.64c-2.57-3.9-2.57-3.9-8.41-3.39Zm-45.74-6c-2.44-6.78-2.44-6.78-6.87-8.29ZM231,236.27,230.5,238l5.42,1.45.45-1.5ZM251.39,191c.31.61.61,1.22.92,1.82l5.29-3.17c-.22-.4-.44-.8-.65-1.2Z"/><path d="M264.06,224.17c3-2.84,4.22-4.75,6-5.53,4.51-2,9.19-3.64,13.88-5.2,2.66-.89,2.73-.69,6.42,4.65C282.21,220,275.31,226,264.06,224.17Z"/><path d="M375.81,310.76c-.68,9.27-2.64,17.84-11.54,25.12C364.45,324.42,372,318.37,375.81,310.76Z"/><path d="M343.55,193.92c-7.18-.07-12.07,5.23-18.43,2C328,187.77,331.2,187.28,343.55,193.92Z"/></svg>