<svg id="Layer_1" data-name="Layer 1" xmlns="http://www.w3.org/2000/svg" viewBox="0 0 568.04 568.04"><defs><style>.cls-1{fill:#fff;stroke:#fff;stroke-miterlimit:10;}</style></defs><g id="Group_33" data-name="Group 33"><g id="Group_32" data-name="Group 32"><path id="Path_77" data-name="Path 77" class="cls-1" d="M382.29,198.79a21.62,21.62,0,0,0-5.11-7.29,35.59,35.59,0,0,0-8-8.36c-4.58-2.66-9.08-5.49-13.52-8.41a8.54,8.54,0,0,0-8.22-.92c-.54.21-1.09.39-2.06.72.57-.88.84-1.34,1.15-1.77a77.29,77.29,0,0,0,6.76-12.34,119.75,119.75,0,0,1,9.49-19.89,2.67,2.67,0,0,0-.19-3.46,2.58,2.58,0,0,0-3.43-.54,5.66,5.66,0,0,0-1.15.86c-5,4.44-10,9-15.16,13.31-3.25,2.7-6.84,5-10.68,7.7,0-1,0-2.05.13-3.06a34.65,34.65,0,0,0,0-11,12.49,12.49,0,0,1,1.63-8.8c1.95-3,4.16-5.87,6.37-8.72a11.82,11.82,0,0,1,8.6-4.21,36.07,36.07,0,0,1,14,.59,8.54,8.54,0,0,0,1.23.21,3.61,3.61,0,0,0,3.72-1.59,3.46,3.46,0,0,0-.43-4c-6.22-9.81-4.38-8.47-15-12.42a24,24,0,0,0-22.18,2,3.55,3.55,0,0,1-.78.25c.12-.52.18-.84.27-1.15,2.18-7.46,4.28-14.94,6.56-22.36a275.57,275.57,0,0,0,9.52-39.08,3.2,3.2,0,0,0-1.44-3.77,3.09,3.09,0,0,0-3.83,1.35q-4.53,5.76-9.13,11.49A93.69,93.69,0,0,0,317,79.32c-2,5.16-4,10.34-5.61,15.62-1.77,5.64-3.15,11.4-4.69,17.11-.2.75-.33,1.51-.52,2.27a114.51,114.51,0,0,0-7.94-30.44c-1.75-4.16-3-8.56-4.66-12.76-1.47-3.69-3.16-7.29-4.9-10.86a3.53,3.53,0,0,0-4-1.9A3.23,3.23,0,0,0,282,61.18c-.62,2.92-1.3,5.84-1.67,8.8-.6,4.75-.92,9.53-1.38,14.29-.24,2.45-.52,4.9-.8,7.55-.35-.29-.5-.36-.57-.48-2.93-4.73-5.89-9.45-8.77-14.21-3.39-5.6-6.67-11.25-10.06-16.83-1.93-3.15-3.93-6.24-6-9.32a70.89,70.89,0,0,0-4.47-6.25c-2.29-2.72-4.71-5.32-7.16-7.87a2.84,2.84,0,0,0-3.6-.72,3.71,3.71,0,0,0-2,3.49c.06,2.71.16,5.43.38,8.13.38,4.48,1,9,1.24,13.44a10.25,10.25,0,0,1-1,4.82,23.23,23.23,0,0,0-2.32,10,57.34,57.34,0,0,1-.71,10.22,95,95,0,0,0-1,28.26,4.7,4.7,0,0,1,0,.92,56.68,56.68,0,0,0-8.62-4.62,164.48,164.48,0,0,0-16.61-4.56c-7-1.57-14.21-1.89-20.78-5.15a2.32,2.32,0,0,0-.45-.13,3.41,3.41,0,0,0-4.42,2.08,3.68,3.68,0,0,0-.21,1.64A12.85,12.85,0,0,0,187.57,116a40.21,40.21,0,0,1,6.71,4.66,223.69,223.69,0,0,1,23.47,28,2.61,2.61,0,0,1,.27.67,7.67,7.67,0,0,1-1.31-1.17c-2.52-2.16-5-4.42-7.62-6.37a43.28,43.28,0,0,0-6.05-3.39,33.15,33.15,0,0,0-31.95-.17,93.72,93.72,0,0,0-24.66,20.41,17.15,17.15,0,0,0-2.62,4.42,2.82,2.82,0,0,0,3.91,3.65,7.48,7.48,0,0,0,1.62-1c2.54-2,5-4.1,7.58-6.13a18,18,0,0,1,20.51-2c7.28,4.44,14.28,9.37,21.34,14.16a31.31,31.31,0,0,1,3.59,3.32,20.48,20.48,0,0,1-1.92,1.7,8.64,8.64,0,0,1-1.6.68,4.63,4.63,0,0,0-3.18,5.6.75.75,0,0,0,0,.16c.27,1.55.75,3.06,1,4.6.49,2.89.9,5.79,1.36,9-.82-.5-1.34-.85-1.87-1.13-2.28-1.19-4.49-2.52-6.86-3.51a15.6,15.6,0,0,0-11.78,0,24.46,24.46,0,0,0-13.24,9.68,36.8,36.8,0,0,0-4.85,13.2c-.34,1.79-1,3.48-1.54,5.26a13.42,13.42,0,0,0-.82,3.43,2.55,2.55,0,0,0,2.4,2.69,2.46,2.46,0,0,0,1.37-.37,8.57,8.57,0,0,0,3.2-4,6.87,6.87,0,0,1,3-4.14c1.58-1.08,3.09-2.27,4.69-3.33a10,10,0,0,1,2.79-1.47c3.13-.89,6.29-1.7,9.47-2.36a6.77,6.77,0,0,1,3.68.13c3.72,1.42,7.34,3.07,11,4.7a6.12,6.12,0,0,1,2,1.45,12.67,12.67,0,0,0,5.8,4,1.67,1.67,0,0,1,1,.86c.32,1.22.49,2.5.71,3.72a2.53,2.53,0,0,1-.54.17l-1.23-.21a36.21,36.21,0,0,0-15-.28,53.17,53.17,0,0,1-10.07,3,2.77,2.77,0,0,0-2.47,3s0,.08,0,.12a3.34,3.34,0,0,0,2.86,3c1.93.35,3.83.9,5.76,1.11a17.35,17.35,0,0,1,9.29,4.3,44.6,44.6,0,0,0,3.75,2.66,28.35,28.35,0,0,1,9.46,10.17c.52.95,1.11,1.87,1.81,3l-3,.12a28,28,0,0,0-15.71,5c-4.32,3.24-8.45,6.85-12.62,10.32a9.58,9.58,0,0,0-1.94,2.35,3.1,3.1,0,0,0,.37,4.26,2.83,2.83,0,0,0,2.1.68,16.65,16.65,0,0,0,4.49-.56,18.1,18.1,0,0,0,9-6,10.45,10.45,0,0,1,8.13-3.63c2.87,0,5.75,0,8.62.15a18.7,18.7,0,0,1,4.74.82c3.67,1.18,7.24,2.71,10.93,3.82a10.85,10.85,0,0,1,8.34,6.65.13.13,0,0,1-.07.06c-.77.17-1.54.35-2.31.5a39.38,39.38,0,0,0-14.51,6.11,62.09,62.09,0,0,0-15.7,16.56,10,10,0,0,1-3.18,3.51,5,5,0,0,0-1.62,2,45.82,45.82,0,0,0-2.87,5.63,45,45,0,0,0-2.14,6.92c-.92,4.25-1.52,8.57-2.45,12.81a76.36,76.36,0,0,0-2.29,15.77c0,2,0,4,0,6-.11,7.5-.29,15-.35,22.5,0,3.7.15,7.39.22,11.08,0,1.15-.09,2.27,0,3.39.16,1.55.67,3.08.71,4.63.08,4.07,0,8.15,0,12.24a191,191,0,0,0,2.05,21.38,262,262,0,0,0,4.26,28.47c3.06,14.51,11.87,24.89,22.79,33.45a118.15,118.15,0,0,0,13,7.07,32.91,32.91,0,0,0,16.08,4.18c9.82.37,19.64.65,29.45.54a104.6,104.6,0,0,0,28-2.84,1.66,1.66,0,0,1,1.39.46c1.55,1.68,3.65,1.35,4.26-.89a2.77,2.77,0,0,1,2.65-2.28,28.5,28.5,0,0,0,9.41-3,126.08,126.08,0,0,1,12.81-6.23,23.32,23.32,0,0,0,13.59-16.28c.68-2.41,1.47-4.77,2.37-7.1a81.4,81.4,0,0,0,5.36-23.42c1-8.56,1-17.25,1.4-25.89.23-4.72.59-9.46.4-14.16a344.77,344.77,0,0,0-2.77-34.58,198.38,198.38,0,0,0-5.76-28.31,66.86,66.86,0,0,0-3.05-8.18c-2.16-4.88-4.54-9.62-6.73-14.47-2.41-5.34-4.51-10.83-7.09-16.07a32.65,32.65,0,0,0-12.57-13.89c-2.37-1.44-4.63-3-7.34-4.81a53.06,53.06,0,0,1,7.83-2.56,19.64,19.64,0,0,1,10.67.23,42.2,42.2,0,0,0,4.6,1.56,34.66,34.66,0,0,1,10,3.55,2.71,2.71,0,0,0,3.81-.88,2.94,2.94,0,0,0,0-3.15,39.13,39.13,0,0,0-4.71-6.62,30.15,30.15,0,0,0-18.78-9.33,63.4,63.4,0,0,0-18.39-1,13.29,13.29,0,0,1-1.41.05,27.48,27.48,0,0,1,10.44-8,57,57,0,0,0,6.51-2.88,39.92,39.92,0,0,1,12.51-4.2A142.74,142.74,0,0,0,354.37,246c1.3-.39,2.4-.86,2.77-2.31a3,3,0,0,0-1.27-3.24,18.22,18.22,0,0,0-15.45-3.94c-4.12.73-8.15,2-12.23,3l-1.55.35-.2-.38a11.07,11.07,0,0,1,1.42-1.63,43.08,43.08,0,0,0,7.65-8,18.57,18.57,0,0,1,12.41-7.43,51.09,51.09,0,0,1,22.73,2.23c1.94.67,3.28.33,4.07-1a3.14,3.14,0,0,0-.91-4.2c-2.77-2.61-5.62-5.13-8.52-7.6a28.59,28.59,0,0,0-21.12-6.82c-2.46.15-4.92.2-7.37.3-.5,0-1,0-1.5,0l-.16-.38a36.59,36.59,0,0,1,3.59-2.74,85.78,85.78,0,0,1,17.9-8.37,7.29,7.29,0,0,1,2.78-.34,20.39,20.39,0,0,1,15.51,7.5,13.62,13.62,0,0,0,3.89,3.45,3.3,3.3,0,0,0,3-.06,4.5,4.5,0,0,0,1.19-2.92,7,7,0,0,0-.7-2.63M310.52,123a119.65,119.65,0,0,1,7.35-30.15c1.32-3.44,2.52-6.93,3.82-10.38a86.77,86.77,0,0,1,15.5-26.57q.36-.44.75-.84c.06-.06.18-.07.52-.19a17.44,17.44,0,0,1-.27,1.74c-2.46,9.34-4.89,18.7-7.42,28-2.35,8.64-4.8,17.26-7.24,25.88a5.08,5.08,0,0,1-1.22,2.2,43,43,0,0,0-11.69,19.66c-.83,3-1.62,6.06-2.43,9.1h-.39c-.57-5-1.14-10.08-1.72-15.18,3.14.21,4.16-.55,4.45-3.3m-.59,51.32c1.06.93,2.28,1.44,3.48.4a4.56,4.56,0,0,0,1.6-4.39,5,5,0,0,1,1-4.08c1.16-1.69,2.33-3.37,3.41-5.11s.94-3.35-.33-4.17-2.49-.29-3.67,1.4c-.86,1.24-1.83,2.39-2.69,3.63-1.1,1.57-2.14,3.2-3.37,5-.22-.35-.71-.77-.69-1.17a2.84,2.84,0,0,1,.71-1.56c.48-.56,1.2-.9,1.64-1.48a2,2,0,0,0,.06-2.8l-.15-.14c-1.63-1-1.17-2.31-.82-3.64,2-7.73,4-15.46,6.08-23.17a28.38,28.38,0,0,1,4.46-9.64c3.36.81,4,.56,4.86-3.06a8.8,8.8,0,0,1,5-6.54c2.52-1.19,4.91-2.7,7.48-3.75a18.41,18.41,0,0,1,13.16.93c1.74.58,3.44,1.28,5.17,1.89a6,6,0,0,1,3.49,3.38c-2.71.11-5.39.35-8.08.3a21,21,0,0,0-18.46,9.62c-1.36,1.93-2.71,3.88-3.92,5.92a21.42,21.42,0,0,0-2.55,13.52c.23,2.36.14,4.75.21,7.13.07,2.6.24,5.19.28,7.78a2.59,2.59,0,0,1-.51,1.81,82.25,82.25,0,0,0-18.73,23.2c-.43.75-.91,1.47-1.38,2.2a2.2,2.2,0,0,1-.4.27l3.57-13.72m-3.43,31a2.72,2.72,0,0,1-.8-3.48,33.32,33.32,0,0,1,1.45-3.62,125.2,125.2,0,0,1,16.07-24.35,85.16,85.16,0,0,1,8.86-8c6.18-4.94,12.51-9.68,18.78-14.52,0,0,.1,0,.28,0a92.75,92.75,0,0,1-11.63,22.07,65.19,65.19,0,0,0-9.43,17.11,18.54,18.54,0,0,1-3.48,4.91c-.87,1.09-2,2-2.85,3a2.86,2.86,0,0,0-.83,1.86c.25,1.55-.64,2.43-1.44,3.42q-2.75,3.38-5.47,6.76a4.22,4.22,0,0,1-.79.79c-3.7,2.55-7.41,5.08-10.95,7.51l-.25-8.47a7.73,7.73,0,0,1,.81-.16,2.61,2.61,0,0,0,1.68-4.82m-24.08-89c0-1.09,0-2.18,0-3.26s0-2.14,1.42-2.64a2.21,2.21,0,0,0,1.13-2.76,11.47,11.47,0,0,0-.84-3,16.18,16.18,0,0,1-.94-9.55C284,87.07,284.81,79,285.65,71c.1-1,.31-2,.47-3l.44,0c.44,1.15.9,2.29,1.33,3.45,2.84,7.74,6,15.39,8.44,23.25a74.41,74.41,0,0,1,4.13,22.78,268.15,268.15,0,0,0,2.4,29.71c.35,3.27.19,6.6.25,9.91,0,2.87,0,5.75,0,8.63,0,.82,0,1.64,0,2.45a4.2,4.2,0,0,1-2.58,4.49c-3.15,1.6-6.15,3.48-9.43,5.36-.07-.59-.14-1.18-.21-1.67,1.16-.46,2.19-.85,3.19-1.28a3.94,3.94,0,0,0,2.25-2.73c.69-2.16,1.67-4.23,2.43-6.37a13.86,13.86,0,0,0,.77-3.31,2.21,2.21,0,0,0-1.73-2.55,2.25,2.25,0,0,0-2.77,1.55c-.4,1-.7,2-1,3l-.55-.1c.36-2.5.64-5,1.13-7.51a22.51,22.51,0,0,1,1.32-3.83c.75-1.89.47-3.3-.86-3.94s-2.62,0-3.49,1.83c-1,2.15-1.84,4.37-2.83,6.75-.34-1.25-.67-2.4-1-3.57-.52-2-1.12-3.95-1.52-6a158.83,158.83,0,0,1-3.79-32m14.86,107.16a26.66,26.66,0,0,1-1.76,3.45,3.14,3.14,0,0,1-2.73,1.85,2.87,2.87,0,0,0-2,1.41,14.51,14.51,0,0,1-6.86,6l-4.62,2.31c-.81-2.42-1.71-4.72-2.36-7.09-1.2-4.43-2.26-8.89-3.38-13.34a5.34,5.34,0,0,1,1.13-5,5.71,5.71,0,0,1,6.49-.07c1.69,1.58,3.18,3.41,4.87,5a7.69,7.69,0,0,0,3.06,2,3.27,3.27,0,0,0,3.56-2.94,2.82,2.82,0,0,0,0-.65,39,39,0,0,0-1.14-7.13,14.87,14.87,0,0,0-9.14-10.56,3.1,3.1,0,0,1-.61-.47l5.16-6.64a11.64,11.64,0,0,0,1.24.88,2.23,2.23,0,0,0,3-1,2.82,2.82,0,0,0,.19-.51,3.92,3.92,0,0,0,.05-1.77,5.22,5.22,0,0,1,2.75-6.35c2.35-1.4,4.63-2.92,7.26-4.58a76.09,76.09,0,0,1-1.11,10.1,79.21,79.21,0,0,0-1.82,21.38,32,32,0,0,1-1.31,13.68m6.2,63.8a1.6,1.6,0,0,1,1.19,1.79,53.21,53.21,0,0,1-.12,5.36c-.22,1.92-.75,3.78-1.16,5.76-2.46-3-4.91-5.75-7.16-8.7a17,17,0,0,0-8.63-5.82c-3.43-1.12-6.79-2.42-10.18-3.66a2.13,2.13,0,0,1-1-.85,42.66,42.66,0,0,1,26.08,1.16c-.22.78-.4,1.29-.51,1.81a2.44,2.44,0,0,0,1.38,3.11l.11,0M319.59,440a2.52,2.52,0,0,0-3.54.91l0,0c-.84,1.08-1.54,2.3-2.42,3.64a23.29,23.29,0,0,0-1.08-3.66,4.57,4.57,0,0,0-1.9-2.29c-1.68-.7-3.16,1-2.81,3.08.48,2.78,1,5.54,1.43,8.32a13.23,13.23,0,0,1-.24,2.66,41.6,41.6,0,0,0-14.29-9.17c2.65-4.66,5.21-9.32,7.94-13.87,2.52-4.22,5.19-8.34,7.85-12.45,1.5-2.31,1.56-2.28,4.05-1.58s5.05,1.38,7.53,2.21a12.14,12.14,0,0,1,3.5,1.72c3.39,2.59,6.69,5.31,10,8,.45.36.86.76,1.34,1.2-.16.21-.19.28-.23.29a23.89,23.89,0,0,0-12.45,11.21,74.28,74.28,0,0,1-4.91,6.23l-.45-.34c.41-.78.83-1.56,1.22-2.38a2.79,2.79,0,0,0-.54-3.8m-49.28,8.42c-1.2-.78-2.58-.31-3.57,1.25-.79,1.21-1.55,2.44-2.31,3.65-2.93-1.53-4.08-.89-4.8,2.39-.59,2.74-1.31,5.46-2.05,8.42a27.64,27.64,0,0,1-4.81-10.24c-.31-1.43-.45-2.89-.69-4.34-.27-1.65-1.26-2.57-2.6-2.43a2.45,2.45,0,0,0-2.15,2.67l0,.25c.3,2.8.8,5.58,1.22,8.37.08.46.23.91.42,1.63l-14.76-3.26a50.86,50.86,0,0,1,4.77-5.49c4.23-3.66,8.68-7,13-10.62,2.91-2.41,5.72-4.92,8.59-7.37a2.86,2.86,0,0,1,1-.45,18,18,0,0,0,2.78-.9,2.34,2.34,0,0,1,2.79.06c4,3.17,8,6.27,11.78,9.62a20.62,20.62,0,0,1,3,4.37,43.18,43.18,0,0,0-5.16,4.1,84.7,84.7,0,0,0-7.3,8.94c-2.12,3.09-3.83,6.51-5.67,9.82-.55,1-1.06,1.5-1.89.55.34-.93.6-1.8,1-2.61a5.49,5.49,0,0,1,.85-1c.76-.91,2-1.75,2.17-2.78a30.21,30.21,0,0,1,4.14-9.29c.27-.47.57-.92.82-1.39.9-1.66.72-3.11-.48-3.89m-58-15.76c3.1,0,3.76-.92,3.11-4.08a3.21,3.21,0,0,1,.06-1.6q3-9,6-18.06a6.19,6.19,0,0,1,.65-1.08,4,4,0,0,0,5.31-.54,1.86,1.86,0,0,1,1.78-.18c3.41,2.26,6.76,4.64,10.11,7,2.2,1.53,4.29,3.24,6.61,4.53A33.1,33.1,0,0,1,256.12,426c1.37,1.66,1.51,2.08.07,3.74a31.15,31.15,0,0,1-4.1,3.78c-5.27,4.24-10.69,8.28-15.84,12.67q-4.16,3.9-7.94,8.2a9.46,9.46,0,0,1-5.13-4.46,24.17,24.17,0,0,0-14.55-11.25c-.58-.2-1.16-.37-1.88-.59.84-1.11,1.39-2.12,3-1.7a2.2,2.2,0,0,0,2.6-1.73,2.75,2.75,0,0,0,.05-.57c0-.48,0-1,0-1.44m32.78-170.61a16.9,16.9,0,0,1-1.62-2.16c-1-2.32-1.71-4.79-2.78-7.06a46.19,46.19,0,0,1-4.06-14.62c-.19-1.56-.46-3.1-.74-5a48.27,48.27,0,0,1,11.36,9c5.1,6.07,10,12.29,15,18.46a9.12,9.12,0,0,1,.82,1.38,5.71,5.71,0,0,1-.66,7.81,4.17,4.17,0,0,1-.53.41,38.63,38.63,0,0,0-1.72-4.23c-.78-1.47-1.86-1.61-4.29-.84a33.64,33.64,0,0,1-4.68-9,41.07,41.07,0,0,0-1.59-5.27,17.59,17.59,0,0,0-1.57-2.33,11.4,11.4,0,0,1-1.06-2.23c-.6-1.8-1.9-2.68-3.29-2.05a2.49,2.49,0,0,0-1.42,3.14.61.61,0,0,0,.05.12c.81,2.74,1.68,5.46,2.65,8.14,1.05,2.88,2.13,5.76,3.4,8.55a46.44,46.44,0,0,0,3.49,6.29,9.74,9.74,0,0,1,1,5.65c-.5-.67-.78-1-1-1.38-1.21-1.83-2.39-3.67-3.62-5.49a5.54,5.54,0,0,1-1.46-4.22c.14-.92-1-2.08-1.63-3.07m29.26-21a3.74,3.74,0,0,1-.3,3.89,63.29,63.29,0,0,0-3.09,5.81h-.4c-.45-2.07-1-4.13-1.34-6.23s-.5-4.53-1-6.75a4.23,4.23,0,0,0-1.57-2.56c-1.61-1-3.45.64-3.19,2.8a57.61,57.61,0,0,0,4.36,20,2.86,2.86,0,0,1,.16.64c-.17,0-.3,0-.33-.09a149.75,149.75,0,0,0-14.21-18.06,2.32,2.32,0,0,1-.76-2.43,2,2,0,0,0-.23-1.55c-1.71-2.47-.33-5.16-.54-7.72a.24.24,0,0,1,0-.16c2.32-1.74,1.51-3.69.45-5.71a2.2,2.2,0,0,1,0-1.27c.27-1.72.6-3.43.87-5.14,1-5.93,5.17-8.31,10.28-10.15.34,1.84.72,3.56,1,5.32.34,2.57.83,3.12,3.14,3.4A115.33,115.33,0,0,0,274.41,241m-6-35.39c4.1-.85,7.9-3.41,12.28-1.42A7.84,7.84,0,0,1,285,208.4c-5.63-3.74-10.72-2.45-15.73,1.78-.26-1.45-.53-2.89-.84-4.51m10.35,44.7a42.52,42.52,0,0,1,1.85-4.34,7.54,7.54,0,0,1,2.23-2.77c2.13-1.35,4.43-2.38,6.88-3.66.06,2.13.91,4.13-1.4,5.59a5.85,5.85,0,0,0-1.7,2.5c-2.17,4.65-4.35,9.3-6.37,14a13.37,13.37,0,0,1-3,5,3.58,3.58,0,0,0-1.25,4.47c.17.37-.15,1-.24,1.49-1.48-.18-1.78-1-1.43-2.2,1.53-5.32,3-10.65,4.61-15.93.48-1.58,1-3-.15-4.2M285,263.6l4.44-11c.93,5.32-1.43,11.15-4.44,11m-36.2-51-.52.07c-2-2.63-4-5.24-5.89-7.91-.24-.34-.08-1-.24-1.41-.33-1-.5-2.19-1.18-2.73a6.47,6.47,0,0,1-1.94-3.54q-1.35-4.24-2.89-8.42a90.93,90.93,0,0,1-5.56-25.28,58.93,58.93,0,0,0-2.24-10.45c-.74-2.92-1.72-5.76-2.6-8.64l.36-.26c.92.67,1.88,1.26,2.74,2,2.95,2.58,5.82,5.25,8.77,7.83a56.63,56.63,0,0,1,14.6,23.65,38.32,38.32,0,0,0,2.18,5.2,95.86,95.86,0,0,1,7.07,16.8c.13.38.19.82.31,1.32-5.51,2.51-11.17,4.82-13,11.77m4.8,70.59c.13.38.28.75.4,1.16a2.44,2.44,0,0,0,2.76,2.07c1.28-.17,2-1.23,2-2.87,0-.32-.14-.73,0-1,.27-.47.7-1.18,1.07-1.19,2.4-.12,4.8-.11,7.2,0a1.58,1.58,0,0,1,1,.74,18.65,18.65,0,0,1,1,2,46.25,46.25,0,0,0-12.74,8.44l-7-8.34c.94-1.86,2.67-.9,4.25-1m3.63,17.12a27.43,27.43,0,0,1,12.25-9.92,48.08,48.08,0,0,1,7.21-2.14,1.7,1.7,0,0,1,.92.11c3.22,1.08,6.5,2,9.64,3.33a11.22,11.22,0,0,1,4.16,3c3.47,4.09,6.73,8.37,10.21,12.75a5.85,5.85,0,0,1-5.33-.48,5.25,5.25,0,0,0-6,.92c-2.22,1.74-4.31,3.66-6.46,5.5q-8.34,7.11-16.67,14.24a2.43,2.43,0,0,1-2.73.57l-6.7-2.69A1.79,1.79,0,0,1,257,325c-2.59-2.83-5.21-5.62-7.68-8.54A3.17,3.17,0,0,1,249,314a32,32,0,0,1,5.38-9.73c.92-1.32,2-2.55,2.86-3.91m14.17,80.45c-.56,2.25-.86,2.41-3.79,2.07-1.45-5.05-2.89-10.07-4.36-15.08a4.79,4.79,0,0,0-.67-1.45,2.13,2.13,0,0,0-2.78-.8,2.39,2.39,0,0,0-1.39,2.82c.22,1.37.54,2.72.65,4.18-2.77-2.36-6.23-3.7-8.33-6.82a2.89,2.89,0,0,1-.14-1.86A95.68,95.68,0,0,1,256.64,344a39.62,39.62,0,0,1,3-5.94c1.29-2.12,2-2.22,4.36-1.83.77.12,1.63-.45,2.45-.67.64-.18,1.41-.61,1.93-.41q6.18,2.49,12.29,5.2a6.1,6.1,0,0,1,2.15,1.58c3.34,4,6.6,8,10.2,12.45a19.65,19.65,0,0,0-10.38,8.54,68.24,68.24,0,0,0-9.1,14.1,3,3,0,0,1-.46.56,17.9,17.9,0,0,0-.67-2.27,2.14,2.14,0,0,0-2.55-1.38,2.29,2.29,0,0,0-1.9,2.28c-.28,2.93.74,4.27,3.45,4.6M267.14,389a144.74,144.74,0,0,0-8.6,30.83,4.5,4.5,0,0,1-.7-.25c-3.29-2.07-6.58-4.13-9.84-6.24-1.58-1-3.11-2.12-4.65-3.23-3.33-2.4-6.64-4.82-10-7.22-.46-.33-1-.59-1.52-.93.35-.69.64-1.26.95-1.82,4.84-8.61,9.71-17.22,14.52-25.83.68-1.22,1.28-1.45,2.58-.86a23,23,0,0,1,8.49,7,9.54,9.54,0,0,1,1.77,4.1c.55,3.22,2.82,3.85,5.3,4.32.46.09.93.08,1.67.14M252.53,328.6a5.93,5.93,0,0,0,4,2.7,4.29,4.29,0,0,1,1.08.46,24.91,24.91,0,0,0-6.27,10.5c-2,5.63-3.72,11.33-5.57,17-.09.29-.2.58-.3.86-.13,0-.2,0-.23,0a38.07,38.07,0,0,0-21.23-10.5,28.84,28.84,0,0,1-3.79-1,1.64,1.64,0,0,1-.81-1.36c1.44-7.8,2.95-15.57,4.46-23.36.11-.53.28-1,.35-1.59.11-.9.5-1.12,1.43-1.25A3.81,3.81,0,0,0,228,319.5a21.21,21.21,0,0,0,1.87-3.94,1.73,1.73,0,0,1,1.94-1.18A20.18,20.18,0,0,1,245.54,321a77.74,77.74,0,0,1,7,7.61m-32.19,27.05a1.77,1.77,0,0,1,1.36-.63c4.15,1.22,8.36,2.31,12.39,3.89a17.3,17.3,0,0,1,9.53,9.35,2,2,0,0,1,0,1.57c-5,8.89-10.08,17.74-15,26.64-.63,1.13-1.6,1.34-2.52,1.92-2.11,1.36-3.33.34-5.14-.82-3.89-2.46-8.11-4.35-12.22-6.47-.5-.26-1-.46-2-.87.76-.86,1.35-1.43,1.83-2.1a8.7,8.7,0,0,0,1.32-2.29,28.45,28.45,0,0,0,.82-3.77c.84-4.7,1.88-9.37,2.41-14.11a13.22,13.22,0,0,1,4.52-9q1.46-1.59,2.76-3.33m54.12,74.64c-.54-.44-1.09-.84-1.64-1.26a11.26,11.26,0,0,0-9.44-3.34,130,130,0,0,1,9.47-36,11.31,11.31,0,0,1,1.25.64c4.84,3.48,9.77,6.83,14.46,10.51a36.7,36.7,0,0,1,4.94,5.54,18,18,0,0,1,1.61,2.4,7.49,7.49,0,0,0,7.27,4.11,18.69,18.69,0,0,1,3.87.61c-2.56,4.1-5,7.88-7.34,11.77-2.43,4.07-4.8,8.19-7,12.37a12.88,12.88,0,0,1-4.9,5.74c-.13-.07-.27-.1-.3-.17-2.51-5.91-7.59-9.2-12.21-13m42.25-24.74A1.65,1.65,0,0,1,315,406.8a6.36,6.36,0,0,0-3.11.89,3.71,3.71,0,0,1-3.23.44c-2.24-.48-4.52-.76-6.77-1.21a3.52,3.52,0,0,1-1.59-.85,7.37,7.37,0,0,1-1.32-1.76,40.7,40.7,0,0,0-14.51-13.71c-2.63-1.76-5.17-3.64-7.76-5.44-1.06-.73-.23-1.52.05-2.12a63.2,63.2,0,0,1,7.86-13.54c2.09-2.59,4.18-5.17,6.35-7.69A5,5,0,0,1,293,360.4a32.42,32.42,0,0,0,10.66-6.13,3.5,3.5,0,0,1,3.47-.85A34.84,34.84,0,0,1,324,361.89a9.44,9.44,0,0,0,4.6,2.53,19.07,19.07,0,0,1,9.61,5.7c-1.62,4.2-3.12,8.13-4.68,12-.16.42-.61,1-1,1a10.69,10.69,0,0,0-8.45,6.32c-1.93,3.43-3.52,7.06-5.18,10.65-.83,1.76-1.52,3.59-2.2,5.42M309.07,343a14.41,14.41,0,0,1-7.81,4.9,17.05,17.05,0,0,0-3.63,1.47,1.16,1.16,0,0,1-1.69-.22,1.48,1.48,0,0,1-.13-.21c-1.5-2.14-3.11-4.2-4.64-6.31a26,26,0,0,0-11.29-9.2c-1.79-.74-3.54-1.57-5.31-2.38-.5-.23-1-.55-1.55-.9.41-.43.64-.71.91-.94q8.49-7.4,17-14.79c.52-.46,1.07-.87,1.58-1.34a2,2,0,0,1,2.8-.17,7.55,7.55,0,0,0,3.34,1.13c2.89.17,4.37-1.74,3.81-4.7l-.09-.49c2,.38,4,.72,5.93,1.17a8.45,8.45,0,0,1,2.6,1c5,3.14,9.95,6.31,14.86,9.56,1.48,1,2.78,2.25,4.3,3.5-.51.44-.8.71-1.11,1A120.47,120.47,0,0,0,309,343M290.67,272a35.1,35.1,0,0,1,7.75-8.19l.34.27L290.67,272m-6.75-109c1,6.31,1.46,12.72,2.09,19.09a3.19,3.19,0,0,1-.56,1.94c-2.23,3.17-4.52,6.3-6.8,9.42-.54.74-1.14,1.44-1.63,2.21-1.36,2.13-1.34,2.14-4.24,2.52.82-1.21,1.49-2.24,2.19-3.25.85-1.25,1.78-2.44,2.59-3.71a2.56,2.56,0,0,0-.13-3.53,2.35,2.35,0,0,0-3.4.16,2.91,2.91,0,0,0-.32.46,32.4,32.4,0,0,1-3.8,4.21c0-.91-.08-1.83-.08-2.75s.1-1.85.09-2.77a2.56,2.56,0,0,0-2.17-2.87h0a2.53,2.53,0,0,0-2.56,2.48v.06c-.11.81-.1,1.63-.16,2.44s-.12,1.58-.2,2.66L259.41,180c.28-.11.65-.23,1-.4a3.62,3.62,0,0,0,1.47-4.62,4.1,4.1,0,0,1-.4-2.49,81.41,81.41,0,0,0,2.07-29.12,22.39,22.39,0,0,1,.28-6.17c1-5.16,2.21-10.27,3.34-15.41l.65,0,2,5.3c-2.83,1.85-2.85,2.41-2.43,5.72.55,4.36.8,8.77,1.05,13.15.42,7.54.74,15.09,1.09,22.63.09,1.91.92,3.05,2.33,3.09s2.54-1.09,2.48-3.1c-.15-6.3-.41-12.61-.61-18.9l-.39-13.55a27,27,0,0,1,5.25,7.24A110,110,0,0,1,283.91,163M238.37,88.19a88.58,88.58,0,0,0,1-12.49A14.5,14.5,0,0,1,241,68.83a13.48,13.48,0,0,0,1.73-8.15c-.42-4.48-.88-9-1.32-13.44-.08-.73-.18-1.46-.27-2.19l.42-.22,3.25,4.47c-.4.5-.76.88-1,1.32a3.55,3.55,0,0,0-.37,3.68,11.17,11.17,0,0,1,1.12,3.45c2.46,22.73,6.11,45.26,9.75,67.81.12.69.19,1.4.32,2.09.37,2.07,1.48,3.09,3,2.76s2.08-1.62,1.78-3.63c-.48-3.22-1-6.43-1.46-9.65q-3.8-28.39-7.55-56.8c-.14-1.06-.27-2.14-.41-3.21l.47-.45a8.24,8.24,0,0,0,.4,1c1,1.77,2,3.52,3.1,5.27q3.16,5.31,6.35,10.61c.44.75,1,1.4,1.38,2.17a189.63,189.63,0,0,0,13.61,22,12.88,12.88,0,0,1,2.07,7.9c0,8.36.3,16.71.49,25.07a2.16,2.16,0,0,1-.19,1.09,20.72,20.72,0,0,1-1-2c-2.54-7-5.05-14.09-7.61-21.11a12.8,12.8,0,0,0-1.4-2.7,2.54,2.54,0,0,0-3.42-1.1,2.87,2.87,0,0,0-1.56,3.39c.25,1.68.54,3.35.7,5a29.9,29.9,0,0,1-1.71,9c-.73,3.47-1.69,6.85-2.5,10.29a41.38,41.38,0,0,0-.84,13.45,67.45,67.45,0,0,1-1.9,24.25c-.08.31-.17.62-.31,1.1-1.72-3.19-3.36-6.19-4.93-9.23a1.51,1.51,0,0,1,.14-1.26,3.41,3.41,0,0,0,.21-3.5c-2-6-3.93-12-5.9-18.05l1-.43a2.45,2.45,0,0,0,1.62-3,2.42,2.42,0,0,0-.42-.85,12.45,12.45,0,0,0-1.7-2.12,32.44,32.44,0,0,1-8.64-20.88,91,91,0,0,1,.94-23.88m-24.87,45.89c-4.85-5.64-9.64-11.36-14.62-16.87a26.84,26.84,0,0,0-8.78-6.41,12.12,12.12,0,0,1-2.6-2.3l.3-.48a15.85,15.85,0,0,0,2.27.83c4,.83,8,1.54,12,2.4,5.31,1.15,10.65,2.21,15.89,3.66a28.81,28.81,0,0,1,14.57,9.54,32.59,32.59,0,0,1,6.39,11.93c1.39,4.66,2.93,9.28,4.39,13.91.11.35.18.71.38,1.51-3.57-3.19-6.87-6-10-9a34.46,34.46,0,0,0-11.11-6.8,2.66,2.66,0,0,0-3.61,1.3,2.84,2.84,0,0,0-.27,1.47c0,.38,0,.73,0,1.49-1.88-2.26-3.51-4.28-5.19-6.23M199.7,165.38c-6.2-4-12.32-8.1-18.42-12.26a24.28,24.28,0,0,0-15-3.54,5.61,5.61,0,0,1-1.53-.09c5.16-3.88,10-8.36,16.81-8.71,3.17-.18,6.36-.44,9.52-.31a22.86,22.86,0,0,1,10.3,3.57c1.64.94,3.28,1.88,5,2.73a25.4,25.4,0,0,1,8.89,8.51c2.85,4,5.19,8.38,8,12.4a26.09,26.09,0,0,1,3.78,9.4c1.21,5.1,3,10,4.49,15,.15.5.34,1,.64,1.89a61.8,61.8,0,0,0-8.52-8.06,57.08,57.08,0,0,0-10.42-4.24c.84-2.26-.47-3.57-2.29-4.82a10.39,10.39,0,0,1-2.69-3.09,27.07,27.07,0,0,0-8.51-8.43m-10.84,39.69a10.48,10.48,0,0,0-5.39-.15A76.86,76.86,0,0,0,173,207.56a48.94,48.94,0,0,0-6.88,3.6A18.35,18.35,0,0,1,176,198.85c.82-.35,1.72-.53,2.51-.95a10.91,10.91,0,0,1,10.82.44c2,1.09,4,2.3,6,3.48a1.64,1.64,0,0,1,.68.81c1.23,3.41,2,3.77,5.22,2.31l2.54,6.64c-5.12-2.27-9.94-4.6-14.9-6.51m17.39-2.45a49.89,49.89,0,0,1-3.76-14,39.13,39.13,0,0,0-1.25-5.8,1.82,1.82,0,0,1,2.65,0l.08.09a21.84,21.84,0,0,0,10.49,5.5,16.36,16.36,0,0,1,10.36,6.37,27.87,27.87,0,0,0,4.59,4.62,66.88,66.88,0,0,1,10.7,12,13.81,13.81,0,0,0,1.75,2.28,17.81,17.81,0,0,1,4.69,9.3,2.32,2.32,0,0,1,.11.64c-.16,3.13-.31,6.26-.47,9.39l-.51.41c-5.05-4.06-10.13-8.09-15.15-12.19-1.2-1-2.35-1.63-3.84-.77a3.18,3.18,0,0,0-1.32,4,12,12,0,0,0,2,3.43,21.87,21.87,0,0,1,3.8,11.55l-.48.35a40.78,40.78,0,0,1-4-4.62,10.46,10.46,0,0,0-5.69-4.52c-1.73-.58-3.4-1.34-5.08-2,.83-3,.67-3.37-1.86-4.56a1.25,1.25,0,0,1-.63-.79,105.31,105.31,0,0,0-7.15-20.6m-3.67,34.06c-2.89-1.89-5.67-4-8.64-6.06a55.79,55.79,0,0,1,5.59-.2,39.75,39.75,0,0,1,14.08,3.46,7.33,7.33,0,0,0,.72.3,17.93,17.93,0,0,1,9.71,6.72,68,68,0,0,0,8,8,11.44,11.44,0,0,1,2.11,3.15c1.53,3.36,2.94,6.77,4.4,10.18l-.36.23a1.45,1.45,0,0,1-.43-.26L224,246.44a2.38,2.38,0,0,0-3.42-.65l0,0a2.51,2.51,0,0,0-.5,3.41l.07.09c1.39,2,2.93,3.93,4.45,5.85a22.6,22.6,0,0,1,2.24,3c-1.82-.51-3.67-1-5.47-1.59a1.76,1.76,0,0,1-.82-1.08,5.8,5.8,0,0,0-2.8-3.12,6.86,6.86,0,0,1-2.59-2.4,36.45,36.45,0,0,0-12.57-13.26m27.28,31.18a106.94,106.94,0,0,1-12.43-4.34,23.66,23.66,0,0,0-7.66-1,54.94,54.94,0,0,0-5.73.19,4.42,4.42,0,0,1,0-.63,37,37,0,0,1,17.95.62,56.87,56.87,0,0,1,13.55,6.15,28.29,28.29,0,0,1,4.51,4.31l-.37.73c-.42-.1-1.06,0-1.23-.31a13.63,13.63,0,0,0-8.6-5.73m-.28,19c3.21-.75,6.45-1.36,9.68-2,.34-.06.93-.11,1,.07,1.54,2.54,4.6,2.91,6.5,4.87s3.84,4.21,5.67,6.4c.2.25,0,1.1-.26,1.49-1.38,2.06-3,4-4.24,6.09-1.61,2.66-3,5.45-4.61,8.37a12.16,12.16,0,0,0-1.67-1,47.55,47.55,0,0,0-5.27-1.94c-2.16-.58-2.53-1.47-2.82-3.86a23.73,23.73,0,0,0-4.14-12.19c-1.17-1.48-2.27-3.06-3.58-4.85a27.27,27.27,0,0,1,3.69-1.47m-8.2,4.44c1.83,2.92,3.73,5.78,5.44,8.78a11.34,11.34,0,0,1,.59,3.12,23.17,23.17,0,0,0,.74,2.78c.4,1.13-.06,2-1.2,1.93-4-.31-8-.61-12-1.05a4.77,4.77,0,0,1-2.19-1.06c-1.07-.82-2-1.78-3.27-2.87a44.72,44.72,0,0,1,11.89-11.63m-27.29,53.85c.58-3.26,1.24-6.5,1.87-9.75.84-4.43,1.79-8.84,2.47-13.29a17.47,17.47,0,0,1,2.05-6.27c.89-1.52,1.68-3.12,2.61-4.84a3.1,3.1,0,0,0,4.41.66,2.71,2.71,0,0,1,2.21.11c3.58,1.54,7.12,3.2,10.64,4.8-3.43,9.94-3.48,20.47-6.53,30.33a84.22,84.22,0,0,0-9.88-1.16,85.1,85.1,0,0,0-9.82,1,6.19,6.19,0,0,1,0-1.61m-.37,12.54a2,2,0,0,1,1.31-2.22c.88-.41,1.45-1.58,2.17-2.38.36-.4.7-1,1.13-1.11a38.83,38.83,0,0,1,17,1.36c-.76.76-1.22,1.25-1.71,1.71a16.75,16.75,0,0,0-5.84,11.36c-.19,2.65-.6,5.29-.92,7.93a32.91,32.91,0,0,1-4.3,12.35c-.31.56-1,.87-1.59,1.33-1.83-3.37-1.83-3.37-7.17-1.41,0-.61-.14-1.16-.14-1.72q0-13.59.07-27.19m3.58,79.18c-.1-.54-.27-1.19-.35-1.86-.64-5.39-1.42-10.76-1.76-16.17A20.11,20.11,0,0,0,195,414a24.56,24.56,0,0,1-.68-10.41,65.3,65.3,0,0,0-.18-9.69,45.13,45.13,0,0,1,24.22,8.7c-4,9.26-7.88,17.95-8.44,27.78a5.47,5.47,0,0,0-5.66,2,13.31,13.31,0,0,0-2.05,2.25,4.57,4.57,0,0,1-5,2.23m21.62,45.87a29.22,29.22,0,0,1,.51,3.5c-.27,0-.41,0-.46-.06-6.85-6.61-13.55-13.39-16.75-22.87-1.21-3.66-2-7.49-2.92-11.24l.39-.24,1.58.77.36-.18L200,448.25a11.36,11.36,0,0,0,2.25-2,13.77,13.77,0,0,0,1.09-3.06A21.14,21.14,0,0,1,218,452a14.85,14.85,0,0,0,4.92,5.94c.79.41,1.54.87,2.4,1.36-1.94,4.73-3.69,9.28-5.67,13.73a14,14,0,0,0-.71,9.66m18,13.27-11.69-5.68.83-1.68-5.73-4.42c1-.34,1.57-.48,2.08-.71a2.91,2.91,0,0,0,1.72-3.56,7,7,0,0,1,.08-3.44c1.68-4.41,3.59-8.72,5.35-13.09a1.67,1.67,0,0,1,2-1.3,1.14,1.14,0,0,1,.26.09c5,1.12,10,2.13,15,3.19a8.63,8.63,0,0,1,5.55,3.6c.73,1,1.65,1.93,2.67,3.14-2.32,1.62-4.43,3.23-6.68,4.62a28.34,28.34,0,0,0-9.75,10.68,9.65,9.65,0,0,0-1.72,8.57m5.44,1.39c1.14-1.71,1.37-3.14.19-4.57-.18-.23,0-.94.22-1.34a24,24,0,0,1,7.22-8.92c2.65-2,5.41-3.78,8.1-5.68a3.46,3.46,0,0,1,5,.18l.07.09a8.45,8.45,0,0,1,1.91,2.33c1.74,3.44,3.45,6.91,5,10.45a10.68,10.68,0,0,0,4.26,5,4.24,4.24,0,0,1,1.94,3.49,296,296,0,0,1-34-1.06m73.42-5.29a3.67,3.67,0,0,1-1.22.28,1.86,1.86,0,0,1-2.18-2.2c0-.69,0-1.38-.07-2.35-1.77.57-3.37,1-4.9,1.64-.34.14-.51,1-.59,1.51a4.69,4.69,0,0,1-1.45,2.74c-3,3.27-7,3.09-10.7,3.63s-7.61.61-11.41.84c-1.84.12-2.43-.42-2.1-2.29a3.9,3.9,0,0,0-.89-3.58,3.48,3.48,0,0,1-.44-1.51c-.4-1.9-1.43-2.78-3.23-2.4-1.15.24-1.16-.57-1.47-1.2a110.66,110.66,0,0,0-5.9-11.59,4,4,0,0,1-.18-5.17c2.72-4.21,5.16-8.62,8-12.71a30.82,30.82,0,0,1,5.15-5,5,5,0,0,1,4.41-1.66,2.53,2.53,0,0,0,1.63-.49,7.27,7.27,0,0,1,8.29.1,25.61,25.61,0,0,1,9.53,7.93,5.62,5.62,0,0,1,.63,5.45c-1.29,3.61-2.18,7.38-3.15,11.1-1.16,4.47-2.24,9-3.35,13.44a13.09,13.09,0,0,0-.46,2.24,3.26,3.26,0,0,0,1.94,3.39,2.78,2.78,0,0,0,3.47-1.11c1-1.22,1.81-2.43,1-4.12a2.05,2.05,0,0,1,0-1.25q1.89-7.94,3.81-15.83a8.85,8.85,0,0,1,.38-1c5.88,5.3,12.77,8.92,17.92,15.09-4.23,2.06-8.34,4.06-12.47,6m34.2-49.56c-.5,1.6-1.73,3.69-1.17,4.77,1.41,2.78-.07,5-.52,7.42a65.82,65.82,0,0,1-2.08,7.67c-1,3.05-2.08,6-3.13,9.07a8.72,8.72,0,0,1-1.21,2.56l-1.21-3.58c-1.3,1.8-2.51,3.47-3.69,5.16-.15.23-.08.62-.13.94a31.23,31.23,0,0,1-.95,5.35c-.25.76-1.46,1.28-2.33,1.63-.28.11-1-.55-1.31-1a37.33,37.33,0,0,0-10.91-10.27c-1.85-1.4-3.69-2.82-5.47-4.32a1.81,1.81,0,0,1-.57-1.43,4,4,0,0,0-.92-3.63,1.72,1.72,0,0,1-.13-2.19,19,19,0,0,1,6.68-8.44,25.4,25.4,0,0,0,8.19-9.17,21.8,21.8,0,0,1,12.59-9.94,1.56,1.56,0,0,1,1.38.26,47.26,47.26,0,0,1,4.29,4.65,2.9,2.9,0,0,0,3.47,1.07l.37.31c-.41,1-.9,2.07-1.23,3.14m1.34-9.27-3.81-3.94,4-4.19c-.06,2.23-.13,5-.2,8.13m-.36-53.93c.54,8.28,1,16.57,1.55,24.86.06,1-.15,1.61-1.32,1.2a2.59,2.59,0,0,0-3.36,1.56c-.49.84-1.28,1.48-1.85,2.28a10,10,0,0,0-1.17,2.07c-1.48,3.54-2.9,7.11-4.38,10.65a6.86,6.86,0,0,1-.93,1.28c-2.55-1.95-5.18-3.65-7.44-5.76a21.7,21.7,0,0,0-10.54-5.89,9.2,9.2,0,0,1-1.15-.4c.77-1.88,1.5-3.72,2.29-5.53,1.71-3.86,3.39-7.74,5.22-11.53a23.05,23.05,0,0,1,2.72-4,2.29,2.29,0,0,1,2.67-.75,3.53,3.53,0,0,0,4.48-2.32.88.88,0,0,1,.05-.15c.9-2.44,1.64-4.94,2.49-7.4.34-1,.75-1.92,1.17-2.86,1.38-3,1.41-3.07,4.19-1.64a49.22,49.22,0,0,1,4.76,2.91,2,2,0,0,1,.6,1.37m-10.87-47.76c5.49,10.77,7.23,22.55,9.21,34.58-2.9-2.43-3-2.41-6.14-.6a1.63,1.63,0,0,1-1.47-.11c-.95-.65-1.78-1.5-2.67-2.24a19.14,19.14,0,0,0-8.51-4.22,5,5,0,0,1-2.64-1.26A36.4,36.4,0,0,0,313.05,349l-1.38-.56c2.95-3.13,5.59-6.3,8.6-9,3.56-3.2,7.41-6.08,11.18-9,1.61-1.27,2.48-1,3.6.72,1.59,2.52,2.59,2.66,5,.44m-19.53-36.9a32.13,32.13,0,0,1,8.87,12.19c2.16,4.54,3.81,9.34,5.63,13.87-2.25-1.82-4.44-3.85-6.89-5.51-4.79-3.24-9.66-6.37-14.64-9.3a20.41,20.41,0,0,0-5.62-1.7c-1.11-.27-2.28-.21-3-1.58,2.34-.19,3-.61,3.46-2.81.76-4,1.29-8,1.93-12a3.15,3.15,0,0,1,.77.35c3.19,2.14,6.47,4.15,9.52,6.5m-3.67-25c3.92.52,7.84,1.16,11.76,1.77a19.06,19.06,0,0,1,9.33,4.49l-.21.35c-1.32-.45-2.62-1-4-1.33a41.32,41.32,0,0,0-7.15-1.33,36.73,36.73,0,0,0-18.37,4.73,2.08,2.08,0,0,1-1.55,0c-1.82-.8-3.6-1.67-5.36-2.61a2.46,2.46,0,0,1-.94-1.21c-.69-1.71.14-2.49,1.65-3a30.46,30.46,0,0,1,14.81-1.77m-17.26-6.73-.81-3.39a44.13,44.13,0,0,1,21.54-11.19,43.3,43.3,0,0,0-20.73,14.57m47.24-52.22a22.64,22.64,0,0,1,15.45,6.21c-1-.08-1.56-.15-2.15-.18-3-.14-6-.42-9.06-.4a26.66,26.66,0,0,0-21.2,11.33,29,29,0,0,1-4.08,4.27,13.77,13.77,0,0,0-5.28,7.5,4.93,4.93,0,0,1-3.79,3.78c-4.27,1.4-8.41,3.19-12.59,4.81,1-1.95,2.05-4.16,3.15-6.34.58-1.17,1.26-2.27,1.82-3.44a2.62,2.62,0,0,0-.67-3.56l-.05,0a2.37,2.37,0,0,0-3.31.93c-.05.09-.1.18-.14.27-2.39,4.31-4.72,8.63-7.09,12.94-.61,1.1-1.31,2.15-2,3.23l-.39-.16a33.71,33.71,0,0,1,1.21-10.29,55.4,55.4,0,0,1,10.67-17.41c1.14-1.19,2.43-2.25,3.66-3.36a2.57,2.57,0,0,1,3.07-.77,2.16,2.16,0,0,0,2.72-1.41,9.41,9.41,0,0,1,4.79-4.21,30.14,30.14,0,0,1,13.48-3.33c3.92-.05,7.84-.5,11.76-.39m19.9-21.79c-1.58-.32-3.15-.64-4.74-.94a15.54,15.54,0,0,0-8,.68,106.17,106.17,0,0,0-16.35,7.57,18.91,18.91,0,0,0-8.65,8.75c-.29.61-1.13.94-1.72,1.4l-.38-.45c.67-.89,1.4-1.74,2-2.67,2.06-3.14,4.23-6.24,6.05-9.54A43.83,43.83,0,0,1,344.45,182a22.62,22.62,0,0,1,2.22-1.55,5.9,5.9,0,0,1,7.86.32,77,77,0,0,0,8.35,5c1.39.83,2.69,1.8,4,2.7l-.15.39"/><path id="Path_78" data-name="Path 78" class="cls-1" d="M317.93,374.42a2.29,2.29,0,0,0-2.2,2.17c-.09.59,0,1.19-.11,1.79q-.72,5.6-1.47,11.19l-.46,0c-.25-.52-.37-1.25-.78-1.5a4,4,0,0,0-2.35-.8c-1.25.13-1.71,1.28-1.88,2.5q-.54,4-1.06,8.05l-.56.13c-.93-2.14-1.9-4.26-2.78-6.42-.76-1.84-1.33-3.77-2.16-5.57a2.36,2.36,0,0,0-3.09-1.46l-.14.06c-1.28.61-1.66,2-1.07,3.63.63,1.83,1.16,3.7,1.84,5.52,1,2.61,2,5.22,3.1,7.78a3.29,3.29,0,0,0,4,2l1.1-.2c.12.63.19,1.17.34,1.68a2.28,2.28,0,0,0,2.26,1.87,4.75,4.75,0,0,0,4.41-3.45,7.55,7.55,0,0,1,.46-1.39,59,59,0,0,0,5.12-22.55,11.35,11.35,0,0,0-.15-3.08,2.17,2.17,0,0,0-2.38-1.89"/><path id="Path_79" data-name="Path 79" class="cls-1" d="M299.73,376.31a2.46,2.46,0,0,0,2.81-1.56c1.44-2.58,2.89-5.16,4.37-7.71a3,3,0,0,0-.29-4.18l0,0a2.62,2.62,0,0,0-3.77.4,2.2,2.2,0,0,0-.21.32c-1.63,2.18-3.1,4.5-4.59,6.79a3.86,3.86,0,0,0-.33,1.16c.12.71.21,1.44.26,2.16a2.38,2.38,0,0,0,1.81,2.66"/><path id="Path_80" data-name="Path 80" class="cls-1" d="M294.25,458.92c-.44,0-.92.35-1.37.55a4.07,4.07,0,0,0-5.21-2.71,4.21,4.21,0,0,0-2,1.53,15.19,15.19,0,0,0-2,8.8,4.56,4.56,0,0,1-.77,3.5,2.82,2.82,0,0,0-.37,3.71,5.87,5.87,0,0,0,4.53,1.59c1.33-.57,1.49-1.79,1.72-3.06a17.11,17.11,0,0,1,1.14-4,17.7,17.7,0,0,1,2.16-3,3.71,3.71,0,0,1,.61.28c1.83,1.21,3,.94,4.13-1a6.45,6.45,0,0,0,1.09-2.5,4.63,4.63,0,0,0-.8-3c-.57-.6-1.86-.58-2.82-.65"/><path id="Path_81" data-name="Path 81" class="cls-1" d="M220.42,431.38a10.92,10.92,0,0,0,1.83.87,45.35,45.35,0,0,1,4.28,2c1.24.71,2.79.85,3.33-.35a14.85,14.85,0,0,1,3.6-4.56,3.48,3.48,0,0,0,1-2,71.41,71.41,0,0,0,.42-7.74,2.83,2.83,0,0,0-2.54-2.85,3.19,3.19,0,0,0-3.63,1.63c-.67,1.22-1.07,2.59-1.69,3.84a9.32,9.32,0,0,1-1.34,1.84c-.44.52-1,1-1.59,1.59-.37-.09-.74-.21-1.16-.29a3.13,3.13,0,0,0-3.74,1.61,3.93,3.93,0,0,0,1.23,4.36"/><path id="Path_82" data-name="Path 82" class="cls-1" d="M306,318.94a2.54,2.54,0,0,0-2.73,1.52,16.89,16.89,0,0,0-.71,1.83,33.14,33.14,0,0,0-3.81-1,5.52,5.52,0,0,0-5.58,5.42,6.09,6.09,0,0,0,0,.74,15.13,15.13,0,0,0,2,4.35,2.88,2.88,0,0,0,3.79,1.38c.31-.12.72,0,1.06,0,1.95-.32,3.9-.62,5.84-1a1.92,1.92,0,0,0,1-1,16.89,16.89,0,0,0,1.36-10.1,2.41,2.41,0,0,0-2.22-2.18"/><path id="Path_83" data-name="Path 83" class="cls-1" d="M263.2,311.45l2.26-1.35.4.36c-.16.6-.33,1.2-.48,1.8a2.34,2.34,0,0,0,1.35,3l.24.07c2.7.46,3.33-2.23,4.8-3.61a2.77,2.77,0,0,0,.53-3.43.88.88,0,0,0-.17-.28c-.87-.89-.48-1.62.25-2.35a10.2,10.2,0,0,0,2.14-2.35,3.59,3.59,0,0,0,.25-2.83,3.74,3.74,0,0,0-2.5-1.43,2.78,2.78,0,0,0-2.3.77,30.47,30.47,0,0,1-9.18,7.2,3.07,3.07,0,0,0-.58.56,2.65,2.65,0,0,0-.41,3.53,2.42,2.42,0,0,0,3.39.4"/><path id="Path_84" data-name="Path 84" class="cls-1" d="M269.25,359.1c.27-.08.64.4,1,.4.88,0,2,.24,2.57-.22a4.34,4.34,0,0,0,.87-2.55c.11-.77-.27-1.61-.16-2.39.47-3.6-.63-4.7-4-3.74a16.22,16.22,0,0,0,.07-2.09,2.64,2.64,0,0,0-2.72-2.59,2.56,2.56,0,0,0-1.3.44,6.54,6.54,0,0,0-1.29,8.91l.35.45a4.52,4.52,0,0,1,.85,1.14c.85,1.53,1.77,2.85,3.81,2.24"/><path id="Path_85" data-name="Path 85" class="cls-1" d="M286.88,414.75a9.6,9.6,0,0,1,.86-1.49,7.54,7.54,0,0,0,1.29-2.54c.1-1.21-.89-1.88-2-2.15a5.94,5.94,0,0,0-7.4,2.18,9.71,9.71,0,0,1-1-2.54c-.06-2,.12-4,.1-6a3.28,3.28,0,0,0-3-3.35,2.87,2.87,0,0,0-2.94,2.79,10.13,10.13,0,0,0-.08,2.27c.1,1.68.26,3.35.38,5a5,5,0,0,1-1.49,4.4,2.69,2.69,0,0,0-.36,3.7,2.45,2.45,0,0,0,1.25.85,7.28,7.28,0,0,1,3.84,2.08c1.13,1.22,2.83.67,4.79-1.07,2.86,2,4.73,1.24,5.5-2.24.14-.64.09-1.32.28-1.93"/><path id="Path_86" data-name="Path 86" class="cls-1" d="M217.39,380.61c.07,1.86.64,2.91,1.9,3.39a2.73,2.73,0,0,0,3.35-1,20.73,20.73,0,0,1,4.62-5.41,2.28,2.28,0,0,0,.44-3.1,2.1,2.1,0,0,0-.31-.35,5.85,5.85,0,0,0-8.4,1.15,4.07,4.07,0,0,0-.33.48,33.53,33.53,0,0,0-1.28,4.87"/><path id="Path_87" data-name="Path 87" class="cls-1" d="M234.28,330.22a1.38,1.38,0,0,1-.88-.67,3,3,0,0,0-4.08-1.48,3.22,3.22,0,0,0-1.35,1.31,21,21,0,0,0-1.34,4.46,50.6,50.6,0,0,0,2.47,6.44,4.55,4.55,0,0,0,6.35,1.77,4.92,4.92,0,0,0,1.84-2,11.86,11.86,0,0,0,.8-6.12,4,4,0,0,0-3.78-3.7"/><path id="Path_88" data-name="Path 88" class="cls-1" d="M337,446.11c-1.38-.66-2.53.7-3.15,2s-1.14,2.78-1.72,4.24a3.21,3.21,0,0,0-4.41,1.43,1.87,1.87,0,0,0-.15.32,1.45,1.45,0,0,1-.44.45c-2.35,1.88-2.51,3.54-.57,5.79.59.69,1.15,1.41,1.53,1.92a10.18,10.18,0,0,0,.18,3.48c.61,1.43,2.1,1.36,3.45,1.11.62-.1,1.25-.18,1.87-.27,1.21-.18,2.64-.37,2.86-1.82a10.61,10.61,0,0,0-.66-3.44c.29-.83.68-1.94,1.07-3.11.21-.6.4-1.72.61-1.73,1.71,0,2.44-1.54,3.61-2.37,1.42-1,2.2-2.95,1.09-4.19a16.81,16.81,0,0,0-5.15-3.88"/><path id="Path_89" data-name="Path 89" class="cls-1" d="M250.46,386.2a15.93,15.93,0,0,0-3,2.9,2,2,0,0,1-2.19.77,3.19,3.19,0,0,0-3.92,2.31,3.33,3.33,0,0,0-.11.53A13.37,13.37,0,0,0,241,395a3.3,3.3,0,0,0,1.5,3.34,3.45,3.45,0,0,0,4-.45c1.07-.87,2-1.95,3-2.87a4.33,4.33,0,0,1,1.59-.93,5.45,5.45,0,0,0,3.89-5.26,2.9,2.9,0,0,0-2.52-3.24,2.85,2.85,0,0,0-2.05.62"/><path id="Path_90" data-name="Path 90" class="cls-1" d="M343.84,394.56c-.9.19-1.71.81-2.61,1.09a3.72,3.72,0,0,1-1.66,0,9.38,9.38,0,0,0-2.67-.53c-2,.33-4.21,5.49-3.33,7.42.59,1.3,1.13,2.63,1.66,3.95a2.29,2.29,0,0,0,2.55,1.69,2.35,2.35,0,0,0,2.06-2.33c0-.69,0-1.37-.06-2.06,1.3,1.15,2.45,1.55,3.66.62a3.35,3.35,0,0,0,1.11-4.13c1.05-.81,2.3-1.33,2.78-2.27.94-1.84-1.22-3.95-3.5-3.46"/><path id="Path_91" data-name="Path 91" class="cls-1" d="M203.75,408.67a2.73,2.73,0,0,0-2.91-2.57h-.11a2.66,2.66,0,0,0-2.77,2.53.76.76,0,0,0,0,.15,2.47,2.47,0,0,0,2.27,2.66h.25a3,3,0,0,0,3.26-2.62c0-.05,0-.1,0-.15"/><path id="Path_92" data-name="Path 92" class="cls-1" d="M201.18,335.22a2.44,2.44,0,0,0,2.24-2c.64-2.56,1.35-5.11,1.76-7.72a2.26,2.26,0,0,0-3.72-2.13,6.38,6.38,0,0,0-1.83,3.13,45.42,45.42,0,0,0-.87,5.92,2.45,2.45,0,0,0,2,2.82,2.16,2.16,0,0,0,.44,0"/><path id="Path_93" data-name="Path 93" class="cls-1" d="M334.09,341.12A9.59,9.59,0,0,1,331.5,340c-1.53-1.28-2.87-1.45-4-.19a4.42,4.42,0,0,0-.41,5.37c1.76,1.65,3.53,3.3,5.36,4.87a2.29,2.29,0,0,0,3.33-.05,2.5,2.5,0,0,0,.63-1.23,2.38,2.38,0,0,1,1.23-1.32c2.37-.79,3.06-3,4-5,.24-.5-.29-1.51-.68-2.17a6.13,6.13,0,0,0-1.52-1.4c-2.52-2-4.49-1.32-5.36,2.21"/><path id="Path_94" data-name="Path 94" class="cls-1" d="M211.41,455.63a8,8,0,0,0-4.16-.13,3.9,3.9,0,0,0-2.18,3.84,2.66,2.66,0,0,0,.93,1.91c2.23,1.69,3.39-1.32,5.27-1.54.58-.07,1.07-1.26,1.68-2.08-.62-.84-1-1.87-1.53-2"/><path id="Path_95" data-name="Path 95" class="cls-1" d="M238.06,469.19a2.55,2.55,0,0,0-3.17-1.83h0c-4.18,1-4.56,3.47-4.75,6.26a2.55,2.55,0,0,0,2.13,2.9h0a2.46,2.46,0,0,0,2.6-2.29c.19-.89.32-1.54,1.45-1.73a2.55,2.55,0,0,0,1.82-3c0-.1,0-.19-.08-.29"/><path id="Path_96" data-name="Path 96" class="cls-1" d="M257.27,483.46c-1.55.09-2.53,1.44-2.45,3.37s1.09,3.08,2.59,2.95A3.35,3.35,0,0,0,260,486a2.6,2.6,0,0,0-2.65-2.57h0"/><path id="Path_97" data-name="Path 97" class="cls-1" d="M236.33,300.32a2.24,2.24,0,0,0,2.95-1.29,2.38,2.38,0,0,0,.15-1.18,11.65,11.65,0,0,0-.94-2.35,9.49,9.49,0,0,1-.7-2.46,2.81,2.81,0,0,0-1.55-2.76,2.39,2.39,0,0,0-3.09.82,17.49,17.49,0,0,0-1.33,2.67,11,11,0,0,0,4.52,6.55"/></g></g></svg>