<svg id="Layer_1" data-name="Layer 1" xmlns="http://www.w3.org/2000/svg" viewBox="0 0 568.04 568.04"><defs><style>.cls-1{fill:#fff;}</style></defs><path class="cls-1" d="M304,423.69a14.42,14.42,0,0,0-2.26,3.13c-1.06,2.92-1,7.53-2.9,8.62-4.69,2.62-9.06,6.67-15.53,5.39-7.1-1.4-14.85-.66-18.29-9.35-.51-1.27-3.27-2-5.09-2.31-4.88-.73-9.91-.68-14.71-1.7-3.08-.66-6.75-2-8.62-4.23-5.53-6.75-11.91-11.32-19.86-15.44-12.16-6.32-18.19-18.06-16.41-32.58.16-1.3.51-2.59.9-4.51-2.24-1-4.52-2.24-6.95-3-18.23-6-23.62-18.46-15.36-35.56.55-1.15,1-2.35,1.79-4.22-7.48-2.75-13.43-6.76-18.14-13.22-6.79-9.31-6.12-18.86-2.28-28.28,2.29-5.62,6.92-10.32,10.64-15.32,1.69-2.27,3.72-4.29,4.75-7.5l-2.91,1c-.32-.49-1-1.17-.9-1.44,3.59-7.41,6.69-15.14,11.09-22a19.3,19.3,0,0,1,17.78-9.29c5.42.33,9.28-.88,13-5.17,3.93-4.5,9.2-7.58,15.91-6.53,5.06.8,8.61-1.45,11.85-5.53,2.56-3.23,6.55-5.31,11-8.75l-23.4-17,4.62-2.55-34.09-19.92c2.16-3.39,5.41-3.39,8.68-3a49.82,49.82,0,0,1,20.48,7.11c8.66,5.32,18.2,9.18,27.09,14.15,8.55,4.78,16.75,10.18,25.72,15.69a24.36,24.36,0,0,0-3.71-18.16c-3.33-5.06-7.69-9.89-8.09-16.79,10.62,1.36,21.06,10.22,31.65,26.54,2.91-14.14,9.44-26,16-37.94l2.16.82c-2.4,6.81-5.21,13.51-7.11,20.46a270.91,270.91,0,0,0-6.33,28.07c-1.12,7-.51,7.06,6.88,15,2.46-8.76,4.77-16.68,6.89-24.66,2.38-8.93,4.57-17.91,6.87-26.87.25-1,1.21-2,1-2.75-2-7.39,4.12-10.27,8.23-16.19,1.78,7.73-.61,13.19-3.38,18a57.47,57.47,0,0,0-6.2,16.33c-2.38,10.55-5.34,21-8,31.46-.47,1.85-.56,3.79-1,6.51,1.86-.21,3.47.1,4.11-.55,6.47-6.61,14.93-9.68,23.08-13.34,4.24-1.91,8.34-4.14,12.54-6.14a30.9,30.9,0,0,0,14.56-14.09c3.27-6.09,9.35-10.66,14.2-15.9-5.94,11-11.87,21.94-17.17,31.73-3.86.85-7,1.05-9.65,2.2-7.9,3.39-15.41,7.82-23.51,10.57-6.15,2.1-10.19,6.1-13.63,10.88-1.49,2.08-2.73,6.47-1.64,7.78C322.24,235.51,326,237,329,237c2.66.07,5.46-2,8.06-3.36,3.05-1.61,6-3.51,8.93-5.28l.84,1.24-13.3,10.05,7.58,4.94c6-2.22,10.61-3.71,15-5.63a56.62,56.62,0,0,0,9.18-5.07c9.41-6.35,14.5-16.31,20-25.6,7.78-13.11,10.81-27.34,5.77-43.55l-5.25,5.67c1.89-4,3.78-8.05,6.11-13,10.3,24.24,3.35,52.37-24.78,79.5,5.75,4.67,12.5,8.55,17,14.24s10.35,12,6.06,20.45c12.62,6.16,20.77,14.31,19.61,28.86-.56,7.06-4.7,12.31-8.42,17.64-2.09,3-2.87,5.25-2.14,9,1.88,9.48.58,18.46-6.62,25.8a27.58,27.58,0,0,0-2.86,4.08c-5.42,8-11.7,14.54-21.21,13.26-4.32,8.05-8.13,15.26-12.06,22.41-.79,1.43-1.79,3.35-3.11,3.78-10.23,3.37-11.78,13.34-16.36,21-8.21,13.68-21.24,16.07-33.31,6,5.22.35,10.72,1.92,15.57.78,10.13-2.4,15.52-10,18-20.23-3.08-1.42-5.67-3-8.48-3.75-1.69-.48-5-.36-5.39.47-3.55,8.13-11.69,7.91-19.44,10.72ZM203.84,235.16c-15.11-.64-23.94,11.54-21.12,27.07,9.16-.82,9.16-.82,15,1.25-1.66.66-3,1.73-3.92,1.47-8.63-2.42-12.26,8.24-20.18,7.64-.62,0-1.39,1.32-2,2.07a39.53,39.53,0,0,0-9.41,23.61c-.51,7.5,7.34,19.82,14.29,22.48,5,1.92,10.18,2.31,15.33-.41a15.51,15.51,0,0,1,7.16-1.63c6.91.11,12-2.17,15.24-8.69,6-12.09,5.44-24.09.59-36.32-2.21-5.57-4.68-10.74-11.73-11.44C209.44,252.75,200.44,244.4,203.84,235.16ZM306.07,367.79c-5.93,3-11.26,5.42-16.38,8.28a11.65,11.65,0,0,0-3.86,4.3c-3,5-.7,19.11,3.68,23,1.17,1,2.83,2.35,4.16,2.24,6.44-.54,13.13-.68,19.13-2.72,2.86-1,4.41-5.86,6.55-9-4.89-5.25,1.63-9.62,1.28-14.6-.08-1.12,2.28-2.42,4-4.13.6,9.94.6,9.94,9.13,15.77.82.57,1.6,1.2,2.41,1.78,6,4.24,8.77,4,13.39-1.57,2.94-3.57,5.34-7.56,8.14-11.25,5.7-7.47,5.39-12.14-1.43-18.41-1.64-1.51-3.33-3-5.4-4.78-3.48,2.68-6.65,5-9.68,7.45C327.83,375.12,321.07,375.87,306.07,367.79Zm44.83-88.26c-2.45,1.54-4.44,2.8-6.94,4.36l-3.3-8c-4.2,0-8.19-.49-12,.1-8.38,1.3-10.72,4.2-9.94,12.62.57,6.1-.3,11.48-3.62,16.77a34.3,34.3,0,0,0-4.26,11.06,9.73,9.73,0,0,0,1.39,7.16c4.06,5.15,15,6.84,20.9,3.33,9.44-5.63,17.62-12.66,23.2-22.4S360.52,287.16,350.9,279.53Zm2.58,37.32c4.75,3,9,4.95,12.23,8,3.48,3.27,6.61,3.14,10.82,2,12.38-3.21,20.59-11.56,27.29-21.64,4.41-6.62,1.76-17.37-5-23.23-5.68-4.89-15.4-5.49-20.76.42-4.1,4.53-8.54,5.94-14.71,5.84C366.39,300.32,361.34,309,353.48,316.85Zm-133.66-.79c4.31,4.16,7.33,9.49,11.34,10.38,5.37,1.19,12.54.64,17.1-2.16,11.27-6.92,18.88-17.55,16.2-31.45-2.37-12.29-4.57-18.09-18.73-14.95a114,114,0,0,0-14.08,4.5c-4.25,1.54-5.69,4.32-5.25,9.25C227.12,299.76,227.84,308.29,219.82,316.06Zm3.31-41.71c7.08-2.35,12.81-8,21.06-7.79,1.6.05,3.64-4.09,4.9-6.58,1-2,.95-4.44,1.62-6.61,3.74-12.14,1.08-19.11-9.91-25.69-7.78-4.66-15-4.91-21,.85-6.65,6.35-14.41,13.59-10.66,23.87C212.05,260.43,215.27,269.11,223.13,274.35Zm68.11,1.18c-4.29,1.07-7.73,1.38-10.65,2.79-3.61,1.75-7,4.63-6.36,9.19,1.66,12.22-3.48,22-10.54,31.12-4.09,5.3-2.29,10.46,4.36,11.52,2.17.34,5.23.44,6.65-.79,6.23-5.37,14.16-5.12,21.37-6.81,3.76-.89,6.12-2.09,7.2-5.57,1.25-4,4.09-8.69,3.07-12.12-2.53-8.42-1.81-18.12-8.33-25.08C296.12,277.76,293.2,276.72,291.24,275.53ZM262,355.08c.87,2.14,1.64,3.3,1.8,4.55,1.32,9.77,2.41,10.26,12,10.75,15.5.8,26.41-7.21,36.09-17.7,4.29-4.63,3.78-13.26-.37-18.58-3.87-5-7.56-5.69-14.72-3.05-2.17.8-4.45,1.32-6.68,2-8.49,2.55-16.83,5-20.44,14.73C268.62,350.53,265,352.32,262,355.08Zm-47.35-35.2c-7.68,2.22-15.23,4.33-22.72,6.64a11.63,11.63,0,0,0-4.13,2.63c-5.71,5.2-10,12.39-5.68,22.21,4,9.06,13.37,15.19,22.12,13.63,3.09-.54,6.67-2.05,8.7-4.31C223.29,349.15,228.54,332.91,214.62,319.88ZM344,271.74c3.49-12.32,1.31-19.41-7.9-25.18-7.23-4.53-15.46-5.87-23.78-6.27-4.8-.24-10.5,4.78-12,10.22-1.8,6.56-2.36,13.44,3.06,18.42,3.8,3.49,8.92,5.56,13.9,8.54C324.82,269.48,334.72,271.67,344,271.74Zm18.93,62.72c-4-1.41-7-2-9.53-3.45-5.14-2.9-9.39-2.92-14.57.74-4.94,3.49-11.14,4-17.19,1.62a26.56,26.56,0,0,0-4.48-1c.78,6.37,2.93,12.4,1.76,17.71s-5.65,9.87-8.82,15c7,5.12,12.86,4.84,19,.34,5.78-4.26,11.42-9.12,17.89-11.91C355.5,349.77,359.38,343.26,362.93,334.46Zm-10.4-59.65L354.2,276c3.45,2.53,6.73,6.75,10.4,7.12,3.42.34,7.25-3.41,10.9-5.37,1.46-.79,3-1.51,4.36-2.4,6.25-4,8.12-10.52,5-17.17-5.58-11.82-16.78-16.13-30.75-11.86-5.25,1.61-6.11,3.33-5,8.81C350.29,261.17,351.21,267.25,352.53,274.81ZM241,372.29c-5.43-.47-9.71.08-13.12-1.39s-5.76-4.92-8.51-7.43c-9.16,5.62-16.84,12.39-12.77,23.87,2.81,7.91,8.11,14.91,16.77,17.5l8-6.68a12.66,12.66,0,0,0,2.36.54c2.42,0,4.84,0,7.26-.07-.19-2.44-.2-4.92-.63-7.32-.61-3.47-2.14-6.89-2.14-10.33C238.19,378.24,239.88,375.5,241,372.29Zm24.13-102.38c1,8.35,2.19,9.09,8.47,5.7,4.64-2.52,9.56-4.57,14-7.35a11.15,11.15,0,0,0,4.55-5.71c2.08-7.17-.16-13.54-5.46-16.66-5.95-3.49-11.27-2.76-16,2.53-2.49,2.76-3.85.84-4.86-2.65l14.72-7.15c-14-5.1-25.69,9.24-23.79,28.87Zm.3,67.56-12.72-9.59c-7.55,3.16-13.71,7.36-22.06,4.28-1.9,11.84-5.58,22.59-1.38,33.74,7.33,1.81,12.76,1.36,16.75-2.7C253.13,355.93,261,349.16,265.42,337.47Zm12.58,40c-5.13-1.42-10.05-1.81-13.8-4.12-3.53-2.17-5.83-6.36-10.22-11.44.48,4.65.72,6.92,1,9.32a21.68,21.68,0,0,0-3.78,1.21c-8.32,4.44-9.59,9.86-4.77,17.92,4,6.75,10.64,10.08,17.31,12.79,7.61,3.09,14.48-2.66,14.31-11C277.92,387.24,278,382.32,278,377.44Zm-9.75,33.16a39.72,39.72,0,0,1-.05,5.15c-.26,1.94-1,3.83-1.3,5.77s-.93,4-.52,5.73c1,4.4,6.76,8.34,11.84,8.8,6.67.6,13.22-.55,16.4-6.71,2.75-5.31,3.48-11.67,4.92-16.89l-18.86-10.11ZM393.14,327c-6.74,1.71-13.24,3-19.46,5.12-2.54.88-4.84,3.29-6.54,5.54-2.16,2.87-3.62,6.28-5.38,9.46-2.64,4.78-2,10.78,1.43,13.44,5.56,4.3,10.71,4.73,15.18-.1A167.88,167.88,0,0,0,393.64,341C396.24,337.13,397.4,332.4,393.14,327ZM286.73,235.28c-1.72-9.55-7.43-16.09-14.67-20.87-11.69-7.72-23.72-4.68-30.56,7.68,2.87,2.27,6.24,4.34,8.85,7.14,2.82,3,4.92,6.73,7.77,10.74,4.14-1.74,8.38-4.43,13-5.23S280.74,235,286.73,235.28ZM232.24,411.09c4,8.62,10.06,13.9,19.2,13.48,7.59-.36,9.48-6.83,11.13-12.88C252.15,399.1,244,400.6,232.24,411.09ZM281.18,215c-.83-13.08-22.51-29.68-41.07-30.27C253.44,196.41,265.21,208.69,281.18,215Zm13.69,15.22c2.2,2.43,4.54,5,7.47,8.24l9.58-6.12c-1.08-7.54-3.87-12.45-10.53-13.67Zm13.63,72.47c6.11-4.86,7.13-9.26,4.8-16.87-2.13-6.93-6.58-10.51-15-10.62C309.64,281.27,307.12,292.1,308.5,302.71ZM296,198c0-7.92-2.22-13.1-9.35-16.39C286.46,189,288,194.52,296,198ZM291.36,212c1.49-5.19-.49-9.29-2.59-14C284.37,206,284.51,206.68,291.36,212Zm70,117.11c-4.77-5.61-4.77-5.61-9.58-1.79ZM291.55,235c1.1,2.91,2.21,5.82,4,10.5C299.11,238.62,296.06,236.51,291.55,235Zm-2.05-18.45c-2.53,5.15-.31,5.93,4.56,7Z"/><path class="cls-1" d="M325.13,150.32l-8,1.23c2.51-4.67,4.34-8.09,6.18-11.5l1.78.66Z"/><path class="cls-1" d="M186.26,276.54c.5,6.1-6,4.74-9.12,8.51,1.5,7.16,3,14.33,4.74,22.54-7.62-8.29-11.21-20-7.21-24.88C177.33,279.48,180,273.91,186.26,276.54Z"/><path class="cls-1" d="M349.94,223.3c5.24-1.73,1.66-9.58,10.49-11.1l-8.22,13.09Z"/><path class="cls-1" d="M277.58,366.14l-3.83-7.26,1.82-1.08,4.68,6.58Z"/><path class="cls-1" d="M197,335.1c.85,7.14,1.61,13.51,2.33,19.58C191.37,348.88,190.26,342,197,335.1Z"/><path class="cls-1" d="M241.29,338.52l-4.87,15.2c-4.38-2.44-3.06-6.73-2.07-10.26S237.52,337.18,241.29,338.52Z"/></svg>