<svg id="Layer_1" data-name="Layer 1" xmlns="http://www.w3.org/2000/svg" viewBox="0 0 568.04 568.04"><defs><style>.cls-1{fill:#fff;}</style></defs><path class="cls-1" d="M234,113.71c.43,1.25.79,2.54,1.33,3.75.25.56.86,1,1.78,1.94,3-2.86,5.79-6.05,9.11-8.53a92.33,92.33,0,0,1,14.86-9.64c4.36-2.1,8.17-4.11,10.2-8.78a61.21,61.21,0,0,1,4.08-6.85c6-10,15.22-11.63,24.16-4.15,3.4,2.83,6.58,5.92,9.86,8.89l1.51-1.52-4.32-6c4.86-3.07,6.64.64,7.93,3.16,3.43,6.73,6.32,13.74,9.44,20.63,1.5,3.32,2.73,6.84,4.68,9.88a15.15,15.15,0,0,0,5.62,5.07c6.76,3.51,13.86,6.34,20.56,10,5.88,3.17,10.77,4.15,16-1.53,3.3-3.6,8-5.83,11.89-9,4.26-3.5,8.75-4.1,15.12-1.9-8.22,6.64-16.22,12.27-23.21,19a204.33,204.33,0,0,0-19.09,21.71c-6,7.75-11.36,16.08-18,25.59,12.9,27,22.5,56.34,24.66,87.81l2,.27c2.41-4.44,5.18-8.73,7.16-13.36,6.11-14.29,15.16-27.8,15-44-.15-13.83,2.2-27.61-.09-41.54-1.75-10.62,4.27-19.61,7.53-29.47,5.39,2.86,3.77,6.34,2.49,9.18-3.84,8.54-2.91,17.17-2.43,26.21.8,15.14,2.45,30.55-1.73,45.47a191.45,191.45,0,0,1-8.62,23.17c-2.72,6.41-6.11,12.54-9.22,18.78-.89,1.79-1.42,4.14-2.86,5.2-10.53,7.75-11.51,19.77-13.58,31-3.33,18.05-12.2,33.74-20.54,49.5-4.54,8.56-12.33,15.39-18.59,23.05-1.28,1.57-2.28,3.38-4.7,7,20.5-4.21,27-22.19,41.3-30.81-.54.77-1,1.59-1.64,2.31a8.15,8.15,0,0,0-2.15,3.49,51.82,51.82,0,0,0,16.74-14.8c17.61-23.53,31.21-49.25,41.87-76.6,6.24-16,7.72-32.89,9.73-49.7a98.62,98.62,0,0,0-5.37-46c-6.14-17-7.54-34.79-9.16-52.66,3.87-2.1,6.78-2.37,8.29,2.85a89.34,89.34,0,0,0,5.3,14.75c5.93,12.06,11.19,24.07,9.13,38.13-.6,4.14.89,8.57,1.23,12.88a185.1,185.1,0,0,1-10.53,78.4,45.18,45.18,0,0,0-1.45,26.29c6.44,28.59,1,55.42-15.32,79.74a56.94,56.94,0,0,1-12.39,12.65A274.11,274.11,0,0,1,365,401.62c-4.43,2.73-9.66,4.27-14.68,5.88-8.82,2.85-18.19,4.41-26.51,8.28-7.1,3.31-14.58,7.73-16.54,17.68,3.27,0,5.88-.23,8.43,0,6.63.7,10.83,5.71,10.32,12-.74,9-7.72,14.11-16.49,11.71-3.47-1-6.71-2.8-10.53-4.45-.71.94-2,1.86-2.1,2.9-1.63,15.43-9.68,28.77-13.91,43.33-.82,2.81-1.53,5.93-1.13,8.75,1.22,8.72.14,17.08-2.54,25.88l-21.6-6c-3,3.25-5.18,9-12,9-3.56,0-6.07-.76-7.13-3.9-2.6-7.67-3.21-15.85-8.07-23-1.82-2.67-.55-7.83.07-11.73,2-12.54,1.52-24.9,0-37.53-1.37-11.52-3.08-22.66-8.11-33.15a5.31,5.31,0,0,1-.59-2.91c2.27-13.64-7.18-20.52-16.19-27.21-5.54-4.11-12-7-18.08-10.39a24,24,0,0,1-3.48-2c-14.58-11.91-29.48-23.47-43.48-36-5-4.46-8.53-11-11.33-17.23-8.13-18.06-18.73-35.28-20.41-55.72-.24-3-1.22-6-.72-8.83,3.42-19.39-1.26-38.35-3.11-57.4-1.08-11.13-4.54-22-6.6-33.06a170.43,170.43,0,0,1-2.33-18.71c-.45-6,3.37-10.19,9.5-10.13,9.48.08,19.36-1,27.59,7.15,1.24-2.76,2.45-4.7,3-6.81,3.63-13.82,13-24.54,19.93-36.53,2-3.43,6.3-5.54,9.61-8.18,1.29-1,3.07-1.59,4.08-2.81C179,89.5,193,87.09,204.9,81.05c5.13-2.6,12.64,1.14,15.24,7.19,2,4.52,3.64,9.16,6,15.09L244,101.07l-6.14,7.2c-2.1-3.56-5.07-3.61-7-.53C229.07,110.46,229.21,113.75,234,113.71Zm54,12.7c-10.3,13.83-19.23,25.76-28.09,37.74-2.36,3.19-4.17,6.84-6.83,9.73-7.84,8.49-15.1,17.37-20.75,27.52-.92,1.66-2.63,2.86-3.88,4.35-2.31,2.75-5.3,5.22-6.69,8.39-6.68,15.15-14.07,30.14-19.06,45.87-7.76,24.43-12.51,49.42-9.19,75.53,1.94,15.27,8.38,27.74,18.69,38.38,8.7,9,18.21,17.18,27.46,25.82l2.31-11.37,6.44,7.88c6.32-1.63,11.13-3.39,16.09-4,5.58-.7,11.33,0,16.92-.64,4.85-.57,10.43-1,14.19-3.6a174.85,174.85,0,0,0,23.38-19.76c9.23-9.26,15.45-20.83,21.22-32.44,3.68-7.4,7.69-15.11,9-23.11,3.57-21.24,6.9-42.72.25-64.11-3.55-11.41-5.8-23.45-10.89-34.13-11.72-24.57-24.6-48.59-37.53-72.55C298.29,136.57,293.25,132.42,288.08,126.41ZM206.5,227.54c6.08-9.68,11.66-19.27,17.95-28.38s13.36-17.88,20.2-26.94L193.91,124c-3.18,5-5.79,8.31-7.61,12a287.82,287.82,0,0,0-27.11,88.14c-4.25,31-6.81,61.89-2.2,93a153.41,153.41,0,0,0,6.67,28c5.32,15.25,18.62,23.09,31.54,30.92,1,.6,3-.4,5.32-.8-1.57-2.6-2.61-4.6-3.9-6.41-9.88-13.88-13.55-29.53-11.86-46.18,1.77-17.51,4.37-34.95,7-52.35.94-6.21,2.15-12.7,4.91-18.22,4.27-8.55.45-17.5,2.8-26.22,1.26-4.69-1.76-10.94-3.92-16-2.1-4.92-.06-7.5,3.85-10.52-.32,4.93,4.37,9.32-.17,13.94Zm-59.95,24.28c4.83-5.88,4.73-11.91,3.81-18.11-.21-1.44-1-3-.66-4.28,3.5-14.4,7.16-28.75,10.79-43.13-10-8.68-19.44-16.38-28.25-24.75-6.47-6.15-14.27-8.32-22.53-9.31-7.27-.86-9.62,3-6.44,9.61.6,1.23,1.65,3.38,1.22,3.79-4,3.91-1.61,8-.83,12.15,2.39,12.64,3.66,25.62,7.33,37.88,4.58,15.32,3.15,30.84,3.57,46.21.3,11,.84,21.82,4,32.33,6.24,21,17.82,39,32.64,54.94,1.37,1.47,3.17,2.54,5.72,4.53,0-2.42.28-3.44,0-4.21-4.56-10.83-6.25-22.43-6.18-33.86.07-10.72-4.55-21-2.28-31.76.26-1.22-.94-2.94-1.83-4.18-2.16-3-2.79-3.86-1.91-4.78C151.44,267.7,149.59,259.87,146.55,251.82ZM209.45,87c-3.06,1.32-5.4,1.87-7.19,3.17-8.28,6.08-16.78,12-24.5,18.7a280.53,280.53,0,0,0-24.07,23.71c-3.89,4.32-6.34,10-9.16,15.21-.7,1.29-1,4-.25,4.66,4.3,4-1,7.29-.74,11.1l14.28,10.6c3.57-7.37,7.35-13.95,10-21,2.53-6.8,10-11.2,9.16-19.57a3.05,3.05,0,0,1,1.31-2.53c8.08-2.38,5.74-9.16,6.36-14.68a8,8,0,0,1,.46-1.4l1.93,7.23,12-6.51-8.32-3.9c2.46-1.3,4.92-1.86,6.61-1,6.66,3.56,13.59,6.82,17.33,14.17,2.11,4.13,5.07,7.76,11.54,8.28-4.32-13.21-8.36-25.82-12.6-38.37C212.78,92.53,211.21,90.34,209.45,87Zm44.16,73.62c5.3-7.08,9.94-12.95,14.21-19.08a151.76,151.76,0,0,0,9.95-15.92c4.1-7.8,5.72-8.66,14.07-5.27,12.42,5,19.93,15,26.09,26.27,3,5.48,6.19,10.85,9.3,16.28-1.65-40.6-11.07-59.39-38.89-78.73-2.06,2.5-4.57,4.8-6.18,7.62-9.17,16.13-18.4,32.23-27,48.67C252.33,145.92,250.26,152.19,253.61,160.64ZM394.06,321c-1.53,2.49-3,5-4.61,7.44-5.23,7.64-9.63,16.13-16,22.64a412.13,412.13,0,0,1-35.47,31.72c-6.58,5.3-13.92,10.12-23,11-6.88.65-12.09,3.23-11.62,11.74.13,2.44-1.73,5-2.5,7.49-1.19,4-2.22,8-3.32,12l2.8,2c1.16-1.95,2.36-3.87,3.45-5.86,3.66-6.65,8.67-11.33,16.27-13.61,5.94-1.79,11.53-4.87,17.13-7.67,1.86-.93,3.16-2.91,4.89-4.18,4.1-3,8.56-8.6,12.39-8.23,10.41,1,14.58-5.64,19.77-11.95C387.12,359.74,391.08,340.59,394.06,321ZM355.64,141.89c-12-9.91-15.94-11.83-22.81-11.35,1.2,9,2.39,18,3.61,27.28C347.28,156.92,350.19,148.06,355.64,141.89ZM257,115.15,254.68,114c-8.76,6.24-15,14.7-19.39,24.42-3,6.5.2,13.22,6.55,16.85Zm-3.53,336.9c-3.31-1.29-4.52-.75-4.71,2.67-.86,15.14-2,30.26-3,45.39-.28,4.59.06,9.22-.3,13.81-.42,5.43-1.3,10.82-2,16.23l2.25,1c1.4-1.82,3.29-3.46,4-5.52s.58-4.58.57-6.89c-.07-19.73-1.16-39.5,2.32-59.1C253.1,457.09,253.19,454.53,253.44,452.05Zm12.3-48.8c-2.11,7.09-1.11,14.24,0,21.45.5,3.24,1.48,6.62,5.1,5.72,2.12-.52,4.83-3.85,5-6.11C276.56,415.92,277.08,407.14,265.74,403.25Zm127.92-47.72,2.95.69c5-11.34,13-21.89,9.63-35.46l-2.4-.66Q398.76,337.82,393.66,355.53ZM262.43,441.24c8.61,1.31,16.51,2.81,24.48,3.52,2.11.19,4.43-2,8.5-4.05-9.91-1.95-17.33-3.55-24.81-4.81C266.9,435.28,263.14,435.41,262.43,441.24Zm59.27-.05c-7.66-2.81-13.27-1.4-18.42,3.77,2.77,5.11,5.35,9.53,11.49,8.72Zm-49.77,39.94c3.44-10.84,5-19.46,2.33-28.88-2.07,1.59-4.13,3.46-4.39,5.55C269,464.82,266.21,472.06,271.93,481.13Zm-45-52.39c9.13,6.08,18.55,8.24,27.83,10.61.77.2,2.08-1.74,3.84-3.31-5.85-2-10.56-4.05-15.48-5.13S234,424.34,226.94,428.74Zm35,50.86c-3.5,10.44,1.34,18.07,6.16,25.71l2.31-.79Q266.13,492.07,261.9,479.6Zm-18.93-54,2.28.67c.86-1.47,2.45-2.93,2.46-4.4,0-4.33-5.43-15.1-9.06-18,1,4.28,2,7.71,2.66,11.2S242.43,422.08,243,425.58Zm44,26.81c-3.59,4.15-5.18,12.85-3.74,20.46C288.07,466.11,288.9,461.57,287,452.39Zm-32,52c1.6,6.26,0,11.07,2.79,15.93C263.6,510.67,263.6,510.67,255.05,504.43ZM253,445c-4.93-3.39-9.9-6.68-17.71-4.63C241.3,445.21,246.48,447.39,253,445Zm-32.81-47.28,11.48,13.92C230.09,400.82,229.24,399.7,220.14,397.75ZM418.87,152.62l-3,.65q2.7,8.37,5.42,16.74l2.05-.62Q421.13,161,418.87,152.62ZM289,421.44l-2.36-1.16c-3.51,2.16-4.75,5.28-2.32,10.08Zm-5.56-11.58,2.43.76,2.22-6.77-1.49-.62Zm-25.4-6.73-2.54-.42-1,5.55,2.12.46C257.08,406.86,257.56,405,258.05,403.13ZM388.91,365.5l1.33.57,1.95-4.62-1.23-.51Q389.92,363.22,388.91,365.5Z"/><path class="cls-1" d="M358.47,200c6.68,8.25,12.28,16.46,14,26.87-3.44,2.55-5.69,1.14-7.48-1.72-2.81-4.47-5.51-9-8.3-13.51C354.18,207.55,353.85,203.82,358.47,200Z"/><path class="cls-1" d="M366.48,304.82c5.58-3.4,8.88-10.39,16.74-10.18C378.26,299,374,304.51,366.48,304.82Z"/><path class="cls-1" d="M399.71,239.38l7.76-6.52C411,237.21,409.19,239.57,399.71,239.38Z"/><path class="cls-1" d="M358.14,341l5.64-3.12,1,1.82-5.65,3.1Z"/><path class="cls-1" d="M264.21,341.23c1.19-6.18.06-12.91,6.36-17a3,3,0,0,0,1-2.66c-3.52-7.77,3.43-14.28,2.37-22-1-7.16.31-14.61.3-21.93,0-8.9-.91-17.52,4-26.09,2.89-5,2.9-12,3.05-18.16.45-17.9.26-35.81.47-53.72,0-3.65-1.26-8,5-11.55,0,5.06-.1,8.75,0,12.44.33,10.63,1.14,21.26,1,31.88-.12,6.89-1.83,13.73-2.5,20.62-1.14,11.54-2.19,23.1-3,34.66-.82,12.56-1,25.08-4.17,37.47-2.39,9.25-2.75,19-4.14,28.53a36.1,36.1,0,0,1-1.73,5.72C270.89,343.47,268.19,343.18,264.21,341.23Z"/><path class="cls-1" d="M293.92,257.4l39.45-16.29c-.85,2.59-.87,4.08-1.62,4.74-9.49,8.31-21.08,11.63-33.18,13.65C297.84,259.62,297,258.81,293.92,257.4Z"/><path class="cls-1" d="M220.68,323.14c9.14,11,19.25,18.74,22.81,31.43-10.68-5.28-16.15-15.44-23-24.19C219.62,329.34,220.49,327,220.68,323.14Z"/><path class="cls-1" d="M295.91,325.87c7.31-8.89,20.67-8.47,25.43-19.07,5.06,1.88,4.44,5.66,2.05,7.16-7.75,4.86-16,8.89-24.18,13.11C298.68,327.34,297.57,326.5,295.91,325.87Z"/><path class="cls-1" d="M236.84,274.78c9,7.38,13.11,16.55,17.89,25.79C246.4,300.48,238.61,289.32,236.84,274.78Z"/><path class="cls-1" d="M281.43,366.23c1.48-.53,3.08-1.73,4.42-1.49,7.66,1.39,13.12-3,19-6.61a11.12,11.12,0,0,1,7-1.46c-8.42,6.58-16.23,14.6-28,12.74Z"/><path class="cls-1" d="M313.65,209.69c-2.62,5.56-6.49,9.31-12.68,9.88C303.81,214.47,306.53,209.26,313.65,209.69Z"/><path class="cls-1" d="M257.9,248.07c-6.19-.92-9.19-3.54-8.88-9.13C255,239.62,255,239.62,257.9,248.07Z"/><path class="cls-1" d="M212.31,180.46c2.55,8.43,2,9.61-6.4,15.12C208.44,189.6,210.38,185,212.31,180.46Z"/><path class="cls-1" d="M128,271.25V239.84h2.23v31.41Z"/><path class="cls-1" d="M121.78,186c4.48,3.88,5.35,8.92,4.47,16.05-3.13-5.92-5.74-10.46-4.26-16.23Z"/><path class="cls-1" d="M122,185.79c-3.64-3.49-3.64-3.49-4.59-10.67,3.14,3.91,5.85,6.44,4.38,10.85Z"/></svg>