<svg id="Layer_1" data-name="Layer 1" xmlns="http://www.w3.org/2000/svg" viewBox="0 0 568.04 568.04"><defs><style>.cls-1{fill:#2699fb;}</style></defs><path class="cls-1" d="M222,111.68c4.26-4.4,7.11-5.23,11.66-1.39,7.17,6,14.22,12,19,20.18,1.13,1.93,2.77,3.57,5.29,6.76,4.62-14.4,10.29-27.22,12.59-40.62,2.33-13.6,1.31-27.76,1.77-41.9,8.46-3.36,13.09,2.84,19,6.9l10.88-5.16c-.61,4.68-1.1,7.76-1.38,10.85-.57,6.18-2.66,12.77-1.22,18.46,3.51,13.82,1.45,27.05-1.24,40.44-1,5.08-2.24,10-4.84,14.69a27.39,27.39,0,0,0-2.79,20.25c1.53,6.06,3.28,12.05,5.66,20.73,2.4-4.67,4.23-7.16,5-10a100.35,100.35,0,0,1,15.31-32.21c2.86-4,4.67-8.7,7.58-12.63,1.21-1.64,4-2.1,6.13-3.1l1.95,1.69c-.77,2.62-1.24,5.38-2.36,7.84-7.89,17.28-14.31,35-17.44,53.83-1.09,6.58-2.38,13.12,2.12,19.16,1.87,2.52,1.63,5.05.34,8.29-2.51,6.24-2.15,12.88-.49,19.57,1.91,7.69,2.87,15.62,4.53,23.38a19.46,19.46,0,0,0,3,7,158.19,158.19,0,0,1,24.6,56c1.6,6.91.22,14.49.26,21.77,0,3.9-1,8.29.41,11.63,7.86,18.47,5.36,37.15,2.14,55.94a123.82,123.82,0,0,1-15.38,41.83c-3.76,6.43-9.72,11.58-14.79,17.22q-6.27,7-12.8,13.69a8.18,8.18,0,0,1-2.73,1.43c-13.74-14.11-27.29-27.6-40.29-41.6-4-4.29-6.95-9.72-9.54-15-3.33-6.84-5.63-14.17-8.74-21.13a65.81,65.81,0,0,0-6.8-12.09,104.66,104.66,0,0,1-18.92-43.57c-4.79-27-6.46-54.09,1.84-81,2.71-8.8,3-18.31,5.05-27.36,3.16-14.14,6.81-28.16,10.31-42.22,1.2-4.83,2-9.9,4-14.39,4.65-10.39,4-20.61.7-31.1C236.62,139.55,232.54,124.13,222,111.68ZM304.5,470.37c4.85-4.66,6.91-8.58,5.27-13.94-2.6-8.48-5.35-17.31-14.24-19-3.18-6.16-5.46-11.23-8.32-15.95-6-9.88-9.58-20.06-8.62-32,1-13,5.59-24.54,11.86-35.56,3.29-5.8,7.31-11.07,6.17-18.4-.25-1.62,1.18-3.62,2.14-5.28,2.09-3.61,4.91-6.88,6.48-10.69,9.16-22.28,8.91-45.49,5.32-68.7A129.87,129.87,0,0,0,294,203.74a21.34,21.34,0,0,0,.86,9.32c2,6.31,4.52,12.48,6.58,18.78,6.23,19,8.83,38.67,1.21,57.53C294,310.71,291.12,334,278.87,354.12c-4.06,6.64-5.95,14.79-7.89,22.49-4.92,19.47-5.18,39,3.53,57.52,6.28,13.36,16.83,23.8,26.64,34.62C302,469.64,303.45,469.88,304.5,470.37Zm-57-78c-.34-12.59,1.48-23.44-2.46-34.4-11.28-31.38-17.07-63.44-10-96.74,3.32-15.54,7.07-31,10.24-46.57,1.47-7.2,4.85-14.63-.74-23.19-2.43,9.72-4.8,18.25-6.66,26.9-3.62,16.81-7,33.68-10.38,50.54-1.89,9.43-4.56,18.83-5.21,28.36-1.67,24.68,0,49.13,10.29,72.14C236,377.06,238.52,385.52,247.49,392.35Zm2.9-45.22c4-7.41,5.42-13.35,4.17-20.34-2.75-15.44-3.52-31-.25-46.53,2.11-10,4-20.09,5.25-30.23,1-8.45,2.65-16.93,0-25.59-1.63-5.28-3.6-11.78-1.9-16.44,2.75-7.56.64-13-3.12-18.9,3.26,16.31-5.59,30.5-7.72,45.83-2,14.4-6.68,28.6-7.16,43A184.45,184.45,0,0,0,250.39,347.13Zm8.29,66.54,2.42.22c0-1.52-.06-3.05,0-4.57.45-9.24-.72-18.94,1.72-27.61,5.65-20,13.47-39.48,19.59-59.4,3-9.68,6.48-19.32,5.86-30-.47-8-.35-15.8-4.8-22.91-1-1.54-.75-3.78-1.46-5.55a25.92,25.92,0,0,0-2.69-4.25c-.23,14.45-1.11,28.22-5.48,41.7C269,316.43,264.42,331.66,260.1,347,253.84,369.09,254.77,391.38,258.68,413.67ZM317.41,410c9.91-16.2,16.63-33.28,19.39-51.7,1.1-7.39-1-14.35-4.52-21-3.24-6.08-5.82-12.52-8.95-18.65-1.37-2.69-3.42-5-6.12-8.9C314,318.56,312,325.48,309,332c-2.9,6.35-2.66,12.39.88,17.91,6.24,9.71,5.27,21,7.17,31.52C318.73,390.67,317.41,400.46,317.41,410Zm1.87,48c17.5-15.47,31.38-67.94,23.6-85.27l-30.13,71.39C314.67,448.23,316.78,452.7,319.28,458ZM275.54,230c4.58-11.57,6-23.57,2.93-35.43-4.72-18.3-10-36.4-8.45-55.61a22.38,22.38,0,0,0-.5-4.19C256.8,167.59,266.71,198.72,275.54,230Zm26.69,198.16,3.28.11c6.81-25.24,6.75-50.26-3.87-75.06-5.91,9.15-12.81,18.07-6.22,29.49,4.33,7.5,5.12,15.63,5.6,23.93Q301.62,417.41,302.23,428.17ZM298.86,278.9c2-22-3.94-40.49-11.47-60.6C281.58,238.23,287.69,267.64,298.86,278.9Zm20.29,22.18c10.92,7.77,12.88,20.89,19.51,32.66,3.2-8.05-.19-14.27-1.28-20.37s-3.12-12.44-6.55-17.45-3-12.76-10.18-16.09C320.13,287.18,319.67,293.72,319.15,301.08Zm-57,7.75c3-9.23,7.38-17.86,7.75-27.8.78-20.65.53-24.16-3.42-28.73C263.07,271.08,258.19,289.51,262.19,308.83ZM278.7,139.6C276,154,284.11,189.5,293,198.25c-4.64-19.73-12.72-36.85-11.64-55.68C281.37,141.92,280.16,141.2,278.7,139.6Zm14,273.27c1.78-8.95-.31-15.28-4-22C285.16,399.79,285.67,402.93,292.71,412.87Zm-47-271.66c2.46,8.64,4.49,15.74,7,24.71C255.92,155.22,254.45,148,245.68,141.21ZM280,64.6c.47,4.59.87,8.48,1.43,13.89C286.83,70.11,286.83,70.11,280,64.6Zm9.64,51.47,2.32.06.9-14.67-2.15-.16C289.86,106.18,287.59,110.94,289.59,116.07Z"/></svg>