<svg id="Layer_1" data-name="Layer 1" xmlns="http://www.w3.org/2000/svg" viewBox="0 0 568.04 568.04"><defs><style>.cls-1{fill:#2699fb;}</style></defs><path class="cls-1" d="M253.18,104.46c.34-4.88.43-9.8,1.08-14.64,2.16-16.17,11.45-28,23.61-38,2.82-2.32,6-4.24,8.6-6.78,6.88-6.73,14.81-7.67,24.21-7.25,11.87.53,23.85-1.33,35.76-2.36.91-.07,1.68-1.69,2.31-2.37,3.24,1.6,6.28,3.56,9.61,4.62,4.58,1.47,7.19,4.2,8,8.89a61,61,0,0,0,1.83,6.7c3.12,10.3,3.13,10.3,11.78,15.37l-8.49.55c-.45.9-1.21,1.74-1.24,2.61-.58,13.9-6.15,26.57-13.44,37.5A71,71,0,0,1,327,134.54c-8.15,3.67-16.08,7.85-24,11.92a7.42,7.42,0,0,0-3.73,4.84c1.65-.18,3.31-.25,4.93-.56,10.7-2.1,21.33-4.66,32.1-6.26,11.07-1.65,20.93,2.45,29.82,8.72,6.21,4.39,12.16,9.18,18,14.05,5.64,4.68,11.71,6,18.59,3.47a56.88,56.88,0,0,0,6.45-2.68c8.33-4.28,16.92-4.87,26.12-3.26,15.08,2.63,29.81,1.85,43.25-6.82,3.42-2.21,7.06-4.51,12.66-2.49-17.54,13.12-36,17.57-56,13.31-11.28-2.39-20.84,1.05-31.29,5.61l8,7.48c-1,3.15-2,6.36-3,9.57l-1.73.07c-.48-1.67-.67-3.5-1.5-5-1.22-2.17-3.15-5.9-4.34-5.74-3.28.45-6.57,2.23-9.37,4.17-1.41,1-2,3.41-2.57,5.3-2,6.63-5.77,10.75-13.28,11.44-2.95.27-5.89,2.76-8.42,4.76-3.27,2.59-6.31,5-11.15,2.5,3.14-16.8,13.75-27.15,30.69-33.69-4.68-3.27-8.07-5.71-11.53-8.06-4.9-3.32-10-6.34-14.71-9.91s-9.33-4.9-14.78-2.45c-2.12,1-4.65,1.6-6.19,3.17-9.72,9.88-20.74,18.64-26.16,32.16a149.67,149.67,0,0,1-14.23,27c-.52-2.34-2-4.93-1.41-7,3.79-14.15,8.38-27.87,19.63-38.38,6.94-6.49,13.12-13.79,20.7-21.86-3.44,0-5.73-.55-7.62.1-10,3.41-20,7-29.89,10.8-6.48,2.52-13.24,4.85-19,8.63-10.49,6.9-18.19,16.19-19.69,29.41a20.05,20.05,0,0,1-1.62,6.77c-6,11.78-4.69,23.71-1.15,35.76a20.36,20.36,0,0,1,.78,9.43c-1.1-1.51-2.85-2.89-3.19-4.55-3.2-15.54-7.65-30.85-8.23-46.89a67.18,67.18,0,0,0-2.92-16.6c-3.77-12.63-6.68-25.82-18.29-34.35-3.52-2.58-6.79-5.92-11.37-1.93-9.53-1.78-13.83,4.55-18,11.35a8.47,8.47,0,0,1-4.61,3.42c-19.19,5-30.53,18.07-38.11,35.69a56.73,56.73,0,0,1-25,27.63c-5.48,3.07-10.69,6.6-16.12,10-1.14,9.19,3.12,16.81,6.21,24.69.35.89,1.68,1.57,1.73,2.39.6,10.83,8.6,10,16,10.51,7.94.53,15.83,1.78,23.76,2.12s13.77,5.26,20.39,8.69c-9.15.14-18.3,2.63-27.09-1.67a10,10,0,0,0-5.88-.72c-6.46,1.24-12.84,2.95-19.29,4.31-5.49,1.15-11.13,1.74-16.54,3.18-4.43,1.18-8.65,3.21-12.91,5A4,4,0,0,0,98.51,295c-1,3.1-.67,8.06-2.58,9.09-4.34,2.32-2.51,5.21-3.18,9.4,2.49-1.54,3.9-2.41,5.3-3.29.49.43,1.29.79,1.38,1.28,1,5.2,1.63,10.49,2.87,15.62,1.57,6.49,1.42,11.81-2.49,18.22-5.23,8.56-2.27,18.73,0,28.15.38,1.59,1.81,3,2,4.56,1.53,15.58,12.63,24.2,23.73,32.76,4.33,3.34,9.77,2.29,13.1-2.29,7-9.63,14.27-19.11,20.72-29.11a70.73,70.73,0,0,1,17.3-18.87c8.4-6.29,16.08-13.54,24.33-20.05,1.38-1.1,4-.59,6.1-.82-.18,2,.32,4.54-.68,6a34.64,34.64,0,0,1-7.41,8c-16,12.18-29,27.23-42,42.37a21.81,21.81,0,0,0-4.76,10.54c-1.27,8.85-1.7,17.83-2.31,26.76-.63,9.27-1.34,18.55-1.52,27.83-.2,10.88,7.9,18.11,18.61,15.87,13.6-2.83,27.38-5.44,38.77-14.64,10-8.12,20.77-8.06,32.51-2.6,11.37,5.28,23.17,10.38,36.4,8,9.43,4.36,16.38-1.2,23.75-5.69a35.51,35.51,0,0,1,10-4.1c10.55-2.55,13.18-7.22,14.46-18.59.82-7.29-1.16-11.54-6-16.41-5.34-5.35-9.34-12-14-18.1-1.6-2.1-3.33-4.11-4.89-6.24-1.68-2.3-3.86-4.49-4.72-7.09-4-12.28-7.71-24.68-11.47-37a23.42,23.42,0,0,1-.4-3.69c5.4.1,7.95,2.7,8.95,7.37,3.42,16,11.15,30.21,17.84,44.87,11.91,9.26,17.64,23.05,26,34.92,2.46,3.48,7.26,5.59,11.36,7.56,4.47,2.14,9.44,3.23,14.06,5.12,2.17.88,4,2.54,6.93,4.44-2.24,1-3.25,1.84-3.88,1.61-8.34-3-17.67-2.84-25.25-8.29-2.65-1.9-5.23-1-6.06,2.35-1.1,4.47-4.6,6.08-8.16,8-4.72,2.59-11,3.53-12.06,10.55-.13.9-2,2.24-3,2.19-8-.43-12.66,5.49-17.86,9.75-17.08,14-36.27,19.87-58.25,17.17-6.23-.76-12.63-.17-18.93-.55-8.26-.5-16.48-1.43-24.73-2-5.88-.43-12-1.56-16.82,4.18-1.31-1.87-2.93-3.13-3-4.44-.16-5.54-3.52-7.46-8-10a69.78,69.78,0,0,1-23.24-21.05c-1-1.44-1-3.8-.93-5.71.15-3.83,1.07-7.66,1-11.48-.32-10.18-1-20.35-1.6-31.1-1.23.24-3.15,1.16-4.83.85-3.83-.72-8.67-.9-11.13-3.31-10.61-10.41-21.32-21-26.84-35.23-1.51-3.91-1-8.57-1.82-12.79-1-5.11-2.53-10.1-3.73-15.17-.45-1.89-1.2-4-.78-5.74,2-8.27,4.34-16.46,6.88-25.86l-7.22-6.52c2.61-7.37,2.94-15.18,8.16-22a19.9,19.9,0,0,1,12-7.71c5.74-1.42,11.41-3.12,17.4-4.78-4.16-7.83-8-14.58-11.4-21.58-6.27-13-9-26.82-6.56-41.24A30.33,30.33,0,0,1,109.81,204c7.11-11.12,14.66-22,22.25-32.79,1.66-2.37,4.2-4.12,7.43-7.2l-13-11.2c-.18,2.24-.32,4-.51,6.27-.91-.67-1.91-1-2.19-1.65-6-14-12.07-28.05-17.8-42.2-3.23-8-5.33-16.45-8.93-24.24-4.44-9.62-3.15-19.54-3.17-29.46,0-3.56,2-5.41,5.56-5.72C109.77,55,119.33,51.38,129,47.8c6.71-2.49,14.05-3.3,21.12-4.82,4.5-1,9-2.53,13.54-2.71,16.74-.66,31.85,3.83,42.08,17.86,8.77,12,16.57,24.77,27.83,34.71,5.39,4.75,11.38,8.83,17.09,13.21Zm24-35.55c-1.78.21-4.24-.27-5.21.72-7,7.13-10.29,26.37-6.06,37.91,1.46-8.88,2.48-16.63,4.07-24.25,1.11-5.34,1.71-11.17,7.18-14.43,9.42-8.34,20.3-13.39,27.79-12.3-1.33,1.75-2.13,3.62-3.55,4.51-3.09,1.92-6.54,3.25-9.76,5C285,69.62,280.27,74.4,278,82.24c-2.11,7.35-4.49,14.52-4.34,22.21.1,4.94-.14,9.46-3.91,10.53,1.63,2.35,3.19,4.85,5,7.15s3.77,4.2,5.24,5.81c5.41-1.15,5.42-8.69,12.18-7-1.61,3.09-3.82,5.55-4,8.13s1.67,5.55,3.13,9.78c7.86-1.67,16.36-2.93,24.53-5.32,17.21-5,30.07-17.1,40.12-30.71,11.41-15.44,9.28-34.43,6.32-52.51-.45-2.76-3.48-6.91-5.75-7.22a93.81,93.81,0,0,0-22.34-.46c-17,1.76-33.07,7.1-48.23,14.93C281.55,59.82,276.32,62.21,277.18,68.91ZM253.3,192.77l3,.55q2.14-8.38,4.29-16.77c3.33-13,3.74-27.17,15.84-36.41,1.33-1,1.54-3.49,2.45-5.72-5.78-3.47-6.47-15.21-17.29-9.3,5.36,16.12,5.38,17.8.25,21.62-.49-.4-1.27-.71-1.45-1.22-3.36-9.87-3.75-21.1-13-28.3a1.86,1.86,0,0,1-.2-1.81c3-4-.81-5.14-2.95-6.73-3.45-2.56-7.16-4.77-10.64-7.28-13.46-9.73-22.16-23.53-31.15-37-4.57-6.84-9.1-13.61-18.06-14-9.9-.41-19.85.11-29.77.33-14.24.32-27.2,7-41.23,8.44-1.81.19-3.55,1-5.72,1.71.5,1.86.45,3.75,1.22,4.19,5.22,3,9.8,6.12,11.29,12.63.59,2.58,3.2,3,6.4,2.47,2.82-.5,6.44.7,9,2.27,10.72,6.52,13.11,6.13,19.65-4.59,1-1.69,1.73-3.57,2.64-5.33s2-3.61,3.81-7c1,2.92,2,4.41,1.65,5.07-4.2,7.19-4.08,16.76-12.58,21.27,6.91,7.15,10.31,8.19,19.49,6.44,3,7.56,4.23,8.07,11.55,4.66,1.73,1.43,3.28,3.69,5.24,4.14,9.39,2.17,16.54,8.06,24.33,13.14,5.77,3.77,8.72,8.77,10.8,14.82,2.47,7.17,2.85,7.33,11.75,5.16,2.71,2.23,5.56,4.48,8.31,6.85,4.93,4.26,7.72,9,7.73,16.21C250,173.14,252.09,183,253.3,192.77ZM100.37,65.12c-1,12,1.26,21.92,5,31.58,2.62,6.8,6.37,13.43,7.51,20.48,2.55,15.61,10.76,27.56,21.54,38.29,7.15,7.12,7.22,7.1,16.89,3.19a32.38,32.38,0,0,1,3.86-.91c11.21-2.89,22.48-5.61,33.61-8.78,5-1.43,9.82-3.75,14.53-5.6.18-7.05-6.26-7.62-9.68-10.58C185.78,126,177,120.3,168.7,114.06c-11.35-8.52-23.21-9.84-36.16-3.61-4,1.94-8.87,2.29-13.34,3.36l-.63-2.11c6.22-6,15.59-6,23.26-11.49-7.32-5.37-14.55-10.46-21.54-15.88-6.1-4.73-13.83-8.21-14.62-17.55C105.62,66.23,102.94,65.89,100.37,65.12ZM277.59,474.84c-1-.26-1.92-.84-2.76-.71-13,2.09-25.43-1.15-36.74-6.41-16.57-7.7-25.72-2.73-41.79,11.4l2.56,2.38c-8-.53-15.53-3.63-22.09,3.16,19.53,6.88,38.42,3.76,59.34,3.17l-5.44-3.06a22.68,22.68,0,0,1,11.93,1.48C255,491.84,269.62,487.29,277.59,474.84Zm-164-259.39c7.75,4.19,7.76,4.2,12.68,1.13,2.53-1.58,4.95-3.36,7.58-4.75,7.77-4.12,12.67-9.93,14.28-19,1.59-8.93,5.73-16.74,13.65-22.24,3.68-2.56,6.55-6.29,9.79-9.49a67.39,67.39,0,0,0-20.71,4.07c-3.92,1.45-8.06,3.79-10.72,6.92C129.19,185,121.29,199.77,113.57,215.45ZM217.79,138c-9.89-15.33-25-25.22-41.25-25.86,5.42,3.43,9.3,5.43,12.66,8.1,6.92,5.47,13.63,11.2,20.25,17C212,139.47,214.2,140.67,217.79,138Zm169,42.07c-13.14,4-20.59,12.24-26.91,25.3,5.17-3.22,8.21-6.55,11.62-7C382.14,197.05,384.16,189.37,386.77,180.07Zm-89-36.63c-15.42,0-19.58,4.1-22.84,23.43C282.17,157,295,156.33,297.81,143.44Zm-53.76,16.31,1.69-1.73c-2.11-6.26-6.11-10.47-15.15-12.47ZM94.36,334.65l2.37.68q1-3.82,2.11-7.65l-2.16-.58C95.91,329.62,95.13,332.13,94.36,334.65Z"/><path class="cls-1" d="M268.34,249c9.79,3.2,20.65,4.69,26,14.17l-13.68,3.08-.07,2.05a11.53,11.53,0,0,1,2.87,1.86c3.19,3.79,2.14,7-2.63,7.25-2.76.12-5.33-.73-6.45,3.67,12.54,4.24,24.91-7.23,37.65.33,1.33-3.13,1.89-5.8,3.46-7.58.82-.93,3.41-.3,5.21-.38,0,1.49.57,3.45-.15,4.38-2.41,3.09-5.29,5.81-7.95,8.64l-3.05-4.6c-2.27,6.38-3.85,10.8-5.64,15.84l-5.89-1.81,7.5-13.2c-9.51.09-16.54.58-24.89,4.63l10.69,4.06-.29,1.41-8.13-.81c-.29,1.06-.87,2-.71,2.87a20.67,20.67,0,0,0,1.51,3.68c3.28,8.17,2.76,9.82-5.85,11.63-6.74,1.42-10.47,5.12-13.05,11.85-.59-2.59-1.17-5.18-1.75-7.79-7.7-2.17-10.58,3.93-15.29,7.94,3.76,3.73,7.16,7.18,10.67,10.51.66.62,2.25,1.33,2.59,1,3.31-2.84,7-1,10.46-1,4,.07,7.94.65,11.92.72a29.77,29.77,0,0,0,5.42-.85c.56-6.26-.2-12.63,2-17.74,1.9-4.49,7.11-7.56,11.08-11.47L313.45,309c-4,3.92.93,6.06,1.51,9.14.6,3.24-1.15,6.93-1.54,8.83-4.2,3.41-7.79,5.56-10.34,8.58-2.9,3.42-6,4.5-10.35,4.42-8.68-.17-17.45-.4-26,.62-3.47.41-6.72,3.82-9.76,6.24-1.65,1.32-2.66,3.44-4.18,5.49-4-8.09-4-8.09-15.4-10.44-.43,1.42-.92,2.88-1.31,4.37-.33,1.26-.55,2.56-.89,4.16a17.39,17.39,0,0,1-16.35-6.28c-1.23-7.78-2.44-15.39-3.77-23.79l-19.8-4.48c1.67-5,3.19-9.23,4.51-13.56.67-2.21,2-4.88,1.31-6.75-3.22-9.24,2.9-14.8,7.43-21.15a80.43,80.43,0,0,0,7.24-11.85c6.38-13.42,11.42-14.73,24.95-9.58C249.86,256.45,259.83,255.86,268.34,249Zm-42.78,62.2c-5.35,6.87-7.75,12.37-3.48,17.94,3.88,5.06,8.59,2.83,12.77-.35,3.13,9.69,13.3,4.75,17.6,10.61,1.05-1.06,1.92-1.56,1.87-2-.85-7.51-10.95-6.75-12.34-14.3l5.06-6.49-5.42-7c-4.48,1.4-8.31,6.29-14,1.61,6.82-1.8,13.08-3,19-5.15,5.39-2,5.64-6.35.71-9.28-9.78-5.83-20.65-9.32-31-13.93-1.57-.69-3.71-.09-6.88-.09.35,6.37.66,12,1,18a6.07,6.07,0,0,0-2.18-.81,32,32,0,0,0-4.76.35V311.2Zm17.51-47.8c1.66,5.34,2.88,9,3.92,12.76,1.1,3.89,2.63,6.84,7.6,5.65a19.17,19.17,0,0,1,6-.18c4.65.42,7.63-1.59,9.28-5.85.83-2.15,1.57-4.36,2.6-6.42,1.78-3.56,3-7.25-1.36-9.49-3.68-1.9-7.78-4.15-11.5.76-1.2,1.58-4.16,3.4-5.62,2.93-5-1.59-10.73-3.11-14.21-6.61-4-4-7.16-3.15-11.22-2.17-.18,3.78-.32,6.93-.47,10.23l7.8,4.51Zm61.1,48.53c-12.07,4.27-14.51,11.06-7,20.33l12.38-11.49Zm-78.08-42.62c-2.54,3-4.35,5.14-6.42,7.57,8.38,1.76,13,.24,13.66-4.48ZM258,302.13c3.05-2,7.81-1.59,7.57-7.29C256.27,295.79,256.27,295.79,258,302.13Zm-14.21-16.56c.1-6.42-1.61-8.31-5.3-7.56-.91.18-1.56,1.67-2.33,2.56Z"/><path class="cls-1" d="M415.86,212.27l6.37,4.12c.92-2.16,1.71-4,2.47-5.8,8.19,5.52,12.72,12.91,13.26,23,.28,5.21,3.2,6.27,8.56,4.62,9.41-2.88,14.62-10.65,18.59-18.42,2.55-5,8.83-9.79,5.12-17-.1-.19.1-.66.3-.87,9.5-10.59,8.91-25.16,14.75-37.32,4,1.5,3.1,4.85,2.34,7.52-6.26,22-13.56,43.68-27.45,62.3a25.12,25.12,0,0,1-9.92,7.51c-6.14,2.66-10.31,5.68-11.77,13.06-2.35,11.87-11,20.21-19.18,28.51-.67.69-1.29,1.43-2.59,2.86,2,1.31,3.61,2.83,5.52,3.5a61.7,61.7,0,0,0,12.38,3.48c13.55,1.76,20,11.25,25.68,22.15,13.49,26,17.71,53.93,15.56,82.73-1,13.28-7,24.35-20,30.86-6,3-10.3,10.09-16.45,12.23s-12.5,3.32-18.24,7c-10,6.45-20.42,12.27-30.72,18.26a15.54,15.54,0,0,1-3.66,1.29l-13.21-7c.38-3.21,2.79-3.21,5.56-3.48,6.56-.66,13.2-1.24,19.56-2.84a31.48,31.48,0,0,0,12.33-6c7-5.85,14.77-9.91,22.9-13.77,5.91-2.81,11.35-6.75,16.63-10.69,3.58-2.67,6.05-6,11.27-7s8.25-6.59,8.59-12.21c1-16.73,3.52-33.47-.9-50.15-4-15.05-7.4-30.28-15.09-44-1.91-3.42-3.87-6.67-8.85-6.82-2.66-.08-5.45-2-7.84-3.6-3-2-5.82-2.77-9.32-1.29-10.33,4.38-20.81,8.43-31.09,12.91-4.14,1.8-7.92,4.41-12.43,7V308.56c3.15,2.2,5.45,0,8.1-1.32,5-2.5,10.09-4.75,15.24-6.86,4.77-2,9.66-3.62,16.49-6.15-4-1.19-6.32-2.73-8.05-2.24a83.91,83.91,0,0,0-16.38,6.18c-5.45,2.9-10.29,6.92-15.4,10.45l-22.25,15.7c-.7-2.87-1.11-4.57-1.69-6.91-10.18,2.44-20.38,4.83-30.56,7.35-5.18,1.28-5.15,1.39-7.56-6.09,4.07-.26,8,.05,11.62-.84,13.81-3.37,27.67-6.64,41.2-10.92,7.68-2.43,13.71-8.76,16.8-15.74,5.47-12.34,9.44-25.39,13.31-38.36,3.12-10.49,5.64-21.09,12.57-28.76l-2.18-12Zm-13.33,75.28c2.3-1.33,4.3-1.94,5.51-3.26,7.07-7.81,13.85-15.89,21-23.65,4-4.42,4.61-8.25-1.35-11.73l7.28-8.74-6.63-13.68C413.43,245.27,407.44,265.68,402.53,287.55Z"/><path class="cls-1" d="M116.12,346.05c.76-1,1.33-2.33,2.32-3,11-7.36,22-14.78,33.16-21.83a32.51,32.51,0,0,1,18.31-5.54c-16,10.87-30.58,20.78-45.16,30.71C121.94,348.32,119.17,350.39,116.12,346.05Z"/><path class="cls-1" d="M219.7,370.79a30.31,30.31,0,0,0-11.85,21.11c-1,8.2-2.6,16.33-4.1,24.46-.67,3.63-1.92,7-7.41,7.25,0-1.83-.59-3.71.09-4.82,5.61-9.14,5.22-19.76,7.71-29.65a73.41,73.41,0,0,1,5.76-14.6C211.62,371.1,214.64,368.94,219.7,370.79Z"/><path class="cls-1" d="M456.09,181.46c-7.61,16.1-22.52,19.7-36.55,26.5-.46-4.26-.8-7.51-1.18-11,8.11,4.09,14.09-1.54,20.74-3.4S447.16,182.28,456.09,181.46Z"/><path class="cls-1" d="M111.62,309.27c9.49-3.54,17.84-7.25,26.54-9.69,5.88-1.65,12.26-1.51,18.56-1.35-12.92,1.67-25.09,4.86-35.3,13.46C118.13,314.46,114.91,314.47,111.62,309.27Z"/><path class="cls-1" d="M240.13,414.4c.29-7.9,1.69-13,7-16.43C245,403,246.31,409.31,240.13,414.4Z"/><path class="cls-1" d="M448.84,198.57l13.52,1.36,0,1.56H448.84Z"/><path class="cls-1" d="M437.51,209.57l10.16,4.32-1,2.42-10.56-4.17Z"/><path class="cls-1" d="M232.73,428.38l5.21-8.62C238.1,425.36,238.1,425.36,232.73,428.38Z"/><path class="cls-1" d="M188.59,225.21,180.93,218l1.45-1.55,7.9,6.74Z"/><path class="cls-1" d="M211.38,188l5.88,4-1,1.47-5.95-3.94Z"/><path class="cls-1" d="M416.12,212l-5.18-6.49c7.67,0,3.51,4.78,4.92,6.74Z"/><path class="cls-1" d="M233.93,109c-.72,3.28-1.44,6.57-2.15,9.85-3.06-3.86-2.68-7.11-.39-10.07Z"/><path class="cls-1" d="M196,94.69a50.52,50.52,0,0,1-.59,5.5c-.16.73-1,1.31-3.25,1.56l1-7.63Z"/><path class="cls-1" d="M165.76,118.44c.52,7.49-4,11.54-10.06,13.86-5.15,2-9.77,8.9-15.71,3.74Z"/><path class="cls-1" d="M189.16,137.27l-12.07,11.16C177,140.07,179.94,137,189.16,137.27Z"/></svg>